<?xml version="1.0" encoding="utf-8"?>
<!-- Generator: Adobe Illustrator 25.4.1, SVG Export Plug-In . SVG Version: 6.00 Build 0)  -->
<svg version="1.1" id="b728d894-d132-470b-ab38-afdf251d77b2"
	 xmlns="http://www.w3.org/2000/svg" xmlns:xlink="http://www.w3.org/1999/xlink" x="0px" y="0px" viewBox="0 0 300 300"
	 style="enable-background:new 0 0 300 300;" xml:space="preserve">
<style type="text/css">
	.st0{fill:#A1A1AA;}
</style>
<path class="st0" d="M0,300h300V0H0V300z M191.6,69.6c21.5,0,38.9,17.4,38.9,38.8s-17.4,38.9-38.8,38.9s-38.9-17.4-38.9-38.8
	c0,0,0,0,0,0C152.7,87,170.1,69.6,191.6,69.6z M191.6,152.7c21.5,0,38.9,17.4,38.9,38.8s-17.4,38.9-38.8,38.9s-38.9-17.4-38.9-38.8
	c0,0,0,0,0,0C152.7,170.1,170.1,152.7,191.6,152.7z M108.4,69.6c21.5,0,38.9,17.4,38.9,38.8s-17.4,38.9-38.8,38.9
	s-38.9-17.4-38.9-38.8c0,0,0,0,0,0C69.6,87,87,69.6,108.4,69.6z M108.4,152.7c21.5,0,38.9,17.4,38.9,38.8s-17.4,38.9-38.8,38.9
	S69.6,213,69.6,191.6c0,0,0,0,0,0C69.6,170.1,87,152.7,108.4,152.7z"/>
</svg>
