<?xml version="1.0" encoding="utf-8"?>
<!-- Generator: Adobe Illustrator 25.4.1, SVG Export Plug-In . SVG Version: 6.00 Build 0)  -->
<svg version="1.1" id="bcc4d2b6-3dba-4d11-8dc7-782f709a2c78"
	 xmlns="http://www.w3.org/2000/svg" xmlns:xlink="http://www.w3.org/1999/xlink" x="0px" y="0px" viewBox="0 0 300 300"
	 style="enable-background:new 0 0 300 300;" xml:space="preserve">
<style type="text/css">
	.st0{fill:#A1A1AA;}
</style>
<path class="st0" d="M145.9,177.8c4.9,0,8.5-4.1,8.5-10.5s-3.6-10.4-8.5-10.4s-8.5,4.1-8.5,10.5S141,177.8,145.9,177.8z"/>
<path class="st0" d="M152.6,127c0-2.4-1.6-4.3-5-4.3h-5.2v8.8h4.9C150.9,131.5,152.6,129.7,152.6,127z"/>
<path class="st0" d="M126.7,142.2c1.4-0.7,2.2-2.1,2.1-3.6c0-1.4-0.8-2.8-2.2-3.3c-1.1-0.4-2.2-0.6-3.3-0.5H117v8h6
	C124.3,142.8,125.5,142.7,126.7,142.2z"/>
<path class="st0" d="M125.3,129.6c1.7-1.1,2.3-3.4,1.1-5.2c-0.3-0.5-0.8-1-1.4-1.3c-0.9-0.4-1.8-0.5-2.7-0.5H117v7.6h5
	C123.1,130.4,124.3,130.1,125.3,129.6z"/>
<path class="st0" d="M0,300h300V0H0V300z M249.3,181.8h-5v-29.1h5V181.8z M270.3,181.8h-16.4v-29.1h5v24.6h11.4L270.3,181.8z
	 M234.8,118.2h5v11.9h14.1v-11.9h5v29.1h-5v-12.6h-14.2v12.6h-5L234.8,118.2z M232.3,152.4c2.8,0,5.6,0.6,8.1,1.7l-1.5,4.2
	c-1.9-1-4-1.4-6.1-1.4c-5.5,0-9,4.7-9,10.4s3.2,10.4,9,10.4c2.1,0,4.2-0.5,6.1-1.5l1.5,4.2c-2.5,1.2-5.3,1.8-8.1,1.7
	c-8.7,0-13.7-6.1-13.7-14.9C218.6,159.2,223.6,152.4,232.3,152.4L232.3,152.4z M210.1,126.1c0-5.3,4.2-8.2,10.4-8.2
	c2.8,0,5.5,0.5,8.1,1.6l-0.1,4.8c-2.5-1.3-5.3-2-8.1-2c-2.7,0-5.1,0.8-5.1,3.1c0,6,15,3.6,15,13.4c0,5.4-4.6,8.9-11.3,8.9
	c-3.5,0.1-6.9-0.8-9.9-2.6l2.1-4.1c2.4,1.5,5.1,2.3,7.9,2.3c3,0,5.8-1.1,5.8-3.8C224.9,133.3,210.1,136.1,210.1,126.1L210.1,126.1z
	 M199.4,118.1h5v29.1h-5V118.1z M209.9,172.5L209.9,172.5c0-1-0.1-2.5-0.1-3.9v-15.9h5v29.1h-4.4L196,160.6h-0.1
	c0.1,1,0.1,2.5,0.1,3.9v17.3h-5v-29.1h5.4L209.9,172.5z M171.9,118.1h23.6v4.6h-9.3v24.6h-5v-24.5h-9.3L171.9,118.1z M163.1,118.1h5
	v29.1h-5V118.1z M163.1,152.6h5V171c0,4.9,2.6,6.7,6.8,6.7s6.8-1.8,6.8-6.7v-18.3h5v18.2c0,7.9-4.5,11.4-11.8,11.4
	s-11.7-3.5-11.7-11.4L163.1,152.6z M137.4,118.2h9.9c7.5,0,10.4,4,10.4,8.4c0.1,3.4-2.1,6.5-5.4,7.5l0,0c1.3,0.8,2.7,3.5,7.6,13.2
	h-5.7c-4.2-8.7-5.3-11.3-7.1-11.3h-4.6v11.3h-5L137.4,118.2z M145.9,152.4c8.3,0,13.8,6.1,13.8,14.8s-5.6,15-13.8,15
	s-13.8-6.1-13.8-14.8S137.7,152.4,145.9,152.4z M112,118.2h10.7c1.7-0.1,3.4,0.2,5,0.9c2.6,1.2,4.3,3.7,4.3,6.6
	c0.1,2.5-1.2,4.9-3.5,6.1v0.1c3.2,0.5,5.5,3.4,5.4,6.6c0,3.9-2.4,6.9-6.4,8.2c-1.8,0.5-3.7,0.7-5.6,0.6H112V118.2z M123,152.4
	L123,152.4c2.8,0,5.6,0.6,8.1,1.7l-1.5,4.2c-1.9-0.9-3.9-1.4-6-1.4c-5.5,0-9,4.7-9,10.4s3.2,10.4,9,10.4c2.1,0,4.1-0.5,6-1.5
	l1.5,4.2c-2.5,1.2-5.3,1.8-8.1,1.7c-8.7,0-13.7-6.1-13.7-14.9C109.3,159.2,114.3,152.4,123,152.4L123,152.4z M82,115.5
	c9.2,0,16.7,7.5,16.7,16.7s-7.5,16.7-16.7,16.7s-16.7-7.5-16.7-16.7l0,0C65.3,123,72.8,115.5,82,115.5C82,115.5,82,115.5,82,115.5z
	 M82,151.2c9.2,0,16.7,7.5,16.7,16.7c0,9.2-7.5,16.7-16.7,16.7c-9.2,0-16.7-7.5-16.7-16.7c0,0,0,0,0,0
	C65.3,158.6,72.8,151.2,82,151.2C82,151.2,82,151.2,82,151.2z M46.4,115.5c9.2,0,16.7,7.4,16.7,16.7c0,9.2-7.4,16.7-16.6,16.7
	s-16.7-7.4-16.7-16.7c0,0,0,0,0,0C29.7,123,37.2,115.5,46.4,115.5z M46.4,151.2c9.2,0,16.7,7.4,16.7,16.6c0,9.2-7.4,16.7-16.6,16.7
	s-16.7-7.4-16.7-16.6c0,0,0,0,0,0C29.7,158.6,37.2,151.2,46.4,151.2z"/>
</svg>
