<svg id="bcc4d2b6-3dba-4d11-8dc7-782f709a2c78" data-name="PRINT" xmlns="http://www.w3.org/2000/svg" viewBox="0 0 300 300"><path d="M145.89,177.79c4.91,0,8.53-4.06,8.53-10.47s-3.62-10.43-8.53-10.43-8.53,4.07-8.53,10.47S141,177.79,145.89,177.79Z"/><path d="M152.55,127c0-2.39-1.55-4.33-5-4.33h-5.17v8.84h4.95C150.87,131.54,152.55,129.68,152.55,127Z"/><path d="M126.69,142.19a3.76,3.76,0,0,0,2.13-3.63,3.54,3.54,0,0,0-2.17-3.32,8.17,8.17,0,0,0-3.32-.48H117v8h6A8.52,8.52,0,0,0,126.69,142.19Z"/><path d="M125.32,129.63a3.75,3.75,0,0,0-.22-6.45,6.2,6.2,0,0,0-2.74-.48H117v7.6h5A6.42,6.42,0,0,0,125.32,129.63Z"/><path d="M0,300H300V0H0ZM249.3,181.82h-5V152.69h5Zm21,0H253.87V152.69h5v24.62h11.4Zm-35.53-63.63h5v11.93h14.15V118.19h5v29.12h-5V134.76H239.72v12.55h-5Zm-2.42,34.24a18.86,18.86,0,0,1,8.09,1.72l-1.5,4.24a13.42,13.42,0,0,0-6.06-1.45c-5.53,0-9,4.68-9,10.38s3.22,10.43,9,10.43a13.28,13.28,0,0,0,6.06-1.46l1.5,4.25a18.86,18.86,0,0,1-8.09,1.72c-8.71,0-13.7-6.1-13.7-14.85,0-8.17,5-15,13.7-15Zm-22.23-26.29c0-5.3,4.23-8.22,10.38-8.22a19.92,19.92,0,0,1,8.08,1.64l-.08,4.77a18,18,0,0,0-8.13-2c-2.74,0-5.09.84-5.09,3.14,0,6,15,3.58,15,13.43,0,5.44-4.6,8.88-11.28,8.88a18.38,18.38,0,0,1-9.85-2.6l2.08-4.07a15.27,15.27,0,0,0,7.95,2.3c3,0,5.79-1.15,5.79-3.8C224.92,133.34,210.08,136.08,210.08,126.14Zm-10.74-8h5v29.12h-5Zm10.57,54.35H210c-.09-1-.13-2.52-.13-3.9V152.7h5v29.11h-4.41L196,160.61h-.09c.09,1,.14,2.51.14,3.89v17.31h-5V152.7h5.4Zm-38-54.35h23.64v4.56h-9.33v24.56h-5V122.75h-9.32Zm-8.8,0h5v29.12h-5Zm0,34.5h5V171c0,4.86,2.61,6.68,6.76,6.68s6.76-1.82,6.76-6.68V152.69h5v18.16c0,7.92-4.51,11.41-11.84,11.41s-11.67-3.49-11.67-11.41ZM137.35,118.2h9.85c7.51,0,10.39,4,10.39,8.39a7.43,7.43,0,0,1-5.39,7.46v0c1.32.75,2.73,3.49,7.59,13.21h-5.7C149.85,138.52,148.75,136,147,136h-4.64v11.27h-5Zm8.54,34.23c8.31,0,13.79,6.06,13.79,14.8s-5.57,15-13.79,15-13.79-6.06-13.79-14.8S137.67,152.43,145.89,152.43ZM112,118.19h10.69a11.41,11.41,0,0,1,5,.93A7.27,7.27,0,0,1,132,125.7a6.58,6.58,0,0,1-3.49,6.1v.09a6.4,6.4,0,0,1,5.39,6.63c0,3.93-2.39,6.93-6.45,8.17a18.65,18.65,0,0,1-5.57.62H112Zm11,34.24h0a18.86,18.86,0,0,1,8.09,1.72l-1.51,4.24a13.34,13.34,0,0,0-6-1.45c-5.53,0-9,4.68-9,10.38s3.22,10.43,9,10.43a13.2,13.2,0,0,0,6-1.46l1.51,4.25a18.86,18.86,0,0,1-8.09,1.72c-8.71,0-13.7-6.1-13.7-14.85C109.35,159.24,114.34,152.43,123.05,152.43ZM82,115.52a16.66,16.66,0,1,1-16.66,16.66A16.65,16.65,0,0,1,82,115.52Zm0,35.65a16.66,16.66,0,1,1-16.66,16.65A16.64,16.64,0,0,1,82,151.17ZM46.39,115.52a16.66,16.66,0,1,1-16.65,16.66A16.66,16.66,0,0,1,46.39,115.52Zm0,35.65a16.66,16.66,0,1,1-16.65,16.65A16.65,16.65,0,0,1,46.39,151.17Z"/></svg>