<?xml version="1.0" encoding="utf-8"?>
<!-- Generator: Adobe Illustrator 25.4.1, SVG Export Plug-In . SVG Version: 6.00 Build 0)  -->
<svg version="1.1" id="e9d6f7f3-daa5-4085-99aa-560114c4a4d4"
	 xmlns="http://www.w3.org/2000/svg" xmlns:xlink="http://www.w3.org/1999/xlink" x="0px" y="0px" viewBox="0 0 300 300"
	 style="enable-background:new 0 0 300 300;" xml:space="preserve">
<style type="text/css">
	.st0{fill:#A1A1AA;}
</style>
<path class="st0" d="M0,300h300V0H0V300z M90.6,235.6c-2,0.4-4.1-0.7-4.7-2.7c-1.1-2.5-2.2-5.1-3.2-7.7l-3.4-8.2l-0.1-0.2
	c-0.2-0.6-0.6-0.8-1.3-0.8c-10,0-19.9,0-29.8,0c-0.8,0-0.8,0-1.2,0.8c-1,2.3-2,4.5-3,6.8c-1.2,2.8-2.4,5.6-3.7,8.4
	c-0.3,0.8-0.7,1.5-1.2,2.2c-1.2,1.5-3.4,1.8-5,0.8c-0.5-0.3-1-0.8-1.3-1.3c-0.5-0.6-0.7-1.4-0.6-2.2c0-1,0.3-1.9,0.8-2.8
	c1-2.4,2.1-4.7,3.1-7c0.7-1.5,1.3-3.1,2-4.6l2.8-6.3c0.8-1.8,1.6-3.6,2.4-5.5c1-2.3,2-4.6,3-7s2-4.4,3-6.7l4.3-9.9
	c0.5-1.1,1-2.2,1.5-3.4l3.6-8.3c0.2-0.4,0.4-0.8,0.6-1.2c0.1-0.3,0.4-0.4,0.6-0.4c2.4,0,4.8,0,7.1,0c0.4-0.1,0.8,0.2,0.9,0.6
	c0.4,0.9,0.8,1.8,1.2,2.7c0.6,1.4,1.2,2.8,1.8,4.2c1,2.2,1.9,4.5,2.8,6.7c0.8,1.9,1.7,3.8,2.5,5.7c0.7,1.7,1.4,3.4,2.2,5.1l2.1,4.9
	l2.7,6.3l2.3,5.4l3.2,7.5c1,2.2,1.9,4.4,2.8,6.6c0.7,1.7,1.5,3.4,2.2,5.1c0.3,0.7,0.4,1.4,0.5,2.1C94,233.6,92.5,235.2,90.6,235.6z
	 M155.1,232.4c-0.5,2.3-2.8,3.7-5.1,3.2c-0.2,0-0.4-0.1-0.5-0.2c-0.8-0.3-1.4-0.9-1.9-1.6c-2.3-3.3-4.6-6.6-6.8-9.9
	c-1.7-2.4-3.3-4.8-5-7.1l-5.7-8.2l-1.3-1.9c-0.2-0.3-0.5-0.4-0.8-0.4c-4.4,0-8.9,0-13.3,0c-0.2,0-0.4,0-0.6,0.1v24.5
	c0.1,0.8,0,1.7-0.4,2.4c-0.7,1.5-2.2,2.5-3.8,2.5c-2.2,0.1-4.1-1.7-4.2-3.9c0-0.1,0-0.2,0-0.2c0-2.3,0-4.5,0-6.8
	c0-9.1,0-18.2,0-27.4c0-7.9,0-15.8,0-23.7c0-1.5,0-2.9,0-4.4c0-0.6,0.1-0.6,0.7-0.6c7.3,0,14.7,0,22,0c1.6,0,3.2,0.1,4.8,0.2
	c1,0,1.9,0.2,2.9,0.3c1.8,0.3,3.5,0.8,5.3,1.3c2.7,0.8,5.2,2.3,7.2,4.3c2,2,3.4,4.6,4,7.4c0.5,2.1,0.7,4.2,0.5,6.4
	c-0.2,3-1.1,6-2.6,8.6c-1.4,2.4-3.4,4.4-5.8,5.8c-1.9,1.1-3.9,1.9-6,2.5c-0.3,0.1-0.6,0.1-1,0.2c0.4,0.6,0.7,1.1,1,1.5l3,4.2
	c1.7,2.4,3.4,4.8,5.1,7.2l4.9,6.9c0.9,1.2,1.8,2.5,2.6,3.7C155.2,230,155.4,231.2,155.1,232.4L155.1,232.4z M209.8,176.6
	c-0.3,0.1-0.6,0.1-0.9,0.1c-3.5,0-7,0-10.5,0h-6.2c0,0.2-0.1,0.5-0.1,0.7v54.1c0,2.4-2,4.3-4.4,4.3c-0.5,0-1-0.1-1.5-0.3
	c-1.5-0.7-2.5-2.1-2.6-3.8c0-6.2,0-12.4,0-18.5c0-6,0-11.9,0-17.9v-18.6h-0.9c-5.1,0-10.3-0.1-15.4,0.1c-2,0-3.8-1.4-4.2-3.4
	c-0.2-1.3,0.3-2.6,1.2-3.5c0.8-0.7,1.9-1.1,3-1.1h41.4c1.4,0,2.7,0.8,3.3,2.1C213.4,173.2,212.1,175.6,209.8,176.6L209.8,176.6z
	 M268,219.7c-0.7,3.2-2.4,6.1-4.7,8.4c-1.3,1.3-2.8,2.5-4.4,3.4c-1.7,1-3.4,1.8-5.3,2.4c-1.5,0.5-3,0.9-4.6,1.1
	c-1.8,0.3-3.7,0.4-5.5,0.5c-1.3-0.1-2.5,0-3.7-0.2c-1.1-0.1-2.1-0.3-3.1-0.6c-1.1-0.2-2.1-0.4-3.2-0.7c-1.6-0.4-3.1-1-4.6-1.6
	c-1.5-0.6-3-1.4-4.4-2.3c-1.2-0.8-2.3-1.7-3.2-2.8c-1.3-1.6-1.1-4,0.5-5.4c0.7-0.7,1.5-1.1,2.5-1.2c1-0.1,2,0.1,2.8,0.8
	c0.9,0.6,1.6,1.3,2.5,1.9c1.6,1.1,3.3,2,5.1,2.6c1.2,0.4,2.4,0.7,3.6,1.1c0.5,0.1,0.9,0.2,1.4,0.2c0.5,0.1,1.1,0.2,1.6,0.3
	c1.4,0.1,2.8,0.1,4.2,0c2.2-0.2,4.4-0.7,6.5-1.5c1.4-0.5,2.7-1.3,3.9-2.2c2.4-1.6,3.8-4.4,3.7-7.2c0-2.9-1.5-5.6-3.9-7.1
	c-2-1.3-4.1-2.2-6.4-2.9c-1.2-0.3-2.4-0.8-3.7-1.1c-1.4-0.4-2.9-0.6-4.4-1s-2.9-0.7-4.3-1.1c-1.7-0.5-3.4-1-5.1-1.6
	c-2.5-0.9-4.8-2.3-6.7-4.1c-1.8-1.7-3-4-3.6-6.4c-0.5-2.3-0.6-4.6-0.3-6.9c0.1-0.7,0.3-1.5,0.5-2.2c1-3.2,2.9-6.1,5.4-8.4
	c2.1-1.9,4.6-3.3,7.2-4.4c2.7-1,5.6-1.6,8.5-1.8c1.4,0,2.9,0,4.3,0.1c0.9,0,1.7,0.2,2.6,0.3c2.8,0.4,5.6,1.2,8.1,2.5
	c1.4,0.7,2.8,1.5,4.1,2.3c0.5,0.4,1,0.8,1.4,1.3c1.3,1.5,1.1,3.9-0.4,5.2c-0.1,0.1-0.2,0.2-0.4,0.3c-1.2,1-2.9,1.1-4.3,0.3
	c-1-0.6-1.9-1.2-2.9-1.8c-1.4-0.9-2.9-1.5-4.5-1.8c-0.8-0.2-1.6-0.4-2.5-0.6c-1-0.1-2-0.2-3-0.2c-1.4,0-2.8,0-4.2,0.1
	c-0.8,0.1-1.5,0.3-2.2,0.5c-0.7,0.2-1.5,0.4-2.2,0.7c-2.3,0.8-4.2,2.3-5.6,4.4c-0.6,0.9-1,1.9-1.2,2.9c-0.2,0.7-0.3,1.5-0.3,2.3
	c0,2.1,0.8,4,2.2,5.5c1,0.9,2.2,1.7,3.4,2.2c1.1,0.4,2.2,0.9,3.4,1.2c1.8,0.5,3.7,1.1,5.6,1.4c2.3,0.4,4.5,1,6.8,1.5
	c1.6,0.4,3.2,1.1,4.8,1.6c2.4,0.9,4.6,2.1,6.6,3.7c2,1.5,3.6,3.6,4.6,5.9C268.4,212.9,268.7,216.4,268,219.7z M209.7,64.6
	c1.8,0.6,3,2.3,3.1,4.2c0,12.4,0,24.8,0,37.2c0,5.7,0,11.4,0,17.1c0,0.1,0,0.2,0.1,0.4h1.6c9.3,0,18.6,0,27.8,0c2.2,0,4,1.8,4,4
	c0,1.2-0.6,2.4-1.5,3.1c-0.8,0.6-1.8,0.9-2.8,0.9h-37.6c0-0.4-0.1-0.7-0.1-1c0-4,0-7.9,0-11.9V84.3c0-5.2,0.1-10.5,0-15.7
	c0.1-2.4,2.1-4.3,4.5-4.2C209.1,64.4,209.4,64.5,209.7,64.6z M133.2,109c0.2-2,0.8-3.9,1.7-5.7c1-1.9,2.4-3.6,4-5
	c1.5-1.3,3.2-2.4,5.1-3.2c1-0.4,2-0.8,3-1.1c3.3-1,6.7-1.5,10.1-1.5c1.3,0,2.5,0,3.8,0c0.8,0,1.5-0.1,2.3-0.2
	c1.4-0.1,2.9-0.1,4.3-0.2s2.9-0.2,4.4-0.4s2.6-0.5,3.9-0.8h0.2c1.2-0.3,1.3-0.5,1.3-1.7s0-2.2,0-3.3c0.1-2.3-0.5-4.6-1.6-6.7
	c-0.7-1.3-1.7-2.5-2.9-3.5c-1.5-1.2-3.2-2.1-5.1-2.7c-1.4-0.5-2.9-0.8-4.4-0.8c-0.5,0-1-0.1-1.5-0.1c-0.9,0-1.8,0-2.7,0
	c-0.6,0-1.1,0.1-1.7,0.1c-2,0.1-3.9,0.6-5.8,1.2c-2.1,0.7-4,1.7-5.9,2.9c-0.9,0.6-1.8,1.1-2.7,1.5c-1.3,0.6-2.8,0.4-3.9-0.6
	c-0.7-0.5-1.2-1.2-1.4-2c-0.6-1.7,0-3.6,1.5-4.6c1.9-1.4,3.9-2.5,6-3.5c1.4-0.6,2.8-1.2,4.2-1.6c0.8-0.2,1.7-0.4,2.5-0.6
	c0.9-0.2,1.8-0.4,2.7-0.5c2.7-0.4,5.4-0.5,8.1-0.3c1.5,0.1,3,0.2,4.5,0.5c1.3,0.2,2.5,0.5,3.8,0.9c1,0.3,2,0.7,2.9,1.1
	c2.5,1,4.8,2.6,6.7,4.5c1.4,1.5,2.5,3.1,3.3,5c0.8,1.8,1.3,3.7,1.5,5.6c0.2,2.7,0.3,5.4,0.2,8.1c0,9.5,0,19,0,28.6c0,1,0.1,2,0.4,3
	c0.3,0.8,0.7,1.6,1.4,2.2c0.5,0.5,1,1.1,1.4,1.6c1.5,1.9,1.2,4.6-0.7,6.1c-0.4,0.3-0.8,0.6-1.3,0.7c-1.9,0.6-3.4-0.2-4.8-1.3
	c-1.2-1.1-2.2-2.5-2.7-4c-0.2-0.6-0.5-1.3-0.7-2l-1.2,1.1c-1.6,1.4-3.5,2.5-5.4,3.3c-1.5,0.7-3.1,1.2-4.7,1.7
	c-1.4,0.4-2.8,0.7-4.2,0.9c-2.7,0.5-5.4,0.6-8.1,0.5c-1.2-0.1-2.4-0.3-3.6-0.5c-1.2-0.2-2.3-0.5-3.5-0.8c-0.8-0.2-1.5-0.5-2.2-0.9
	c-1.6-0.6-3-1.5-4.4-2.5c-1.2-0.9-2.3-1.9-3.3-2.9c-2-2.1-3.4-4.7-4.2-7.5C133.1,114.6,132.9,111.8,133.2,109z M65.9,90.8
	c0.6-2.8,1.7-5.5,3-8.1c1.8-3.4,4.1-6.5,6.9-9.1c1.6-1.5,3.3-2.8,5.1-4c1.4-0.9,2.9-1.5,4.4-2.3c1.4-0.7,2.9-1.2,4.4-1.7
	c0.5-0.1,0.9-0.3,1.4-0.4c1-0.2,2-0.4,3-0.6c1.5-0.2,3.1-0.3,4.6-0.4c1.6,0,3.1,0.2,4.6,0.3c1.5,0.1,3.1,0.4,4.6,0.8
	c1.6,0.4,3.2,1,4.8,1.7c1.4,0.6,2.8,1.4,4.2,2.2c1.2,0.8,2.3,1.6,3.4,2.5c1.4,1,2,2.9,1.4,4.5c-0.3,0.9-0.9,1.7-1.8,2.2
	c-1,0.6-2.2,0.8-3.3,0.4c-0.6-0.2-1.2-0.6-1.7-1c-2.3-1.8-4.8-3.2-7.5-4.2c-1.6-0.5-3.2-0.9-4.8-1.2c-2-0.3-3.9-0.3-5.9-0.2
	c-0.7,0-1.4,0.1-2.1,0.3c-12.2,2.4-21,13.2-20.9,25.6c0,2.1,0.3,4.3,0.8,6.3c0.9,3.5,2.5,6.7,4.7,9.6c1.2,1.6,2.7,3.1,4.3,4.4
	c1.6,1.3,3.4,2.5,5.2,3.3c1.4,0.6,2.9,1.2,4.4,1.6c1.2,0.3,2.3,0.5,3.5,0.6c1,0.1,1.9,0.2,2.9,0.2c1.4,0,2.8-0.1,4.1-0.3
	c1.8-0.3,3.5-0.8,5.1-1.5c2-0.9,3.9-2,5.7-3.4c0.3-0.3,0.7-0.5,1-0.8c1.8-1.3,4.3-0.9,5.6,0.9c0.1,0.2,0.3,0.4,0.4,0.6
	c0.8,1.6,0.5,3.5-0.8,4.7c-0.8,0.7-1.7,1.4-2.6,2c-1.8,1.3-3.8,2.4-5.9,3.3c-0.9,0.4-1.9,0.7-2.9,1c-1,0.3-2.1,0.6-3.2,0.8
	c-1.1,0.2-2.2,0.4-3.2,0.5c-1.1,0.1-2.2,0.1-3.3,0.2v0.1c-2-0.2-3.9-0.3-5.9-0.5c-0.7-0.1-1.3-0.2-2-0.4c-1.7-0.4-3.3-0.9-4.9-1.5
	c-0.6-0.2-1.2-0.5-1.8-0.8c-2.9-1.3-5.5-3-7.9-5.1c-1.8-1.5-3.4-3.2-4.9-5c-1.4-1.8-2.6-3.7-3.6-5.8c-0.9-1.8-1.6-3.7-2.2-5.6
	c-1-3.3-1.4-6.8-1.3-10.2C65.1,95.2,65.4,93,65.9,90.8z M29.5,150c0.1-1.5,1.4-2.7,2.9-2.6h209.2c8.7,0,17.4,0,26.1,0
	c1.4,0.1,2.6,1.1,2.8,2.5c0.2,1.2-0.3,2.3-1.3,3c-0.5,0.3-1.1,0.5-1.7,0.5c-1.1,0-2.1,0-3.2,0H82.5H33.3c-0.6,0-1.2,0-1.8-0.2
	C30.2,152.9,29.3,151.5,29.5,150z"/>
<path class="st0" d="M63.2,180H63c-4.1,9.3-8.2,18.5-12.3,27.8c0,0.1,0,0.2,0,0.2h24.3c0-0.1,0-0.2,0-0.3
	C71.1,198.5,67.2,189.2,63.2,180z"/>
<path class="st0" d="M144.5,119.7c1.1,1.2,2.4,2.2,3.8,2.8c1.7,0.8,3.4,1.3,5.2,1.6c0.7,0.1,1.5,0.2,2.2,0.2
	c3.2,0.3,6.4,0.1,9.5-0.8c2.3-0.6,4.5-1.4,6.5-2.6c1.8-0.9,3.4-2.1,4.9-3.4c0.3-0.3,0.5-0.7,0.5-1.1c0-5.7,0-11.3,0-16.9
	c0-0.5,0-1-0.1-1.6c-0.3,0.2-0.7,0.3-1,0.4c-1.5,0.3-3.1,0.7-4.6,0.9c-1.6,0.3-3.3,0.4-4.9,0.5c-2.7,0-5.4,0.2-8.2,0.3
	c-2.9,0-5.7,0.3-8.5,0.9c-1.4,0.4-2.7,0.9-3.9,1.6c-3,1.7-4.3,4.5-4.6,7.8c-0.1,1.1,0,2.2,0.2,3.3C142,115.9,143,118,144.5,119.7z"
	/>
<path class="st0" d="M144,191.4c0.2-0.9,0.3-1.9,0.5-2.8c0.1-0.5,0.1-1,0.1-1.5c0-0.6-0.2-1.1-0.2-1.7c-0.3-3-2.2-5.5-4.9-6.8
	c-1.8-0.9-3.8-1.5-5.8-1.7c-1.9-0.2-3.8-0.3-5.8-0.3c-4.3-0.1-8.6,0-12.9,0h-0.9v22h1c4.6,0,9.2,0,13.7,0c2.4,0.1,4.8-0.2,7.2-0.7
	c1.9-0.4,3.7-1.1,5.2-2.3C142.6,194.7,143.6,193.1,144,191.4z"/>
</svg>
