<svg id="e9d6f7f3-daa5-4085-99aa-560114c4a4d4" data-name="PRINT" xmlns="http://www.w3.org/2000/svg" viewBox="0 0 300 300"><path d="M0,300H300V0H0Zm90.58-64.45a4.08,4.08,0,0,1-4.73-2.67c-1.1-2.54-2.17-5.1-3.25-7.66l-3.45-8.16-.1-.22c-.2-.62-.59-.79-1.26-.79-10,0-19.89,0-29.84,0-.83,0-.81,0-1.15.78-1,2.27-2,4.53-3,6.8-1.23,2.81-2.44,5.63-3.69,8.43a11.55,11.55,0,0,1-1.22,2.24,3.86,3.86,0,0,1-5,.8,5,5,0,0,1-1.31-1.27,3.06,3.06,0,0,1-.64-2.21,5.46,5.46,0,0,1,.8-2.79c1-2.35,2.06-4.68,3.09-7,.68-1.54,1.35-3.08,2-4.61l2.78-6.3c.81-1.83,1.62-3.65,2.42-5.49,1-2.32,2-4.64,3-7s2-4.44,3-6.66l4.32-9.9c.5-1.13,1-2.25,1.49-3.37l3.63-8.28c.18-.41.39-.82.58-1.23a.6.6,0,0,1,.63-.37c2.38,0,4.76,0,7.14,0a.86.86,0,0,1,.92.57c.4.9.79,1.81,1.18,2.72.6,1.4,1.2,2.79,1.79,4.19,1,2.24,1.89,4.48,2.85,6.71.82,1.91,1.66,3.81,2.49,5.72.72,1.69,1.43,3.38,2.16,5.08l2.11,4.93L83,204.84l2.31,5.37,3.22,7.5c1,2.21,1.89,4.41,2.83,6.62.74,1.72,1.47,3.43,2.2,5.15a5.62,5.62,0,0,1,.46,2.1A4.16,4.16,0,0,1,90.58,235.55Zm64.53-3.15a4.22,4.22,0,0,1-5.59,3,4,4,0,0,1-1.87-1.58q-3.42-5-6.83-9.89c-1.66-2.39-3.34-4.77-5-7.15l-5.73-8.21-1.32-1.91a.88.88,0,0,0-.8-.41q-6.66,0-13.32,0c-.18,0-.36,0-.62.06v24.46a4.82,4.82,0,0,1-.36,2.43,4.13,4.13,0,0,1-3.83,2.46,4.06,4.06,0,0,1-4.17-4.18c0-2.27,0-4.54,0-6.82q0-13.68,0-27.35,0-11.83,0-23.66c0-1.48,0-2.95,0-4.42,0-.56.06-.61.65-.61,7.33,0,14.66,0,22,0,1.61,0,3.21.08,4.81.17a19.58,19.58,0,0,1,2.86.34,45,45,0,0,1,5.27,1.3,18.4,18.4,0,0,1,7.25,4.26,14.64,14.64,0,0,1,4,7.37,20.9,20.9,0,0,1,.54,6.36A19.71,19.71,0,0,1,150.5,197a16.6,16.6,0,0,1-5.77,5.77,24.28,24.28,0,0,1-6,2.49c-.3.09-.61.12-1,.2.39.57.7,1.05,1,1.52l3,4.23q2.55,3.58,5.09,7.19l4.92,6.92c.88,1.24,1.76,2.49,2.65,3.72A3.79,3.79,0,0,1,155.11,232.4Zm54.64-55.84a2.5,2.5,0,0,1-.87.08c-3.5,0-7,0-10.51,0h-6.18c0,.25-.05.48-.05.7v54.08a4.33,4.33,0,0,1-5.86,4,4.43,4.43,0,0,1-2.64-3.8c0-6.17,0-12.35,0-18.53q0-8.94,0-17.89V176.64h-.89c-5.14,0-10.27-.07-15.4.05a4.29,4.29,0,0,1-4.2-3.45,3.79,3.79,0,0,1,1.25-3.47,4.11,4.11,0,0,1,3-1.08h41.39a3.57,3.57,0,0,1,3.32,2.14C213.39,173.24,212.08,175.59,209.75,176.56ZM268,219.73a17.31,17.31,0,0,1-4.7,8.43,24.88,24.88,0,0,1-4.4,3.45,24.55,24.55,0,0,1-5.28,2.44,35.46,35.46,0,0,1-4.57,1.13,35.88,35.88,0,0,1-5.53.46c-1.28-.06-2.51,0-3.74-.18a30.65,30.65,0,0,1-3.13-.56c-1.07-.22-2.14-.45-3.19-.72a37.47,37.47,0,0,1-4.59-1.65,27.31,27.31,0,0,1-4.37-2.33,13.05,13.05,0,0,1-3.18-2.79,4,4,0,0,1,.46-5.37,4.58,4.58,0,0,1,2.46-1.25,3.56,3.56,0,0,1,2.77.76c.86.59,1.65,1.27,2.51,1.87a19.16,19.16,0,0,0,5.11,2.62c1.19.38,2.39.74,3.59,1.08a13.5,13.5,0,0,0,1.42.21,15.7,15.7,0,0,0,1.65.26,30.53,30.53,0,0,0,4.17,0,24.21,24.21,0,0,0,6.53-1.46,16.38,16.38,0,0,0,3.9-2.19,8.52,8.52,0,0,0,3.74-7.25,8.4,8.4,0,0,0-3.94-7.13,23.21,23.21,0,0,0-6.41-2.86c-1.23-.34-2.44-.75-3.68-1.06-1.45-.36-2.92-.62-4.37-1s-2.86-.68-4.27-1.09c-1.71-.49-3.44-1-5.1-1.62a20,20,0,0,1-6.74-4.07,13,13,0,0,1-3.6-6.39,21,21,0,0,1-.31-6.93,10.3,10.3,0,0,1,.51-2.18,18,18,0,0,1,5.41-8.37,23.52,23.52,0,0,1,7.22-4.35,28.37,28.37,0,0,1,8.52-1.75,34.48,34.48,0,0,1,4.31.13c.86,0,1.71.17,2.55.27a25.19,25.19,0,0,1,8.12,2.54,29.12,29.12,0,0,1,4.1,2.34,7.86,7.86,0,0,1,1.41,1.29,3.66,3.66,0,0,1-.79,5.42,3.74,3.74,0,0,1-4.28.32c-1-.55-1.93-1.24-2.92-1.82a14.25,14.25,0,0,0-4.5-1.82c-.83-.16-1.65-.44-2.49-.55a22.4,22.4,0,0,0-3-.17c-1.41,0-2.83,0-4.24.12a11.77,11.77,0,0,0-2.25.5c-.74.2-1.47.44-2.19.71a11.55,11.55,0,0,0-5.61,4.35,7.72,7.72,0,0,0-1.18,2.94,9.83,9.83,0,0,0-.28,2.29,7.9,7.9,0,0,0,2.25,5.49,10.28,10.28,0,0,0,3.43,2.18c1.11.44,2.23.88,3.38,1.22,1.84.53,3.68,1.08,5.56,1.43,2.28.43,4.53,1,6.77,1.54,1.65.43,3.24,1.07,4.83,1.65a23.59,23.59,0,0,1,6.62,3.67,14.61,14.61,0,0,1,4.58,5.88A16.29,16.29,0,0,1,268,219.73ZM209.7,64.55a4.69,4.69,0,0,1,3.12,4.21q0,18.57,0,37.15,0,8.53,0,17.08a2.07,2.07,0,0,0,.08.37h1.63q13.92,0,27.84,0a4,4,0,0,1,2.5,7.12,4.22,4.22,0,0,1-2.82.88H204.4c0-.38-.05-.69-.05-1,0-4,0-7.92,0-11.88V84.32c0-5.25.07-10.49,0-15.73A4.33,4.33,0,0,1,209.7,64.55ZM133.22,109a17,17,0,0,1,1.69-5.72,16.56,16.56,0,0,1,4-5A21.39,21.39,0,0,1,144,95.05,21.88,21.88,0,0,1,147,94a32.88,32.88,0,0,1,10.1-1.46c1.26,0,2.51,0,3.77,0,.77,0,1.54-.14,2.32-.17,1.44-.07,2.88-.08,4.32-.18s2.93-.23,4.38-.44,2.61-.52,3.92-.79l.23,0c1.18-.33,1.3-.49,1.31-1.7s0-2.19,0-3.29a13.75,13.75,0,0,0-1.57-6.7,12,12,0,0,0-2.9-3.48,14.33,14.33,0,0,0-5.07-2.65,15.55,15.55,0,0,0-4.38-.81c-.51,0-1-.1-1.52-.11-.91,0-1.81,0-2.71,0-.56,0-1.12.1-1.68.12a21.91,21.91,0,0,0-5.77,1.22,27.37,27.37,0,0,0-5.85,2.93A27.69,27.69,0,0,1,143.18,78a3.64,3.64,0,0,1-3.91-.56,4.31,4.31,0,0,1-1.44-2,4.09,4.09,0,0,1,1.51-4.62,34.59,34.59,0,0,1,6-3.47,33,33,0,0,1,4.18-1.59c.81-.24,1.66-.38,2.48-.62a19.67,19.67,0,0,1,2.74-.49,38.35,38.35,0,0,1,8.15-.34c1.49.11,3,.23,4.46.48a31.3,31.3,0,0,1,3.79.94,28.4,28.4,0,0,1,2.92,1.07,20.78,20.78,0,0,1,6.67,4.48,16.82,16.82,0,0,1,3.33,5,19.24,19.24,0,0,1,1.46,5.63,73,73,0,0,1,.17,8.1c0,9.52,0,19,0,28.56a9.22,9.22,0,0,0,.4,3,5.56,5.56,0,0,0,1.35,2.23,20.08,20.08,0,0,1,1.44,1.62,4.31,4.31,0,0,1-2,6.78c-1.95.59-3.39-.18-4.77-1.3a9.27,9.27,0,0,1-2.71-4c-.25-.64-.48-1.28-.74-2l-1.25,1.1a19.88,19.88,0,0,1-5.43,3.34,46.66,46.66,0,0,1-4.71,1.74,37.19,37.19,0,0,1-4.22.89,34,34,0,0,1-8.06.46,33.25,33.25,0,0,1-3.57-.48c-1.17-.22-2.34-.5-3.49-.83a20.27,20.27,0,0,1-2.24-.86,18.58,18.58,0,0,1-4.35-2.49,28.57,28.57,0,0,1-3.27-2.94,18.12,18.12,0,0,1-4.2-7.47A21.05,21.05,0,0,1,133.22,109ZM65.93,90.83a33.31,33.31,0,0,1,3-8.07,33.82,33.82,0,0,1,6.88-9.1,34.39,34.39,0,0,1,5.08-4c1.38-.89,2.92-1.54,4.38-2.3a27,27,0,0,1,4.41-1.66,11.35,11.35,0,0,1,1.39-.36c1-.2,2-.43,3-.55a44.9,44.9,0,0,1,4.62-.36c1.55,0,3.09.24,4.63.29a21.13,21.13,0,0,1,4.55.85,27.93,27.93,0,0,1,4.76,1.65,32.51,32.51,0,0,1,4.18,2.18,42.17,42.17,0,0,1,3.44,2.47,4,4,0,0,1,1.44,4.52,3.91,3.91,0,0,1-1.79,2.17,4,4,0,0,1-3.32.45,4.87,4.87,0,0,1-1.71-1,26.74,26.74,0,0,0-7.5-4.23,27.06,27.06,0,0,0-4.81-1.19,30.66,30.66,0,0,0-5.9-.21,12,12,0,0,0-2.14.3A26,26,0,0,0,73.6,98.27a26.62,26.62,0,0,0,.81,6.34,26.24,26.24,0,0,0,4.67,9.56,24.94,24.94,0,0,0,4.28,4.43,24.07,24.07,0,0,0,5.25,3.34A31.68,31.68,0,0,0,93,123.55a23.19,23.19,0,0,0,3.53.57,19.75,19.75,0,0,0,2.87.18,24.88,24.88,0,0,0,4.14-.35,25.82,25.82,0,0,0,5.11-1.52,25.32,25.32,0,0,0,5.67-3.42c.34-.26.69-.51,1-.79a4,4,0,0,1,5.95,1.47,3.91,3.91,0,0,1-.79,4.69c-.82.72-1.71,1.37-2.59,2a34.66,34.66,0,0,1-5.86,3.27,19.11,19.11,0,0,1-2.87,1c-1,.31-2.1.6-3.16.82a32.52,32.52,0,0,1-3.24.5c-1.09.12-2.19.14-3.29.2v.08c-2-.16-3.94-.29-5.9-.48a18.59,18.59,0,0,1-2-.41,32.14,32.14,0,0,1-4.87-1.48c-.62-.23-1.22-.52-1.83-.79a34.37,34.37,0,0,1-7.94-5.05A33.88,33.88,0,0,1,72.06,119a30.64,30.64,0,0,1-3.58-5.78,38.61,38.61,0,0,1-2.15-5.59,32.55,32.55,0,0,1-1.28-10.2A35.54,35.54,0,0,1,65.93,90.83ZM29.53,150a2.82,2.82,0,0,1,2.95-2.58H241.64q13,0,26.08,0a2.89,2.89,0,0,1,2.76,2.51,3.12,3.12,0,0,1-1.29,3,2.92,2.92,0,0,1-1.74.48c-1.07,0-2.14,0-3.21,0H82.52l-49.18,0a7.31,7.31,0,0,1-1.75-.16A2.86,2.86,0,0,1,29.53,150Z"/><path d="M63.21,180H63q-6.14,13.9-12.26,27.81c0,.06,0,.16,0,.23H75.08c0-.13,0-.22,0-.29Q69.16,193.84,63.21,180Z"/><path d="M144.49,119.67a11.69,11.69,0,0,0,3.84,2.83,18,18,0,0,0,5.25,1.6c.74.11,1.48.16,2.22.24a25.64,25.64,0,0,0,9.51-.79,29.29,29.29,0,0,0,6.54-2.55,24.88,24.88,0,0,0,4.94-3.39,1.43,1.43,0,0,0,.52-1.11q0-8.48,0-16.93c0-.49,0-1-.08-1.59a6.34,6.34,0,0,1-1,.38c-1.54.32-3.07.7-4.63.89a47.44,47.44,0,0,1-4.92.54c-2.73,0-5.45.2-8.17.28A37,37,0,0,0,150,101a16,16,0,0,0-3.91,1.58c-3,1.72-4.27,4.49-4.56,7.8a13.3,13.3,0,0,0,.2,3.27A11.6,11.6,0,0,0,144.49,119.67Z"/><path d="M144,191.44c.21-.93.34-1.88.47-2.83a7.51,7.51,0,0,0,.07-1.5c0-.56-.16-1.11-.24-1.67a8.67,8.67,0,0,0-4.86-6.81,16.5,16.5,0,0,0-5.81-1.67,55.42,55.42,0,0,0-5.76-.31c-4.3-.05-8.6,0-12.91,0h-.9v22h1c4.58,0,9.15,0,13.72,0A31,31,0,0,0,136,198a13,13,0,0,0,5.22-2.28A7.63,7.63,0,0,0,144,191.44Z"/></svg>