<?xml version="1.0" encoding="utf-8"?>
<!-- Generator: Adobe Illustrator 25.4.1, SVG Export Plug-In . SVG Version: 6.00 Build 0)  -->
<svg version="1.1" id="ea2235bf-4ad3-4002-aba6-a10a2330aa68"
	 xmlns="http://www.w3.org/2000/svg" xmlns:xlink="http://www.w3.org/1999/xlink" x="0px" y="0px" viewBox="0 0 300 300"
	 style="enable-background:new 0 0 300 300;" xml:space="preserve">
<style type="text/css">
	.st0{fill:#A1A1AA;}
</style>
<path class="st0" d="M0,300h300V0H0V300z M199.3,121.2c0-0.8,0-1.7,0.1-2.5c0.2-2.1,1.4-3.9,3.3-4.8c1.7-0.7,3.5-1,5.4-0.9h19.3
	c5.2,0,10.4,0,15.6,0c4.4,0,8.9-0.1,13.3-0.1c3.8,0,7.6,0.1,11.3,0.2c0.9,0,1.9,0.2,2.7,0.7c0.7,0.3,1.4,0.7,2,1.2
	c0.6,0.6,1,1.3,1.6,2c0.8,1.1,0.7,2.3,0.7,3.6c0,4.7,0.1,9.3,0.1,14c0,3.7,0,7.4,0.1,11.1c0,2.1,0.1,4.1,0,6.2
	c-0.1,7.1-0.2,14.1-0.3,21.1c0,2.2-0.1,4.4-0.2,6.7c0,0.9-0.3,1.8-0.4,2.8c-0.1,0.7-0.1,1.3-0.2,2c-0.1,0.8-0.3,1.6-0.5,2.3
	c-0.2,0.7-0.3,1.4-0.3,2.1c0,0.2,0,0.4,0,0.6c-0.4-0.1-0.5,0.2-0.6,0.5s-0.1,0.9-0.1,1.3c0,0.4-0.2,0.8-0.5,1.1
	c-0.1,0.1-0.2,0.4-0.2,0.6s-0.1,0.8-0.6,0.9c-0.1,0-0.1,0.1-0.2,0.2c-0.8,1.9-2,3.6-3.5,5.1c-0.9,0.9-1.9,1.6-2.9,2.1
	c-0.8,0.5-1.8,0.8-2.7,1c-0.5,0.2-1.1-0.1-1.3-0.6c0,0,0,0,0-0.1c0-0.1,0-0.2,0-0.4c0.1-0.4,0.2-0.7,0.3-1.1
	c0.2-0.9,0.3-1.8,0.5-2.8c0.3-1.3,0.3-2.7-0.1-4c-0.2-0.5-0.3-0.9-0.3-1.4c-0.2-0.9-0.7-1.6-1.3-2.2c-0.6-0.7-1.3-1.2-2.1-1.6
	c-0.9-0.5-1.9-0.8-2.9-0.8c-7.5-0.1-15-0.1-22.5-0.1c-6.2,0-12.4,0-18.7,0c-1.9,0-3.8,0-5.8-0.1c-1.6-0.1-3.2-0.5-4.6-1.2
	c-2.1-0.8-3.4-2.9-3.3-5.1c-0.2-5-0.2-10-0.2-15C199.3,151,199.3,136.1,199.3,121.2z M25.1,141.2c0-2.8,0.2-5.5,0.3-8.3
	c0.1-2.1,0.2-4.3,0.2-6.4c0.1-1.9,0.1-3.8,0.1-5.7c0-1.4,0.2-2.7,0.6-4c0.1-0.5,0.2-1.1,0.3-1.6c0.5-1.7,1-3.4,1.5-5.1
	c0.3-0.9,0.5-1.9,0.9-2.8c0.3-0.9,0.8-1.8,1.4-2.5c0.1-0.1,0.2-0.3,0.2-0.4c0-0.4,0.3-0.8,0.6-1c0.1,0,0.1-0.1,0.1-0.1
	c0.3-0.5,0.6-0.9,1-1.3c0.7-0.9,1.6-1.8,2.6-2.4c1.3-0.6,2.6-1.1,3.9-1.7c0.5-0.2,1.1,0.1,1.3,0.6c0.1,0.2,0.1,0.4,0,0.6
	c-0.1,0.4-0.2,0.9-0.3,1.3s-0.3,0.9-0.4,1.3c-0.3,1.5-0.4,3.1-0.1,4.6c0.1,1.2,0.5,2.3,1.2,3.2c0.4,0.6,0.8,1.1,1.3,1.6
	c0.5,0.4,0.9,1,1.7,1.1c0.3,0,0.7,0.2,1,0.3c0.9,0.4,1.9,0.6,2.8,0.5l16.6,0.1l11.4,0.1l21.9,0.1c2.2,0,4.3,0,6.5,0
	c6.2,0,12.5-0.1,18.8-0.1c18.7-0.1,37.4-0.1,56.1-0.1c3.2,0,6.4,0,9.6,0c0.6,0,1.3,0.1,1.8,0.5c0.1,0.1,0.2,0.1,0.4,0.1
	c1.3,0.3,2.4,1.2,3,2.3c0.5,0.8,0.7,1.6,0.8,2.5c0.1,0.6,0.2,1.1,0.3,1.6c0.1,0.4,0.1,0.7,0.1,1.1c0,16.9,0,33.7,0,50.6
	c0,2.5,0,4.9-0.1,7.4c-0.1,1.2-0.3,2.4-0.6,3.6c-0.3,1.6-1.5,3-3,3.6c-1.3,0.6-2.7,0.9-4.1,0.9c-17.6,0-35.3,0-52.9,0h-78
	c-7.2,0-14.3,0-21.5,0c-0.9,0-1.8,0-2.7-0.1c-1.5-0.3-2.8-0.9-3.2-2.5c-0.8-2.9-1.7-5.7-2.3-8.6c-0.5-2.2-0.7-4.4-0.9-6.6
	c-0.2-2.9-0.1-5.8-0.1-8.7C25.1,154.3,25,147.8,25.1,141.2z"/>
<path class="st0" d="M122.6,176.6c0.5,0,0.9,0,1.4,0c0.2,0,0.4-0.2,0.5-0.3c0.3-0.7,0.5-1.4,0.7-2.2c0.1-0.8,0.3-1.7,0.5-2.5
	c0.3-0.8,0.5-1.7,0.5-2.6c0-0.2,0.1-0.5,0.1-0.7c0.2-0.8,0.4-1.6,0.6-2.4c0.1-0.8,0.8-1.4,1.6-1.4c0.7,0,1.4,0,2.1,0h12.1
	c0.6,0,1.2,0.3,1.5,0.9c0.3,0.6,0.6,1.3,0.7,2c0.4,1.7,0.7,3.4,1,5.1c0,0.1,0,0.2,0.1,0.2c0.4,1,0.7,2.1,0.8,3.2
	c0,0.3,0.2,0.5,0.5,0.6c0.7,0,1.4,0,2.1,0c0.2-0.1,0.3-0.2,0.4-0.4c0-0.7-0.1-1.5-0.3-2.2c-0.3-0.9-0.5-1.8-0.7-2.7
	c-0.1-0.8-0.5-1.6-0.6-2.4c-0.1-1-0.3-2-0.7-3c-0.1-0.5-0.2-1-0.3-1.5c-0.2-0.9-0.5-1.8-0.6-2.7c-0.1-1-0.3-2-0.7-3
	c-0.1-0.2-0.1-0.5-0.1-0.8c-0.1-1-0.3-1.9-0.6-2.8c-0.1-0.3-0.2-0.7-0.2-1c-0.1-1-0.3-1.9-0.6-2.8c-0.1-0.5-0.2-0.9-0.2-1.4
	c-0.1-0.4-0.1-0.9-0.3-1.4s-0.4-1.1-0.5-1.6s-0.3-1.4-0.4-2.1s-0.3-1.3-0.4-2s-0.3-1.4-0.5-2c-0.1-0.4-0.2-0.8-0.3-1.1l-0.5-2.3
	c-0.1-0.5-0.2-1.1-0.4-1.6c0-0.9-0.2-1.7-0.5-2.5c-0.1-0.3-0.2-0.7-0.2-1c-0.1-0.7-0.2-1.5-0.4-2.2c-0.3-0.7-0.5-1.5-0.5-2.2
	c0-0.3,0-0.6-0.1-0.9c-0.4-0.8-0.6-1.7-0.7-2.6c-0.1-0.2-0.2-0.4-0.4-0.4c-0.7,0-1.4,0-2,0l0,0h-1.3c-0.7-0.1-1.4,0.4-1.5,1.1
	c0,0,0,0,0,0c0,0.2-0.1,0.4-0.1,0.6c-0.1,1.2-0.3,2.3-0.7,3.4c-0.1,0.4-0.2,0.8-0.2,1.2c-0.1,0.5-0.2,1.1-0.3,1.6
	c-0.2,0.5-0.3,1-0.4,1.5c0,1-0.3,1.9-0.7,2.8c0,0.1-0.1,0.2-0.1,0.2c-0.1,1.1-0.4,2.2-0.7,3.3c-0.4,1.5-0.5,3-0.9,4.5
	c-0.1,1-0.3,1.9-0.7,2.8c0,0.1-0.1,0.2-0.1,0.4c-0.1,1.4-0.4,2.7-0.8,4c-0.1,0.3-0.2,0.7-0.2,1.1c-0.2,0.7-0.3,1.5-0.5,2.2
	c-0.1,0.4-0.2,0.8-0.3,1.2c0,0.9-0.2,1.7-0.6,2.5c-0.1,0.2-0.1,0.4-0.1,0.6c0,1.1-0.3,2.2-0.7,3.2c-0.1,0.2-0.2,0.5-0.2,0.7
	c-0.1,0.9-0.3,1.8-0.6,2.7c-0.2,0.4-0.3,0.8-0.3,1.2c0,0.9-0.2,1.9-0.6,2.7c-0.1,0.3-0.2,0.6-0.2,0.9c-0.1,0.7-0.2,1.5-0.4,2.2
	s-0.4,1.5-0.5,2.2c-0.1,0.4-0.1,0.7-0.1,1.1C122,176.4,122.2,176.6,122.6,176.6z M128,160.4c0.3-0.7,0.5-1.4,0.5-2.2
	c0.1-0.7,0.3-1.3,0.5-2c0.1-0.5,0.2-1,0.3-1.4c0.2-0.7,0.4-1.3,0.5-2s0.3-1.6,0.4-2.4c0-0.1,0-0.2,0-0.3c0.4-1.2,0.6-2.4,0.8-3.6
	c0.4-1.4,0.6-2.8,0.9-4.1c0.2-0.8,0.4-1.6,0.6-2.4c0.1-0.6,0.3-1.1,0.4-1.7c0.2-0.8,0.3-1.6,0.5-2.3c0.1-0.3,0.2-0.7,0.3-1
	c0.2-0.5,0.3-1.1,0.4-1.6c0.1-0.9,0.3-1.7,0.6-2.5c0.1-0.4,0.2-0.8,0.2-1.3c0.1-0.3,0.2-0.6,0.6-0.6c0.3-0.1,0.6,0.1,0.7,0.4
	c0,0,0,0,0,0c0.2,0.8,0.4,1.7,0.6,2.5c0.2,0.7,0.4,1.3,0.5,2s0.2,1.6,0.4,2.4c0.1,0.4,0.2,0.8,0.3,1.2c0.1,0.7,0.3,1.3,0.4,2
	c0,0.2,0.1,0.4,0.1,0.6c0.4,1.1,0.7,2.2,0.8,3.3c0.1,0.7,0.5,1.3,0.5,2c0.2,1.2,0.5,2.4,0.9,3.6c0.2,1,0.5,1.9,0.7,2.9
	c0.1,0.7,0.2,1.4,0.3,2.2c0,0.1,0,0.3,0.1,0.4c0.5,0.9,0.7,1.8,0.7,2.8c0,0.3,0.2,0.6,0.2,0.9c0.2,1,0.4,1.9,0.6,2.9
	c0.1,0.6-0.6,1.2-1.2,1.2h-13.1c-0.6,0.1-1.2-0.4-1.3-1C127.8,160.9,127.8,160.6,128,160.4L128,160.4z"/>
<path class="st0" d="M211.6,158.7c0,3.1,0,6.2,0.1,9.2c0,0.8,0.1,1.6,0.3,2.4c0.1,0.5,0.4,0.9,0.5,1.3c0.3,1.3,1,2.4,2,3.3
	c0.8,0.8,1.6,1.6,2.5,2.2c0.6,0.4,1.3,0.7,2,0.8c2,0.4,4,0.6,6,0.5c2,0,3.9-0.4,5.8-1.2c0.1-0.1,0.2-0.1,0.3-0.2
	c0.5-0.4,0.9-0.7,1.4-1.1c0.7-0.6,1.4-1.3,2-2c0.6-0.7,0.9-1.5,1.1-2.4c0.1-0.3,0.2-0.6,0.4-0.8c0.1-0.2,0.1-0.3,0.2-0.5
	c0.2-1.7,0.4-3.3,0.5-5c0.1-3.8,0-7.7,0-11.5c0-3.1,0-6.3,0-9.4c0-2.3,0-4.7,0-7c0-2.7,0-5.5,0-8.2c0-1.4-0.1-2.9-0.1-4.4
	c0-0.7-0.3-1-0.9-1c-1.9,0-3.8,0-5.7,0c-0.7,0-0.8,0.1-0.8,0.8c0,7,0,14.1,0,21.1l0,0c0,6.2,0,12.3,0,18.5c0.1,1.5-0.1,2.9-0.5,4.3
	c-0.6,1.5-2,2.5-3.6,2.6c-0.6,0-1.1,0-1.7-0.1c-1-0.1-2-0.6-2.6-1.5c-0.7-1-1-2.1-0.9-3.3c0-5.8,0-11.5,0-17.3c0-8,0-16-0.1-24.1
	c0-0.9-0.2-1.1-1.2-1.1h-6c-0.6,0-0.8,0.2-0.9,0.8c0,0.2,0,0.3,0,0.5c0,2.5,0,5,0,7.5C211.7,141.3,211.6,150,211.6,158.7z"/>
<path class="st0" d="M156.2,176.6c0.6,0,1.2,0,1.8,0s0.7-0.1,0.7-0.6c0-5.8,0-11.6,0-17.4c0-0.8,0.2-1.5,0.6-2.1
	c0.3-0.4,0.6-0.8,0.9-1.2c0.6-0.8,1-1.7,1.6-2.5s1.1-0.7,1.6,0c0.2,0.3,0.4,0.7,0.6,1.1c1,1.6,2,3.1,2.9,4.7
	c0.4,0.7,0.8,1.5,1.2,2.3c0.7,1.2,1.4,2.4,2.1,3.6c0.6,1,1.2,2.1,1.8,3.2c0.8,1.4,1.6,2.7,2.4,4.1s1.6,2.7,2.4,4.1
	c0.3,0.4,0.6,0.9,1.1,0.9s1.4,0,2.1-0.1c0.1,0,0.3-0.1,0.3-0.2c0-0.1,0-0.3-0.1-0.4c-0.1-0.2-0.2-0.3-0.3-0.5s-0.3-0.6-0.4-0.9
	c-0.7-1.2-1.5-2.4-2.2-3.6c-0.9-1.6-1.8-3.2-2.6-4.8c-0.3-0.5-0.5-1-0.8-1.4c-0.8-1.4-1.6-2.7-2.4-4.1c-0.3-0.5-0.5-1-0.8-1.6
	c-0.5-0.9-1.1-1.9-1.6-2.8c-0.6-1.1-1.3-2.2-1.9-3.3c-0.8-1.4-1.6-2.7-2.3-4.1c-0.2-0.4-0.2-1,0.1-1.4c0.4-0.7,0.9-1.4,1.3-2.1
	l2.4-3.9c0.6-1,1.3-1.9,1.8-2.9c0.7-1.3,1.5-2.5,2.2-3.7s1.7-2.7,2.6-4.1c0.5-0.8,1-1.6,1.5-2.5c0.4-0.6,0.8-1.3,1.2-1.9
	s0.8-1.3,1.2-2c0.2-0.4,0.1-0.6-0.4-0.7s-1.1,0-1.7,0s-0.9,0.1-1,0.7c0,0.1-0.1,0.2-0.2,0.3c-0.4,0.6-0.9,1.2-1.2,1.8
	c-0.9,1.5-1.8,3.1-2.8,4.6c-1.1,1.8-2.2,3.6-3.4,5.4c-0.1,0.2-0.4,0.4-0.5,0.6c-0.4,0.7-0.7,1.4-1.1,2.1c-1.1,1.7-2.2,3.4-3.3,5.1
	c-0.4,0.6-0.8,1.3-1.2,1.9s-0.6,1-1,1.5c-0.5,0.9-1,1.7-1.6,2.5c-0.1,0.2-0.3,0.2-0.6,0.2c-0.2-0.1-0.4-0.3-0.6-0.5
	c-0.1-0.2-0.1-0.4-0.1-0.6c0-7.3,0-14.7,0-22c0-1,0-2.1,0-3.1c0-0.6-0.2-0.7-0.7-0.7s-1.1,0-1.6,0s-0.7,0.1-0.7,0.6
	c0,0.8,0,1.5,0,2.3v23.5l0,0v3.1c0,7.6,0,15.1,0,22.7C155.6,176.5,155.8,176.6,156.2,176.6z"/>
<path class="st0" d="M244.2,177.8h5.9c0.2,0,0.4-0.1,0.6-0.2c0.3-0.2,0.4-0.6,0.4-1c0-2.2-0.1-4.5-0.1-6.7c0-3.1,0-6.2,0-9.3
	c0.1-0.4,0.1-0.9,0.1-1.3c-0.2-0.8,0.3-1.6,1.1-1.8c0.2,0,0.3-0.1,0.5,0c2.2,0.1,4.5,0,6.7-0.3c0.3,0,0.6-0.1,0.9-0.2
	c0.9-0.4,1.9-0.9,2.7-1.4c0.5-0.3,1-0.7,1.5-1.1c0.3-0.2,0.6-0.5,0.8-0.9c0.8-1.4,1.8-2.7,1.9-4.3c0-0.1,0.1-0.2,0.1-0.4
	c0.4-0.9,0.6-1.9,0.6-2.9c0-3.4,0-6.7,0-10.1c0.1-1.2-0.1-2.4-0.5-3.4c-0.1-0.3-0.1-0.7-0.2-1.1c-0.3-0.9-0.6-1.7-1.1-2.6
	c-0.4-0.7-0.8-1.3-1.4-1.9c-0.5-0.6-1.2-1.1-1.9-1.4c-0.2-0.1-0.3-0.2-0.5-0.3c-0.4-0.2-0.8-0.4-1.2-0.5c-0.3-0.1-0.6-0.2-0.8-0.2
	c-1.1-0.5-2.4-0.7-3.6-0.6h-12.4c-0.3,0-0.5,0-0.8,0.1c-0.3,0-0.6,0.3-0.5,0.6c0,0,0,0,0,0c0,1,0,2.1,0,3.1c0,7.7,0,15.3,0,23l0,0
	v20c0,2,0,4,0,6C242.9,177.5,243.4,177.8,244.2,177.8z M251,133.2c0-0.3,0-0.5,0-0.8c0-0.8,0.6-1.4,1.4-1.4c0,0,0.1,0,0.1,0
	c1.2,0,2.5,0,3.7,0.1c1.2,0,2.2,0.7,2.8,1.7c0.5,0.8,0.8,1.8,0.8,2.8c0,3.4,0.1,6.9,0,10.3c0,1.3-0.6,2.6-1.6,3.4
	c-0.4,0.3-0.9,0.6-1.4,0.6c-1.5,0.1-3,0.1-4.5,0.1c-0.7,0-1.3-0.6-1.3-1.3c0,0,0,0,0-0.1v-8l0,0L251,133.2z"/>
<path class="st0" d="M95.4,176c0,0.4,0.2,0.6,0.6,0.6c2,0,4,0,6,0h13c0.3,0,0.6,0,0.9-0.1c0.2-0.1,0.3-0.2,0.3-0.4
	c0.1-0.5,0.1-1,0.1-1.5c0-0.4-0.2-0.8-0.7-0.8c-0.3,0-0.6-0.1-0.9-0.1c-2.8,0-5.7,0-8.5,0c-2,0-4-0.1-6,0c-0.9,0-1.6-0.7-1.6-1.5
	c0,0,0,0,0,0c0-4,0-8,0-12c0-2.5,0-5.1,0-7.6c-0.1-0.8,0.5-1.6,1.4-1.6c0.2,0,0.3,0,0.5,0c0.1,0,0.2,0,0.3,0c1.3,0,2.5-0.1,3.8-0.1
	s2.4,0.1,3.7,0.1s2.8-0.1,4.1,0c0.6,0,0.9-0.2,0.9-0.9c0-0.4,0-0.8,0-1.2c0-0.3-0.2-0.5-0.5-0.5c0,0-0.1,0-0.1,0h-12.4
	c-1.2,0-1.8-0.5-1.8-1.8c0-6.2,0-12.5,0-18.7c-0.1-0.8,0.6-1.5,1.4-1.6c0,0,0.1,0,0.1,0c3.2,0,6.3,0,9.5,0c2.1,0,4.2,0,6.2-0.1
	c0.3,0,0.5-0.2,0.6-0.4c0,0,0-0.1,0-0.1v-1.2c0-0.4-0.1-0.6-0.6-0.6c-1.5,0-3,0-4.5,0H96c-0.5,0-0.6,0.1-0.6,0.7c0,1.1,0,2.2,0,3.3
	v22.4l0,0V171C95.4,172.6,95.4,174.3,95.4,176z"/>
<path class="st0" d="M68.1,176.6c0.6,0,1.3,0,1.9,0c0.3,0.1,0.5-0.1,0.6-0.4c0-0.1,0-0.1,0-0.2c0-0.5,0-0.9,0-1.4v-18.8
	c0-0.7,0.6-1.3,1.3-1.3c0.7,0,1.5,0,2.2,0c2.8-0.1,5.5,0.3,8.2-0.6c1.2-0.4,2.3-0.9,3.3-1.5c1.4-1,2.5-2.5,3-4.1
	c0.1-0.3,0.2-0.6,0.3-0.9c0.2-0.5,0.3-1,0.4-1.4c0.1-0.7,0.1-1.5,0.1-2.2c0-3.2,0-6.4,0-9.6c0-0.8-0.1-1.6-0.3-2.4
	c-0.1-0.5-0.3-1-0.6-1.5c-0.3-0.8-0.7-1.6-1.1-2.3c-1-1.6-2.5-2.8-4.4-3.3c-0.2,0-0.4-0.1-0.5-0.2c-0.6-0.4-1.3-0.5-2-0.5
	c-0.4,0-0.8,0-1.2,0H74c-1.9,0-3.9,0-5.8,0c-0.5,0-0.7,0.1-0.7,0.6v25.8l0,0v9.4c0,5.5,0,10.9,0,16.4
	C67.5,176.4,67.7,176.6,68.1,176.6z M72,126.2c2.2,0,4.4-0.1,6.7,0.1c1.3,0.1,2.6,0.4,3.8,0.9c1.6,0.7,2.9,2.1,3.3,3.8
	c0.1,0.5,0.4,1,0.6,1.5c0.1,0.5,0.2,1,0.2,1.5c0,2.2,0.1,4.5,0.1,6.7c0,1.5-0.1,3-0.2,4.6c0,0.7-0.2,1.3-0.5,1.9
	c-0.3,0.5-0.5,1.1-0.9,1.7c-0.7,1-1.7,1.8-2.9,2.3c-0.9,0.4-1.8,0.5-2.8,0.5c-2.5,0.1-5,0.1-7.6,0.1c-0.6-0.1-1.1-0.6-1.1-1.2V139
	l0,0v-11.3C70.6,126.9,71.2,126.3,72,126.2z"/>
<path class="st0" d="M39.4,168.8c0.4,1,0.5,2.2,1.2,3.1c0.4,0.5,0.7,1.1,1.1,1.6c0.5,0.7,1.2,1.3,2,1.8c0.1,0,0.1,0.1,0.2,0.2
	c0.2,0.1,0.4,0.3,0.6,0.4c0.3,0.2,0.7,0.3,1,0.4c0.3,0.2,0.7,0.3,1,0.4c1.3,0.2,2.6,0.3,3.9,0.5c0.2,0,0.4,0,0.6,0
	c1-0.1,1.9-0.2,2.9-0.4c0.4,0,0.8-0.1,1.1-0.3c0.8-0.4,1.6-1,2.4-1.5c0.7-0.5,1.4-1.1,1.9-1.8c0.5-0.7,0.9-1.5,1.2-2.2
	c0.3-0.8,0.6-1.6,0.7-2.4c0-0.3,0.1-0.6,0.2-1c0.4-1.4,0.5-2.8,0.4-4.2c-0.2-1.2-0.4-2.3-0.7-3.5c-0.1-0.6-0.3-1.1-0.6-1.6
	c-0.3-0.6-0.6-1.3-1-1.9c-0.3-0.5-0.6-1-1-1.4c-0.6-0.7-1.3-1.3-2-1.9l-1-0.9c-0.4-0.4-0.9-0.8-1.3-1.1c-1-0.8-2.1-1.5-3.1-2.2
	c-0.5-0.4-1-0.8-1.5-1.2c-0.8-0.6-1.6-1.3-2.3-1.9c-0.4-0.4-0.8-0.8-1.2-1.2s-0.6-0.6-0.8-0.9c-1.1-1.2-2-2.6-2.4-4.1
	c-0.2-0.6-0.4-1.3-0.5-2c0-0.7,0-1.3,0-2c-0.1-1.4,0.1-2.9,0.7-4.2c0.3-1,0.9-2,1.6-2.8c0.3-0.4,0.6-0.7,1-1
	c0.7-0.7,1.6-1.1,2.5-1.3c1.5-0.2,3.1-0.3,4.6-0.1c1.1,0.2,2.1,0.7,2.9,1.4c0.9,0.6,1.6,1.5,2,2.5c0.3,0.6,0.4,1.4,0.7,2
	c0.5,1.2,0.7,2.5,0.6,3.8c0,0.4,0.1,0.7,0.2,1.1c0.1,0.2,0.3,0.4,0.5,0.4c0.5,0,1.1,0,1.6,0c0.2,0,0.5-0.1,0.5-0.4c0,0,0-0.1,0-0.1
	c0.2-1.2,0.1-2.5-0.2-3.7c-0.1-0.2-0.1-0.5-0.2-0.7c-0.2-1.4-0.5-2.7-1.1-4c0-0.1-0.1-0.2-0.2-0.2c-0.4-0.6-0.9-1.2-1.4-1.8
	c-0.5-0.6-1.1-1.1-1.8-1.5c-0.8-0.5-1.7-0.8-2.6-1c-0.2,0-0.3-0.1-0.5-0.2c-0.4-0.2-0.9-0.3-1.3-0.4c-1.1-0.1-2.2-0.1-3.2,0
	c-0.5,0-1,0.1-1.5,0.2c-1.2,0.3-2.4,0.8-3.5,1.5c-0.5,0.3-0.9,0.6-1.3,1c-0.4,0.4-0.8,0.9-1.1,1.4c-0.8,1.1-1.4,2.3-1.7,3.6
	c-0.4,1.3-0.7,2.6-0.7,3.9c0,0.9,0,1.9,0,2.8c0,0.4,0,0.8,0.1,1.2c0.3,1.3,0.7,2.6,1.3,3.7c0.4,0.6,0.8,1.3,1.2,1.9
	c0.2,0.4,0.5,0.8,0.8,1.2c0.4,0.4,0.9,0.8,1.3,1.2c0.3,0.3,0.5,0.5,0.8,0.8c0.4,0.4,0.9,0.8,1.3,1.2s1.2,0.8,1.8,1.2
	c1,0.8,2.1,1.6,3.1,2.4c0.4,0.3,0.8,0.6,1.2,1s0.8,0.7,1.3,1.1c0.5,0.5,1.1,0.9,1.6,1.4c0.5,0.6,0.9,1.3,1.5,1.9
	c0.8,0.8,1.3,1.9,1.5,3c0,0.3,0.1,0.5,0.2,0.8c0.3,0.8,0.5,1.7,0.4,2.6c-0.1,1.2-0.3,2.4-0.6,3.6c-0.2,0.9-0.5,1.8-1,2.6
	c-0.4,0.6-0.9,1.2-1.4,1.7c-0.6,0.7-1.5,1.2-2.5,1.4c-0.2,0-0.5,0.1-0.7,0.2c-1.1,0.5-2.4,0.6-3.5,0.3c-0.7-0.1-1.4-0.4-2-0.6
	c-0.4-0.1-0.9-0.3-1.3-0.6c-0.9-0.6-1.7-1.3-2.2-2.3c-0.5-0.9-0.9-1.8-1.1-2.9c-0.2-1.6-0.4-3.2-0.5-4.9c0-0.4,0-0.7,0.2-1.1
	c0.1-0.3,0-0.5-0.3-0.5c-0.7,0-1.4,0-2,0c-0.3,0-0.5,0.2-0.5,0.5c0,1.6,0,3.2,0.1,4.8C39.1,167.4,39.2,168.1,39.4,168.8z"/>
</svg>
