<svg id="ea2235bf-4ad3-4002-aba6-a10a2330aa68" data-name="PRINT" xmlns="http://www.w3.org/2000/svg" viewBox="0 0 300 300"><path d="M0,300H300V0H0ZM199.33,121.16a13.61,13.61,0,0,1,.15-2.47,6.06,6.06,0,0,1,3.29-4.81,12.34,12.34,0,0,1,5.37-.93h19.34c5.21,0,10.42,0,15.63,0,4.43,0,8.86-.12,13.28-.11,3.78,0,7.56.12,11.33.19a5.71,5.71,0,0,1,2.69.65,6.59,6.59,0,0,1,2,1.2c.57.63,1,1.34,1.56,2,.84,1.06.72,2.33.74,3.55q.07,7,.14,14c0,3.7,0,7.4.06,11.1,0,2.07.07,4.15,0,6.23q-.14,10.58-.32,21.14c0,2.22-.09,4.44-.21,6.66,0,.92-.28,1.84-.4,2.77-.09.66-.1,1.33-.21,2a12.8,12.8,0,0,1-.53,2.3,7.18,7.18,0,0,0-.33,2.14c0,.21,0,.41-.05.65-.44-.08-.54.17-.57.51s-.1.85-.14,1.27a1.48,1.48,0,0,1-.51,1.08c-.15.13-.18.42-.24.64s-.08.77-.59.85c-.07,0-.15.12-.19.2a18,18,0,0,1-3.47,5.15,11.77,11.77,0,0,1-2.94,2.15,8.75,8.75,0,0,1-2.7,1,1,1,0,0,1-1.3-.65.63.63,0,0,1,0-.36c.09-.36.22-.72.3-1.08.18-.91.34-1.84.52-2.75a7.75,7.75,0,0,0-.13-4,7.83,7.83,0,0,1-.34-1.43,4.73,4.73,0,0,0-1.3-2.25,7.61,7.61,0,0,0-2.06-1.64,5.32,5.32,0,0,0-2.86-.76q-11.25-.1-22.49-.15c-6.22,0-12.45,0-18.67,0-1.92,0-3.84,0-5.76-.06a12.89,12.89,0,0,1-4.62-1.16,5.32,5.32,0,0,1-3.3-5.13c-.16-5-.16-10-.16-15Q199.3,143.54,199.33,121.16ZM25.09,141.23c0-2.77.21-5.54.33-8.32.08-2.14.19-4.28.25-6.42.06-1.9.08-3.8.09-5.71a17.22,17.22,0,0,1,.57-4c.13-.53.17-1.07.31-1.59q.7-2.55,1.45-5.1c.27-.93.55-1.88.9-2.79a7.37,7.37,0,0,1,1.42-2.51.92.92,0,0,0,.18-.43,1.25,1.25,0,0,1,.65-1,.33.33,0,0,0,.13-.13,10.65,10.65,0,0,1,.95-1.33,10.81,10.81,0,0,1,2.58-2.43c1.26-.61,2.57-1.12,3.86-1.68A1,1,0,0,1,40.07,99c-.14.42-.15.88-.27,1.3s-.33.89-.43,1.35a12.93,12.93,0,0,0-.13,4.64,6.65,6.65,0,0,0,1.21,3.24,8.54,8.54,0,0,0,1.26,1.62c.53.4.94,1,1.72,1.09a3.06,3.06,0,0,1,1,.32,6.39,6.39,0,0,0,2.83.52l16.57.05,11.39.08,21.86.1c2.18,0,4.35,0,6.53,0,6.25,0,12.51-.09,18.76-.1q28-.08,56.07-.12c3.2,0,6.39,0,9.58,0a2.89,2.89,0,0,1,1.8.49,1.09,1.09,0,0,0,.36.12,4.76,4.76,0,0,1,3,2.34,5.73,5.73,0,0,1,.79,2.51c.06.55.24,1.08.34,1.62a5.77,5.77,0,0,1,.12,1.09q0,25.3,0,50.62c0,2.46,0,4.92-.07,7.37a16.56,16.56,0,0,1-.59,3.55,5,5,0,0,1-3,3.64,11.68,11.68,0,0,1-4.15.93q-26.46,0-52.93,0h-78q-10.76,0-21.49,0a15.18,15.18,0,0,1-2.7-.1c-1.47-.28-2.79-.87-3.24-2.52-.77-2.88-1.66-5.73-2.29-8.64a42.21,42.21,0,0,1-.86-6.63c-.16-2.89-.11-5.8-.11-8.7C25.08,154.31,25.05,147.77,25.09,141.23Z"/><path d="M122.61,176.59a10.45,10.45,0,0,0,1.37,0,.64.64,0,0,0,.47-.33,20.17,20.17,0,0,0,.67-2.17,22.35,22.35,0,0,1,.51-2.46,9.64,9.64,0,0,0,.54-2.59,4.34,4.34,0,0,1,.14-.7c.19-.79.41-1.58.58-2.38a1.69,1.69,0,0,1,1.6-1.38c.7,0,1.39,0,2.09,0h12.15a1.55,1.55,0,0,1,1.48.86,8.41,8.41,0,0,1,.7,2c.38,1.71.69,3.43,1,5.15a.88.88,0,0,0,.07.23,8.93,8.93,0,0,1,.76,3.17c0,.32.18.53.49.55.71,0,1.42,0,2.13,0a.59.59,0,0,0,.37-.44,8.46,8.46,0,0,0-.3-2.2,16.74,16.74,0,0,1-.66-2.71c-.13-.82-.49-1.61-.64-2.43a10.59,10.59,0,0,0-.69-3,7.5,7.5,0,0,1-.27-1.54c-.2-.89-.52-1.77-.65-2.67a11.28,11.28,0,0,0-.69-3,3.11,3.11,0,0,1-.14-.75,8.51,8.51,0,0,0-.64-2.81,3.12,3.12,0,0,1-.22-1,9.54,9.54,0,0,0-.6-2.82,5.79,5.79,0,0,1-.25-1.39c-.08-.45-.14-.91-.26-1.35s-.37-1.07-.5-1.62-.28-1.39-.42-2.09-.29-1.32-.44-2-.31-1.36-.47-2c-.1-.39-.2-.77-.29-1.15l-.51-2.31c-.12-.52-.25-1.05-.35-1.57a8,8,0,0,0-.53-2.5,3.32,3.32,0,0,1-.24-1,11,11,0,0,0-.38-2.18,7.4,7.4,0,0,1-.54-2.25,2.91,2.91,0,0,0-.14-.89,8.44,8.44,0,0,1-.68-2.56.65.65,0,0,0-.44-.44c-.68,0-1.36,0-2,0v0h-1.29A1.31,1.31,0,0,0,133,125c0,.2-.06.4-.09.61a12.37,12.37,0,0,1-.72,3.38,5,5,0,0,0-.24,1.25c-.11.54-.2,1.09-.32,1.63a13.39,13.39,0,0,0-.39,1.51,6.9,6.9,0,0,1-.73,2.82.65.65,0,0,0-.06.23,24.59,24.59,0,0,1-.67,3.29c-.38,1.47-.52,3-.95,4.49a10.37,10.37,0,0,1-.69,2.79,1.11,1.11,0,0,0-.07.37,16.6,16.6,0,0,1-.8,4,5.2,5.2,0,0,0-.18,1.07c-.15.74-.31,1.48-.47,2.22a8.56,8.56,0,0,0-.31,1.18,6,6,0,0,1-.64,2.52,1.39,1.39,0,0,0-.12.55,9.77,9.77,0,0,1-.68,3.24,2.58,2.58,0,0,0-.17.74,8.17,8.17,0,0,1-.62,2.71,3.33,3.33,0,0,0-.27,1.2,6.9,6.9,0,0,1-.55,2.73,3.19,3.19,0,0,0-.17.88c-.13.74-.22,1.47-.37,2.2s-.37,1.47-.52,2.2a10.09,10.09,0,0,0-.12,1.09C122,176.37,122.17,176.57,122.61,176.59Zm5.35-16.2a8.35,8.35,0,0,0,.55-2.2,16.05,16.05,0,0,1,.49-2c.11-.48.2-1,.32-1.44.17-.67.4-1.32.54-2s.27-1.62.4-2.44a1.19,1.19,0,0,1,0-.33,30.9,30.9,0,0,0,.84-3.64c.39-1.37.64-2.76.9-4.15.16-.81.36-1.6.56-2.4.14-.56.31-1.12.44-1.69.17-.77.3-1.55.47-2.32.07-.34.18-.67.27-1a10.54,10.54,0,0,0,.43-1.6,9.21,9.21,0,0,1,.58-2.53,5.86,5.86,0,0,0,.25-1.26c.06-.32.19-.56.56-.61a.59.59,0,0,1,.72.47c.21.84.39,1.69.59,2.53.16.66.37,1.31.5,2s.23,1.6.37,2.39c.07.4.23.78.33,1.18.15.66.29,1.32.43,2a3.27,3.27,0,0,0,.11.65,12.58,12.58,0,0,1,.8,3.32c.1.67.5,1.32.54,2a21.35,21.35,0,0,0,.88,3.63c.24,1,.5,1.93.7,2.9.15.71.2,1.44.3,2.16a1,1,0,0,0,.08.42,6,6,0,0,1,.69,2.78c0,.31.19.6.25.91.21,1,.45,1.94.59,2.92.08.57-.59,1.16-1.2,1.16h-13.1A1.18,1.18,0,0,1,128,160.39Z"/><path d="M211.61,158.73c0,3.08,0,6.16.12,9.23a12.39,12.39,0,0,0,.3,2.35c.09.46.44.87.51,1.32a6.59,6.59,0,0,0,2,3.28,16.29,16.29,0,0,0,2.53,2.23,5.14,5.14,0,0,0,2,.84,26.52,26.52,0,0,0,6,.5,16.3,16.3,0,0,0,5.77-1.19,1.2,1.2,0,0,0,.27-.19c.46-.37.95-.73,1.39-1.14a13,13,0,0,0,2-2,4.79,4.79,0,0,0,1.07-2.35,2.79,2.79,0,0,1,.37-.81,1.92,1.92,0,0,0,.19-.48c.17-1.67.44-3.34.47-5,.06-3.83,0-7.67,0-11.51,0-3.14,0-6.28,0-9.42,0-2.33,0-4.66,0-7,0-2.74,0-5.48,0-8.23,0-1.45-.06-2.91-.09-4.37,0-.67-.27-1-.94-1-1.9,0-3.81,0-5.71,0-.67,0-.77.12-.77.79q0,10.54,0,21.1h0c0,6.17,0,12.34,0,18.52a13.28,13.28,0,0,1-.5,4.31,4,4,0,0,1-3.56,2.59c-.57,0-1.14,0-1.71-.07a3.37,3.37,0,0,1-2.55-1.48,5.19,5.19,0,0,1-.93-3.31c0-5.76,0-11.53,0-17.29q0-12-.05-24.09c0-.91-.24-1.13-1.17-1.13h-6c-.61,0-.82.19-.88.81a4.41,4.41,0,0,0,0,.52c0,2.51,0,5,0,7.52Q211.61,145.69,211.61,158.73Z"/><path d="M156.22,176.6c.58,0,1.17,0,1.75,0s.69-.11.69-.65c0-5.81,0-11.62,0-17.43a3.6,3.6,0,0,1,.64-2.14c.28-.4.59-.78.86-1.19.55-.82,1-1.66,1.61-2.46s1.08-.7,1.6,0c.23.34.36.74.57,1.09,1,1.58,2,3.14,2.92,4.72.44.74.81,1.53,1.25,2.28.7,1.2,1.44,2.37,2.14,3.57.62,1,1.2,2.12,1.81,3.17.8,1.36,1.62,2.72,2.44,4.07s1.62,2.72,2.45,4.05c.26.41.55.88,1.11.9s1.39,0,2.09-.05c.1,0,.27-.11.29-.19a.59.59,0,0,0-.11-.37c-.1-.19-.25-.34-.34-.53s-.26-.58-.42-.85c-.73-1.22-1.5-2.41-2.2-3.65-.9-1.58-1.75-3.18-2.63-4.78-.26-.48-.52-1-.8-1.45-.81-1.36-1.64-2.7-2.44-4.06-.3-.5-.52-1-.81-1.56-.53-.95-1.09-1.89-1.64-2.83-.65-1.09-1.3-2.19-1.94-3.29-.78-1.35-1.57-2.71-2.32-4.08a1.3,1.3,0,0,1,.1-1.4c.43-.69.87-1.38,1.3-2.08l2.38-3.86c.59-1,1.29-1.89,1.82-2.92.67-1.28,1.47-2.49,2.23-3.72s1.7-2.7,2.55-4.06c.5-.81,1-1.64,1.5-2.46.39-.64.81-1.28,1.2-1.92s.82-1.31,1.18-2c.22-.41.07-.63-.39-.65s-1.14,0-1.71,0-.92.08-1,.69c0,.1-.12.18-.18.28-.42.59-.86,1.17-1.24,1.79-.94,1.54-1.82,3.11-2.76,4.65-1.11,1.81-2.24,3.6-3.37,5.39-.14.22-.35.41-.48.64-.37.67-.68,1.39-1.08,2.05-1.07,1.72-2.19,3.43-3.28,5.14-.4.63-.78,1.27-1.17,1.9s-.65,1-1,1.51c-.52.85-1,1.71-1.57,2.54a.69.69,0,0,1-.55.23,1.24,1.24,0,0,1-.57-.49,1.1,1.1,0,0,1-.06-.55q0-11,0-22c0-1,0-2.06,0-3.1,0-.57-.16-.68-.72-.67s-1.08,0-1.62,0-.69.06-.7.61c0,.76,0,1.52,0,2.29v23.47h0v3.09q0,11.35,0,22.71C155.59,176.47,155.75,176.61,156.22,176.6Z"/><path d="M244.23,177.79h5.85a1.36,1.36,0,0,0,.63-.24,1.1,1.1,0,0,0,.37-1c0-2.23-.05-4.47-.05-6.7q0-4.68,0-9.34a9.88,9.88,0,0,0,.1-1.31,1.47,1.47,0,0,1,1.54-1.83,42.76,42.76,0,0,0,6.69-.3,3.49,3.49,0,0,0,.91-.24c.92-.44,1.85-.88,2.74-1.38a10.8,10.8,0,0,0,1.47-1.07,3.43,3.43,0,0,0,.81-.85c.81-1.36,1.79-2.66,1.93-4.32a.9.9,0,0,1,.12-.36,6,6,0,0,0,.58-2.92c0-3.36,0-6.72,0-10.09a8.31,8.31,0,0,0-.55-3.45c-.14-.33-.12-.72-.25-1.06a11.85,11.85,0,0,0-1.08-2.55,6.69,6.69,0,0,0-1.4-1.86,7.32,7.32,0,0,0-1.89-1.42,4.82,4.82,0,0,1-.5-.27c-.4-.18-.8-.37-1.2-.54a7.1,7.1,0,0,1-.82-.25,8.15,8.15,0,0,0-3.58-.6H244.27a4.77,4.77,0,0,0-.76.07.58.58,0,0,0-.54.66c0,1,0,2.06,0,3.09q0,11.49,0,23h0v20c0,2,0,4,0,6C242.94,177.46,243.4,177.8,244.23,177.79Zm6.76-44.6a7.32,7.32,0,0,1,0-.81,1.39,1.39,0,0,1,1.54-1.37c1.24,0,2.47,0,3.71.05A3.14,3.14,0,0,1,259,132.8a5.44,5.44,0,0,1,.8,2.76c0,3.42.07,6.85,0,10.27a4.62,4.62,0,0,1-1.61,3.44,2.68,2.68,0,0,1-1.39.63c-1.5.12-3,.13-4.52.15A1.29,1.29,0,0,1,251,148.7v-8h0Z"/><path d="M95.36,176c0,.43.15.62.62.62,2,0,4,0,6,0h13a2.94,2.94,0,0,0,.89-.12.6.6,0,0,0,.35-.38,11,11,0,0,0,.06-1.52c0-.45-.18-.79-.72-.81-.31,0-.63-.1-.94-.1-2.83,0-5.65,0-8.48,0-2,0-4-.09-6,0a1.58,1.58,0,0,1-1.62-1.57c0-4,0-8,0-12q0-3.81,0-7.62a1.51,1.51,0,0,1,1.88-1.6,1.29,1.29,0,0,0,.28,0c1.27,0,2.54-.08,3.8-.08s2.45.06,3.67.06,2.75-.05,4.13,0c.61,0,.93-.24.93-.86,0-.4,0-.8,0-1.19a.52.52,0,0,0-.59-.53H100.18c-1.24,0-1.77-.53-1.77-1.78q0-9.36,0-18.71a1.48,1.48,0,0,1,1.53-1.57c3.16,0,6.32,0,9.48,0,2.07,0,4.15,0,6.23-.07a.5.5,0,0,0,.55-.56v-1.19c0-.39-.14-.58-.57-.58-1.5,0-3,0-4.52,0l-15.09,0c-.53,0-.64.12-.64.65,0,1.11,0,2.22,0,3.33V150.2h0V171C95.37,172.65,95.37,174.3,95.36,176Z"/><path d="M68.08,176.59c.64,0,1.27,0,1.9,0a.51.51,0,0,0,.6-.57c0-.47,0-.95,0-1.42V155.82a1.3,1.3,0,0,1,1.27-1.28c.73,0,1.46,0,2.19,0,2.75-.11,5.53.29,8.25-.62a13.18,13.18,0,0,0,3.27-1.52,7.75,7.75,0,0,0,3-4.15c.1-.3.24-.59.34-.89a9.47,9.47,0,0,0,.4-1.45,18.53,18.53,0,0,0,.13-2.23c0-3.19,0-6.38,0-9.57a14.36,14.36,0,0,0-.28-2.45,7.67,7.67,0,0,0-.57-1.51,12.18,12.18,0,0,0-1.11-2.33,7.6,7.6,0,0,0-4.36-3.29,1.53,1.53,0,0,1-.53-.22,3.52,3.52,0,0,0-2-.47q-.61,0-1.23,0l-5.38,0c-1.94,0-3.88,0-5.81,0-.53,0-.7.11-.7.64v25.8h0v9.43q0,8.19,0,16.38C67.53,176.43,67.71,176.59,68.08,176.59ZM72,126.24c2.22,0,4.45-.08,6.67.07a11,11,0,0,1,3.75.92,5.63,5.63,0,0,1,3.3,3.77c.13.51.43,1,.55,1.5a6.28,6.28,0,0,1,.17,1.5c0,2.24.09,4.48.08,6.71,0,1.52-.1,3-.16,4.56a3.42,3.42,0,0,1-.53,1.85c-.34.52-.52,1.15-.87,1.67a6.29,6.29,0,0,1-2.88,2.3,7.5,7.5,0,0,1-2.77.54c-2.52.06-5,.08-7.57.1a1.24,1.24,0,0,1-1.1-1.17V139h0V127.66A1.41,1.41,0,0,1,72,126.24Z"/><path d="M39.37,168.76c.42,1,.49,2.2,1.23,3.11.4.49.69,1.08,1.12,1.55a7.2,7.2,0,0,0,2,1.81c.07,0,.1.12.17.17a4.35,4.35,0,0,0,.57.38c.33.16.67.3,1,.43a4.4,4.4,0,0,0,1,.37c1.29.18,2.58.33,3.87.47a2.18,2.18,0,0,0,.57,0c1-.13,1.92-.25,2.87-.4a3.63,3.63,0,0,0,1.14-.31c.81-.45,1.58-1,2.36-1.48a6.53,6.53,0,0,0,1.9-1.8,13.64,13.64,0,0,0,1.18-2.24,9.83,9.83,0,0,0,.67-2.41c0-.32.12-.65.2-1a11,11,0,0,0,.38-4.19c-.17-1.17-.44-2.33-.72-3.48a8.61,8.61,0,0,0-.6-1.63,18.55,18.55,0,0,0-1-1.85,9.56,9.56,0,0,0-1-1.41c-.63-.66-1.32-1.26-2-1.89l-.95-.92A14.58,14.58,0,0,0,54,150.94c-1-.76-2.08-1.46-3.12-2.2-.53-.38-1-.77-1.55-1.18-.78-.63-1.56-1.27-2.31-1.93-.41-.36-.78-.77-1.16-1.17s-.56-.59-.81-.9a10.2,10.2,0,0,1-2.43-4.12,9.2,9.2,0,0,1-.48-2,16,16,0,0,1,0-2,9.59,9.59,0,0,1,.65-4.24,8.07,8.07,0,0,1,1.58-2.78,13.44,13.44,0,0,1,1-1,5.23,5.23,0,0,1,2.5-1.29,16.12,16.12,0,0,1,4.6-.06,5.89,5.89,0,0,1,2.89,1.45,6.2,6.2,0,0,1,2,2.45c.26.64.37,1.35.67,2a8.57,8.57,0,0,1,.58,3.81,3.58,3.58,0,0,0,.16,1.08.74.74,0,0,0,.52.42,14.48,14.48,0,0,0,1.61,0,.44.44,0,0,0,.5-.48,10.58,10.58,0,0,0-.21-3.72,2.77,2.77,0,0,1-.16-.69,12.58,12.58,0,0,0-1.13-4,1,1,0,0,0-.16-.24,22.65,22.65,0,0,0-1.41-1.82,7.81,7.81,0,0,0-1.78-1.53,6.8,6.8,0,0,0-2.58-1,2.43,2.43,0,0,1-.49-.18,6.61,6.61,0,0,0-1.35-.37c-1.08-.06-2.16-.06-3.24,0a4.43,4.43,0,0,0-1.5.21,13.77,13.77,0,0,0-3.51,1.5,13.05,13.05,0,0,0-1.35,1,8.35,8.35,0,0,0-1.06,1.37,10.36,10.36,0,0,0-1.69,3.62,13.94,13.94,0,0,0-.69,3.95c0,.94,0,1.87,0,2.81a4.48,4.48,0,0,0,.13,1.22,13.78,13.78,0,0,0,1.35,3.73c.42.61.75,1.28,1.15,1.91a7.07,7.07,0,0,0,.85,1.18c.4.44.86.83,1.29,1.24.28.26.54.53.82.78.44.41.86.83,1.32,1.19s1.18.79,1.75,1.22c1,.77,2.06,1.56,3.08,2.35.41.31.83.63,1.23,1s.85.74,1.27,1.11a19.56,19.56,0,0,1,1.57,1.44c.53.58.94,1.27,1.46,1.87A5.75,5.75,0,0,1,57.88,161a2.74,2.74,0,0,0,.21.78,6.53,6.53,0,0,1,.44,2.55,18.28,18.28,0,0,1-.59,3.6,7.5,7.5,0,0,1-1,2.63,12.07,12.07,0,0,1-1.43,1.69,4.56,4.56,0,0,1-2.45,1.44,2.89,2.89,0,0,0-.72.23,6.1,6.1,0,0,1-3.55.33,9.67,9.67,0,0,1-2-.65,7.44,7.44,0,0,1-1.29-.57,6.27,6.27,0,0,1-2.24-2.28,9.29,9.29,0,0,1-1.11-2.85,46.44,46.44,0,0,1-.45-4.86,2.76,2.76,0,0,1,.16-1.06c.1-.33,0-.5-.31-.52-.69,0-1.37,0-2,0-.33,0-.51.18-.5.54,0,1.59,0,3.17.07,4.76A5.9,5.9,0,0,0,39.37,168.76Z"/></svg>