<?xml version="1.0" encoding="utf-8"?>
<!-- Generator: Adobe Illustrator 25.4.1, SVG Export Plug-In . SVG Version: 6.00 Build 0)  -->
<svg version="1.1" id="a4e6ce99-dd0f-48be-9ff4-b7a51c3dea9c"
	 xmlns="http://www.w3.org/2000/svg" xmlns:xlink="http://www.w3.org/1999/xlink" x="0px" y="0px" viewBox="0 0 300 300"
	 style="enable-background:new 0 0 300 300;" xml:space="preserve">
<style type="text/css">
	.st0{fill:#A1A1AA;}
</style>
<path class="st0" d="M0,300h300V0H0V300z M226.7,107.4c7.2,0.1,14.4,0,21.7,0.2c3.9,0.1,7.5,1.4,9.8,4.9c1.7,2.6,2.3,5.8,1.7,8.9
	c-0.9,5.4-2,10.7-3.2,16.1c-0.4,2-1,3.9-1.8,5.7c-1.9,4.6-5.6,8.1-10.3,9.8c-0.8,0.1-1.4,0.9-1.2,1.8c0,0.1,0,0.2,0.1,0.2
	c1.8,12.6,3.6,25.1,5.4,37.8h-16.3c-0.7-12.2-1.3-24.4-2-36.6l-0.7-0.1c-1.2,3.9-1.9,8-2.8,12s-1.8,8.2-2.8,12.3s-1.9,8.2-2.8,12.4
	h-15c1.6-7.4,3.3-14.6,4.9-21.9c4.7-20.7,9.3-41.5,14-62.2C225.7,107.9,225.8,107.3,226.7,107.4z M187.9,107.4c10.9,0,21.9,0,32.8,0
	c0.3,0,0.7,0.1,1.1,0.1c-0.1,0.5-0.1,0.8-0.2,1c-0.9,4.1-1.9,8.3-2.8,12.5h-20.2c-1.6,7.4-3.3,14.8-5,22.3H211
	c-0.7,3-1.3,5.8-1.9,8.7c-0.1,0.6-0.3,1.2-0.4,1.9c-0.7,3.2-0.7,3.2-3.9,3.2h-14.2l-4.9,22.2h20.2c-1.1,4.7-2.1,9.1-3,13.6h-35.3
	c0.9-4.2,1.8-8.3,2.8-12.5c5.3-23.8,10.7-47.7,16-71.5C186.5,107.9,186.7,107.3,187.9,107.4L187.9,107.4z M143.6,107.4
	c7.4,0.1,14.8,0.1,22.2,0.1c1.1,0.1,2.1,0.2,3.1,0.5c6.2,1.5,9.5,5.8,8.8,12.4c-0.6,4.7-1.4,9.3-2.6,13.9c-2.9,13.3-5.9,26.6-8.9,40
	c-1.3,5.8-3.7,10.9-8.7,14.5c-3.8,2.7-8.4,4.1-13.1,4c-6.8,0.1-13.6,0-20.4,0c-0.3,0-0.5-0.1-0.8-0.1c0.8-3.4,1.5-6.7,2.2-10
	c5.5-24.6,11.1-49.3,16.6-73.9C142.5,108,142.6,107.3,143.6,107.4z M105.4,109c6.6-3.4,14.3-4,21.3-1.6c5.1,1.6,7.9,5.6,7.6,11.3
	c-0.3,3.4-0.8,6.9-1.7,10.2c-3.5,15.8-7.1,31.7-10.8,47.5c-1.8,7.7-5.8,13.7-13.6,16.2c-3.1,1-6.4,1.3-9.7,1.9c-3-0.6-6.1-0.9-9-1.9
	c-4.5-1.5-6.6-5.1-7-9.7c-0.3-4.2,0.9-8.2,1.8-12.2c3.5-15.6,7-31.1,10.5-46.6C96.4,117.6,99.3,112.1,105.4,109z M40,179.1
	c1-6.3,2.6-12.5,4-18.7c2.7-12.1,5.4-24.2,8.2-36.2c1.6-7,5-12.8,11.8-15.9c4.7-2.1,9.7-2.5,14.8-2.1c1.4,0.1,2.7,0.4,4,0.7
	c5.9,1.6,9.1,5.5,8.8,11.6c-0.2,4-1.3,7.9-2,11.8c-0.4,2-1,4.1-1.5,6.2h-15c0.7-3,1.3-5.9,2-8.9c0.3-1.4,0.7-2.8,0.8-4.2
	c0.3-2.4-0.7-3.6-3.1-3.7c-3.2-0.2-5.2,1.4-6,5c-1.1,4.7-2.1,9.4-3.2,14.1c-2.7,12.1-5.4,24.3-8.1,36.4c0,0.1,0,0.2-0.1,0.3
	c-0.5,2.5-0.2,3.9,1.1,4.6c1.7,0.9,4.7,0.6,6-1c0.8-1.1,1.5-2.4,1.8-3.8c0.9-3.5,1.6-7.1,2.4-10.7c0.1-0.3,0.2-0.6,0.3-1h15
	c-1.4,5.6-2.4,11.1-4.2,16.4c-2.9,8.7-9.5,13.1-18.4,13.9c-3,0.3-5.9,0.2-8.9-0.2C42.6,192.5,38.7,187.2,40,179.1z"/>
<path class="st0" d="M145.2,179.2c3.9,0,5.5-1.3,6.4-5.1c3.2-14.3,6.4-28.5,9.6-42.8c0.5-2.1,1-4.1,1.4-6.2c0.4-2.3-0.4-3.9-2.4-4.1
	c-1.8-0.1-3.7-0.1-5.5,0c-4.3,19.4-8.6,38.6-13,58.2L145.2,179.2z"/>
<path class="st0" d="M101.6,180.5c3.1,0,4.8-1.6,5.6-5.2l10.3-45.9c0.4-2,1-4,1.2-6c0.3-2.3-0.7-3.4-3.1-3.6c-3.2-0.2-5.2,1.4-6,4.9
	c-2.7,11.8-5.3,23.7-7.9,35.5c-1.2,5.5-2.5,10.9-3.6,16.4C97.6,179.2,98.8,180.5,101.6,180.5z"/>
<path class="st0" d="M241.6,138.5c1-4.5,2-9,2.9-13.6c0.5-2.6-0.7-4.1-3.4-4.2c-0.7,0-1.4,0.1-2,0c-1-0.1-1.3,0.3-1.5,1.2
	c-1,4.7-2.1,9.4-3.1,14.1c-0.5,2.3-1,4.6-1.6,7.3c1.7,0,3.3-0.2,5-0.5C239.8,142.3,241.3,140.6,241.6,138.5z"/>
</svg>
