<svg id="a4e6ce99-dd0f-48be-9ff4-b7a51c3dea9c" data-name="PRINT" xmlns="http://www.w3.org/2000/svg" viewBox="0 0 300 300"><path d="M0,300H300V0H0ZM226.74,107.36c7.22.07,14.45,0,21.66.2,3.91.13,7.52,1.42,9.83,4.92a12.13,12.13,0,0,1,1.73,8.86c-.89,5.38-2,10.72-3.17,16.06a32.48,32.48,0,0,1-1.75,5.71,17.38,17.38,0,0,1-10.28,9.8,1.52,1.52,0,0,0-1.18,2c1.84,12.55,3.6,25.1,5.4,37.81H232.64q-1-18.36-2-36.61l-.69-.1c-1.24,3.93-1.88,8-2.84,12s-1.83,8.18-2.75,12.27-1.86,8.25-2.78,12.38h-15c1.65-7.37,3.29-14.64,4.92-21.91q7-31.09,14-62.2C225.66,107.88,225.79,107.35,226.74,107.36Zm-38.89,0c10.94,0,21.87,0,32.81,0,.33,0,.66.05,1.14.09-.09.48-.12.76-.19,1-.92,4.14-1.85,8.27-2.8,12.47H198.56c-1.65,7.41-3.29,14.77-5,22.3H211c-.66,3-1.28,5.84-1.91,8.68-.14.62-.3,1.23-.44,1.85-.73,3.17-.73,3.17-3.9,3.17H190.53l-4.95,22.17h20.25c-1.05,4.69-2.05,9.13-3,13.59H167.56c.93-4.21,1.83-8.34,2.75-12.46q8-35.75,16-71.5C186.5,107.86,186.73,107.34,187.85,107.35Zm-44.24,0c7.41.07,14.84.07,22.25.14A14.79,14.79,0,0,1,169,108c6.21,1.47,9.5,5.76,8.84,12.37a123.07,123.07,0,0,1-2.56,13.93c-2.92,13.33-5.93,26.64-8.94,40-1.3,5.75-3.7,10.89-8.66,14.47a22.48,22.48,0,0,1-13.09,4c-6.79.12-13.57,0-20.36,0a8.24,8.24,0,0,1-.82-.11c.77-3.42,1.5-6.69,2.24-10q8.31-36.94,16.63-73.9C142.49,108,142.55,107.35,143.61,107.36ZM105.44,109a27.58,27.58,0,0,1,21.33-1.63c5.13,1.56,7.86,5.63,7.57,11.35a59.62,59.62,0,0,1-1.7,10.21q-5.29,23.76-10.77,47.47c-1.78,7.68-5.8,13.68-13.62,16.23-3.06,1-6.36,1.29-9.67,1.93-3-.61-6.12-.9-9-1.87-4.48-1.53-6.61-5.06-7-9.72-.33-4.22.92-8.21,1.82-12.24q5.2-23.33,10.5-46.64C96.4,117.62,99.35,112.08,105.44,109ZM40,179.13c1-6.29,2.59-12.49,4-18.72q4-18.14,8.16-36.24c1.6-7,5-12.8,11.84-15.9,4.71-2.13,9.7-2.49,14.77-2.06a22.88,22.88,0,0,1,4,.71c5.9,1.58,9.13,5.53,8.79,11.61-.22,4-1.28,7.87-2,11.79-.4,2-1,4.06-1.47,6.16h-15c.68-3,1.35-5.95,2-8.89.31-1.38.66-2.75.84-4.15.31-2.4-.73-3.58-3.14-3.74-3.17-.23-5.21,1.45-6,5q-1.59,7-3.15,14.12-4.05,18.19-8.09,36.4c0,.09,0,.18-.07.28-.53,2.49-.18,3.89,1.13,4.59,1.74.92,4.7.58,6-1a10,10,0,0,0,1.78-3.75c.92-3.53,1.64-7.12,2.44-10.68.08-.33.21-.65.34-1h15c-1.4,5.55-2.42,11.09-4.21,16.37-2.93,8.66-9.47,13.11-18.43,13.92a38.88,38.88,0,0,1-8.89-.23C42.63,192.49,38.69,187.2,40,179.13Z"/><path d="M145.17,179.21c3.86,0,5.49-1.26,6.35-5.08q4.83-21.39,9.61-42.8c.46-2.05,1-4.09,1.35-6.15.43-2.29-.45-3.88-2.41-4.08a53.8,53.8,0,0,0-5.54,0c-4.32,19.36-8.61,38.62-13,58.15Z"/><path d="M101.57,180.48c3.08,0,4.78-1.56,5.61-5.23l10.29-45.91c.44-2,1-4,1.21-6,.31-2.35-.72-3.44-3.09-3.63-3.16-.25-5.23,1.4-6,4.9q-4,17.76-7.91,35.51c-1.21,5.47-2.47,10.93-3.55,16.42C97.59,179.21,98.84,180.47,101.57,180.48Z"/><path d="M241.55,138.52c1-4.51,2-9,2.91-13.56.52-2.64-.73-4.11-3.43-4.2-.68,0-1.37.06-2,0-1-.11-1.33.31-1.53,1.24-1,4.72-2.07,9.41-3.12,14.11-.51,2.32-1,4.63-1.61,7.26a30.78,30.78,0,0,0,5-.48A5.32,5.32,0,0,0,241.55,138.52Z"/></svg>