<?xml version="1.0" encoding="utf-8"?>
<!-- Generator: Adobe Illustrator 25.4.1, SVG Export Plug-In . SVG Version: 6.00 Build 0)  -->
<svg version="1.1" id="bcc6ec8f-f541-401b-a425-884259b7e6e6"
	 xmlns="http://www.w3.org/2000/svg" xmlns:xlink="http://www.w3.org/1999/xlink" x="0px" y="0px" viewBox="0 0 300 300"
	 style="enable-background:new 0 0 300 300;" xml:space="preserve">
<style type="text/css">
	.st0{fill:#A1A1AA;}
</style>
<path class="st0" d="M257,159.4c5.3-0.1,9.5-4.3,9.5-9c0-5.2-4.3-9.4-9.5-9.3c-5.2,0-9.4,4.3-9.3,9.5
	C247.7,155.2,251.9,159.4,257,159.4z"/>
<path class="st0" d="M76.9,159.3c5-0.1,9-4.3,8.9-9.3c-0.1-5-4.3-9-9.3-8.9c-4.9,0.1-8.9,4.1-8.9,9.1
	C67.7,155.3,71.8,159.3,76.9,159.3z"/>
<path class="st0" d="M200.5,140.7c-3.9-0.1-7.4,2.3-8.6,6l16.8,0.1C208.2,143.3,204.6,140.7,200.5,140.7z"/>
<path class="st0" d="M0,300h300V0H0V300z M255.6,132.8c5.4,0,8.5,1.6,10.5,4.7l0.8-4.1h8.1v33.7h-8.1l-1-3.5
	c-2.4,2.5-5.3,4.1-10.3,4.1c-9.3-0.3-16.6-7.9-16.6-17.2C239.1,139.9,247.7,132.8,255.6,132.8z M220.9,133.6h8.6v3.9
	c2-3.1,5.2-4.6,9.6-4.7l-1.6,8c-0.3-0.1-0.6-0.1-0.9-0.1c-4.6,0-7.2,2.8-7.2,8.2v17.9h-8.6L220.9,133.6z M200.5,132.8
	c9.9,0,16.9,8,16.9,17.3c0,0.9-0.1,1.9-0.2,2.8l-25.7-0.1c1,4.1,4.3,6.9,9.3,7c3.2,0.1,6.3-1.2,8.4-3.6l5.9,4.8
	c-3.4,4.4-8.7,7-14.2,6.8c-10.1-0.1-18-7.7-18-17.5C183,140.8,189.8,132.7,200.5,132.8z M166.8,132.8c5.6,0,10.6,2.4,13.4,7.1
	l-7.7,4c-1.1-2.2-3.5-3.6-6-3.5c-2.7,0-4,0.9-4,2.4c0,5.2,18.5,1.9,18.5,14.4c0,6.5-5.4,10.4-14,10.4c-7.4-0.1-12.5-2.4-15.1-7.9
	l7.8-4c1.3,2.8,3.9,4.4,7.5,4.4c3.4,0,4.6-1.1,4.6-2.5c0-5.4-18.5-2.1-18.5-14.4C153.4,136.4,159.4,132.8,166.8,132.8z M142.1,133.6
	v3.9c2-3.1,5.3-4.6,9.9-4.7l-1.6,8c-0.3-0.1-0.6-0.1-0.9-0.1c-4.7,0-7.4,2.8-7.4,8.2l0.1,17.9h-8.8l-0.1-33.1L142.1,133.6z
	 M98.3,133.3h8.6v19.6c0,4.3,2.4,6.9,6.5,6.9c4.6,0,7.3-2.9,7.3-8.3v-18.1h8.6v33.7h-8.6V163c-2,3.2-5.3,4.7-9.9,4.7
	c-7.8,0.1-12.5-5.6-12.5-13.8V133.3z M76.9,132.8c9.7,0.2,17.3,8.2,17.1,17.9s-8.2,17.3-17.9,17.1c-9.5-0.2-17.1-8-17.1-17.5
	C59.1,140.5,67.1,132.7,76.9,132.8C76.9,132.8,76.9,132.8,76.9,132.8z M42.8,132.8c6-0.1,11.7,2.9,15.1,7.9l-7.4,4.3
	c-1.8-2.5-4.6-3.9-7.6-3.9c-5,0.1-8.9,4.2-8.8,9.2s4.2,8.9,9.2,8.8c3.1-0.1,5.9-1.7,7.5-4.3L58,159c-3.3,5.2-9.1,8.3-15.2,8.2
	c-9.5,0.2-17.4-7.3-17.6-16.8c-0.2-9.5,7.3-17.4,16.8-17.6C42.3,132.8,42.5,132.8,42.8,132.8L42.8,132.8z"/>
</svg>
