<svg id="bcc6ec8f-f541-401b-a425-884259b7e6e6" data-name="PRINT" xmlns="http://www.w3.org/2000/svg" viewBox="0 0 300 300"><path d="M257,159.4c5.31-.07,9.47-4.26,9.47-9a9.4,9.4,0,0,0-18.8.13C247.67,155.21,251.9,159.4,257,159.4Z"/><path d="M76.89,159.33a9.09,9.09,0,1,0-9.3-9.11A9.39,9.39,0,0,0,76.89,159.33Z"/><path d="M200.47,140.68a8.92,8.92,0,0,0-8.62,6l16.83.07C208.21,143.34,204.6,140.68,200.47,140.68Z"/><path d="M0,300H300V0H0ZM255.59,132.78c5.38,0,8.46,1.6,10.55,4.73l.8-4.13H275v33.68h-8.06l-1-3.47c-2.35,2.53-5.3,4.13-10.27,4.13a17.16,17.16,0,0,1-16.59-17.24C239.07,139.9,247.74,132.78,255.59,132.78Zm-34.72.85h8.55v3.86c2-3.14,5.22-4.65,9.65-4.71l-1.56,8a3.74,3.74,0,0,0-.85-.06c-4.63,0-7.24,2.81-7.24,8.17v17.87h-8.55Zm-20.4-.85c9.94,0,16.95,8,16.95,17.27a19.39,19.39,0,0,1-.2,2.79l-25.7-.07c1,4.06,4.34,6.91,9.34,7a10.61,10.61,0,0,0,8.35-3.65l5.94,4.78a17.37,17.37,0,0,1-14.22,6.84c-10.15-.13-18-7.7-18-17.54C183,140.75,189.78,132.71,200.47,132.78Zm-33.65,0c5.62,0,10.64,2.45,13.38,7.08l-7.69,4a6.4,6.4,0,0,0-6-3.51c-2.68,0-4,.93-4,2.45,0,5.23,18.46,1.92,18.46,14.43,0,6.48-5.35,10.45-14,10.45-7.36-.07-12.51-2.45-15.05-7.94l7.76-4c1.27,2.78,3.88,4.37,7.49,4.37,3.35,0,4.62-1.06,4.62-2.51,0-5.37-18.47-2.12-18.47-14.43C153.37,136.35,159.4,132.78,166.82,132.78Zm-24.74.85v3.86c2-3.14,5.31-4.65,9.89-4.71l-1.62,8a3.92,3.92,0,0,0-.87-.06c-4.71,0-7.4,2.81-7.4,8.17l.07,17.87h-8.82l-.06-33.11Zm-43.75-.36h8.6v19.55c0,4.33,2.37,6.85,6.5,6.85,4.6,0,7.3-2.86,7.3-8.31V133.27h8.6v33.65h-8.6V163c-2,3.19-5.32,4.72-9.86,4.72-7.75.07-12.54-5.59-12.54-13.83Zm-21.44-.49A17.48,17.48,0,1,1,59,150.22,17.65,17.65,0,0,1,76.89,132.78Zm-34.11,0a18.05,18.05,0,0,1,15.06,7.87l-7.43,4.27A9.41,9.41,0,0,0,42.78,141a9,9,0,1,0,7.83,13.72L58,159a17.9,17.9,0,0,1-15.19,8.21,17.23,17.23,0,1,1,0-34.45Z"/></svg>