<svg id="f9b75130-f5f2-40b9-9831-4cd1a1b59c20" data-name="PRINT" xmlns="http://www.w3.org/2000/svg" viewBox="0 0 300 300"><path d="M0,300H300V0H0ZM122.9,72.92c5.26-.32,10.54-.1,15.81-.1h87a47.19,47.19,0,0,1,6.07.16c8.49,1.06,14.72,7.75,14.42,15.31s-6.83,14-15.39,14.29c-9.52.32-19.08.53-28.57,0-6.17-.34-7.37,2-7.33,7.58.23,31.82.12,63.65.1,95.47a68.67,68.67,0,0,1-.41,8.49c-1.27,9.88-7.71,15.79-17.33,16.07-9.08.26-16.06-5.35-17.91-14.74a50.87,50.87,0,0,1-.72-9.65q-.07-47.43,0-94.86V102.7c-12,0-23.06,0-34.17,0-6.81,0-12.38-2.68-15.42-8.9C104.33,84.28,111.49,73.62,122.9,72.92Zm-69,15.5c0-11.34,7.14-18.61,17.91-18.6s17.84,7.25,17.87,18.57c0,20.66,0,41.33,0,62q0,30.38,0,60.77c0,11.39-6.88,18.79-17.51,19-10.8.21-18.26-7.42-18.28-19Q53.8,149.79,53.87,88.42Z"/></svg>