<?xml version="1.0" encoding="utf-8"?>
<!-- Generator: Adobe Illustrator 25.4.1, SVG Export Plug-In . SVG Version: 6.00 Build 0)  -->
<svg version="1.1" id="f9b75130-f5f2-40b9-9831-4cd1a1b59c20"
	 xmlns="http://www.w3.org/2000/svg" xmlns:xlink="http://www.w3.org/1999/xlink" x="0px" y="0px" viewBox="0 0 300 300"
	 style="enable-background:new 0 0 300 300;" xml:space="preserve">
<style type="text/css">
	.st0{fill:#A1A1AA;}
</style>
<path class="st0" d="M0,300h300V0H0V300z M122.9,72.9c5.3-0.3,10.5-0.1,15.8-0.1h87c2-0.1,4.1,0,6.1,0.2c8.5,1.1,14.7,7.8,14.4,15.3
	s-6.8,14-15.4,14.3c-9.5,0.3-19.1,0.5-28.6,0c-6.2-0.3-7.4,2-7.3,7.6c0.2,31.8,0.1,63.6,0.1,95.5c0,2.8-0.1,5.7-0.4,8.5
	c-1.3,9.9-7.7,15.8-17.3,16.1c-9.1,0.3-16.1-5.4-17.9-14.7c-0.5-3.2-0.8-6.4-0.7-9.6c0-31.6,0-63.2,0-94.9v-8.2c-12,0-23.1,0-34.2,0
	c-6.8,0-12.4-2.7-15.4-8.9C104.3,84.3,111.5,73.6,122.9,72.9z M53.9,88.4c0-11.3,7.1-18.6,17.9-18.6s17.8,7.2,17.9,18.6
	c0,20.7,0,41.3,0,62c0,20.3,0,40.5,0,60.8c0,11.4-6.9,18.8-17.5,19c-10.8,0.2-18.3-7.4-18.3-19C53.8,170.2,53.8,129.3,53.9,88.4
	L53.9,88.4z"/>
</svg>
