<svg id="e37b40b6-4cca-4858-9467-58fca9327325" data-name="PRINT" xmlns="http://www.w3.org/2000/svg" viewBox="0 0 300 300"><path d="M0,300H300V0H0ZM58.66,181h-8.3a23.07,23.07,0,0,1-7-4.77,26.42,26.42,0,0,1-7.5-21.6,38.47,38.47,0,0,1,8.5-19.95l-1.63,8h1.19a29.53,29.53,0,0,0-3.48,13.6c0,.3,0,.59,0,.87h-.72l-1.86,9.31h4.83a21.47,21.47,0,0,0,4.17,5.88,21.82,21.82,0,0,0,12.33,6.16Zm-.11-23.86H54.93a12.17,12.17,0,0,1-.42-3.23,17.08,17.08,0,0,1,4.79-11.25h3.75a16.41,16.41,0,0,0-1.25,1.12A13.2,13.2,0,0,0,57.6,153,9.29,9.29,0,0,0,58.55,157.15Zm3.84-23.24a23.77,23.77,0,0,1,6.48-2.49l-.51,2.49Zm-3.77,0H53.07A33.37,33.37,0,0,1,70.19,125l-.87,4.25A26.49,26.49,0,0,0,58.62,133.91Zm-2,8.76A21.13,21.13,0,0,0,54,147a16.93,16.93,0,0,0-1.52,6.89,14.34,14.34,0,0,0,.37,3.23H49.11A18.61,18.61,0,0,1,49,155a22.54,22.54,0,0,1,4-12.35ZM47,155a18.74,18.74,0,0,0,.12,2.13H42.46c0-.29,0-.58,0-.87a27.93,27.93,0,0,1,3.76-13.61h4.36A24.23,24.23,0,0,0,47,155ZM59.6,176.5a19.9,19.9,0,0,1-11.31-5.61A19.14,19.14,0,0,1,45,166.45h6c.29.34.59.67.91,1a17.65,17.65,0,0,0,8.61,4.79Zm2.09-10-.78,3.77a15.59,15.59,0,0,1-7.11-3.79h7.9Zm1.4-9.33H60.91A7,7,0,0,1,59.64,153a11.21,11.21,0,0,1,3.6-7.78,13,13,0,0,1,2.67-2.06ZM87.93,181h-8.6a43.76,43.76,0,0,0,10-6.77Zm2.12-10.31c-.21.21-.42.44-.64.65A41.61,41.61,0,0,1,74.16,181H67.33l.54-2.63a35.71,35.71,0,0,0,18.93-10,40.55,40.55,0,0,0,5-6Zm3.53-11.23a32.18,32.18,0,0,0,3.68-10.71,25.47,25.47,0,0,0,.28-3.77h4.57c0,.81-.11,1.61-.21,2.43a36.61,36.61,0,0,1-3.76,12.05Zm6.82,0a38.3,38.3,0,0,0,3.53-11.81c.1-.89.18-1.78.21-2.67h6.18c0,.47-.07.93-.12,1.4a44.78,44.78,0,0,1-3.52,13.08Zm13.18,0h-4.69a46.29,46.29,0,0,0,3.33-12.87c.06-.53.11-1.07.14-1.61h4.14Zm136.2-39.82h34.68v1.53H268v59.17h-1.7V121.18H249.78Zm-50.08,0h27.63v1.53H201.41v26.69h24.05v1.53H201.41v29.42H228v1.53H199.7Zm-60.35,42.17h1.7v2.63c0,9.27,5.35,15.39,14.87,15.39,8.51,0,15.82-4.85,15.82-15.81,0-9.36-7.74-11.91-14.88-14.2-9.18-2.89-16-5.78-16-16.07,0-5.86,3.74-15.13,15.64-15.13s15.81,8.08,15.81,15.22v1.27h-1.7v-1.44c0-8.59-5.53-13.52-14.28-13.52-9.27,0-13.77,6.89-13.77,13.94,0,18.87,30.86,9.35,30.86,30.35,0,7.91-4.85,16.92-17.43,16.92-11.82,0-16.66-8.33-16.66-16.92Zm-17.12-42.17-2,10A40.76,40.76,0,0,0,118.4,124a41.59,41.59,0,0,0-2-4.38Zm-8.2,0a37.89,37.89,0,0,1,2.48,5.13,40.67,40.67,0,0,1,2.42,9.13h-7.42a34.09,34.09,0,0,0-7.08-14.26Zm-12.31,0a31.92,31.92,0,0,1,7.69,14.26h-6.92A27.69,27.69,0,0,0,96,123.71a25.13,25.13,0,0,0-5.33-4.06Zm-21.8,0h5.94a23.77,23.77,0,0,1,8.65,5.5,25.53,25.53,0,0,1,5.8,8.76H97.6l-1,4.68-.09-.31a22.56,22.56,0,0,0-5.75-9.42,21,21,0,0,0-8.73-5.22,24.8,24.8,0,0,0-2.83-.68ZM78.83,125a19.47,19.47,0,0,1,10.53,5.33,20.27,20.27,0,0,1,6.13,13.9c0,.26,0,.53,0,.8a24.37,24.37,0,0,1-.25,3.48c-1,6.52-4.46,13.09-9.89,18.5a33.78,33.78,0,0,1-17,9.27l.83-4.06a27.62,27.62,0,0,0,13.4-7.62c9.68-9.66,11-22.89,3.12-30.78a16.54,16.54,0,0,0-7.75-4.33Zm-1.34,6.48a14.45,14.45,0,0,1,6.73,3.78c7.08,7.07,5.74,19.06-3.12,27.9A25.94,25.94,0,0,1,69.59,170l.77-3.76a21,21,0,0,0,8.72-5.3c4-4,6.25-8.72,6.25-13.23a13.09,13.09,0,0,0-3.94-9.44,12.39,12.39,0,0,0-4.7-2.9Zm-2.34,11.45a5.94,5.94,0,0,1,.87.72,7.23,7.23,0,0,1,2,5.81,10.71,10.71,0,0,1-3.28,6.64A12.77,12.77,0,0,1,72,158.18Zm1.06,14.61a12.76,12.76,0,0,0,3.87-7.92,9.27,9.27,0,0,0-2.62-7.41,8.37,8.37,0,0,0-1.88-1.4l.7-3.42A10.15,10.15,0,0,1,80,139.69a11.09,11.09,0,0,1,3.34,8c0,4-2,8.15-5.65,11.79a19.21,19.21,0,0,1-6.81,4.43l.66-3.21A15.23,15.23,0,0,0,76.21,157.5Zm-4.93-37.85-.66,3.23A35.24,35.24,0,0,0,51,133.05l-.84.86H45q1.52-1.83,3.25-3.57a43.19,43.19,0,0,1,17.36-10.69Zm-11.26,0c-.34.15-.67.31-1,.48a45.71,45.71,0,0,0-12.25,8.78,47.58,47.58,0,0,0-9.09,12.43,37.21,37.21,0,0,0-3.87,13.11,28.39,28.39,0,0,0,8.1,23.23A24.64,24.64,0,0,0,46.05,181H35.32a31.34,31.34,0,0,1-5.64-9.15,33.59,33.59,0,0,1-2.34-12.5,42.16,42.16,0,0,1,3.89-17.3h0a56,56,0,0,1,11.7-16.65,57.77,57.77,0,0,1,6.72-5.77Zm-31.9,0h6.56a72.26,72.26,0,0,0-8.76,10.72ZM24.7,136.36a67.55,67.55,0,0,1,11.83-15.69l1-1h8.74A59.42,59.42,0,0,0,41.49,124a58,58,0,0,0-12.11,17.25,44.12,44.12,0,0,0-4.07,18.13,35.47,35.47,0,0,0,2.48,13.25,33.08,33.08,0,0,0,4.87,8.4H23.57a37.8,37.8,0,0,1-2.6-5.26,38.73,38.73,0,0,1-2.44-9.33Zm-7.23,35.23a39.69,39.69,0,0,0,1.61,4.91A40.46,40.46,0,0,0,21.22,181H15.54Z"/></svg>