<?xml version="1.0" encoding="utf-8"?>
<!-- Generator: Adobe Illustrator 25.4.1, SVG Export Plug-In . SVG Version: 6.00 Build 0)  -->
<svg version="1.1" id="e37b40b6-4cca-4858-9467-58fca9327325"
	 xmlns="http://www.w3.org/2000/svg" xmlns:xlink="http://www.w3.org/1999/xlink" x="0px" y="0px" viewBox="0 0 300 300"
	 style="enable-background:new 0 0 300 300;" xml:space="preserve">
<style type="text/css">
	.st0{fill:#A1A1AA;}
</style>
<path class="st0" d="M0,300h300V0H0V300z M58.7,181h-8.3c-2.6-1.1-5-2.8-7-4.8c-5.6-5.7-8.4-13.6-7.5-21.6
	c0.9-7.3,3.8-14.3,8.5-19.9l-1.6,8h1.2c-2.2,4.2-3.4,8.9-3.5,13.6c0,0.3,0,0.6,0,0.9h-0.7l-1.9,9.3h4.8c1,2.2,2.5,4.2,4.2,5.9
	c3.3,3.3,7.7,5.5,12.3,6.2L58.7,181z M58.5,157.1h-3.6c-0.3-1.1-0.4-2.1-0.4-3.2c0.2-4.2,1.9-8.2,4.8-11.2h3.8
	c-0.4,0.4-0.9,0.7-1.2,1.1c-2.6,2.4-4.1,5.7-4.2,9.2C57.6,154.4,57.9,155.9,58.5,157.1L58.5,157.1z M62.4,133.9c2-1.1,4.2-2,6.5-2.5
	l-0.5,2.5H62.4z M58.6,133.9h-5.5c4.7-4.6,10.7-7.7,17.1-8.9l-0.9,4.2C65.5,130,61.8,131.6,58.6,133.9L58.6,133.9z M56.6,142.7
	c-1,1.3-1.9,2.8-2.6,4.3c-1,2.2-1.5,4.5-1.5,6.9c0,1.1,0.1,2.2,0.4,3.2h-3.7c-0.1-0.7-0.1-1.4-0.1-2.1c0.1-4.4,1.5-8.7,4-12.4
	L56.6,142.7z M47,155c0,0.7,0,1.4,0.1,2.1h-4.7c0-0.3,0-0.6,0-0.9c0.1-4.8,1.4-9.5,3.8-13.6h4.4C48.3,146.4,47.1,150.6,47,155z
	 M59.6,176.5c-4.3-0.6-8.2-2.6-11.3-5.6c-1.3-1.3-2.4-2.8-3.3-4.4h6c0.3,0.3,0.6,0.7,0.9,1c2.4,2.4,5.3,4,8.6,4.8L59.6,176.5z
	 M61.7,166.5l-0.8,3.8c-2.7-0.6-5.1-1.9-7.1-3.8L61.7,166.5L61.7,166.5z M63.1,157.2h-2.2c-0.9-1.2-1.3-2.7-1.3-4.2
	c0.1-3,1.4-5.8,3.6-7.8c0.8-0.8,1.7-1.5,2.7-2.1L63.1,157.2z M87.9,181h-8.6c3.6-1.8,7-4.1,10-6.8L87.9,181z M90.1,170.7
	c-0.2,0.2-0.4,0.4-0.6,0.6c-4.3,4.3-9.5,7.6-15.2,9.7h-6.8l0.5-2.6c7.2-1.3,13.8-4.8,18.9-10c1.9-1.8,3.5-3.8,5-6L90.1,170.7z
	 M93.6,159.5c1.9-3.3,3.1-7,3.7-10.7c0.2-1.2,0.3-2.5,0.3-3.8h4.6c0,0.8-0.1,1.6-0.2,2.4c-0.5,4.2-1.8,8.3-3.8,12.1L93.6,159.5z
	 M100.4,159.5c1.8-3.7,3-7.7,3.5-11.8c0.1-0.9,0.2-1.8,0.2-2.7h6.2c0,0.5-0.1,0.9-0.1,1.4c-0.5,4.5-1.7,8.9-3.5,13.1H100.4z
	 M113.6,159.5h-4.7c1.7-4.1,2.8-8.4,3.3-12.9c0.1-0.5,0.1-1.1,0.1-1.6h4.1L113.6,159.5z M249.8,119.6h34.7v1.5H268v59.2h-1.7v-59.2
	h-16.5V119.6z M199.7,119.6h27.6v1.5h-25.9v26.7h24.1v1.5h-24.1v29.4H228v1.5h-28.3V119.6z M139.4,161.8h1.7v2.6
	c0,9.3,5.4,15.4,14.9,15.4c8.5,0,15.8-4.9,15.8-15.8c0-9.4-7.7-11.9-14.9-14.2c-9.2-2.9-16-5.8-16-16.1c0-5.9,3.7-15.1,15.6-15.1
	s15.8,8.1,15.8,15.2v1.3h-1.7v-1.4c0-8.6-5.5-13.5-14.3-13.5c-9.3,0-13.8,6.9-13.8,13.9c0,18.9,30.9,9.4,30.9,30.4
	c0,7.9-4.9,16.9-17.4,16.9c-11.8,0-16.7-8.3-16.7-16.9L139.4,161.8z M122.2,119.6l-2,10c-0.5-1.9-1.1-3.8-1.8-5.6
	c-0.6-1.5-1.2-3-2-4.4L122.2,119.6z M114,119.6c1,1.6,1.8,3.4,2.5,5.1c1.2,2.9,2,6,2.4,9.1h-7.4c-1.2-5.2-3.6-10.1-7.1-14.3
	L114,119.6z M101.7,119.6c3.7,4,6.4,8.9,7.7,14.3h-6.9c-1.4-3.8-3.6-7.3-6.5-10.2c-1.6-1.6-3.4-3-5.3-4.1L101.7,119.6z M79.9,119.6
	h5.9c3.2,1.2,6.2,3.1,8.7,5.5c2.5,2.5,4.5,5.5,5.8,8.8h-2.7l-1,4.7l-0.1-0.3c-1.1-3.6-3.1-6.8-5.8-9.4c-2.4-2.4-5.4-4.2-8.7-5.2
	c-0.9-0.3-1.9-0.5-2.8-0.7L79.9,119.6z M78.8,125c4,0.6,7.7,2.5,10.5,5.3c3.8,3.7,6,8.6,6.1,13.9c0,0.3,0,0.5,0,0.8
	c0,1.2-0.1,2.3-0.2,3.5c-1,6.5-4.5,13.1-9.9,18.5c-4.6,4.7-10.6,7.9-17,9.3l0.8-4.1c5.1-1.2,9.7-3.9,13.4-7.6
	c9.7-9.7,11-22.9,3.1-30.8c-2.1-2.1-4.8-3.6-7.8-4.3L78.8,125z M77.5,131.5c2.5,0.6,4.9,1.9,6.7,3.8c7.1,7.1,5.7,19.1-3.1,27.9
	c-3.2,3.2-7.1,5.6-11.5,6.8l0.8-3.8c3.3-1,6.3-2.8,8.7-5.3c4-4,6.2-8.7,6.2-13.2c0-3.6-1.4-7-3.9-9.4c-1.3-1.3-2.9-2.3-4.7-2.9
	L77.5,131.5z M75.2,142.9c0.3,0.2,0.6,0.5,0.9,0.7c1.5,1.5,2.2,3.7,2,5.8c-0.3,2.5-1.4,4.9-3.3,6.6c-0.8,0.8-1.7,1.5-2.7,2.1
	L75.2,142.9z M76.2,157.5c2.2-2.1,3.6-4.9,3.9-7.9c0.3-2.7-0.7-5.5-2.6-7.4c-0.6-0.6-1.2-1-1.9-1.4l0.7-3.4c1.4,0.5,2.7,1.3,3.7,2.3
	c2.2,2.1,3.4,5,3.3,8c0,4-2,8.1-5.7,11.8c-1.9,1.9-4.3,3.5-6.8,4.4l0.7-3.2C73.3,159.9,74.9,158.8,76.2,157.5L76.2,157.5z
	 M71.3,119.7l-0.7,3.2c-7.5,1.2-14.3,4.7-19.6,10.1l-0.8,0.9H45c1-1.2,2.1-2.4,3.2-3.6c4.9-4.9,10.8-8.6,17.4-10.7L71.3,119.7z
	 M60,119.7c-0.3,0.2-0.7,0.3-1,0.5c-4.5,2.2-8.7,5.2-12.2,8.8c-3.7,3.6-6.8,7.8-9.1,12.4c-2.1,4.1-3.4,8.5-3.9,13.1
	c-1,8.6,2,17.1,8.1,23.2c1.3,1.2,2.6,2.3,4.1,3.3H35.3c-2.4-2.7-4.3-5.8-5.6-9.1c-1.6-4-2.4-8.2-2.3-12.5c0.1-6,1.4-11.9,3.9-17.3
	l0,0c2.9-6.2,6.8-11.9,11.7-16.7c2.1-2.1,4.3-4,6.7-5.8L60,119.7z M28.1,119.7h6.6c-3.3,3.3-6.2,6.9-8.8,10.7L28.1,119.7z
	 M24.7,136.4c3.2-5.8,7.1-11.1,11.8-15.7l1-1h8.7c-1.7,1.4-3.3,2.8-4.8,4.3c-5.1,5-9.2,10.8-12.1,17.2c-2.6,5.7-4,11.9-4.1,18.1
	c0,4.5,0.8,9,2.5,13.2c1.2,3,2.8,5.9,4.9,8.4h-9.1c-1-1.7-1.9-3.4-2.6-5.3c-1.2-3-2-6.1-2.4-9.3L24.7,136.4z M17.5,171.6
	c0.4,1.7,1,3.3,1.6,4.9c0.6,1.5,1.3,3,2.1,4.5h-5.7L17.5,171.6z"/>
</svg>
