<svg id="e5e1c0ce-2246-49ae-9feb-8bc32de45017" data-name="PRINT" xmlns="http://www.w3.org/2000/svg" viewBox="0 0 300 300"><path d="M300,0H0V300H300ZM246.92,228.25c.41,6.21-1.87,7.85-6.81,9a164.41,164.41,0,0,1-37.52,3.81c-8.23,0-16.47-.39-24.77-.86-9.61-.55-19.2-1.25-28.77-1.95-22.77-1.68-46.31-3.46-69.49-2.72-2.83,0-5-.55-6.43-2-1.93-1.92-2.11-4.88-2-7.27.1-4.1,0-8.2,0-12.32C71,212,71,210,71,208.1c-8.49.79-14-3.51-17.26-11.42V112.37c4.49-5.29,10.38-5.39,16.39-5l.18-15.27a21.54,21.54,0,0,1,0-13.47c-.39-13.46.31-14.3,13.36-17.21l.47-.12c15.47-3.49,31.17-2.34,46.41-1.15l3.22.23a352.2,352.2,0,0,0,52.07-.05c12.54-.86,25.35-.28,37.73.33,5.77.29,11.53.56,17.27.7a5,5,0,0,1,4,1.58c1.14,1.37,1,3.17.76,4.75-1.23,7.32-.68,12.54,1.78,17.42,1.49,3,.41,5.74-.47,8a11.9,11.9,0,0,0-1,3.5A1094.23,1094.23,0,0,0,246.92,228.25Z"/><path d="M55.43,148.85a11,11,0,0,1,.23-3c.46-3.48.83-7,1.26-10.47-.43,3.49-.8,7-1.26,10.47A11,11,0,0,0,55.43,148.85Z"/><path d="M241.9,67c.24-1.38.08-1.69.06-1.73a2.22,2.22,0,0,0-1.19-.22c-5.78-.14-11.58-.43-17.36-.7-12.29-.61-24.94-1.25-37.29-.33a363.77,363.77,0,0,1-52.61,0l-3.25-.25c-14.94-1.13-30.35-2.3-45.29,1.09l-.47.1c-10.76,2.42-10.76,2.42-10.43,13.77l-.1.67a18,18,0,0,0,0,11.69l.1.63-.15,13c7.16-2.27,14.66-3.77,21.69-1.64,5,1.52,10.22,2,17,1.91,3-.1,6-.33,9-.61l2-.15c2-.18,4-.35,6-.49a6.82,6.82,0,0,1,2.54-.9,12.63,12.63,0,0,1,2.68-.17,33.84,33.84,0,0,0,.46-5.65,25.46,25.46,0,0,1,.84-7.11,6.94,6.94,0,0,1,3-4c3.91-2.37,9.24-1.8,14.32-1.31,1.79.17,3.57.37,5.25.41,2.56.08,5.12.27,7.68.49a94.17,94.17,0,0,0,9.61.49h.19c5.9,0,6.88,3.59,7,7.48s.63,7.59,1.08,11.3l.41,3.34,1.66,0c.1-.28.17-.53.27-.77a14.47,14.47,0,0,1,1.74-4,5.9,5.9,0,0,1,2.75-2.25,8.44,8.44,0,0,1,4.59-.37A20.45,20.45,0,0,0,199,101h.57c3.85,0,9.14.37,9.49,8.4,0,0,.14.12.35.33l.55.51a14.64,14.64,0,0,1,1,1l.48.55-.29,8.63c.29,2.5.51,5.3.72,8.07.36,4.43.61,8.71.78,13,.26,6.91.36,13.82.43,20.76l0,4.28c.12,12.32.22,25.07,1.18,37.53.48,6.29-4,7-6.9,7.41-10.47,1.66-20.47.86-30.16,0-5.11-.41-10.42-.84-15.62-.9-4.39-.06-8.81-.53-13.09-1-2-.21-4-.43-6-.58l-14.51.17q-26.64.36-53.31.67l.06,4c.06,4.16.12,8.32,0,12.48-.08,2.38.24,3.83.94,4.53s2,.84,3.65.88c3.67-.12,7.37-.16,11-.16,19.76,0,39.59,1.47,58.85,2.88,9.55.72,19.12,1.42,28.69,1.95,20.72,1.19,41,1.87,61.23-2.87,3.59-.82,4.2-1.08,3.92-5.1a1101.71,1101.71,0,0,1-1-132.13v0a15.39,15.39,0,0,1,1.23-4.63c.84-2.15,1.31-3.53.6-4.94C240.44,79.63,241,72.48,241.9,67Z"/><path d="M183.3,155.82c-11.58-21.23-31.64-30.29-53.26-37.11a50.39,50.39,0,0,0-10.62,4.15,55.17,55.17,0,0,0-9.42,6.35c-10.14,8.44-18.37,18.61-25.78,29.47A57.86,57.86,0,0,0,94,170.94c8.29,7.91,18.44,13.24,28.87,18.18,3.48,1.64,7,3.24,10.47,4.88,4.05,2.65,4.33,8,7.37,11.34h0c-3-3.37-3.32-8.69-7.37-11.34,8.86-4.74,18.07-8.94,26.48-14.37C169.33,173.52,178.9,167.11,183.3,155.82Zm-52.9,23.77c-15.14-.08-24.41-8.52-24.24-22.06.2-15.39,10.89-26.85,25.24-27,13.67-.17,26.51,12.22,26.32,25.42C157.54,169.51,145.81,179.68,130.4,179.59Z"/></svg>