<?xml version="1.0" encoding="utf-8"?>
<!-- Generator: Adobe Illustrator 25.4.1, SVG Export Plug-In . SVG Version: 6.00 Build 0)  -->
<svg version="1.1" id="e5e1c0ce-2246-49ae-9feb-8bc32de45017"
	 xmlns="http://www.w3.org/2000/svg" xmlns:xlink="http://www.w3.org/1999/xlink" x="0px" y="0px" viewBox="0 0 300 300"
	 style="enable-background:new 0 0 300 300;" xml:space="preserve">
<style type="text/css">
	.st0{fill:#A1A1AA;}
</style>
<path class="st0" d="M300,0H0v300h300V0z M246.9,228.2c0.4,6.2-1.9,7.9-6.8,9c-12.3,2.7-24.9,4-37.5,3.8c-8.2,0-16.5-0.4-24.8-0.9
	c-9.6-0.6-19.2-1.2-28.8-1.9c-22.8-1.7-46.3-3.5-69.5-2.7c-2.8,0-5-0.6-6.4-2c-1.9-1.9-2.1-4.9-2-7.3c0.1-4.1,0-8.2,0-12.3
	C71,212,71,210,71,208.1c-8.5,0.8-14-3.5-17.3-11.4v-84.3c4.5-5.3,10.4-5.4,16.4-5l0.2-15.3c-1.4-4.4-1.4-9.1,0-13.5
	c-0.4-13.5,0.3-14.3,13.4-17.2l0.5-0.1c15.5-3.5,31.2-2.3,46.4-1.2l3.2,0.2c17.3,1.3,34.7,1.3,52.1,0c12.5-0.9,25.4-0.3,37.7,0.3
	c5.8,0.3,11.5,0.6,17.3,0.7c1.5-0.1,3,0.5,4,1.6c1.1,1.4,1,3.2,0.8,4.8c-1.2,7.3-0.7,12.5,1.8,17.4c1.5,3,0.4,5.7-0.5,8
	c-0.5,1.1-0.8,2.3-1,3.5C243.6,140.5,243.9,184.4,246.9,228.2z"/>
<path class="st0" d="M55.4,148.9c-0.1-1,0-2,0.2-3c0.5-3.5,0.8-7,1.3-10.5c-0.4,3.5-0.8,7-1.3,10.5
	C55.4,146.8,55.4,147.8,55.4,148.9z"/>
<path class="st0" d="M241.9,67c0.2-1.4,0.1-1.7,0.1-1.7c-0.4-0.2-0.8-0.3-1.2-0.2c-5.8-0.1-11.6-0.4-17.4-0.7
	c-12.3-0.6-24.9-1.2-37.3-0.3c-17.5,1.3-35.1,1.3-52.6,0l-3.2-0.2c-14.9-1.1-30.3-2.3-45.3,1.1L84.5,65
	c-10.8,2.4-10.8,2.4-10.4,13.8L74,79.4c-1.3,3.8-1.3,7.9,0,11.7l0.1,0.6l-0.2,13c7.2-2.3,14.7-3.8,21.7-1.6c5,1.5,10.2,2,17,1.9
	c3-0.1,6-0.3,9-0.6l2-0.2c2-0.2,4-0.3,6-0.5c0.8-0.5,1.6-0.8,2.5-0.9c0.9-0.2,1.8-0.2,2.7-0.2c0.3-1.9,0.5-3.8,0.5-5.7
	c-0.1-2.4,0.2-4.8,0.8-7.1c0.5-1.7,1.5-3.1,3-4c3.9-2.4,9.2-1.8,14.3-1.3c1.8,0.2,3.6,0.4,5.2,0.4c2.6,0.1,5.1,0.3,7.7,0.5
	c3.2,0.3,6.4,0.5,9.6,0.5h0.2c5.9,0,6.9,3.6,7,7.5s0.6,7.6,1.1,11.3l0.4,3.3h1.7c0.1-0.3,0.2-0.5,0.3-0.8c0.4-1.4,1-2.8,1.7-4
	c0.7-1,1.6-1.8,2.8-2.2c1.5-0.5,3.1-0.7,4.6-0.4c1.1,0.2,2.2,0.3,3.3,0.3h0.6c3.9,0,9.1,0.4,9.5,8.4c0,0,0.1,0.1,0.4,0.3l0.6,0.5
	c0.3,0.3,0.7,0.7,1,1l0.5,0.6l-0.3,8.6c0.3,2.5,0.5,5.3,0.7,8.1c0.4,4.4,0.6,8.7,0.8,13c0.3,6.9,0.4,13.8,0.4,20.8v4.3
	c0.1,12.3,0.2,25.1,1.2,37.5c0.5,6.3-4,7-6.9,7.4c-10.5,1.7-20.5,0.9-30.2,0c-5.1-0.4-10.4-0.8-15.6-0.9c-4.4-0.1-8.8-0.5-13.1-1
	c-2-0.2-4-0.4-6-0.6l-14.5,0.2c-17.8,0.2-35.5,0.5-53.3,0.7l0.1,4c0.1,4.2,0.1,8.3,0,12.5c-0.1,2.4,0.2,3.8,0.9,4.5s2,0.8,3.7,0.9
	c3.7-0.1,7.4-0.2,11-0.2c19.8,0,39.6,1.5,58.8,2.9c9.6,0.7,19.1,1.4,28.7,1.9c20.7,1.2,41,1.9,61.2-2.9c3.6-0.8,4.2-1.1,3.9-5.1
	c-3-44-3.3-88.1-1-132.1l0,0c0.2-1.6,0.6-3.2,1.2-4.6c0.8-2.2,1.3-3.5,0.6-4.9C240.4,79.6,241,72.5,241.9,67z"/>
<path class="st0" d="M183.3,155.8c-11.6-21.2-31.6-30.3-53.3-37.1c-3.7,1-7.2,2.4-10.6,4.2c-3.4,1.8-6.5,3.9-9.4,6.3
	c-10.1,8.4-18.4,18.6-25.8,29.5c2.7,4.5,6,8.6,9.8,12.3c8.3,7.9,18.4,13.2,28.9,18.2c3.5,1.6,7,3.2,10.5,4.9c4.1,2.6,4.3,8,7.4,11.3
	l0,0c-3-3.4-3.3-8.7-7.4-11.3c8.9-4.7,18.1-8.9,26.5-14.4C169.3,173.5,178.9,167.1,183.3,155.8z M130.4,179.6
	c-15.1-0.1-24.4-8.5-24.2-22.1c0.2-15.4,10.9-26.9,25.2-27c13.7-0.2,26.5,12.2,26.3,25.4C157.5,169.5,145.8,179.7,130.4,179.6
	L130.4,179.6z"/>
</svg>
