<svg id="a1c05ed3-f844-49a9-9831-ad79662f6d3f" data-name="PRINT" xmlns="http://www.w3.org/2000/svg" viewBox="0 0 300 300"><path d="M175.92,182.58a6,6,0,0,0-.47-1.91,5.54,5.54,0,0,0-1.32-1.85,6.39,6.39,0,0,0-2.14-1.37,8.13,8.13,0,0,0-3.05-.54,7.28,7.28,0,0,0-2.92.54,5.64,5.64,0,0,0-2.09,1.37,5.93,5.93,0,0,0-1.31,1.85,4.72,4.72,0,0,0-.48,2h13.78Z"/><path d="M0,300H300V0H0ZM265,121.72a14.38,14.38,0,0,1,2.92-4.66,13.15,13.15,0,0,1,4.47-3.1,10.94,10.94,0,0,1,5.49-1.37,13.88,13.88,0,0,1,5.43,1.07,13.64,13.64,0,0,1,4.48,3,14.59,14.59,0,0,1,3,4.59,15.71,15.71,0,0,1,1.13,5.91v1.13c0,.48,0,1-.05,1.55H271.09a5,5,0,0,0,.84,2,7.69,7.69,0,0,0,1.67,1.85,8.52,8.52,0,0,0,2.32,1.37,8,8,0,0,0,3,.54,10.74,10.74,0,0,0,3.22-.42,13.5,13.5,0,0,0,2.39-.95,11,11,0,0,0,2-1.43l3.52,5.31a20,20,0,0,1-3.05,2,18.62,18.62,0,0,1-3.52,1.37,15.76,15.76,0,0,1-4.59.59,14.62,14.62,0,0,1-5.91-1.13,15.23,15.23,0,0,1-4.77-3.1,13.94,13.94,0,0,1-3.16-4.66,14.15,14.15,0,0,1-1.14-5.72A15.21,15.21,0,0,1,265,121.72Zm-20.35-8.41h6.74v4a14.61,14.61,0,0,1,1.85-2.38,12.37,12.37,0,0,1,2.39-1.67,7.78,7.78,0,0,1,3.28-.72,18,18,0,0,1,1.85.12c.6.12,1.07.24,1.55.3s1,.3,1.49.41l-2.5,6.39c-.24-.06-.54-.18-.9-.3s-.65-.18-1.07-.24a9.84,9.84,0,0,0-1.37-.12,5.89,5.89,0,0,0-2.81.6,8.38,8.38,0,0,0-1.91,1.31A10.51,10.51,0,0,0,251.7,123v18.26h-7Zm-.36,58h6.57v4.06a9,9,0,0,1,2-2.33,13,13,0,0,1,2.57-1.67,7.65,7.65,0,0,1,3.82-.83,10.87,10.87,0,0,1,3.88.71,9.1,9.1,0,0,1,3.28,2.09,10.85,10.85,0,0,1,2.27,3.28,11.88,11.88,0,0,1,.83,4.48v18.07h-7.1V182.88a5.36,5.36,0,0,0-1.61-4.36,6,6,0,0,0-3.94-1.37,4.62,4.62,0,0,0-2.38.59,10.91,10.91,0,0,0-1.74,1.26,8.59,8.59,0,0,0-1.43,1.79v18.43h-7Zm-3.58.06-2.44,6.38c-.24-.06-.54-.17-.9-.29s-.66-.18-1.07-.24a9.85,9.85,0,0,0-1.38-.12,6,6,0,0,0-2.8.59,8.17,8.17,0,0,0-1.91,1.32,9.51,9.51,0,0,0-1.55,1.91v18.25h-7V171.24h6.68v4.06a10.16,10.16,0,0,1,1.85-2.33,11.09,11.09,0,0,1,2.39-1.67,6.18,6.18,0,0,1,3.28-.77c.6,0,1.25.05,1.85.11s1.07.18,1.55.3S240.24,171.24,240.72,171.36ZM213,113.31h7.1v16.16c0,2.09.47,3.58,1.43,4.54a5.57,5.57,0,0,0,4.12,1.37,5.15,5.15,0,0,0,2.38-.54,7.38,7.38,0,0,0,1.73-1.19,6.91,6.91,0,0,0,1.44-1.73V113.31h7.1v27.92h-6.63v-4.06a9.77,9.77,0,0,1-2.09,2.39,10.41,10.41,0,0,1-2.56,1.61,8.44,8.44,0,0,1-3.76.78,10.84,10.84,0,0,1-3.88-.72,9,9,0,0,1-3.28-2.09,10.2,10.2,0,0,1-3.1-7.76Zm-20.53,0V105h7.1v8.3h8.36v6.38h-8.42V131a7.06,7.06,0,0,0,.3,2.14,3.56,3.56,0,0,0,.84,1.38,2.47,2.47,0,0,0,1.19.71,5,5,0,0,0,1.37.18,6.65,6.65,0,0,0,1.14-.12,4.67,4.67,0,0,0,.95-.36l.9-.53,2.56,5.79a11.37,11.37,0,0,1-1.85,1,14.66,14.66,0,0,1-2.09.6,12.8,12.8,0,0,1-2.74.29,10.06,10.06,0,0,1-3.82-.71,8.5,8.5,0,0,1-3-2,10.23,10.23,0,0,1-2-3.1,10.91,10.91,0,0,1-.72-4.06V119.69H187v-6.38h5.43Zm-4.65,66a13.54,13.54,0,0,1,3-4.6,13.24,13.24,0,0,1,9.55-4.12,10.64,10.64,0,0,1,3.82.66,12,12,0,0,1,2.62,1.49,11.85,11.85,0,0,1,2,2.21V171.3h6.56v27.8H208.8v-3.63a8.52,8.52,0,0,1-2,2.2,9.45,9.45,0,0,1-2.62,1.49,9.59,9.59,0,0,1-3.88.66,13.13,13.13,0,0,1-9.55-4.12,15.93,15.93,0,0,1-3-4.59,15.71,15.71,0,0,1-1.14-5.91A14.58,14.58,0,0,1,187.8,179.3Zm-30.73-66h7v16.16a6.21,6.21,0,0,0,1.43,4.54,5.58,5.58,0,0,0,4.12,1.37,5.22,5.22,0,0,0,2.39-.54,7.83,7.83,0,0,0,1.73-1.19,7.1,7.1,0,0,0,1.43-1.73V113.31h7.1v27.92h-6.62v-4.06a10.21,10.21,0,0,1-2.09,2.39,10.49,10.49,0,0,1-2.57,1.61,8,8,0,0,1-3.7.78,10.88,10.88,0,0,1-3.88-.72,9.1,9.1,0,0,1-3.28-2.09,10.29,10.29,0,0,1-3.1-7.76Zm-1,66.34A14.23,14.23,0,0,1,159,175a13,13,0,0,1,4.47-3.1,10,10,0,0,1,5.49-1.37,13.7,13.7,0,0,1,5.43,1.07,12.89,12.89,0,0,1,4.48,3,14.75,14.75,0,0,1,3,4.6,15.7,15.7,0,0,1,1.14,5.9v1.14a14.55,14.55,0,0,1-.06,1.55H162.14a6.17,6.17,0,0,0,.84,2,8.11,8.11,0,0,0,1.67,1.85A9.06,9.06,0,0,0,167,193a8,8,0,0,0,3,.54,10.74,10.74,0,0,0,3.22-.42,13.46,13.46,0,0,0,2.39-1,12.15,12.15,0,0,0,2-1.43l3.52,5.31a19.24,19.24,0,0,1-3.05,2,17.36,17.36,0,0,1-3.52,1.37,15.75,15.75,0,0,1-4.59.6,14.79,14.79,0,0,1-5.91-1.13,15.26,15.26,0,0,1-4.77-3.11,13.9,13.9,0,0,1-3.16-4.65,14.17,14.17,0,0,1-1.14-5.73A15.21,15.21,0,0,1,156.06,179.65ZM128.19,100h24.47v6.68H135.29v10.15h16.17v6.68H135.23v17.72h-7Zm-.06,55.73h7.1v36.75h17.54v6.68H128.13ZM8,190.81H41V161.93H72.7v-29h31.45V100h8.35v41.23H81.06v29H49.25v28.93H8Z"/><path d="M284.93,124.7a6.32,6.32,0,0,0-.47-1.91,5.64,5.64,0,0,0-1.32-1.85,7.1,7.1,0,0,0-2.14-1.37A8.13,8.13,0,0,0,278,119a7.08,7.08,0,0,0-2.92.54,6.83,6.83,0,0,0-2.09,1.37,6.65,6.65,0,0,0-1.31,1.85,4.75,4.75,0,0,0-.48,2h13.78Z"/><path d="M196,190.87a7.25,7.25,0,0,0,2.45,1.73,7.9,7.9,0,0,0,3.22.6,6.19,6.19,0,0,0,2.92-.6,7.35,7.35,0,0,0,2-1.37,7.27,7.27,0,0,0,1.61-2V181a7.87,7.87,0,0,0-1.61-2,10.48,10.48,0,0,0-2-1.32,6.48,6.48,0,0,0-2.92-.59,9.28,9.28,0,0,0-3.22.59,6.53,6.53,0,0,0-2.45,1.74,7.47,7.47,0,0,0-1.55,2.56,9.55,9.55,0,0,0,0,6.33A7.13,7.13,0,0,0,196,190.87Z"/></svg>