<?xml version="1.0" encoding="utf-8"?>
<!-- Generator: Adobe Illustrator 25.4.1, SVG Export Plug-In . SVG Version: 6.00 Build 0)  -->
<svg version="1.1" id="a1c05ed3-f844-49a9-9831-ad79662f6d3f"
	 xmlns="http://www.w3.org/2000/svg" xmlns:xlink="http://www.w3.org/1999/xlink" x="0px" y="0px" viewBox="0 0 300 300"
	 style="enable-background:new 0 0 300 300;" xml:space="preserve">
<style type="text/css">
	.st0{fill:#A1A1AA;}
</style>
<path class="st0" d="M175.9,182.6c-0.1-0.7-0.2-1.3-0.5-1.9c-0.3-0.7-0.8-1.3-1.3-1.9c-0.6-0.6-1.3-1.1-2.1-1.4
	c-1-0.4-2-0.6-3.1-0.5c-1,0-2,0.2-2.9,0.5c-0.8,0.3-1.5,0.8-2.1,1.4c-0.6,0.5-1,1.2-1.3,1.9c-0.3,0.6-0.5,1.3-0.5,2L175.9,182.6
	L175.9,182.6z"/>
<path class="st0" d="M0,300h300V0H0V300z M265,121.7c0.7-1.7,1.7-3.3,2.9-4.7c1.3-1.3,2.8-2.4,4.5-3.1c1.7-0.9,3.6-1.4,5.5-1.4
	c1.9,0,3.7,0.4,5.4,1.1c1.7,0.7,3.2,1.7,4.5,3c1.3,1.3,2.3,2.9,3,4.6c0.8,1.9,1.1,3.9,1.1,5.9v1.1c0,0.5,0,1,0,1.6h-20.8
	c0.1,0.7,0.4,1.4,0.8,2c0.5,0.7,1,1.3,1.7,1.9c0.7,0.6,1.5,1,2.3,1.4c1,0.4,2,0.6,3,0.5c1.1,0,2.2-0.1,3.2-0.4
	c0.8-0.2,1.6-0.6,2.4-0.9c0.7-0.4,1.4-0.9,2-1.4l3.5,5.3c-1,0.8-2,1.4-3,2c-1.1,0.6-2.3,1-3.5,1.4c-1.5,0.4-3,0.6-4.6,0.6
	c-2,0-4-0.3-5.9-1.1c-1.8-0.7-3.4-1.8-4.8-3.1c-1.4-1.3-2.4-2.9-3.2-4.7c-0.8-1.8-1.2-3.8-1.1-5.7
	C263.9,125.5,264.3,123.5,265,121.7z M244.6,113.3h6.7v4c0.5-0.9,1.2-1.7,1.9-2.4c0.7-0.6,1.5-1.2,2.4-1.7c1-0.5,2.1-0.7,3.3-0.7
	c0.6,0,1.2,0,1.9,0.1c0.6,0.1,1.1,0.2,1.5,0.3s1,0.3,1.5,0.4l-2.5,6.4c-0.2-0.1-0.5-0.2-0.9-0.3s-0.6-0.2-1.1-0.2
	c-0.5-0.1-0.9-0.1-1.4-0.1c-1,0-1.9,0.2-2.8,0.6c-0.7,0.3-1.3,0.8-1.9,1.3c-0.6,0.6-1.1,1.3-1.5,2v18.3h-7L244.6,113.3z
	 M244.3,171.3h6.6v4.1c0.5-0.9,1.2-1.7,2-2.3c0.8-0.7,1.7-1.2,2.6-1.7c1.2-0.6,2.5-0.9,3.8-0.8c1.3,0,2.6,0.2,3.9,0.7
	c1.2,0.5,2.4,1.2,3.3,2.1c1,0.9,1.7,2.1,2.3,3.3c0.6,1.4,0.8,2.9,0.8,4.5v18.1h-7.1v-16.3c0.2-1.6-0.4-3.2-1.6-4.4
	c-1.1-0.9-2.5-1.4-3.9-1.4c-0.8,0-1.7,0.2-2.4,0.6c-0.6,0.4-1.2,0.8-1.7,1.3c-0.6,0.5-1,1.1-1.4,1.8v18.4h-7L244.3,171.3z
	 M240.7,171.4l-2.4,6.4c-0.2-0.1-0.5-0.2-0.9-0.3s-0.7-0.2-1.1-0.2c-0.5-0.1-0.9-0.1-1.4-0.1c-1,0-1.9,0.2-2.8,0.6
	c-0.7,0.3-1.3,0.8-1.9,1.3c-0.6,0.6-1.1,1.2-1.6,1.9v18.2h-7v-27.9h6.7v4.1c0.5-0.9,1.1-1.6,1.9-2.3c0.7-0.7,1.5-1.2,2.4-1.7
	c1-0.6,2.1-0.8,3.3-0.8c0.6,0,1.2,0.1,1.9,0.1s1.1,0.2,1.6,0.3S240.2,171.2,240.7,171.4L240.7,171.4z M213,113.3h7.1v16.2
	c0,2.1,0.5,3.6,1.4,4.5c1.1,1,2.6,1.5,4.1,1.4c0.8,0,1.6-0.2,2.4-0.5c0.6-0.3,1.2-0.7,1.7-1.2c0.6-0.5,1.1-1.1,1.4-1.7v-18.6h7.1
	v27.9h-6.6v-4.1c-0.6,0.9-1.3,1.7-2.1,2.4c-0.8,0.7-1.6,1.2-2.6,1.6c-1.2,0.5-2.5,0.8-3.8,0.8c-1.3,0-2.6-0.2-3.9-0.7
	c-1.2-0.4-2.4-1.2-3.3-2.1c-2.1-2-3.2-4.8-3.1-7.8V113.3z M192.5,113.3V105h7.1v8.3h8.4v6.4h-8.4V131c0,0.7,0.1,1.4,0.3,2.1
	c0.2,0.5,0.5,1,0.8,1.4c0.3,0.3,0.7,0.6,1.2,0.7c0.4,0.1,0.9,0.2,1.4,0.2c0.4,0,0.8,0,1.1-0.1c0.3-0.1,0.6-0.2,0.9-0.4l0.9-0.5
	l2.6,5.8c-0.6,0.4-1.2,0.7-1.9,1c-0.7,0.3-1.4,0.5-2.1,0.6c-0.9,0.2-1.8,0.3-2.7,0.3c-1.3,0-2.6-0.2-3.8-0.7c-1.1-0.4-2.2-1.1-3-2
	c-0.8-0.9-1.5-2-2-3.1c-0.5-1.3-0.7-2.7-0.7-4.1v-12.5H187v-6.4L192.5,113.3L192.5,113.3z M187.8,179.3c0.7-1.7,1.7-3.3,3-4.6
	c2.5-2.6,5.9-4.1,9.6-4.1c1.3,0,2.6,0.2,3.8,0.7c0.9,0.4,1.8,0.9,2.6,1.5c0.8,0.6,1.4,1.4,2,2.2v-3.7h6.6v27.8h-6.6v-3.6
	c-0.5,0.8-1.2,1.6-2,2.2c-0.8,0.6-1.7,1.1-2.6,1.5c-1.2,0.5-2.6,0.7-3.9,0.7c-3.6,0-7.1-1.5-9.6-4.1c-1.3-1.3-2.3-2.9-3-4.6
	c-0.8-1.9-1.1-3.9-1.1-5.9C186.6,183.2,187,181.2,187.8,179.3L187.8,179.3z M157.1,113.3h7v16.2c-0.1,1.6,0.4,3.3,1.4,4.5
	c1.1,1,2.6,1.5,4.1,1.4c0.8,0,1.6-0.2,2.4-0.5c0.6-0.3,1.2-0.7,1.7-1.2c0.6-0.5,1-1.1,1.4-1.7v-18.6h7.1v27.9h-6.6v-4.1
	c-0.6,0.9-1.3,1.7-2.1,2.4c-0.8,0.7-1.6,1.2-2.6,1.6c-1.2,0.6-2.4,0.8-3.7,0.8c-1.3,0-2.6-0.2-3.9-0.7c-1.2-0.5-2.4-1.2-3.3-2.1
	c-2.1-2-3.2-4.9-3.1-7.8L157.1,113.3z M156.1,179.6c0.7-1.7,1.6-3.3,2.9-4.6c1.3-1.3,2.8-2.4,4.5-3.1c1.7-1,3.6-1.5,5.5-1.4
	c1.9,0,3.7,0.3,5.4,1.1c1.7,0.7,3.2,1.7,4.5,3c1.3,1.3,2.3,2.9,3,4.6c0.8,1.9,1.1,3.9,1.1,5.9v1.1c0,0.5,0,1-0.1,1.6h-20.8
	c0.2,0.7,0.4,1.4,0.8,2c0.5,0.7,1,1.3,1.7,1.9c0.7,0.6,1.5,1,2.4,1.4c1,0.4,2,0.6,3,0.5c1.1,0,2.2-0.1,3.2-0.4
	c0.8-0.3,1.6-0.6,2.4-1c0.7-0.4,1.4-0.9,2-1.4l3.5,5.3c-1,0.8-2,1.4-3.1,2c-1.1,0.6-2.3,1-3.5,1.4c-1.5,0.4-3,0.6-4.6,0.6
	c-2,0-4-0.4-5.9-1.1c-1.8-0.7-3.4-1.8-4.8-3.1c-1.4-1.3-2.4-2.9-3.2-4.6c-0.8-1.8-1.2-3.8-1.1-5.7
	C155,183.4,155.3,181.5,156.1,179.6L156.1,179.6z M128.2,100h24.5v6.7h-17.4v10.2h16.2v6.7h-16.2v17.7h-7L128.2,100z M128.1,155.7
	h7.1v36.8h17.5v6.7h-24.6V155.7z M8,190.8h33v-28.9h31.7v-29h31.4V100h8.3v41.2H81.1v29H49.2v28.9H8V190.8z"/>
<path class="st0" d="M284.9,124.7c-0.1-0.7-0.2-1.3-0.5-1.9c-0.3-0.7-0.8-1.3-1.3-1.8c-0.6-0.6-1.4-1-2.1-1.4c-1-0.4-2-0.6-3-0.6
	c-1,0-2,0.2-2.9,0.5c-0.8,0.3-1.5,0.8-2.1,1.4c-0.5,0.5-1,1.2-1.3,1.8c-0.3,0.6-0.5,1.3-0.5,2L284.9,124.7L284.9,124.7z"/>
<path class="st0" d="M196,190.9c0.7,0.7,1.5,1.3,2.4,1.7c1,0.4,2.1,0.6,3.2,0.6c1,0,2-0.2,2.9-0.6c0.7-0.3,1.4-0.8,2-1.4
	c0.7-0.6,1.2-1.2,1.6-2V181c-0.4-0.8-1-1.4-1.6-2c-0.6-0.5-1.3-1-2-1.3c-0.9-0.4-1.9-0.6-2.9-0.6c-1.1,0-2.2,0.2-3.2,0.6
	c-0.9,0.4-1.8,1-2.4,1.7c-0.7,0.7-1.2,1.6-1.6,2.6c-0.7,2-0.7,4.3,0,6.3C194.8,189.3,195.3,190.1,196,190.9z"/>
</svg>
