<svg id="f7d81472-6d10-4c21-9b15-61743b22a3d7" data-name="PRINT" xmlns="http://www.w3.org/2000/svg" viewBox="0 0 300 300"><path d="M0,300H300V0H0ZM168,59h55l-21.76,26.8H168A64.33,64.33,0,0,0,103.75,150c0,1,0,2.05.07,3.06l.06.83c0,.73.09,1.46.16,2.18,0,.35.07.69.11,1,.07.65.15,1.29.25,1.94,0,.37.1.74.16,1.1.1.64.22,1.27.34,1.89.06.36.12.72.2,1.07.18.89.39,1.77.61,2.64.13.51.27,1,.41,1.51s.23.83.36,1.25.33,1.05.5,1.58l.38,1.13c.19.53.38,1.06.59,1.59.13.35.27.7.41,1.05.22.54.43,1.08.66,1.61.14.3.28.6.41.9.87,1.91,1.82,3.78,2.87,5.6l.48.84c.32.52.64,1,1,1.56l.53.81c.35.54.71,1.06,1.08,1.59l.46.65c.41.57.83,1.14,1.27,1.7A64.15,64.15,0,0,0,168,214.26h28.25V162.4H144.41l21.71-26.8h56.93v45.62l-26.8,33L175,240.44l-.52.61H168a91.19,91.19,0,0,1-83.34-54.4v0a89.94,89.94,0,0,1-5.21-15.42l-.06-.26c-.3-1.24-.56-2.48-.8-3.74l-.09-.46c-.23-1.22-.43-2.45-.61-3.69,0-.18,0-.36-.07-.54-.18-1.24-.32-2.48-.44-3.72,0-.18,0-.35,0-.53-.11-1.27-.21-2.55-.27-3.83,0-.13,0-.25,0-.38-.06-1.34-.1-2.7-.1-4.06A91.16,91.16,0,0,1,168,59Z"/></svg>