<?xml version="1.0" encoding="utf-8"?>
<!-- Generator: Adobe Illustrator 25.4.1, SVG Export Plug-In . SVG Version: 6.00 Build 0)  -->
<svg version="1.1" id="f7d81472-6d10-4c21-9b15-61743b22a3d7"
	 xmlns="http://www.w3.org/2000/svg" xmlns:xlink="http://www.w3.org/1999/xlink" x="0px" y="0px" viewBox="0 0 300 300"
	 style="enable-background:new 0 0 300 300;" xml:space="preserve">
<style type="text/css">
	.st0{fill:#A1A1AA;}
</style>
<path class="st0" d="M0,300h300V0H0V300z M168,59h55l-21.8,26.8H168c-35.4,0-64.2,28.8-64.2,64.2c0,1,0,2.1,0.1,3.1l0.1,0.8
	c0,0.7,0.1,1.5,0.2,2.2c0,0.4,0.1,0.7,0.1,1c0.1,0.6,0.2,1.3,0.2,1.9c0,0.4,0.1,0.7,0.2,1.1c0.1,0.6,0.2,1.3,0.3,1.9
	c0.1,0.4,0.1,0.7,0.2,1.1c0.2,0.9,0.4,1.8,0.6,2.6c0.1,0.5,0.3,1,0.4,1.5s0.2,0.8,0.4,1.2s0.3,1.1,0.5,1.6l0.4,1.1
	c0.2,0.5,0.4,1.1,0.6,1.6c0.1,0.4,0.3,0.7,0.4,1.1c0.2,0.5,0.4,1.1,0.7,1.6c0.1,0.3,0.3,0.6,0.4,0.9c0.9,1.9,1.8,3.8,2.9,5.6
	l0.5,0.8c0.3,0.5,0.6,1,1,1.6l0.5,0.8c0.3,0.5,0.7,1.1,1.1,1.6l0.5,0.6c0.4,0.6,0.8,1.1,1.3,1.7c12.1,15.8,30.9,25.2,50.9,25.2h28.2
	v-51.9h-51.8l21.7-26.8H223v45.6l-26.8,33L175,240.4l-0.5,0.6H168c-36.1,0-68.8-21.4-83.3-54.4l0,0c-2.2-5-3.9-10.1-5.2-15.4
	l-0.1-0.3c-0.3-1.2-0.6-2.5-0.8-3.7l-0.1-0.5c-0.2-1.2-0.4-2.4-0.6-3.7c0-0.2,0-0.4-0.1-0.5c-0.2-1.2-0.3-2.5-0.4-3.7
	c0-0.2,0-0.4,0-0.5c-0.1-1.3-0.2-2.6-0.3-3.8c0-0.1,0-0.2,0-0.4c-0.1-1.3-0.1-2.7-0.1-4.1C77.1,99.8,117.8,59.1,168,59z"/>
</svg>
