<?xml version="1.0" encoding="utf-8"?>
<!-- Generator: Adobe Illustrator 25.4.1, SVG Export Plug-In . SVG Version: 6.00 Build 0)  -->
<svg version="1.1" id="f7af2519-8735-4e30-bbaa-b0720b037521"
	 xmlns="http://www.w3.org/2000/svg" xmlns:xlink="http://www.w3.org/1999/xlink" x="0px" y="0px" viewBox="0 0 300 300"
	 style="enable-background:new 0 0 300 300;" xml:space="preserve">
<style type="text/css">
	.st0{fill:#A1A1AA;}
</style>
<path class="st0" d="M0,300h300V0H0V300z M144.1,168.4c0,1.1-0.9,2-2,2h-15.5c0.5,3.1,3.2,5.3,6.3,5.2c1.8,0,3.5-0.5,4.9-1.6
	c1.2-0.9,2.8-0.6,3.7,0.6c0.3,0.5,0.5,1,0.5,1.6c0,0.8-0.4,1.5-1,2c-2.3,1.8-5.2,2.8-8.1,2.7c-7.3,0-12.6-5.4-12.6-12.8v-0.5
	c0-3.3,1.3-6.5,3.7-8.9c2.2-2.3,5.3-3.5,8.4-3.5C140.5,155.2,144.1,161.9,144.1,168.4L144.1,168.4z M167.6,177.2
	c0,1.7-1.4,3.1-3.1,3.1c-1.4,0-2.6-1-3-2.4c-2,1.9-4.6,2.9-7.4,2.9c-4.3,0-8.9-2.4-8.9-7.8v-0.1c0-5.1,3.8-8.1,10.3-8.1
	c2,0,4.1,0.3,6,0.8l0,0c0-3.9-3-4.7-5.5-4.7c-1.6,0-3.1,0.2-4.6,0.7c-1.4,0.4-2.9-0.3-3.4-1.7c-0.2-0.7-0.2-1.4,0.1-2.1
	c0.3-0.6,0.9-1.1,1.6-1.4c2.3-0.8,4.6-1.2,7-1.1c3.6,0,6.4,1,8.2,2.8s2.7,4.3,2.7,7.6L167.6,177.2z M218.1,177.6
	c-0.1,1.8-1.6,3.1-3.4,3c-1.6-0.1-2.9-1.4-3-3v-18.3c0.1-1.8,1.6-3.1,3.4-3c1.6,0.1,2.9,1.4,3,3V177.6z M245.2,166.7
	c-0.2-6.2,4.6-11.3,10.7-11.6c0.2,0,0.3,0,0.5,0c3-0.1,5.9,1.2,7.9,3.4c0.2-1.7,1.7-3,3.5-2.8c1.6,0.2,2.8,1.5,2.8,3.1V175
	c0,4-1,7.2-3.1,9.2s-5.6,3.3-10.1,3.3c-3,0-6-0.6-8.7-1.8c-0.7-0.3-1.2-0.9-1.4-1.5c-0.2-0.7-0.2-1.5,0.1-2.1
	c0.6-1.3,2.2-1.9,3.5-1.2c2,0.9,4.1,1.4,6.3,1.4c4.6,0,7.1-2.4,7.1-6.8v-0.6c-2,2.3-4.9,3.6-7.9,3.6c-7.3,0-11.2-5.9-11.2-11.5
	L245.2,166.7z M220.8,159.3c-0.1-1.7,1.3-3.2,3.1-3.3c1.7-0.1,3.2,1.2,3.3,2.9c1.7-2.1,4.3-3.4,7-3.3l0,0c5.5,0,8.9,3.6,8.9,9.5
	v12.4c0.1,1.7-1.2,3.2-3,3.3c-1.7,0.1-3.2-1.2-3.3-3c0-0.1,0-0.2,0-0.4v-10.8c0-3.5-1.7-5.4-4.7-5.4s-4.9,2.1-4.9,5.5v10.7
	c0,1.8-1.4,3.2-3.2,3.2c-1.8,0-3.2-1.4-3.2-3.2c0,0,0,0,0,0L220.8,159.3z M214.6,148.3h0.6c1.6-0.1,3,1.1,3.1,2.8s-1.1,3-2.8,3.1
	c-0.1,0-0.2,0-0.3,0h-0.6c-1.6,0.1-3-1.1-3.1-2.8s1.1-3,2.8-3.1C214.4,148.3,214.5,148.3,214.6,148.3z M196.1,120.7h0.2v-3.4
	c-0.1-1.7,1.2-3.2,3-3.3c1.7-0.1,3.2,1.2,3.3,3c0,0.1,0,0.2,0,0.4v3.4h3.6c1.5-0.1,2.8,1.1,2.9,2.6s-1.1,2.8-2.6,2.9
	c-0.1,0-0.2,0-0.3,0h-3.6v11.2c0,1.8,0.8,2.5,2.5,2.5c0.3,0,0.5,0,0.8,0l0,0c0.8-0.1,1.5,0.2,2.1,0.7c0.6,0.5,0.9,1.2,0.9,2
	c0,1.2-0.8,2.2-1.9,2.6c-1.1,0.4-2.3,0.6-3.5,0.5c-4.8,0-7.3-2.5-7.3-7.4v-12.1h-0.2c-1.5,0.1-2.8-1.1-2.9-2.6s1.1-2.8,2.6-2.9
	C195.9,120.7,196,120.7,196.1,120.7L196.1,120.7z M200.1,155.7c5.5,0,8.9,3.6,8.9,9.5v12.4c0,1.7-1.4,3.1-3.1,3.2
	c-1.7,0-3.2-1.4-3.2-3.2l0,0v-10.7c0-3.5-1.6-5.4-4.6-5.4s-4.9,2.1-4.9,5.5v10.7c-0.1,1.8-1.6,3.1-3.4,3c-1.6-0.1-2.9-1.4-3-3v-18.3
	c-0.1-1.7,1.3-3.2,3.1-3.3c1.7-0.1,3.2,1.2,3.3,2.9C194.8,156.9,197.4,155.6,200.1,155.7L200.1,155.7z M170.2,138
	c0-5.1,3.8-8.1,10.3-8.1c2,0,4.1,0.3,6,0.8l0,0c0-3.9-3-4.8-5.5-4.8c-1.6,0-3.1,0.2-4.6,0.7c-1.4,0.4-3-0.4-3.4-1.9
	c-0.2-0.8-0.1-1.6,0.4-2.3c0.4-0.5,0.9-0.9,1.5-1.1c2.2-0.7,4.5-1.1,6.9-1.1c3.6,0,6.4,1,8.2,2.8l0,0c1.8,1.7,2.7,4.3,2.7,7.6v11.3
	c0,1.6-1.1,2.9-2.6,3.2c-1.6,0.3-3.1-0.8-3.5-2.3c-2,1.9-4.6,3-7.4,2.9c-4.3,0-8.9-2.4-8.9-7.8V138z M170.2,158.8
	c0-1.8,1.4-3.2,3.2-3.2c1.7,0,3.2,1.4,3.2,3.2v0.8c0.8-1.5,2.1-2.7,3.6-3.5c1-0.5,2.2-0.5,3.2,0.1c1,0.6,1.6,1.7,1.6,2.9
	c0,1.5-1,2.8-2.4,3.2c-2,0.6-4.6,1.8-5.3,4c-0.5,1.4-0.8,3-0.8,4.5v6.8c0,1.8-1.4,3.2-3.2,3.2c-1.7,0-3.2-1.4-3.2-3.2L170.2,158.8z
	 M157.3,120.3L157.3,120.3c8.2,0,11.8,6.7,11.8,13.2c0,1.1-0.9,2-2,2h-15.5c0.5,3.1,3.2,5.3,6.3,5.2c1.8,0,3.5-0.5,4.9-1.6
	c1.2-0.8,2.8-0.5,3.7,0.7c0.7,1.1,0.6,2.6-0.5,3.5c-2.3,1.8-5.2,2.8-8.1,2.7c-7.3,0-12.6-5.4-12.6-12.8v-0.5c0-3.3,1.3-6.5,3.7-8.9
	C151.2,121.5,154.2,120.3,157.3,120.3L157.3,120.3z M130.7,123.9c0-1.8,1.4-3.2,3.2-3.2s3.2,1.4,3.2,3.2c0,0,0,0,0,0v0.8
	c0.9-1.5,2.1-2.7,3.6-3.5c1-0.5,2.2-0.5,3.1,0.1l0,0c1.6,1,2,3,1.1,4.6c-0.4,0.7-1.1,1.2-1.8,1.4c-2,0.6-4.6,1.8-5.3,4
	c-0.5,1.4-0.8,3-0.8,4.5v6.8c0,1.8-1.4,3.2-3.2,3.2c-1.8,0-3.2-1.4-3.2-3.2c0,0,0,0,0,0L130.7,123.9z M97.9,129.2
	c-0.1-9.1,7.2-16.6,16.3-16.7c0.1,0,0.2,0,0.3,0c3.5-0.1,7,0.8,10,2.6c1.4,0.9,1.8,2.7,0.9,4.1c-0.1,0.1-0.1,0.2-0.2,0.3l-0.2,0.3
	c-1,1.1-2.7,1.4-3.9,0.5c-2-1.3-4.4-2-6.7-1.9c-5.5,0-9.8,4.7-9.8,10.6v0.1c0,6.4,4.2,10.8,10.3,10.8c1.9,0,3.8-0.4,5.5-1.2
	c1.1-0.5,1.7-1.6,1.7-2.8v-3.4h-5.2c-1.6,0-2.9-1.3-2.9-2.9s1.3-2.9,2.9-2.9h8.2c1.8,0,3.2,1.4,3.2,3.2l0,0v8.9c0,1.2-0.5,2.3-1.5,3
	c-3.5,2.6-7.7,3.9-12.1,3.9c-9.9,0-16.8-6.8-16.8-16.6L97.9,129.2z M97.9,150.8c0-1.6,1.3-2.9,2.9-2.9h0.5c1.6,0,3,1.3,3,2.9v22.3
	c0,0.7,0.6,1.2,1.2,1.2c0,0,0,0,0,0h12.4c1.6-0.3,3.2,0.8,3.5,2.4c0.3,1.6-0.8,3.2-2.4,3.5c-0.4,0.1-0.7,0.1-1.1,0H99.8
	c-1.1,0-1.9-0.9-1.9-1.9L97.9,150.8z M63.3,112.5h20.5l-8.1,10H63.3c-13.2,0-23.9,10.7-23.9,23.9c0,0.6,0,1.2,0.1,1.8v0.4
	c0,0.6,0.1,1.1,0.2,1.7c0,0.1,0,0.2,0,0.3c0.1,0.6,0.2,1.1,0.4,1.7c0,0,0,0,0,0.1c0.2,0.6,0.3,1.2,0.5,1.8c0,0.1,0.1,0.1,0.1,0.2
	c0.2,0.6,0.4,1.1,0.7,1.7v0.1c0.5,1.1,1.1,2.2,1.8,3.3l0.1,0.1c0.4,0.5,0.8,1,1.2,1.5c4.5,5.9,11.6,9.4,19,9.4h10.5V151H54.5l8.1-10
	h21.2v17l-10,12.3l-7.9,9.8l-0.2,0.2h-2.4c-9.7,0-18.9-4.2-25.3-11.4l0,0c0,0-0.1-0.1-0.1-0.2c-0.3-0.3-0.6-0.6-0.8-1l-0.1-0.1
	c-1.2-1.5-2.3-3-3.2-4.6l-0.2-0.3c-0.2-0.3-0.3-0.6-0.5-0.9l-0.3-0.5l-0.4-0.8c-0.1-0.2-0.2-0.4-0.3-0.6s-0.2-0.6-0.3-0.8
	s-0.2-0.4-0.3-0.7s-0.2-0.5-0.3-0.8l-0.2-0.7c-0.1-0.3-0.2-0.5-0.2-0.8s-0.1-0.5-0.2-0.8s-0.1-0.5-0.2-0.8s-0.1-0.6-0.2-0.8
	s-0.1-0.5-0.2-0.8s-0.1-0.6-0.2-0.9l-0.1-0.7l-0.1-0.9c0-0.2-0.1-0.4-0.1-0.7s-0.1-0.7-0.1-1.1c0-0.2,0-0.4,0-0.6c0-0.6,0-1.1,0-1.7
	C29.6,127.7,44.7,112.6,63.3,112.5z"/>
<path class="st0" d="M151.4,172.7L151.4,172.7c0,2,1.6,3.3,4.2,3.3c3.4,0,5.9-2,5.9-4.6V170c-1.6-0.6-3.3-0.8-5-0.8
	C153.3,169.1,151.4,170.4,151.4,172.7z"/>
<path class="st0" d="M257.9,172.9c3.7,0,6.5-2.6,6.5-6.1v-0.1c0-3.4-2.8-6.1-6.5-6.1s-6.3,2.5-6.3,6.1v0.1c-0.1,3.3,2.6,6,5.9,6.1
	C257.6,172.9,257.7,172.9,257.9,172.9z"/>
<path class="st0" d="M132.2,160.5c-2.9,0-5,2.1-5.7,5.4h11.2C137.4,163.2,135.7,160.5,132.2,160.5z"/>
<path class="st0" d="M180.6,141c3.4,0,5.9-2,5.9-4.6V135c-1.6-0.6-3.3-0.8-5-0.8c-3.3,0-5.1,1.3-5.1,3.5v0.1
	C176.4,139.8,178.1,141,180.6,141z"/>
<path class="st0" d="M157.2,125.6c-2.9,0-5,2.1-5.6,5.4h11.2C162.4,128.3,160.7,125.6,157.2,125.6z"/>
</svg>
