<svg id="f7af2519-8735-4e30-bbaa-b0720b037521" data-name="PRINT" xmlns="http://www.w3.org/2000/svg" viewBox="0 0 300 300"><path d="M0,300H300V0H0ZM144.1,168.35a2,2,0,0,1-2,2H126.65a6.17,6.17,0,0,0,6.32,5.17,7.69,7.69,0,0,0,4.85-1.6,2.63,2.63,0,0,1,4.19,2.19,2.67,2.67,0,0,1-1,2,12.61,12.61,0,0,1-8.15,2.73c-7.31,0-12.61-5.37-12.61-12.75v-.52a12.54,12.54,0,0,1,3.69-8.88,11.73,11.73,0,0,1,8.42-3.49c8.1.05,11.72,6.67,11.72,13.2Zm23.49,8.81a3.09,3.09,0,0,1-6.09.7,10.26,10.26,0,0,1-7.38,2.87c-4.28,0-8.88-2.42-8.88-7.76v-.08c0-5.06,3.84-8.08,10.27-8.08a20.22,20.22,0,0,1,6,.84h0c0-3.92-3-4.74-5.47-4.74a15.22,15.22,0,0,0-4.6.69,2.68,2.68,0,0,1-3.35-1.7,2.71,2.71,0,0,1,.12-2.09,2.65,2.65,0,0,1,1.55-1.37,20.66,20.66,0,0,1,7-1.12c3.57,0,6.4,1,8.17,2.79s2.69,4.3,2.69,7.62Zm50.51.45a3.18,3.18,0,0,1-6.35,0V159.35a3.18,3.18,0,0,1,6.35,0Zm27.09-10.88a11.16,11.16,0,0,1,11.22-11.59,10.5,10.5,0,0,1,7.9,3.37,3.15,3.15,0,0,1,6.28.28V175c0,4-1,7.16-3.13,9.24s-5.59,3.32-10.06,3.32a21.4,21.4,0,0,1-8.71-1.78,2.71,2.71,0,0,1-1.43-1.54,2.74,2.74,0,0,1,.13-2.12,2.68,2.68,0,0,1,3.54-1.25,14.76,14.76,0,0,0,6.33,1.38c4.63,0,7.08-2.35,7.08-6.81v-.63a10.15,10.15,0,0,1-7.93,3.58c-7.29,0-11.22-5.94-11.22-11.53Zm-24.4-7.38a3.17,3.17,0,0,1,6.33-.34,8.7,8.7,0,0,1,7-3.32h0c5.48,0,8.88,3.65,8.88,9.52v12.43a3.15,3.15,0,1,1-6.29,0V166.86c0-3.46-1.66-5.37-4.66-5.37s-4.92,2.14-4.92,5.46v10.66a3.17,3.17,0,1,1-6.34,0Zm-6.19-11h.65a2.93,2.93,0,1,1,0,5.85h-.65a2.93,2.93,0,1,1,0-5.85Zm-18.51-27.62h.25v-3.37a3.15,3.15,0,1,1,6.29,0v3.37h3.62a2.77,2.77,0,1,1,0,5.53h-3.62V137.5c0,1.76.77,2.54,2.5,2.54a7,7,0,0,0,.8,0h0a2.75,2.75,0,0,1,2.11.67,2.68,2.68,0,0,1,.89,2,2.72,2.72,0,0,1-1.85,2.56,10.51,10.51,0,0,1-3.48.53c-4.82,0-7.26-2.48-7.26-7.4V126.28h-.25a2.77,2.77,0,1,1,0-5.53Zm4,34.93c5.48,0,8.88,3.65,8.88,9.52v12.43a3.15,3.15,0,0,1-6.3,0V166.86c0-3.46-1.65-5.37-4.65-5.37s-4.92,2.14-4.92,5.46v10.66a3.18,3.18,0,0,1-6.35,0V159.35a3.17,3.17,0,0,1,6.33-.34A8.73,8.73,0,0,1,200.14,155.68ZM170.23,138c0-5.05,3.84-8.07,10.28-8.07a20.22,20.22,0,0,1,6,.84h0c0-3.92-3-4.75-5.46-4.75a15,15,0,0,0-4.61.71,2.72,2.72,0,0,1-3-4.15,2.81,2.81,0,0,1,1.47-1.06,20.39,20.39,0,0,1,6.88-1.07c3.57,0,6.4,1,8.17,2.78h0c1.78,1.73,2.69,4.3,2.69,7.63v11.28a3.18,3.18,0,0,1-2.65,3.19A3.1,3.1,0,0,1,186.5,143a10.23,10.23,0,0,1-7.38,2.88c-4.28,0-8.89-2.43-8.89-7.75Zm0,20.84a3.17,3.17,0,0,1,6.34,0v.79a9,9,0,0,1,3.64-3.53,3.21,3.21,0,0,1,3.16.14,3.35,3.35,0,0,1,1.61,2.86,3.31,3.31,0,0,1-2.37,3.18c-2,.59-4.56,1.78-5.29,4a12.31,12.31,0,0,0-.75,4.49v6.82a3.17,3.17,0,0,1-6.34,0Zm-12.89-38.57h.06c8.1,0,11.72,6.66,11.72,13.19a2,2,0,0,1-2,2H151.65a6.18,6.18,0,0,0,6.32,5.17,7.63,7.63,0,0,0,4.85-1.6,2.64,2.64,0,0,1,3.21,4.18,12.61,12.61,0,0,1-8.15,2.73c-7.31,0-12.61-5.36-12.61-12.75v-.51a12.59,12.59,0,0,1,3.69-8.89A11.79,11.79,0,0,1,157.32,120.26Zm-26.63,3.68a3.17,3.17,0,1,1,6.34,0v.79a9,9,0,0,1,3.65-3.53,3.19,3.19,0,0,1,3.15.14h0a3.33,3.33,0,0,1-.75,6c-2,.59-4.57,1.78-5.3,4a12.39,12.39,0,0,0-.75,4.49v6.82a3.17,3.17,0,1,1-6.34,0ZM97.9,129.18a16.51,16.51,0,0,1,16.66-16.7,17.72,17.72,0,0,1,10,2.6,3,3,0,0,1,.71,4.44l-.24.28a3,3,0,0,1-3.94.54,11.72,11.72,0,0,0-6.74-1.88c-5.49,0-9.78,4.67-9.78,10.64v.08c0,6.37,4.23,10.81,10.27,10.81a12.94,12.94,0,0,0,5.48-1.19A3,3,0,0,0,122,136v-3.41h-5.19a2.86,2.86,0,0,1,0-5.72H125a3.19,3.19,0,0,1,3.19,3.19V139a3.65,3.65,0,0,1-1.49,3,20.45,20.45,0,0,1-12.07,3.95c-9.86,0-16.75-6.83-16.75-16.61Zm0,21.67a3,3,0,0,1,2.95-2.95h.49a3,3,0,0,1,3,2.95v22.26a1.23,1.23,0,0,0,1.24,1.23h12.36a3,3,0,1,1,0,5.9H99.81a1.92,1.92,0,0,1-1.91-1.91ZM63.32,112.48H83.79l-8.11,10H63.32a24,24,0,0,0-23.93,23.93c0,.59,0,1.17.07,1.75l0,.38c0,.57.12,1.14.21,1.7,0,.09,0,.17,0,.26q.15.86.36,1.71a.13.13,0,0,1,0,.06c.15.59.33,1.17.52,1.75a1.18,1.18,0,0,1,.07.2c.2.57.42,1.14.66,1.69l0,.11a23.9,23.9,0,0,0,1.78,3.3l.09.14A18.41,18.41,0,0,0,44.37,161a23.89,23.89,0,0,0,19,9.35H73.84V151H54.53l8.09-10h21.2v17l-10,12.31-7.91,9.75-.19.23H63.32A33.83,33.83,0,0,1,38,168.88h0s-.09-.11-.14-.17c-.28-.31-.56-.63-.82-1l-.06-.08A33.56,33.56,0,0,1,33.79,163l-.18-.32c-.17-.3-.32-.6-.48-.9l-.26-.51-.39-.84c-.1-.2-.19-.4-.28-.6s-.22-.55-.34-.82-.17-.44-.26-.67-.19-.53-.29-.79l-.24-.73c-.09-.26-.17-.52-.25-.78s-.15-.52-.22-.78-.14-.51-.2-.76-.13-.55-.19-.83-.11-.5-.16-.75-.11-.58-.16-.88l-.12-.72-.12-.95c0-.23-.06-.45-.08-.68s-.06-.72-.08-1.09c0-.19,0-.38,0-.57,0-.55,0-1.11,0-1.67A34,34,0,0,1,63.32,112.48Z"/><path d="M151.45,172.66v.09c0,1.93,1.64,3.17,4.2,3.17,3.42,0,5.91-2,5.91-4.65V170a14.56,14.56,0,0,0-5-.82C153.32,169.13,151.45,170.42,151.45,172.66Z"/><path d="M257.85,172.86c3.72,0,6.54-2.62,6.54-6.09v-.09c0-3.45-2.82-6.05-6.54-6.05s-6.32,2.49-6.32,6.05v.09A6,6,0,0,0,257.85,172.86Z"/><path d="M132.25,160.46c-2.87,0-5,2.09-5.66,5.39h11.2C137.37,163.16,135.73,160.46,132.25,160.46Z"/><path d="M180.64,141c3.43,0,5.92-2,5.92-4.65v-1.32a14.56,14.56,0,0,0-5-.82c-3.27,0-5.15,1.29-5.15,3.53v.09C176.44,139.78,178.09,141,180.64,141Z"/><path d="M157.25,125.56c-2.86,0-5,2.1-5.65,5.4h11.19C162.37,128.27,160.73,125.56,157.25,125.56Z"/></svg>