<svg id="a39fff19-ab0d-4838-b6b1-0f1ef36d1bca" data-name="PRINT" xmlns="http://www.w3.org/2000/svg" viewBox="0 0 300 300"><path d="M300,0H0V300H300ZM247.76,220.39h2.17v18.15l-13.09-13.71v13h-2.17V219.55l13.09,13.72Zm-1.7-24.74-1.53,1.46a6.87,6.87,0,0,0-12.44,4.23c0,3.65,3,7.12,6.78,7.12,2.7,0,5.61-2.34,5.71-5.18h-4.51v-2H247v.7a8.1,8.1,0,0,1-8.26,8.46,9.09,9.09,0,0,1,.23-18.18A9.14,9.14,0,0,1,246.06,195.65Zm-14.3,31.61v2h-7v6.6H232v2H222.6V220.39H232v2h-7.19v4.88Zm-2.54-57.75-1.52,1.16a6.06,6.06,0,0,0-1.25-1.4h0a11.08,11.08,0,0,1-2.78,1.33l-1-1.59a8.28,8.28,0,0,0,2.47-.86L223.53,167l1.23-1.05c.3.21.58.38.83.53s.63.45,1,.73a8.43,8.43,0,0,0,1.63-1.47l1.26,1.07a14.51,14.51,0,0,1-1.61,1.42Q228.56,168.85,229.22,169.51Zm-4.63-8.45c.62.4,1.25.83,1.88,1.31a6,6,0,0,0,1.45-1.28l1.18,1.06a5,5,0,0,1-1.4,1.29c.31.28.74.7,1.26,1.25l-1.45,1.07c-.63-.9-1-1.35-1.21-1.35a20.26,20.26,0,0,1-2.77,1.45l-1.21-1.59a9.88,9.88,0,0,0,2.61-1q-.6-.47-1.62-1.11Zm-9.31,10h1.18L216.2,162a22.53,22.53,0,0,0,5.22-.68l1,1.75a18.13,18.13,0,0,1-4.22.64l.07,1.21H222v1.62h-3.63l0,1.35H222v1.63h-3.56l.05,1.59h14.86l0-1.59h-3.32v-1.63h3.39l.05-1.35h-3.44v-1.62h3.48l0-1.31H229.8V161.7h5.86l-.26,9.37h1.26v5.37h-2.14V173H217.38v3.49h-2.1Zm-.53,6.69h10.3v-1a40,40,0,0,0,4.15-1h-10V174h13.21v1.73a29.61,29.61,0,0,1-5.14,2.06h9.84v1.92h-9.84v1c0,1.69-.73,2.53-2.16,2.53h-3.49l-.54-1.92,3.24.1a.63.63,0,0,0,.72-.71v-1h-10.3Zm-2.24,14.05,13.08,13.71V192.64h2.18V210.8l-13.09-13.72v13h-2.17Zm6.6,28.58v17.43h-2.17V220.39Zm-9.58,15.82a6.94,6.94,0,0,0,4.65-1.81V237a9.48,9.48,0,0,1-4.58,1.22,9,9,0,0,1-9.08-9,9.16,9.16,0,0,1,9.27-9.19,8.33,8.33,0,0,1,4.39,1.19v2.52a6.93,6.93,0,0,0-11.49,5.41A7,7,0,0,0,209.53,236.21Zm.85-34.85a9.14,9.14,0,0,1-18.27,0,9.14,9.14,0,0,1,18.27,0Zm-31.44,25.92v2h-6.06v8.55h-2.17V220.39h8.44v2h-6.27v4.9Zm-49.79-6.89h2.5l4.28,7.45,4.27-7.45h2.5L137,230.24v7.58h-2.17v-7.58ZM124.94,179l-1.33-2.13a23.82,23.82,0,0,0,4.48-7.33h-4.34v-2h4.42v-3a33.58,33.58,0,0,1-3.68.4l-.5-2a29.75,29.75,0,0,0,9.14-1.71l.8,2a28,28,0,0,1-3.58,1v3.35H134v2h-3.6v.21q2.66,2.47,4,3.94l-1.33,2c-.48-.66-.95-1.26-1.42-1.8s-.83-1-1.26-1.59v11l-2.18.09v-9.75A23.15,23.15,0,0,1,124.94,179ZM129,114.56a20.61,20.61,0,0,0,6.72,6.55L133,125.49s-5.83-3.74-9-9.11a26.18,26.18,0,0,1-3.56-10.51V72.58h5.43v33.16A19.06,19.06,0,0,0,129,114.56Zm6.77-4.79a15.17,15.17,0,0,0,4.32,4.27l-2.81,4.38a17,17,0,0,1-6-5.78,15.72,15.72,0,0,1-2.58-6.9V72.58H134v32A10.53,10.53,0,0,0,135.8,109.77Zm23.48,16L152,113.81s-.24-.64-.35-1a2.72,2.72,0,0,1-.18-.93V76.14h4.38v34.39l.12.93.35.88L168.1,132.2h-36l11.73-19.44a1.67,1.67,0,0,0,.42-.89c0-.51.17-.63.17-.63V76.08h4.2v35.75s-.06.51-.18,1a4.57,4.57,0,0,1-.41,1l-7.12,11.86Zm1.1-11.56a19.11,19.11,0,0,0,4-4.21,14.76,14.76,0,0,0,1.92-5.49v-32h5.27v32a21.44,21.44,0,0,1-2.47,7.88,27.58,27.58,0,0,1-6.06,6.13Zm-21.13,53.35a44.4,44.4,0,0,0-4.27-3.1l1.42-1.57a46.69,46.69,0,0,1,4.34,2.89Zm1,3.94-1.47,1.83a35.37,35.37,0,0,0-4.32-3.16l1.4-1.59A31.92,31.92,0,0,1,140.29,171.45Zm-6.63,4.44,8-1.19V161.06h2.2v13.38l2.14-.35v2.16l-2.14.35v6.81h-2.2v-6.52l-8,1.21Zm4,21.19v13h-2.17V191.81l13.08,13.71V192.64h2.18V210.8ZM159.26,220a9.16,9.16,0,0,1,9.13,9.09,9.14,9.14,0,0,1-18.27,0A9.17,9.17,0,0,1,159.26,220Zm2.42-9.56a9.09,9.09,0,0,1,.23-18.18,9.15,9.15,0,0,1,7.1,3.38l-1.53,1.46A6.87,6.87,0,0,0,155,201.34c0,3.65,3,7.12,6.78,7.12,2.7,0,5.61-2.34,5.71-5.18H163v-2h6.91v.7A8.09,8.09,0,0,1,161.68,210.45Zm7.58-30.67a18.1,18.1,0,0,1-7.17,3.58l-1.3-2.15a20,20,0,0,0,6.83-3.07,22.15,22.15,0,0,1-3.58-5l2-.78a21.08,21.08,0,0,0,3.27,4.53,10.4,10.4,0,0,0,3.44-4.91H163.3v-2.19H168v-3.18h-5.1l0,1.53h-2.8v4.19a24.15,24.15,0,0,0,2.77-1v2.32a18.63,18.63,0,0,1-2.77,1.09v5.82a3.61,3.61,0,0,1-.48,2.23,3.1,3.1,0,0,1-2.26.57h-1.88l-.54-2.4,2.06.07a.7.7,0,0,0,.79-.78v-4.84l-3.18.81-.58-2.57a28,28,0,0,0,3.76-.71v-4.76h-3.52v-2.17h3.52v-4.86h2.33v4.86h2.8v-1.51H168v-3.35h2.35v3.35H176v2.16h-5.6v3.17h4.79v2a13.06,13.06,0,0,1-1.56,3.35,13.63,13.63,0,0,1-2.59,3.25,14.45,14.45,0,0,0,5.36,2.78l-1.21,2.23A16,16,0,0,1,169.26,179.78Zm6.78-63a31.75,31.75,0,0,1-8.76,8.76l-2.63-4.44a21.78,21.78,0,0,0,6.66-6.89,18.91,18.91,0,0,0,3.15-9V72.46h5.32v32.71A28.38,28.38,0,0,1,176,116.79Zm3.19,75.85h2.17v7.56l7.4-7.56h2.85l-7.84,7.84,8,9.6h-2.93L182.28,202l-.88.84v7.28h-2.17Zm14.46,36.81-1.2-.51c-2-.85-3.8-2-3.8-4.42,0-2.82,2.51-4.51,5.14-4.51a5,5,0,0,1,4.49,2.64l-1.74,1a3,3,0,0,0-2.8-1.64,2.75,2.75,0,0,0-2.91,2.47c0,1.37,1.34,2.09,2.43,2.5l1.25.49c2.47,1,4.32,2.33,4.32,5.25a5.37,5.37,0,0,1-5.57,5.43,5.43,5.43,0,0,1-5.39-4.87l2.2-.47a3.3,3.3,0,1,0,6.59-.09C196.7,230.89,195.2,230.07,193.69,229.45Zm-8.77-59.88v-2.52h8.59a45.65,45.65,0,0,0,.3-6h2.5c0,2.72-.07,4.7-.19,6h10v2.52l-7.59,0a17.77,17.77,0,0,0,2.56,6.08,18.55,18.55,0,0,0,5.55,5.5l-1.82,2.18q-6.41-4.2-8.78-13.76h-.38q-1.59,8.57-9.56,13.81l-1.8-2.25a19.43,19.43,0,0,0,5.79-5.06,14.71,14.71,0,0,0,3-6.47ZM141.35,35.78a13.41,13.41,0,0,1,8.58-3,14,14,0,0,1,8.94,3c7.88,5.77,5.55,14.83,5.55,14.83h-28.5S134.11,40.7,141.35,35.78Zm1.41,23.95c-1.23-.69-1.23-.82-1.23-.82h17.22a5.74,5.74,0,0,1-1.34.82ZM156,61a15,15,0,0,1-5.84,1.06A11.37,11.37,0,0,1,144.74,61Zm-15.83-3.32c-.52-.47-1-1-1-1h22.07a4.29,4.29,0,0,1-1.16,1Zm-1.92-2.16a5.22,5.22,0,0,1-.94-1.41h25.82A6.74,6.74,0,0,1,162,55.53Zm-1.46-2.4a9.87,9.87,0,0,1-.64-1.63h28.2a4.16,4.16,0,0,1-.64,1.63Zm-14.2,10.28h21.91a7.14,7.14,0,0,1,3.44,1.11,11.2,11.2,0,0,1,2.16,2.8,7.32,7.32,0,0,1,2-2.56,9.09,9.09,0,0,1,3.21-1.35H177.5l4.38,6.48h-20a8.51,8.51,0,0,0-3.51,1.29,7.32,7.32,0,0,0-1.93,1.75,2.88,2.88,0,0,1-.41.81,1.76,1.76,0,0,1-.69.65c-.3.12-.24,0-.24,0H144.74a1.43,1.43,0,0,1-.64-.52c-.24-.35-.06-.23-.29-.52a6.19,6.19,0,0,0-2.17-2.1,7.47,7.47,0,0,0-3.21-1.17H118.12Zm1.65,128.86a9.17,9.17,0,0,1,9.14,9.09,9.14,9.14,0,0,1-18.27,0A9.16,9.16,0,0,1,124.19,192.27Zm-28-17.42,2.07,1.21a24.35,24.35,0,0,1-3,7.07l-1.9-1.95A17.42,17.42,0,0,0,96.2,174.85Zm-2.72-5.2,1.42-1.78a26.52,26.52,0,0,1,3.51,2.3l-1.61,2A38.08,38.08,0,0,0,93.48,169.65Zm-3.07,29.86v2h-7v6.59h7.2v2H81.25V192.64h9.37v2h-7.2v4.88ZM86,227.26v2H79v6.6h7.19v2H76.87V220.39h9.36v2H79v4.88ZM67.4,201.71v8.37H65.23V192.64H67.4v7h8.3v-7h2.17v17.44H75.7v-8.37Zm7.75,18.68-7.56,18.36L60,220.39h2.38l5.2,12.9,5.18-12.9ZM63.07,168.15v-2h9.75v-1.93q-5.34.15-7.66.15l-.79-2.19c.9,0,2,0,3.35,0A70,70,0,0,0,82,161.17l1,1.94a68.23,68.23,0,0,1-8,1.07v2h10v2H77.41a15.51,15.51,0,0,0,7.83,3.63l-1,2.15a8.55,8.55,0,0,0-1-.38,5.38,5.38,0,0,1-1-.42v10.29h-2.2v-1.09H68.24v1.09H66V173.25c-.39.17-1.06.42-2,.73l-1.14-2.11a18.22,18.22,0,0,0,7.52-3.72ZM53,192.64H63.47v2H59.33v15.45H57.15V194.63H53Zm5.33,27.75v17.43H56.17V220.39Zm-23.72,11c0,3.84-2.38,6.77-6.38,6.77s-6.39-2.93-6.39-6.77v-11H24v10.29c0,2.84.85,5.48,4.21,5.48s4.2-2.64,4.2-5.48V220.39h2.18Zm5.2,6.4H37.65V219.55h0l13.09,13.72V220.39h2.17v18.15L39.82,224.83Zm19.52,27.75-2-4.38h-8l-2,4.38H45l8.33-18.18,8.32,18.18Zm19.08.71L65.33,252.57v13H63.15V247.3L76.24,261V248.13h2.18Zm6.68-.71H81.56V248.13h3.61c5.34,0,9.78,2.82,9.78,8.63S90.6,265.57,85.1,265.57Zm12.25-27.75-5.13-7.37h-.9v7.37H89.14V220.39h2.64a9.18,9.18,0,0,1,4.6.81,4.8,4.8,0,0,1,2.29,4.16,4.75,4.75,0,0,1-4.18,4.88l5.5,7.58Zm13.38-38.15v-7h2.18v17.44h-2.18v-8.37h-8.3v8.37h-2.17V192.64h2.17v7Zm-3.94,29.78-1.2-.51c-2-.85-3.79-2-3.79-4.42,0-2.82,2.49-4.51,5.13-4.51a5,5,0,0,1,4.48,2.64l-1.73,1a3,3,0,0,0-2.8-1.64,2.74,2.74,0,0,0-2.91,2.47c0,1.37,1.34,2.09,2.43,2.5l1.25.49c2.47,1,4.32,2.33,4.32,5.25a5.37,5.37,0,0,1-5.57,5.43,5.43,5.43,0,0,1-5.39-4.87l2.19-.47a3.3,3.3,0,1,0,6.6-.09C109.8,230.89,108.29,230.07,106.79,229.45Zm6.31,20.67H109v15.45h-2.17V250.12h-4.14v-2H113.1Zm-1.7-67.44h-7.68A2.25,2.25,0,0,1,101,179.9v-5.31a22.26,22.26,0,0,1-2.18,1.49l-1.36-2c2.63-1.19,4.29-2.52,5-4h-3.8v-2h3.63v-2.38H99.11v-1.28l-1.44,1.8a25.61,25.61,0,0,0-3.54-2.77l1.57-1.76c1.34.86,2.48,1.64,3.41,2.35v-.3h3.16v-2.47h2.17v2.47h4.32v-2.47h2.14v2.47h3.92v1.87H110.9v2.44h4.27v2h-4.53q.94,1.94,4.79,3.82l-1,2.12a23.71,23.71,0,0,1-3.6-2.59v4.86h-7.64v1.52a.74.74,0,0,0,.83.83h7c.66,0,1-.24,1.18-.73a18.94,18.94,0,0,0,.36-2.64l2.28.83q-.39,3.3-1,4A3.44,3.44,0,0,1,111.4,182.68Zm3.12,37.71h2.17v17.43h-2.17Zm9.89,29.73h-7.19V255h7v2h-7v6.59h7.19v2h-9.36V248.13h9.36Zm.46-12.3H122.7V222.38h-4.14v-2H129v2h-4.14ZM140,251.46a6.93,6.93,0,0,0-11.49,5.41A6.85,6.85,0,0,0,140,262.14v2.57a9.49,9.49,0,0,1-4.58,1.23,9,9,0,0,1-9.09-9,9.16,9.16,0,0,1,9.28-9.18,8.41,8.41,0,0,1,4.39,1.18Zm15.28,14.11h-2.16V257.2h-8.31v8.37h-2.17V248.13h2.17v7h8.31v-7h2.16Zm18.43.71-13.08-13.71v13h-2.18V247.3L171.56,261V248.13h2.17Zm11.24-.34a9,9,0,0,1-9.13-9.09,9.14,9.14,0,0,1,18.27,0A9,9,0,0,1,185,265.94Zm18.95-.37h-7.47V248.13h2.17v15.45h5.3Zm9.57.37a9,9,0,0,1-9.14-9.09,9.14,9.14,0,0,1,18.27,0A9,9,0,0,1,213.49,265.94Zm27.35-8.47a8.1,8.1,0,0,1-8.25,8.47,9.09,9.09,0,0,1,.23-18.18,9.14,9.14,0,0,1,7.1,3.37l-1.53,1.46A6.88,6.88,0,0,0,226,256.82c0,3.66,3,7.13,6.77,7.13,2.71,0,5.63-2.34,5.72-5.19h-4.51v-2h6.91Zm8.45.51v7.59h-2.18V258l-5.69-9.85h2.5l4.27,7.45,4.28-7.45H255ZM266,223.72a7.15,7.15,0,1,0,0,10.68V237a9.42,9.42,0,0,1-4.58,1.22,9,9,0,0,1-9.08-9,9.17,9.17,0,0,1,9.28-9.19A8.3,8.3,0,0,1,266,221.2Zm12.2-1.34H271v4.88h7v2h-7v6.6h7.2v2h-9.37V220.39h9.37Z"/><path d="M124.19,208.41a7,7,0,0,0,7-7,7,7,0,1,0-13.92,0A7,7,0,0,0,124.19,208.41Z"/><rect x="104.43" y="165.74" width="4.32" height="2.32"/><rect x="68.23" y="178.27" width="11.67" height="2.09"/><path d="M194.28,201.36a7,7,0,1,0,13.93,0,7,7,0,1,0-13.93,0Z"/><path d="M75,168.19v4.39H80.9A13.13,13.13,0,0,1,75,168.19Z"/><rect x="68.23" y="174.57" width="11.67" height="1.8"/><polygon points="50.25 259.21 56.45 259.21 53.35 252.16 50.25 259.21"/><path d="M72.81,168.22a12.44,12.44,0,0,1-5.41,4.36h5.41Z"/><path d="M96.64,225.45c0-2.73-2.59-3.12-4.74-3.12h-.58v6.31H92C94.23,228.64,96.64,228.22,96.64,225.45Z"/><rect x="103.15" y="174.07" width="5.46" height="2.33"/><path d="M108.16,170.06H105a7.36,7.36,0,0,1-1.4,2.13h6A10.41,10.41,0,0,1,108.16,170.06Z"/><path d="M84.5,250.12h-.77v13.46h.77c4.44,0,8.28-1.67,8.28-6.73S88.94,250.12,84.5,250.12Z"/><path d="M159.26,236.16a7,7,0,0,0,7-7.06,7,7,0,1,0-13.92,0A7,7,0,0,0,159.26,236.16Z"/><path d="M185,249.79a6.88,6.88,0,0,0-6.95,7.06,7,7,0,1,0,13.92,0A6.89,6.89,0,0,0,185,249.79Z"/><path d="M213.49,249.79a6.89,6.89,0,0,0-7,7.06,7,7,0,1,0,13.92,0A6.89,6.89,0,0,0,213.49,249.79Z"/></svg>