<?xml version="1.0" encoding="utf-8"?>
<!-- Generator: Adobe Illustrator 25.4.1, SVG Export Plug-In . SVG Version: 6.00 Build 0)  -->
<svg version="1.1" id="a39fff19-ab0d-4838-b6b1-0f1ef36d1bca"
	 xmlns="http://www.w3.org/2000/svg" xmlns:xlink="http://www.w3.org/1999/xlink" x="0px" y="0px" viewBox="0 0 300 300"
	 style="enable-background:new 0 0 300 300;" xml:space="preserve">
<style type="text/css">
	.st0{fill:#A1A1AA;}
</style>
<path class="st0" d="M300,0H0v300h300V0z M247.8,220.4h2.2v18.1l-13.1-13.7v13h-2.2v-18.3l13.1,13.7V220.4z M246.1,195.6l-1.5,1.5
	c-2.2-3.1-6.5-3.8-9.6-1.6c-1.9,1.3-2.9,3.5-2.8,5.8c0,3.6,3,7.1,6.8,7.1c2.7,0,5.6-2.3,5.7-5.2h-4.5v-2h6.9v0.7
	c0.2,4.5-3.3,8.3-7.7,8.5c-0.2,0-0.4,0-0.5,0c-5-0.1-9-4.2-9-9.2c0.1-5,4.2-9,9.2-9C241.7,192.3,244.3,193.5,246.1,195.6z
	 M231.8,227.3v2h-7v6.6h7.2v2h-9.4v-17.5h9.4v2h-7.2v4.9L231.8,227.3z M229.2,169.5l-1.5,1.2c-0.3-0.5-0.8-1-1.2-1.4l0,0
	c-0.9,0.6-1.8,1-2.8,1.3l-1-1.6c0.9-0.2,1.7-0.4,2.5-0.9l-1.6-1.2l1.2-1.1c0.3,0.2,0.6,0.4,0.8,0.5s0.6,0.4,1,0.7
	c0.6-0.4,1.2-0.9,1.6-1.5l1.3,1.1c-0.5,0.5-1,1-1.6,1.4C228.3,168.6,228.8,169.1,229.2,169.5z M224.6,161.1c0.6,0.4,1.2,0.8,1.9,1.3
	c0.5-0.3,1-0.8,1.4-1.3l1.2,1.1c-0.4,0.5-0.9,1-1.4,1.3c0.3,0.3,0.7,0.7,1.3,1.2l-1.4,1.1c-0.6-0.9-1-1.4-1.2-1.4
	c-0.9,0.6-1.8,1-2.8,1.4l-1.2-1.6c0.9-0.2,1.8-0.5,2.6-1c-0.4-0.3-0.9-0.7-1.6-1.1L224.6,161.1z M215.3,171.1h1.2l-0.3-9.1
	c1.8,0,3.5-0.3,5.2-0.7l1,1.8c-1.4,0.4-2.8,0.6-4.2,0.6l0.1,1.2h3.7v1.6h-3.6v1.4h3.6v1.6h-3.6l0.1,1.6h14.9v-1.6H230v-1.6h3.4
	l0.1-1.4H230v-1.6h3.5v-1.3h-3.7v-1.9h5.9l-0.3,9.4h1.3v5.4h-2.1V173h-17.1v3.5h-2.1V171.1z M214.8,177.8h10.3v-1
	c1.4-0.3,2.8-0.6,4.1-1h-10V174h13.2v1.7c-1.6,0.8-3.4,1.5-5.1,2.1h9.8v1.9h-9.8v1c0,1.7-0.7,2.5-2.2,2.5h-3.5l-0.5-1.9l3.2,0.1
	c0.3,0.1,0.7-0.2,0.7-0.5c0-0.1,0-0.1,0-0.2v-1h-10.3L214.8,177.8z M212.5,191.8l13.1,13.7v-12.9h2.2v18.2l-13.1-13.7v13h-2.2V191.8
	z M219.1,220.4v17.4h-2.2v-17.4L219.1,220.4z M209.5,236.2c1.7,0,3.4-0.7,4.6-1.8v2.6c-1.4,0.8-3,1.2-4.6,1.2c-5,0-9-3.9-9.1-8.9
	c0,0,0-0.1,0-0.1c0-5.1,4.1-9.2,9.1-9.2c0,0,0.1,0,0.1,0c1.5,0,3.1,0.4,4.4,1.2v2.5c-2.9-2.5-7.3-2.2-9.8,0.7
	c-1.1,1.3-1.8,3-1.7,4.8C202.7,233,205.7,236.1,209.5,236.2L209.5,236.2z M210.4,201.4c-0.2,5-4.4,9-9.4,8.8c-4.8-0.2-8.7-4-8.8-8.8
	c0.2-5,4.4-9,9.4-8.8C206.4,192.7,210.2,196.5,210.4,201.4z M178.9,227.3v2h-6.1v8.6h-2.2v-17.4h8.4v2h-6.3v4.9L178.9,227.3z
	 M129.1,220.4h2.5l4.3,7.4l4.3-7.4h2.5l-5.7,9.9v7.6h-2.2v-7.6L129.1,220.4z M124.9,179l-1.3-2.1c1.9-2.2,3.4-4.6,4.5-7.3h-4.3v-2
	h4.4v-3c-1.2,0.2-2.4,0.3-3.7,0.4l-0.5-2c3.1-0.1,6.2-0.7,9.1-1.7l0.8,2c-1.2,0.4-2.4,0.7-3.6,1v3.4h3.6v2h-3.6v0.2
	c1.8,1.6,3.1,3,4,3.9l-1.3,2c-0.5-0.7-0.9-1.3-1.4-1.8s-0.8-1-1.3-1.6v11l-2.2,0.1v-9.8C127.4,175.6,126.3,177.4,124.9,179z
	 M129,114.6c1.7,2.7,4,4.9,6.7,6.6l-2.7,4.4c0,0-5.8-3.7-9-9.1c-1.9-3.2-3.1-6.8-3.6-10.5V72.6h5.4v33.2
	C126.2,108.9,127.2,111.9,129,114.6z M135.8,109.8c1.1,1.7,2.6,3.2,4.3,4.3l-2.8,4.4c-2.4-1.4-4.5-3.4-6-5.8
	c-1.4-2.1-2.3-4.4-2.6-6.9V72.6h5.3v32C134.1,106.4,134.8,108.2,135.8,109.8L135.8,109.8z M159.2,125.8l-7.2-12c0,0-0.2-0.6-0.4-1
	c-0.1-0.3-0.2-0.6-0.2-0.9V76.1h4.4v34.4l0.1,0.9l0.4,0.9l11.8,19.9h-36l11.7-19.4c0.2-0.2,0.4-0.6,0.4-0.9c0-0.5,0.2-0.6,0.2-0.6
	V76.1h4.2v35.8c0,0-0.1,0.5-0.2,1c-0.1,0.3-0.2,0.7-0.4,1l-7.1,11.9L159.2,125.8z M160.4,114.2c1.5-1.2,2.9-2.6,4-4.2
	c1-1.7,1.7-3.6,1.9-5.5v-32h5.3v32c-0.3,2.8-1.1,5.4-2.5,7.9c-1.7,2.3-3.7,4.4-6.1,6.1L160.4,114.2z M139.2,167.6
	c-1.4-1.1-2.8-2.2-4.3-3.1l1.4-1.6c1.5,0.9,2.9,1.8,4.3,2.9L139.2,167.6z M140.2,171.5l-1.5,1.8c-1.4-1.2-2.8-2.2-4.3-3.2l1.4-1.6
	C137.4,169.4,138.9,170.4,140.2,171.5L140.2,171.5z M133.6,175.9l8-1.2v-13.7h2.2v13.4l2.1-0.4v2.2l-2.1,0.4v6.8h-2.2v-6.5l-8,1.2
	V175.9z M137.6,197.1v13h-2.2v-18.3l13.1,13.7v-12.9h2.2v18.2L137.6,197.1z M159.3,220c5,0,9.1,4.1,9.1,9.1c-0.2,5-4.4,9-9.4,8.8
	c-4.8-0.2-8.7-4-8.8-8.8C150.2,224.1,154.2,220,159.3,220z M161.7,210.4c-5-0.1-9-4.2-9-9.2c0.1-5,4.2-9,9.2-9
	c2.8,0,5.4,1.2,7.1,3.4l-1.5,1.5c-2.2-3.1-6.5-3.8-9.6-1.7c-1.9,1.3-3,3.6-2.9,5.9c0,3.6,3,7.1,6.8,7.1c2.7,0,5.6-2.3,5.7-5.2H163
	v-2h6.9v0.7c0.2,4.5-3.2,8.3-7.7,8.5C162,210.5,161.9,210.5,161.7,210.4L161.7,210.4z M169.3,179.8c-2.1,1.7-4.5,2.9-7.2,3.6
	l-1.3-2.1c2.4-0.6,4.8-1.6,6.8-3.1c-1.4-1.5-2.6-3.2-3.6-5l2-0.8c0.9,1.6,2,3.2,3.3,4.5c1.6-1.3,2.8-3,3.4-4.9h-9.4v-2.2h4.7v-3.2
	h-5.1v1.5h-2.8v4.2c0.9-0.3,1.9-0.6,2.8-1v2.3c-0.9,0.4-1.8,0.8-2.8,1.1v5.8c0.1,0.8-0.1,1.6-0.5,2.2c-0.7,0.5-1.5,0.7-2.3,0.6h-1.9
	l-0.5-2.4l2.1,0.1c0.4,0.1,0.7-0.2,0.8-0.6c0-0.1,0-0.1,0-0.2v-4.8l-3.2,0.8l-0.6-2.6c1.3-0.2,2.5-0.4,3.8-0.7v-4.8h-3.5V166h3.5
	v-4.9h2.3v4.9h2.8v-1.5h5.1v-3.4h2.4v3.4h5.6v2.2h-5.6v3.2h4.8v2c-0.4,1.2-0.9,2.3-1.6,3.4c-0.7,1.2-1.6,2.3-2.6,3.2
	c1.6,1.3,3.4,2.2,5.4,2.8l-1.2,2.2C173,182.7,170.9,181.4,169.3,179.8L169.3,179.8z M176,116.8c-2.3,3.5-5.3,6.4-8.8,8.8l-2.6-4.4
	c2.7-1.8,5-4.1,6.7-6.9c1.8-2.7,2.9-5.8,3.1-9V72.5h5.3v32.7C179.4,109.3,178.1,113.2,176,116.8L176,116.8z M179.2,192.6h2.2v7.6
	l7.4-7.6h2.9l-7.8,7.8l8,9.6h-2.9l-6.6-8.1l-0.9,0.8v7.3h-2.2V192.6z M193.7,229.4l-1.2-0.5c-2-0.9-3.8-2-3.8-4.4
	c0-2.8,2.5-4.5,5.1-4.5c1.9,0,3.6,1,4.5,2.6l-1.7,1c-0.5-1-1.6-1.7-2.8-1.6c-1.5-0.1-2.8,1-2.9,2.5c0,1.4,1.3,2.1,2.4,2.5l1.2,0.5
	c2.5,1,4.3,2.3,4.3,5.2c0,3-2.3,5.4-5.3,5.4c-0.1,0-0.2,0-0.3,0c-2.8,0-5.1-2.1-5.4-4.9l2.2-0.5c-0.1,1.8,1.3,3.4,3.2,3.4
	c1.8,0.1,3.4-1.3,3.4-3.2c0-0.1,0-0.2,0-0.4C196.7,230.9,195.2,230.1,193.7,229.4L193.7,229.4z M184.9,169.5V167h8.6
	c0.2-2,0.3-4,0.3-6h2.5c0,2.7-0.1,4.7-0.2,6h10v2.5h-7.6c0.5,2.2,1.3,4.2,2.6,6.1c1.4,2.2,3.3,4.1,5.6,5.5l-1.8,2.2
	c-4.3-2.8-7.2-7.4-8.8-13.8h-0.4c-1.1,5.7-4.2,10.3-9.6,13.8l-1.8-2.2c2.2-1.3,4.2-3,5.8-5.1c1.5-1.9,2.5-4.1,3-6.5L184.9,169.5z
	 M141.4,35.8c2.4-2,5.5-3,8.6-3c3.2-0.1,6.4,1,8.9,3c7.9,5.8,5.6,14.8,5.6,14.8h-28.5C135.9,50.6,134.1,40.7,141.4,35.8z
	 M142.8,59.7c-1.2-0.7-1.2-0.8-1.2-0.8h17.2c-0.4,0.3-0.9,0.6-1.3,0.8H142.8z M156,61c-1.9,0.7-3.8,1.1-5.8,1.1
	c-1.9,0.1-3.7-0.3-5.4-1.1H156z M140.2,57.7c-0.5-0.5-1-1-1-1h22.1c-0.3,0.4-0.7,0.7-1.2,1H140.2z M138.2,55.5
	c-0.4-0.4-0.7-0.9-0.9-1.4h25.8c-0.3,0.5-0.7,1-1.1,1.4L138.2,55.5z M136.8,53.1c-0.3-0.5-0.5-1.1-0.6-1.6h28.2
	c-0.1,0.6-0.3,1.1-0.6,1.6H136.8z M122.6,63.4h21.9c1.2,0.1,2.4,0.5,3.4,1.1c0.9,0.8,1.6,1.8,2.2,2.8c0.5-1,1.2-1.9,2-2.6
	c1-0.7,2.1-1.1,3.2-1.3h22.2l4.4,6.5h-20c-1.3,0.2-2.5,0.6-3.5,1.3c-0.7,0.5-1.4,1.1-1.9,1.8c-0.1,0.3-0.2,0.6-0.4,0.8
	c-0.2,0.3-0.4,0.5-0.7,0.7c-0.3,0.1-0.2,0-0.2,0h-10.4c-0.3-0.1-0.5-0.3-0.6-0.5c-0.2-0.3-0.1-0.2-0.3-0.5c-0.5-0.9-1.3-1.6-2.2-2.1
	c-1-0.6-2.1-1-3.2-1.2h-20.3L122.6,63.4z M124.2,192.3c5,0,9.1,4.1,9.1,9.1c-0.2,5-4.4,9-9.4,8.8c-4.8-0.2-8.7-4-8.8-8.8
	C115.2,196.4,119.2,192.3,124.2,192.3L124.2,192.3z M96.2,174.8l2.1,1.2c-0.6,2.5-1.6,4.9-3,7.1l-1.9-1.9
	C94.8,179.3,95.7,177.1,96.2,174.8L96.2,174.8z M93.5,169.6l1.4-1.8c1.2,0.7,2.4,1.4,3.5,2.3l-1.6,2
	C95.8,171.3,94.6,170.4,93.5,169.6L93.5,169.6z M90.4,199.5v2h-7v6.6h7.2v2h-9.4v-17.4h9.4v2h-7.2v4.9L90.4,199.5z M86,227.3v2h-7
	v6.6h7.2v2h-9.3v-17.5h9.4v2H79v4.9L86,227.3z M67.4,201.7v8.4h-2.2v-17.4h2.2v7h8.3v-7h2.2v17.4h-2.2v-8.4H67.4z M75.2,220.4
	l-7.6,18.4L60,220.4h2.4l5.2,12.9l5.2-12.9L75.2,220.4z M63.1,168.1v-2h9.8v-1.9c-3.6,0.1-6.1,0.1-7.7,0.1l-0.8-2.2c0.9,0,2,0,3.3,0
	c4.8,0.2,9.6-0.2,14.3-1l1,1.9c-2.6,0.5-5.3,0.9-8,1.1v2h10v2h-7.6c2.2,1.9,4.9,3.2,7.8,3.6l-1,2.1c-0.3-0.1-0.7-0.3-1-0.4
	c-0.3-0.1-0.7-0.2-1-0.4v10.3H80v-1.1H68.2v1.1H66v-10.2c-0.4,0.2-1.1,0.4-2,0.7l-1.1-2.1c2.8-0.6,5.3-1.9,7.5-3.7H63.1z M53,192.6
	h10.5v2h-4.1v15.4h-2.2v-15.5H53V192.6z M58.3,220.4v17.4h-2.2v-17.4H58.3z M34.6,231.4c0,3.8-2.4,6.8-6.4,6.8s-6.4-2.9-6.4-6.8v-11
	H24v10.3c0,2.8,0.9,5.5,4.2,5.5s4.2-2.6,4.2-5.5v-10.3h2.2L34.6,231.4z M39.8,237.8h-2.2v-18.2l0,0l13.1,13.7v-12.9h2.2v18.1
	l-13.1-13.7L39.8,237.8z M59.3,265.5l-2-4.4h-8l-2,4.4H45l8.3-18.2l8.3,18.2H59.3z M78.4,266.2l-13.1-13.7v13h-2.2v-18.3L76.2,261
	v-12.9h2.2L78.4,266.2z M85.1,265.5h-3.5v-17.4h3.6c5.3,0,9.8,2.8,9.8,8.6S90.6,265.6,85.1,265.5L85.1,265.5z M97.3,237.8l-5.1-7.4
	h-0.9v7.4h-2.2v-17.4h2.6c1.6-0.1,3.2,0.1,4.6,0.8c1.4,0.9,2.3,2.5,2.3,4.2c0.1,2.5-1.7,4.6-4.2,4.9l5.5,7.6L97.3,237.8z
	 M110.7,199.6v-7h2.2v17.4h-2.2v-8.4h-8.3v8.4h-2.2v-17.4h2.2v7L110.7,199.6z M106.8,229.4l-1.2-0.5c-2-0.9-3.8-2-3.8-4.4
	c0-2.8,2.5-4.5,5.1-4.5c1.9,0,3.6,1,4.5,2.6l-1.7,1c-0.5-1-1.6-1.7-2.8-1.6c-1.5-0.1-2.8,1-2.9,2.5c0,1.4,1.3,2.1,2.4,2.5l1.2,0.5
	c2.5,1,4.3,2.3,4.3,5.2c0,3-2.3,5.4-5.3,5.4c-0.1,0-0.2,0-0.3,0c-2.8,0-5.1-2.1-5.4-4.9l2.2-0.5c0,1.8,1.5,3.3,3.3,3.3
	c1.8,0,3.3-1.5,3.3-3.3C109.8,230.9,108.3,230.1,106.8,229.4L106.8,229.4z M113.1,250.1H109v15.4h-2.2v-15.4h-4.1v-2h10.4
	L113.1,250.1z M111.4,182.6h-7.7c-1.2,0.3-2.4-0.4-2.7-1.7c-0.1-0.4-0.1-0.7,0-1.1v-5.3c-0.7,0.5-1.4,1-2.2,1.5l-1.4-2
	c2.6-1.2,4.3-2.5,5-4h-3.8v-2h3.6v-2.4h-3.2v-1.3l-1.4,1.8c-1.1-1-2.3-2-3.5-2.8l1.6-1.8c1.3,0.9,2.5,1.6,3.4,2.4v-0.3h3.2v-2.5h2.2
	v2.5h4.3v-2.5h2.1v2.5h3.9v1.9h-3.9v2.4h4.3v2h-4.5c0.6,1.3,2.2,2.6,4.8,3.8l-1,2.1c-1.3-0.7-2.5-1.6-3.6-2.6v4.9h-7.6v1.5
	c-0.1,0.4,0.2,0.8,0.6,0.8c0.1,0,0.1,0,0.2,0h7c0.7,0,1-0.2,1.2-0.7c0.2-0.9,0.3-1.8,0.4-2.6l2.3,0.8c-0.3,2.2-0.6,3.5-1,4
	C113.1,182.6,112.3,182.8,111.4,182.6L111.4,182.6z M114.5,220.4h2.2v17.4h-2.2V220.4z M124.4,250.1h-7.2v4.9h7v2h-7v6.6h7.2v2H115
	v-17.5h9.4V250.1z M124.9,237.8h-2.2v-15.4h-4.1v-2H129v2h-4.1V237.8z M140,251.5c-2.9-2.5-7.3-2.2-9.8,0.7c-1.1,1.3-1.8,3-1.7,4.8
	c-0.1,3.8,2.8,7,6.6,7.1c1.8,0.1,3.6-0.6,4.9-1.8v2.6c-1.4,0.8-3,1.2-4.6,1.2c-5,0-9-3.9-9.1-8.9c0,0,0-0.1,0-0.1
	c0-5.1,4.1-9.2,9.1-9.2c0,0,0.1,0,0.1,0c1.5,0,3.1,0.4,4.4,1.2V251.5z M155.3,265.6h-2.2v-8.4h-8.3v8.4h-2.2v-17.4h2.2v7h8.3v-7h2.2
	V265.6z M173.7,266.3l-13.1-13.7v13h-2.2v-18.3l13.1,13.7v-12.9h2.2L173.7,266.3z M184.9,265.9c-5,0.1-9.1-3.9-9.1-8.9
	c0-0.1,0-0.1,0-0.2c0.2-5,4.4-9,9.4-8.8c4.8,0.2,8.7,4,8.8,8.8c0,5-3.9,9-8.9,9.1C185.1,265.9,185.1,265.9,184.9,265.9L184.9,265.9z
	 M203.9,265.6h-7.5v-17.4h2.2v15.5h5.3V265.6z M213.5,265.9c-5,0.1-9.1-3.9-9.1-8.9c0-0.1,0-0.2,0-0.2c0.2-5,4.4-9,9.4-8.8
	c4.8,0.2,8.7,4,8.8,8.8c0.1,5-3.9,9-8.9,9.1C213.6,265.9,213.6,265.9,213.5,265.9L213.5,265.9z M240.8,257.5
	c0.2,4.5-3.3,8.3-7.7,8.5c-0.2,0-0.4,0-0.5,0c-5-0.1-9-4.2-9-9.2c0.1-5,4.2-9,9.2-9c2.8,0,5.4,1.2,7.1,3.4l-1.5,1.5
	c-2.3-3-6.6-3.6-9.6-1.3c-1.7,1.3-2.8,3.4-2.7,5.6c0,3.7,3,7.1,6.8,7.1c2.7,0,5.6-2.3,5.7-5.2H234v-2h6.9L240.8,257.5z M249.3,258
	v7.6h-2.2V258l-5.7-9.9h2.5l4.3,7.4l4.3-7.4h2.5L249.3,258z M266,223.7c-2.9-2.6-7.5-2.4-10.1,0.6c-2.6,2.9-2.4,7.5,0.6,10.1
	c2.7,2.4,6.8,2.4,9.5,0v2.6c-1.4,0.8-3,1.2-4.6,1.2c-5,0-9-3.9-9.1-8.9c0,0,0-0.1,0-0.1c0-5.1,4.1-9.2,9.1-9.2c0,0,0.1,0,0.1,0
	c1.5,0,3.1,0.4,4.4,1.2V223.7z M278.2,222.4H271v4.9h7v2h-7v6.6h7.2v2h-9.4v-17.5h9.4V222.4z"/>
<path class="st0" d="M124.2,208.4c3.9,0,7-3.1,7-7c0.4-3.8-2.4-7.3-6.2-7.7c-3.8-0.4-7.3,2.4-7.7,6.2c-0.1,0.5-0.1,1,0,1.5
	C117.3,205.2,120.4,208.4,124.2,208.4z"/>
<rect x="104.4" y="165.7" class="st0" width="4.3" height="2.3"/>
<rect x="68.2" y="178.3" class="st0" width="11.7" height="2.1"/>
<path class="st0" d="M194.3,201.4c-0.4,3.8,2.4,7.3,6.3,7.7s7.3-2.4,7.7-6.3c0-0.5,0-0.9,0-1.4c0.4-3.8-2.4-7.3-6.3-7.7
	s-7.3,2.4-7.7,6.3C194.2,200.4,194.2,200.9,194.3,201.4z"/>
<path class="st0" d="M75,168.2v4.4h5.9C78.6,171.7,76.5,170.2,75,168.2z"/>
<rect x="68.2" y="174.6" class="st0" width="11.7" height="1.8"/>
<polygon class="st0" points="50.2,259.2 56.5,259.2 53.3,252.2 "/>
<path class="st0" d="M72.8,168.2c-1.4,1.9-3.2,3.4-5.4,4.4h5.4V168.2z"/>
<path class="st0" d="M96.6,225.4c0-2.7-2.6-3.1-4.7-3.1h-0.6v6.3H92C94.2,228.6,96.6,228.2,96.6,225.4z"/>
<rect x="103.2" y="174.1" class="st0" width="5.5" height="2.3"/>
<path class="st0" d="M108.2,170.1H105c-0.3,0.8-0.8,1.5-1.4,2.1h6C109,171.5,108.6,170.8,108.2,170.1z"/>
<path class="st0" d="M84.5,250.1h-0.8v13.5h0.8c4.4,0,8.3-1.7,8.3-6.7S88.9,250.1,84.5,250.1z"/>
<path class="st0" d="M159.3,236.2c3.9,0,7-3.1,7-7c0,0,0,0,0-0.1c0.4-3.8-2.4-7.3-6.2-7.7s-7.3,2.4-7.7,6.2c-0.1,0.5-0.1,1,0,1.5
	C152.3,233,155.4,236.1,159.3,236.2z"/>
<path class="st0" d="M185,249.8c-3.8,0-6.9,3-7,6.8c0,0.1,0,0.2,0,0.3c-0.4,3.8,2.4,7.3,6.2,7.7c3.8,0.4,7.3-2.4,7.7-6.2
	c0.1-0.5,0.1-1,0-1.5c0.1-3.8-2.9-7-6.7-7.1C185.2,249.8,185.1,249.8,185,249.8z"/>
<path class="st0" d="M213.5,249.8c-3.8-0.1-6.9,3-7,6.8c0,0.1,0,0.2,0,0.3c-0.4,3.8,2.4,7.3,6.2,7.7c3.8,0.4,7.3-2.4,7.7-6.2
	c0.1-0.5,0.1-1,0-1.5c0.1-3.8-2.9-7-6.7-7.1C213.6,249.8,213.6,249.8,213.5,249.8z"/>
</svg>
