<?xml version="1.0" encoding="utf-8"?>
<!-- Generator: Adobe Illustrator 25.4.1, SVG Export Plug-In . SVG Version: 6.00 Build 0)  -->
<svg version="1.1" id="bd495cbd-81cb-4c73-b1d6-ee3acdf1c037"
	 xmlns="http://www.w3.org/2000/svg" xmlns:xlink="http://www.w3.org/1999/xlink" x="0px" y="0px" viewBox="0 0 300 300"
	 style="enable-background:new 0 0 300 300;" xml:space="preserve">
<style type="text/css">
	.st0{fill:#A1A1AA;}
</style>
<path class="st0" d="M183.6,213.9c0.4-0.1,0.8-0.4,0.9-0.8c0.3-1.7,0.4-3.3,0.5-5c0-0.8-0.7-1.5-1.5-1.5c0,0,0,0-0.1,0
	c-2-0.1-4-0.1-6-0.1c-1.8,0-3.6,0-5.4,0.1c-0.7,0.1-1.5,0.2-2.2,0.3c-0.1,1.7-0.1,3.3,0.1,5c0.1,0.8,0.6,1.5,1.3,1.9
	c1.3,0.2,2.7,0.3,4.1,0.2c1.4,0,2.8-0.1,4.2-0.2S182.2,214,183.6,213.9z"/>
<path class="st0" d="M139.8,121.9c-0.7,0-1.4,0.1-2.1,0.3c-0.4,0.1-0.9,0.1-1.3,0.2c-1.2,0.2-2.4,0.4-3.6,0.6c-1,0.2-2,0.5-3,0.8
	c0-0.1,0-0.1,0-0.2c-1.1,0.1-2.1,0.3-3.2,0.5c-0.6,0.2-1.5,0.5-1.5,0.9c-0.2,1.4-0.3,2.8-0.2,4.2c0.1,0.3,0.3,0.5,0.6,0.6
	c1.1,0.3,2.3,0.5,3.5,0.6c2.8,0.1,5.7,0,8.5,0c0.8,0,1.6-0.1,2.4-0.1c0.6,0,1.1-0.4,1.2-1c0-0.1,0-0.1,0-0.2c0-1.2,0.1-2.5,0.1-3.8
	c-0.1-0.7-0.2-1.3-0.2-2C141.1,122.3,140.4,122,139.8,121.9z"/>
<path class="st0" d="M168.2,203.9c1.4,0,2.9,0.2,4.3,0.1c1.9-0.1,4,0.7,5.6-0.4V196c-0.6-0.2-1.3-0.3-1.9-0.4c-2.5,0-5.1,0-7.6,0
	c-0.9-0.1-1.6,0.5-1.7,1.4c0,0.1,0,0.2,0,0.3c-0.1,1.4-0.2,2.8-0.3,4.2C166.5,202.4,167.4,203.9,168.2,203.9z"/>
<path class="st0" d="M120.9,125.9c-1.7,0.4-3.4,0.6-5,1s-3,0.8-4.5,1.3c-0.5,0.2-1.2,0.7-1.1,1c0,0.6,0.7,1,1.4,0.9
	c1.4,0,2.8,0,4.2,0c1.2-0.1,2.4-0.1,3.5,0c2,0.2,3-0.4,2.8-2.5c0-0.2,0-0.4,0-0.6C122.3,126.1,122,125.7,120.9,125.9z"/>
<path class="st0" d="M118.2,134.5c-0.1,1-0.2,1.9-0.3,2.9c-0.1,0.8-0.1,1.6,0,2.4c0.2,0.8,0.4,1.6,0.7,2.3c0.4,0.2,0.9,0.3,1.4,0.3
	c1.9-0.3,3.7-0.7,5.5-1.1c1.3-0.3,2.8,0.3,4-0.7c0.8,0.9,1.4-0.2,2-0.3c0.4-0.2,0.7-0.5,0.8-1c0-1.8,0-3.6-0.1-5.3
	c-0.1-0.5-0.4-0.9-0.8-1.2c-0.5-0.2-1.1-0.3-1.7-0.2c-1.2,0-2.4,0-3.7,0c-2.1,0-4.1-0.1-6.2-0.1
	C118.7,132.6,118.2,133.2,118.2,134.5z"/>
<path class="st0" d="M185.7,128.6c-1.1-0.5-2.3-0.9-3.5-1.2c-2.3-0.3-4.4-1.5-6.7-1.4c-0.7-0.1-1.3-0.2-1.9-0.5
	c-0.2-0.1-0.5-0.2-1-0.5c-0.3,0.6-0.5,1.1-0.7,1.7c-0.1,0.7-0.1,1.3-0.1,2c0.1,1.9,0.8,2.5,2.6,2c0.3,0,0.6,0,0.9,0
	c1.1,0.1,2.2,0.2,3.3,0.2c1.9,0,3.8,0,5.6,0c0.7,0,1.3-0.3,2.1,0.2c0.4,0.2,1.3-0.4,1.9-0.7c0.2-0.1,0.3-0.3,0.5-0.5
	c-0.2-0.1-0.4-0.1-0.5-0.2C187.6,128.7,186.6,128.9,185.7,128.6z"/>
<path class="st0" d="M146.3,183.8c0.8-0.2,1.5-0.9,1.8-1.7c0,0,0-0.1,0-0.1c-0.1-1.7-0.2-3.3-0.2-5c0.1-0.7-0.4-1.4-1.1-1.5
	c-0.1,0-0.2,0-0.3,0c-1.3,0-2.5-0.1-3.8-0.1c-1.1-0.2-2.3-0.3-3.4-0.3c-1.4,0.1-2.7,0.1-4.1,0c-1.5-0.1-2,0.1-2.3,1.4
	c0,0.2,0,0.4,0.1,0.7c0.1,1.3,0.1,2.7-0.1,4c-0.2,1.6,0.2,2.3,1.8,2.3c2.2,0,4.4,0,6.1,0C143,183.7,144.7,183.8,146.3,183.8z"/>
<path class="st0" d="M133.8,60.1c-1.1,0.2-2.3,0.4-3.4,0.8c-1.8,0.6-3.8,0.5-5.6,0.9c-2.4,0.5-4.9,1-7.3,1.6
	c-0.8,0.1-1.3,0.9-1.1,1.7c0,0.1,0.1,0.2,0.1,0.3c0.3,0.6,0.4,1.3,0.6,2c0.1,1,1,1.8,2,1.7c0.2,0,0.4-0.1,0.6-0.2
	c0.7-0.3,1.4-0.5,2.1-0.7c2.4-0.6,4.8-1.2,7.1-1.6c1.9-0.4,3.9-0.6,6.2-1c0.1-0.7-0.1-1.7,0.3-2.1c0.8-0.9,0-1.7,0-2.4
	C135.2,60.3,134.5,59.9,133.8,60.1C133.9,60.1,133.8,60.1,133.8,60.1z"/>
<path class="st0" d="M130.1,68.8c-0.8,0.1-1.4,0.9-1.3,1.7c0,0.2,0.1,0.4,0.2,0.5c0.1,0.4,0.5,0.7,0.5,1.1c0,2.3,0.2,2.5,2.4,2.2
	s4.4-0.7,6.5-1c1.1-0.1,2.2-0.2,3.3-0.2s2.4,0,3.6-0.2c0.7-0.1,1.6-0.2,1.7-1.2c0.1-0.8,0.2-1.5,0.3-2.2c-0.2-2.1-0.5-2.4-2.7-2.3
	c-2.4,0.2-4.8,0.3-7.2,0.5S132.6,68.4,130.1,68.8z"/>
<path class="st0" d="M113.1,92.5c0.2,0.9,0.4,1.8,0.7,2.7c0.4,1.6,1,1.9,2.4,1.3c0.8-0.3,1.6-0.7,2.5-1c2.1-0.7,4.2-1.5,6.4-2.1
	c1.8-0.5,2-0.6,1.9-2.5c0-0.3,0.1-0.6,0.1-0.8c-0.2-0.7-0.3-1.5-0.5-2.3c-0.3-0.9-1.2-1.4-2.1-1.3c-1.6,0.6-3.3,1.2-4.9,1.8
	c-2,0.8-4.1,1.7-6.1,2.7C113.3,91.2,113.1,92.1,113.1,92.5z"/>
<path class="st0" d="M185.9,124.2c-0.2,0-0.4,0-0.5-0.1c-1.5-0.7-3-1.3-4.5-1.7c-2-0.5-3.9-1.4-5.9-2s-3.9-1-5.8-1.5
	c-0.7-0.2-1.3-0.3-2-0.5c-1.1-0.3-2.2-0.8-3.3-1.1s-2.2-0.5-3.2-0.7c-1.3-0.3-2.5-0.8-3.8-1s-2.5-0.1-3.8-0.2
	c-4.1-0.4-8.3-0.2-12.4,0.5c-2.5,0.5-5,1-7.5,1.5c-0.5,0.1-0.9,0.5-1.4,0.5c-3,0-5.6,1.7-8.4,2.2c-1.3,0.3-2.5,0.8-3.7,1.3
	c-1.2,0.4-2.4,0.7-3.5,1c-0.8,0.3-1.5,0.7-2.3,1c-1.3,0.5-2.6,0.9-3.9,1.4c0.3,0.6,0.4,0.9,0.6,1.3c2-0.6,3.9-1.2,5.8-1.7
	c1.4-0.4,2.8-0.8,4.2-1.1s2.6-0.7,3.9-0.9c1.6-0.3,3.3-0.3,4.9-0.8c2.8-0.7,5.7-1.2,8.6-1.4c1-0.1,2.1-0.4,3.1-0.4
	c2.8-0.1,5.5-0.1,8.3-0.1c2.4-0.1,4.8,0,7.3,0.2c3.6,0.4,7.2,1.2,10.8,1.8c0.9,0.2,1.7,0.6,2.6,0.8s1.8,0,2.6,0.2
	c2.5,0.6,5,1.3,7.5,1.9c0.9,0.2,1.8,0.4,2.6,0.7c1.3,0.4,2.6,0.8,4,1.1c0.5,0,1-0.1,1.5-0.3C187.7,124.6,187,124.1,185.9,124.2z"/>
<path class="st0" d="M121.6,108.9c-0.1,0.6,0.6,1.3,0.8,2c0.4,1.1,0.7,2.2,0.9,3c0,1.6,1.1,2.9,2.2,2.7c1.3-0.2,2.6-0.7,3.9-1
	s2.9-0.6,4.3-1c0.6-0.2,1.6-0.8,1.5-1.2c-0.1-1.5-0.4-2.9-0.7-4.4c-0.2-1.1-0.3-2.2-0.5-3.4s-0.7-1.6-1.7-1.4s-2.4,0.6-3.5,0.9
	c-0.5,0-1.1,0.1-1.6,0.2c-1.4,0.5-2.8,1.2-4.2,1.9C122.3,107.6,121.8,108.2,121.6,108.9z"/>
<path class="st0" d="M189.2,135.3c-0.1-0.6-0.4-1.2-0.8-1.6c-0.6-0.3-1.2-0.4-1.8-0.3c-1.4-0.1-2.7-0.2-4.1-0.2
	c-0.6,0-1.3,0-1.5,1.1c-0.2,0.8,0.3,1.5-0.1,2c-0.7,0.9,0,1.5,0.2,2.2h-0.3c-0.1,0.4-0.1,0.8-0.1,1.3c0,0.3,0.4,0.7,0.4,1
	c-0.1,1.7,0.2,2.1,1.8,2.3c1,0.1,2.1,0.3,3.1,0.5c0.8,0.2,1.6,0.3,2.4,0.3c0.3,0,0.9-0.3,1-0.5c0.1-1.5,0.2-3.1,0.2-4.6
	c0-0.1-0.3-0.2-0.3-0.2c0.1-0.3,0.2-0.6,0.2-0.9C189.5,137,189.4,136.1,189.2,135.3z"/>
<path class="st0" d="M119.8,161c1.1,0.1,2.2,0,3.3,0.1c0.8,0.2,1.6,0.3,2.4,0.4c1.5-0.1,3.1-0.3,4.6-0.4c0,0,0,0.1,0,0.2
	c0.4,0,0.7-0.1,1.1-0.1c1.4,0,1.4,0,1.3-1.4c-0.1-1.4-0.1-2.7,0-4.1c0.1-1-0.3-1.5-1.3-1.5c-3.6,0-7.2,0-10.9-0.1
	c-0.7,0-1.2-0.2-1.4,0.6c-0.2,0.6-0.3,1.2-0.4,1.9c0,0.9,0.2,1.9,0.2,2.9S118.8,160.9,119.8,161z"/>
<path class="st0" d="M173.9,184h4c0.6,0,0.9-0.2,0.9-1c0-0.9,0.1-1.8,0.2-2.6c0.2-0.9,0.3-1.8,0.3-2.8c-0.1-1.6-0.6-2-2-2l-8-0.1
	c-1.6,0-2.5,0.5-2.6,1.8c0,1.1,0,2.1,0.2,3.2c0,0.2,0,0.5-0.1,0.7c-0.5,1.6,0.3,2.7,1.9,2.7C170.4,184,172.1,184,173.9,184
	C173.9,184,173.9,184,173.9,184z"/>
<path class="st0" d="M171,165.2c-0.3-0.8-1.1-0.7-1.7-0.7c-1.7-0.2-3.5-0.2-5.2-0.2c-0.9-0.1-1.8,0.4-2.2,1.2
	c-0.5,1.2-1.3,2.3-2.2,3.2c-1.3,0.9-2.1,2.5-2.1,4.1c4.4,0.8,8.9,0.5,13.6,0.4c0-2.3,0-4.6,0-6.8C171.1,165.9,171.1,165.5,171,165.2
	z"/>
<path class="st0" d="M150.7,135c-0.1,0.6-0.2,1.2-0.3,1.9c-0.2,1.3,0.7,2.5,2,2.7c0.4,0,0.9-0.2,1.3-0.2c1.3,0.1,2.6,0.3,3.9,0.4
	c1.8,0.2,3.6,0.4,5.3,0.6c1,0.1,2.1-0.7,2.1-1.5c-0.1-1.1-0.1-2.1-0.2-3.1c-0.1-0.8-0.2-1.6-0.4-2.7H151
	C150.9,133.8,150.8,134.4,150.7,135z"/>
<path class="st0" d="M168.4,124.3c-0.4-0.2-0.9-0.4-1.3-0.5c-0.8-0.2-1.6-0.3-2.4-0.6c-1.1-0.2-2.1-0.5-3.2-0.8
	c-0.2,0-0.5,0-0.7-0.1c-1.6-1-3.2-0.3-3.4,1.5c-0.1,1-0.1,2-0.1,3c0,1.2,0.2,2.3,0.3,3.5c4,0.3,7.8,0.8,11.6,0
	c0.1-0.8,0.1-1.5,0.1-2.2c-0.1-0.7-0.1-1.5,0-2.2C169.5,125.1,168.9,124.7,168.4,124.3z"/>
<path class="st0" d="M169.2,152.6c1.4-0.1,2.8-0.2,4.4-0.3c0.1-2.3,0.4-4.5,0.4-6.6c0-0.7-0.1-1.5-1.1-1.7c-0.6-0.1-1.3-0.2-1.9-0.3
	c-2.6-0.3-5.2-0.7-7.8-1c-1.1-0.1-2,0.7-2.2,1.7c-0.1,2.2,0.4,4.4,1.3,6.4c0.8,1.6,1.6,2,3.3,1.2c-0.3,0.2-0.4,0.3-0.8,0.6
	C166.4,152.6,167.9,152.6,169.2,152.6z"/>
<path class="st0" d="M127.3,151.3c0.5,0.2,1,0.3,1.6,0.2c2,0,4.1,0,6.1,0c1.4,0,2.2-0.4,2.4-1.8c0.2-1.8,0.3-3.7,0.3-5.5
	c0-1.2-0.7-1.8-2-1.6s-2.5,0.3-3.7,0.4c-1.8,0.1-3.8-0.1-5.5,1.1c0.1,0.1,0.1,0.3,0.1,0.4c0.1,2,0.1,4,0.2,5.9
	C126.8,150.8,127,151.1,127.3,151.3z"/>
<path class="st0" d="M158.6,143.1c0.1-0.2-0.2-0.6-0.5-0.7c-0.8-0.4-1.7-0.3-2.4,0.2l2,1.9C158,144.1,158.3,143.6,158.6,143.1z"/>
<path class="st0" d="M138.6,169.7c-0.1,0.8-0.1,1.5,0,2.3c0.1,0.4,0.5,0.7,0.9,0.8c1.6,0.1,3.2,0,4.8,0l0.1-0.4
	c-2.1-1.1-3.3-3.4-5.6-4.1C138.7,168.8,138.6,169.2,138.6,169.7z"/>
<path class="st0" d="M123,172.7c0.5,0,1.1,0,1.6,0.1c0.9,0,1.7,0.1,2.6,0.1c2.4,0,4.8,0,7.2,0c1,0,1.7-0.4,1.7-1.3
	c-0.1-2.4,0-4.9,0-7.4c-0.4-0.2-0.9-0.3-1.3-0.4c-1.9-0.1-3.8-0.1-5.7-0.1s-3.9-0.1-5.8-0.1c-0.3,0-0.9,0.2-0.9,0.4
	c-0.1,0.9-0.9,1.6-0.5,2.6c0.2,0.4-0.2,1.1-0.3,1.7c0,0.1,0,0.3,0,0.4c0.1,0.9,0.2,1.8,0.3,2.6C122,172.1,122.1,172.8,123,172.7z"/>
<path class="st0" d="M144.9,130.4c2.8-0.1,5.5,0,8.3,0c0,0.1,0.1,0.2,0.1,0.3c0.5-0.3,1.2-0.4,1.5-0.8c0.2-0.6,0.3-1.2,0.2-1.8
	c-0.1-1.3,0.8-2.6-0.1-3.8c0,0,0.2-0.2,0.3-0.3c0.4-0.9,0.1-1.9-0.8-2.4c-0.2-0.1-0.4-0.2-0.6-0.2c-1.4-0.1-2.8-0.2-4.1-0.2
	s-2.8,0-4.2,0c-1-0.1-1.9,0.6-2,1.6c0,0.1,0,0.3,0,0.4c0,0.5,0.1,1,0.1,1.6c0,1.3-0.2,2.6-0.2,3.9
	C143.4,129.8,143.7,130.5,144.9,130.4z"/>
<path class="st0" d="M156.6,59.2c-1.8-0.1-3.7-0.1-5.5-0.1s-3.4,0-5.2,0.1c-2.4,0-4.7,0.1-7,0.2c-0.2,0-0.3,0.1-0.4,0.3
	c-0.2,0.4-0.3,0.8-0.3,1.3c0,1.4,0.1,2.7,0.1,4.3c2-0.2,3.8-0.4,5.5-0.5c2-0.1,3.9,0,5.9,0c1,0,2,0,3,0c0.4,0,0.9,0,1.4,0
	c1.4,0,3,1,3.9-0.4c0.1-1.1,0.1-2,0.2-2.8C158.2,60.4,157.5,59.3,156.6,59.2z"/>
<path class="st0" d="M141.7,144.6c0.7-0.7,1.5-1.4,2.3-2.1c-1.1-0.7-2.5-0.5-3.5,0.3c-0.7,0.5-0.4,1.2-0.2,1.7
	c0.3,0.4,0.8,0.5,1.2,0.3C141.6,144.7,141.7,144.7,141.7,144.6z"/>
<path class="st0" d="M137.4,132.8c-2.1-0.2-2.4,0-2.6,2.2c-0.1,1.1-0.1,2.2-0.1,3.3c0,1,0.5,1.9,1.6,1.9c1.9,0,3.8-0.2,5.7-0.3
	c1.2-0.1,2.4-0.2,3.6-0.2c1.8,0.1,2.2-0.2,2.5-2c0.1-0.6,0.1-1.1,0.1-2c-0.1-0.4-0.1-1.1-0.3-1.8c0-0.2-0.2-0.3-0.3-0.4
	c-0.6-0.2-1.3-0.3-1.9-0.4c-1.6,0-3.2,0.1-4.8,0C139.8,132.9,138.6,132.9,137.4,132.8z"/>
<path class="st0" d="M170.3,67c3.3,0.7,6.7,1.3,10.1,2c0.5-2,2.1-3.7,0.9-5.8c-0.3,0-0.6,0.2-0.8,0.1c-1.3-0.6-2.7-1-4.2-1.1
	c-2.1-0.2-4.1-1-6.3-1.1c-1.3-0.1-2.6-0.3-3.8-0.5c-0.2,0-0.4-0.3-0.6-0.5c-0.8-0.1-1.6-0.2-2.4-0.2c-0.8,0-1.5,0.1-2.2,0.4
	c-0.3,0.1-0.1,1-0.2,1.5s-0.3,0.9-0.4,1.4c0,0.5,0.1,0.9,0.2,1.4l-0.3,0.3C163.5,66,167,66.3,170.3,67z"/>
<path class="st0" d="M110.4,183.1c0.8,0,1.7,0.1,2.5,0s1.7-0.1,1.7-1.4s0.1-2.6,0.2-3.9l0,0c0.1-0.6,0.1-1.2,0-1.8
	c0-0.3-0.3-0.9-0.6-0.9c-1.6-0.2-3.1-0.3-4.7-0.3c-0.3,0-0.8,0.6-0.8,0.9c-0.3,1.5-0.4,3-0.7,4.5
	C107.7,182.3,108.4,183.2,110.4,183.1z"/>
<path class="st0" d="M108.7,171c0,1,0.8,1.3,1.5,1.5c0.8,0.2,1.6,0.2,2.3,0.2c1.7,0,3.4,0.1,5.1,0c0.5-0.1,1-0.3,1.3-0.8
	c0.3-0.7,0.4-1.4,0.4-2.2c0.1-0.9,0.1-1.8,0.1-2.7c0-0.9-0.2-1.7-0.4-2.6c-0.4-1.3-1.4-1-2.3-0.6c-0.1,0-0.2-0.1-0.3-0.1
	c-2.1,0-4.1-0.1-6.2,0c-0.2,0-0.6,0.1-0.7,0.3c-0.4,0.8-0.6,1.6-0.7,2.4C108.6,167.9,108.7,169.4,108.7,171z"/>
<path class="st0" d="M117.3,201.4c0.1,0.7-0.1,1.8,1,2c0.8,0.1,1.6,0.1,2.4,0c1.1,0,2.2,0,3.2,0.1c0.2,0,0.5,0.2,0.7,0.2
	c1.5,0,3,0,4.5-0.1c0.5,0,1.3-0.4,1.3-0.7c0.2-1.3,0.2-2.5,0.2-3.8c0-0.9,0-1.8,0-2.6c-0.1-1.3-1.2-1.3-2.3-1.2
	c-2.2,0-4.3,0-6.5-0.1h-4.3l-0.4,0.8c0.1,0.6,0.1,0.9,0.1,1.2s-0.1,0.4-0.1,0.7C117.2,199,117.2,200.2,117.3,201.4z"/>
<path class="st0" d="M111,76.2c0.1,0.6,0.2,1.1,0.4,1.7c0.3,1.6,0.9,2,2.5,1.6s3.1-0.9,4.6-1.4c2.4-0.7,4.9-1.4,7.3-2.1
	c0.9-0.1,1.6-1,1.5-1.9c0-0.1-0.1-0.3-0.1-0.4l-0.2-0.8c-0.3-2.6-0.6-3.2-3.1-2.7c-0.2,0-0.4,0.1-0.6,0.2c-0.6,0.2-1.3,0.4-1.9,0.6
	c-1.4,0.4-2.8,0.7-4.2,1.1s-2.8,1.1-4.3,1.5C111.1,74,110.6,74.6,111,76.2z"/>
<path class="st0" d="M113.1,64.9c-1.3,0.2-2.5,0.6-3.8,1c-1.2,0.4-2.4,1.1-3.6,1.6c-1.4,0.5-1.6,0.7-1.4,2.2c0,0.4,0.1,0.8,0.2,1.1
	h-0.1c0.3,0.5,0.5,1.1,0.7,1.6c0.3,0.9,0.9,1,1.6,0.7c2.5-0.9,4.9-1.9,7.4-2.6c0.9-0.3,1.2-0.7,1.1-1.3c-0.2-0.9-0.5-1.8-0.8-2.6
	c0-0.1-0.2-0.3-0.2-0.4C114.3,65.4,113.9,64.8,113.1,64.9z"/>
<path class="st0" d="M131,217.5c0.2-1-0.4-1.6-1.8-1.7c-1.9-0.1-3.8,0.1-5.6,0c-1.4-0.1-2.9,0.2-4.3,0.1s-1.7,0.4-1.8,1.4
	c-0.1,1.9,0,3.8,0,5.7c0,1.2,1,1.5,1.8,1.6c0.9,0.1,1.7,0.1,2.6-0.1c0.8,0,1.7,0,2.5-0.2c0.7,0,1.3,0.1,2,0.2c1.2,0,2.4-0.1,3.6-0.4
	c0.3-0.1,0.8-0.5,0.8-0.6c-0.3-0.9,0.3-1.7,0.4-2.6C131.1,219.9,131.1,218.7,131,217.5z"/>
<path class="st0" d="M150.3,203.1c0.1,0.3,0.4,0.5,0.7,0.5c1.9,0.1,3.8,0.2,5.7,0.3c2.2,0.1,4.3,0,6.5,0.1c0.7,0,1.3-0.6,1.3-1.4
	c0-0.1,0-0.3-0.1-0.4c0-0.1-0.1-0.3-0.1-0.4c0.1-1.6,0.3-3.1,0.4-4.6c-0.1-1-0.6-1.6-1.6-1.6c-1.7,0-3.4,0.1-5.2,0s-3.6-0.2-5.4-0.2
	c-2.1-0.1-2.8,0.6-2.7,2.7c0,0.5,0.3,1.1,0.2,1.6C149.6,201,150.1,202,150.3,203.1z"/>
<path class="st0" d="M193.7,216.8c-1.2,0.1-2.4-0.1-3.6-0.1c-1.7,0.1-3.4-0.1-5.1-0.1c-0.8,0.1-1.7,0.2-2.6,0.2
	c-1.2-0.1-1.5,0.4-1.5,1.4c0,1.6,0,3.2,0,4.8c-0.1,1-0.2,1.8,1.2,2.1c0.7,0.1,1.4,0,2.1-0.1c1.2,0.1,2.5,0.1,3.8,0.1
	c1.1,0,2.2-0.2,3.3-0.1c1.3,0,2.6,0.2,4,0.2c1.1,0,2-0.9,2-2c0,0,0-0.1,0-0.1c-0.1-1.5-0.1-3-0.4-4.4c-0.2-0.7-0.6-1.3-1.1-1.7
	C195.1,216.7,194.4,216.6,193.7,216.8z"/>
<path class="st0" d="M189.1,227.6c-0.4,0-1.5-0.4-1.5,0.7c-0.1,1.7-0.1,3.3-0.1,5c0,1,0.6,1.4,1.6,1.5s1.9,0.1,2.8,0.1
	c2.1,0,4.2,0,6.6,0c-0.3-2.5-0.6-4.8-0.9-7.3C194.8,227.6,192,227.5,189.1,227.6z"/>
<path class="st0" d="M193.3,237.5c-0.9,0-1.1,0.5-1.1,1.1c-0.1,1.8-0.1,3.6,0.1,5.3c0.2,1.9,0.9,2,2.3,2c0.4,0,0.8,0,1.2,0.1V246
	c1.1,0.1,2.1,0.1,3.2,0c0.3,0,0.9-0.6,0.9-0.9c-0.1-1.9-0.3-3.9-0.7-5.8c-0.1-0.8-0.5-1.7-1.4-1.8
	C196.3,237.4,194.8,237.6,193.3,237.5z"/>
<path class="st0" d="M147.8,197c0.1-0.7-0.3-1.3-0.9-1.4c0,0-0.1,0-0.1,0c-1.5-0.2-3-0.3-4.6-0.3c-0.9,0-1.7,0-2.6,0
	c-1.8-0.1-3.7,0-5.5,0.1c-0.8,0.2-1.3,1-1.2,1.8c0.2,1.4,0.2,2.9,0.2,4.3c0,0.6,0,1.1,0,2l7.8,0.3c0.2,0,0.5-0.1,0.8-0.1
	c1.6,0,3.1,0.1,4.7,0c0.4-0.1,0.7-0.3,0.9-0.6c0.2-0.7,0.6-1.4,0.1-2.1C148.4,199.7,147.5,198.3,147.8,197z"/>
<path class="st0" d="M150.3,183c0.5,0.4,1.2,0.6,1.8,0.7c2.9,0.1,5.8,0,8.7,0c0,0.1,0,0.1,0,0.2c0.5,0,1,0,1.4,0
	c1.4-0.1,1.6-0.4,1.8-1.8c0.1-0.6,0.2-1.1,0.1-1.7c-0.1-0.9,0.2-1.8,0.1-2.7c-0.3-1.9-0.4-2-2.1-2.1s-3.3-0.1-4.9-0.1
	s-3.3,0-4.9-0.1c-1.4-0.1-2.2,0.4-2.2,1.7c0,1.5,0,3,0,4.5C150.2,182.1,149.6,182.6,150.3,183z"/>
<path class="st0" d="M121.2,227c-1-0.1-1.9-0.2-2.9-0.2c-1.7,0-3.3,0-5.1,0c-1.4,2.5-1,4.8-0.4,7.2c2.7,0,5.4,0,8.1,0
	c0.4,0,1-0.5,1-0.8c0.1-0.9,0.2-1.8,0.1-2.8c-0.1-0.6-0.3-1.2-0.3-1.9c0-0.2,0.2-0.5,0.4-0.9C121.9,227.4,121.6,227,121.2,227z"/>
<path class="st0" d="M153.7,91.7c-1.9,0-3.7-0.2-5.6-0.1c-2.2,0.1-4.4,0.5-6.7,0.5c-1.7,0-1.9,1.2-1.8,2.5s0,2.5,0.2,3.8
	c0,0.4,0.4,1.1,0.7,1.2c1.1,0.2,2.3,0.2,3.4,0.2c2.7,0,5.4,0,8.1,0c0.8,0.1,1.6,0,2.4-0.2c0.5-0.4,0.8-1,0.9-1.6c0.1-1.3,0-2.6,0-4
	h0.3C155.7,92.8,154.8,91.8,153.7,91.7z"/>
<path class="st0" d="M166.9,85.2c-2.1-0.3-4.3-0.7-6.4-1c-1.4-0.2-2.7-0.4-4.1-0.6c-1.8-0.2-3.6-0.2-5.4-0.4
	c-1.1-0.1-2.6,0.9-2.4,1.8c0.2,0.8,0.2,1.5,0.3,2.3c0,1,0.3,1.8,1.5,1.8c0.8,0,1.7,0.1,2.5,0.2c1.4,0.2,2.9,0.5,4.3,0.7
	c2,0.4,4,0.7,6,1.1c1,0.2,2.1,0.5,3.1,0.7c1.7-0.1,1.9-0.3,2-1.9c0.1-0.9,0.1-1.7,0.2-2.6C168.7,86.3,167.9,85.4,166.9,85.2z"/>
<path class="st0" d="M165.2,104.5c-1-0.4-2.1-0.7-3.2-0.8c-2.9-0.3-5.6-1.5-8.6-1.4c-1.5,0.1-2.1,0.5-1.9,2c0,0.5-0.1,1-0.2,1.4
	c-0.1,0.8-0.3,1.5-0.4,2.3s-0.1,1.7-0.1,2.6c-0.1,1.8,0.2,2.1,2.2,2.3c2.4,0.2,4.8,0.6,7.1,1c1.6,0.3,3.1,1.3,4.9,0.6
	c0.1-1.5,0.4-2.9,0.7-4.4c0.3-1-0.2-1.9,0.5-3c0.5-0.9,0.1-2.1-0.9-2.5C165.3,104.5,165.2,104.5,165.2,104.5z"/>
<path class="st0" d="M150.8,67.2c-0.4,0.1-0.9,0.2-1.3,0.3c-0.1,1-0.1,1.9,0,2.9c0.1,0.7,0.3,1.4,0.6,2c0.1,0.2,0.8,0.2,1.2,0.3
	c2.2,0.1,4.5,0.2,6.7,0.4c2.2,0.3,4.4,0.7,6.6,1.2c2.5,0.6,3.6,0,3.8-2.6c0-0.3-0.1-0.7,0-0.9c0.4-0.6,0.4-1.1-0.4-1.4
	c-0.5-0.3-1-0.5-1.5-0.7c-1.9-0.3-3.9-0.5-5.8-0.7c-1.2,0-2.4-0.1-3.6-0.3C155.1,67.1,152.9,66.9,150.8,67.2z"/>
<path class="st0" d="M188,79l1.6-4.3c-1.1-0.4-2.2-0.9-3.2-1.2c-1.7-0.6-3.3-1.4-5-1.5c-2.1-0.1-3.9-1.5-6-1.4
	c-1.1,0-2.3-0.6-3.6-0.9c-0.2,0.9-0.5,1.8-0.7,2.7c-0.1,0.5,0,1.2-0.3,1.5c-0.8,0.8-0.3,0.9,0.4,1.2s1.4,0.5,2.1,0.7
	s1.4,0.3,2.1,0.6c1.1,0.3,2.1,0.8,3.2,1.1c2.6,0.5,5.2,1.3,7.6,2.4C186.7,80,187.6,80.1,188,79z"/>
<path class="st0" d="M187.2,111.9c-2.1-0.9-4.3-1.5-6.5-2.2c-0.8-0.3-1.6-0.4-2.4-0.7c-2.3-0.9-4.7-1.8-7-2.7
	c-0.4-0.2-0.9-0.3-1.3-0.4c-0.4,0-0.7,0.2-1,0.5c-1.2,1.1-1,2.7-1.1,4s-0.4,2.7-0.5,4.1c-0.1,0.5,0,1.2,0.9,1.3
	c0.8,0.1,1.5,0.3,2.3,0.6c1.1,0.4,2.2,0.9,3.4,1.3c2.1,0.7,4.3,1.4,6.5,2.1c1.2,0.2,2.3,0.6,3.4,1c1.2,0.7,2.7,0.9,4.1,0.5
	c-0.1-0.7-0.2-1.4-0.3-2.1c0-1.8,0.2-3.6,0.2-5.4C187.8,113.1,187.6,112.1,187.2,111.9z"/>
<path class="st0" d="M136.7,107.5c0.3,1.6,0.4,3.3,0.8,4.8c0.2,0.6,0.8,1.1,1.4,1.2c1.2-0.1,2.4-0.3,3.5-0.6
	c1.2-0.3,2.3-0.4,3.5-0.4c1.8,0.1,2.2-0.1,2.4-1.8c0.3-2.2,0.6-4.4,0.8-6.7c0-0.8-0.2-1.5-0.6-2.2c-0.1-0.2-0.8-0.1-1.3-0.1
	c-3.1,0.3-6.2,0.5-9.2,1c-0.8,0.1-2.2-0.2-2.2,1.5c0.1,0.3,0.1,0.6,0.2,0.9C136.4,106,136.6,106.7,136.7,107.5z"/>
<path class="st0" d="M177.4,85.4c0.4-1.9,0.7-3.7,1.1-5.5c-1.4-0.5-2.6-1.1-3.8-1.4c-1.5-0.4-3-0.7-4.5-1c-1.6-0.3-3.3-0.7-4.9-1
	s-3.1-0.6-4.6-0.7c-0.7-0.1-1.5,0-2.1,0.3c-0.5,0.4-0.7,1-0.8,1.6c-0.1,1.2,0,2.4,0,3.8c0.9,0.2,1.6,0.5,2.4,0.7
	c1.4,0.2,2.7,0.4,4.1,0.6c1.1,0.2,2.3,0.4,3.4,0.6c1,0.1,1.9,0.4,2.8,0.7C172.6,84.9,175,85.4,177.4,85.4z"/>
<path class="st0" d="M173.7,96.2c-1.9-0.6-3.9-1.1-5.8-1.6c-2.7-0.7-5.3-1.3-8-2c-0.9-0.2-1.8,0.3-2.1,1.2c-0.2,1.7-0.4,3.3-0.6,5.3
	c0.2,0.3,0.5,1,1,1.1c2,0.6,4,1,5.9,1.6c2.6,0.7,5.2,1.5,7.8,2.3c0.9,0.3,1.4,0.1,1.6-0.8c0.1-0.7,0.3-1.3,0.4-2
	c0.3-1.1,0.6-2.2,0.8-3.3C174.9,97.3,174.5,96.5,173.7,96.2z"/>
<path class="st0" d="M132.1,85c-0.9,0.1-1.8,0.3-2.7,0.6c-0.3,0.1-0.4,0.4-0.5,0.7c0.1,1.6,0.3,3.2,0.6,4.8c0,0.2,0.7,0.6,1,0.5
	c1.2-0.2,2.3-0.6,3.5-0.8c0.6,0,1.2,0,1.9,0c0.2-0.2,0.5-0.3,0.8-0.4c2.9-0.4,5.8-0.8,8.8-1.1c1-0.1,1.3-0.6,1.2-1.5
	c-0.1-1.4-0.2-2.8-0.3-4.3c-1.2,0-2.3-0.1-3.4,0c-1.7-0.1-3.4,0.1-5.1,0.5C135.9,84.5,134,84.8,132.1,85z"/>
<path class="st0" d="M135.7,76c-1.8,0.4-3.7,0.8-5.5,1.1V77c-1.5,0.3-3,0.7-4.5,1.1c-0.5,0.1-1,0.4-1.5,0.5
	c-1.2,0.4-2.4,0.8-3.6,1.1c-1.3,0.3-2,1.1-1.5,2.4c0.1,0.3,0.2,0.7,0.2,1.1c-0.3,1.8,1.3,2.7,3,2.1c2.5-0.9,5.1-1.6,7.8-2.1
	c2.1-0.5,4.4-0.7,6.5-1.1c0.3,0,0.8-0.5,0.8-0.7c0.1-1.5,0.1-3,0-4.5C137.1,76,136.5,75.9,135.7,76z"/>
<path class="st0" d="M137.5,99c0.1-1.2,0-2.4,0-3.6c0-2.1-0.8-2.9-2.4-2.5c-2,0.5-4.1,1-6.1,1.5c-0.4,0.1-0.8,0.2-1.1,0.4
	c-0.9,0.4-1.8,0.7-2.8,1c-1.6,0.4-1.7,0.4-1.2,1.9s0.8,3.1,1.2,4.6c0.4,0.9,1.3,1.3,2.2,1.1c0.9-0.4,1.9-0.7,2.8-1
	c0.7-0.3,1.4-0.7,2.2-0.9c1.2-0.4,2.5-0.7,3.8-0.9C136.9,100.7,137.5,99.9,137.5,99C137.5,99,137.5,99,137.5,99z"/>
<path class="st0" d="M142.8,81.4c0.1,0,0.2-0.1,0.3-0.1c1.9-0.1,3.9-0.4,5.8-0.4c1.4,0,2.8,0.3,4.2,0.4c1.2,0.2,2.3-0.5,2.6-1.7
	c0.1-0.3,0.1-0.6,0-0.9c-0.1-1.1-0.1-2.1-0.1-3.3c-1-0.2-2.1-0.4-3.1-0.5c-1.6-0.1-3.1,0-4.7,0.1c-2.3,0.1-4.6,0.2-6.8,0.4
	c-0.3,0-0.8,0.6-0.9,0.9c-0.1,0.8-0.1,1.6-0.1,2.4C139.7,81.4,140.6,81.6,142.8,81.4z"/>
<path class="st0" d="M104.2,244.8h10.1c0.1-1.3,0.2-2.6,0.2-3.9s-0.2-2.6-0.2-4c-1.1-0.2-2.3-0.4-3.5-0.4c-1.9,0-3.8,0.2-5.7,0.2
	c-0.9,0-1.9,0.6-1.8,1.4c0.2,1.4-0.6,2.7-0.6,4c0,0.9,0.1,1.7,0.3,2.6C103.1,244.8,103.8,244.8,104.2,244.8z"/>
<path class="st0" d="M108.8,213.1c2.5,0,5,0.1,7.5,0.1c0.5,0,1,0.3,1.6,0.3c1-0.1,2.1-0.2,3.1-0.4c0.1,0,0.2-0.3,0.3-0.5
	c0.2-0.5,0.4-0.9,0-1.4c1.1-0.9,0.3-2.1,0.5-3.2c0.2-0.9-0.3-1.8-1.3-2.1c-0.2,0-0.3-0.1-0.5,0c-1.7-0.1-3.4-0.1-5.2-0.1
	c-2.2-0.1-4.5-0.1-6.7-0.2c-0.7,0-1.2,0.1-1.3,0.9c-0.2,1.3-0.5,2.6-0.6,4c0,0.9,0,1.7,0.1,2.6C107.1,213,107.9,213.1,108.8,213.1z"
	/>
<path class="st0" d="M121.6,248.1c-1.1-0.4-2.2-0.6-3.3-0.4c-1.5,0.6-2.8-0.1-4.2,0c-0.9,0-1.7,0.7-1.7,1.6c0,0.1,0,0.3,0,0.4
	c0.2,0.5,0.3,1.1,0.2,1.7c-0.3,0.8,0.6,0.7,0.6,1.2c1.3,0,2.6,0.1,4,0.1s2.5-0.2,3.8-0.2c1,0,2.1-0.9,1.9-1.8
	c-0.1-0.3-0.2-0.6-0.3-0.8l0.3-0.3C122.4,249,122.1,248.2,121.6,248.1z"/>
<path class="st0" d="M106.6,224.3c2.3,0,4.6,0.1,6.9,0.1c0.3,0,0.6,0,1,0c0.2-0.3,0.4-0.5,0.5-0.8c0.2-0.8,0.7-1.4,0.4-2.3
	c-0.1-0.5-0.1-1.1,0-1.6c0-0.2,0-0.3,0-0.5c-0.2-1-0.3-2-0.5-3c-0.2,0-0.5,0-0.7,0c-2.3-0.5-4.7-0.7-7-0.4c-0.8,0-1.8,0.2-1.7,1.6
	c0.1,1.5-0.7,3-0.3,4.6c0,0.3,0,0.5-0.1,0.8C104.8,223.9,105.3,224.3,106.6,224.3z"/>
<path class="st0" d="M107.3,247.9c-0.2-0.1-0.3-0.2-0.5-0.2c-0.6,0-1.2,0-1.8-0.1c-1.1-0.3-2.2,0.2-2.8,1.2
	c-0.2,0.5-0.1,1.1-0.2,1.7c-0.3,1.1,0.4,1.5,1.2,1.7c1.5,0.3,3,0.5,4.5,0.5c0.7-0.1,1.4-0.6,1.8-1.3c0.3-0.8,0.3-1.7,0.1-2.5
	c-0.3-0.9-1.2-1.4-2.1-1.1C107.5,247.8,107.4,247.9,107.3,247.9z"/>
<path class="st0" d="M105,233.8c1.2,0,2.5,0.1,3.7,0.1c0.3,0,0.5-0.1,0.7-0.3c1.1-1.8,0.3-3.9,0.5-5.8c0-0.1-0.1-0.1-0.2-0.2
	c-0.8-0.9-1.9-0.8-2.9-0.8c-0.6,0-1.1,0-1.9,0c-0.2,0.6-0.3,1.2-0.4,1.8c-0.2,1.4-0.4,2.7-0.4,4.1C104.1,233,104.2,233.8,105,233.8z
	"/>
<path class="st0" d="M108.3,192.6c1.4,0,2.8,0,4.3,0.1h9.2c0.8,0.1,1-0.1,1.1-1.4c0.1-1.3,0-2.6-0.3-3.9c-0.1-0.8-0.2-1.3-1.1-1.4
	c-0.6-0.1-1.4-0.5-1.9-0.2c-1.2,0.5-2.2,0.1-3.3-0.1c-0.4-0.1-0.8-0.1-1.2,0c-0.8,0.5-2.7,0.9-3.1,0.3s-1-0.2-1.5-0.2
	c-0.5-0.1-1,0-1.5,0.1c-0.5,0.2-1.1,0.7-1.2,1.2c-0.2,1.6-0.2,3.2-0.3,4.8C107.5,192.4,107.7,192.6,108.3,192.6z"/>
<path class="st0" d="M190.6,66c-1-0.3-2.1-0.6-3.1-0.9c-0.4-0.1-0.8-0.2-1.2-0.3c-0.8-0.3-1.7-0.4-2,0.5c-0.5,1.6-0.8,3.2-1.1,4.7
	c1.7,0.5,3.1,0.9,4.4,1.4c1.9,0.6,3.7,1.3,5.6,1.9c1.6,0.5,3.3,1.1,4.9,1.5c0.4,0,0.8-0.1,1.1-0.5c0.5-1.5,0.9-3.1,1.4-4.5
	c-1.3-0.6-2.3-1.2-3.3-1.5C195,67.4,192.8,66.7,190.6,66z"/>
<path class="st0" d="M109,109.9c0.8-0.1,1.5-0.3,2.3-0.6c2.8-1.1,5.5-2.2,8.3-3.3c0.5-0.3,1-0.5,1.6-0.8c1.1-0.3,1.3-1.1,1.7-2.1
	c-0.6-1.6-1.1-3.2-1.5-4.8c-0.2-1.1-0.9-0.8-1.5-0.8c-0.2,0-0.4,0.4-0.7,0.5c-2.6,1.2-5.2,2.4-7.8,3.6c-1.1,0.7-2.2,1.2-3.4,1.7
	c-0.8,0.1-1.4,0.8-1.3,1.6c0,0.1,0,0.1,0,0.2c0.4,1.5,0.9,3,1.6,4.4C108.4,109.8,108.7,109.9,109,109.9z"/>
<path class="st0" d="M92.9,64.5c0.4,1.2,0.7,2.5,1,3.8c0.2,0,0.4,0.1,0.6,0.2c0.7,0.5,1.6,0.5,2.2-0.1c0.7-0.5,1.5-0.9,2.3-1.2
	c2.6-1,5.2-2,7.7-3c1.1-0.5,2.2-1.1,3.3-1.5c1.1-0.3,2.1-0.5,3.2-0.7c1.6-0.4,3.3-0.7,4.9-1.1s3.3-1.1,5.1-1.5s3.2-0.5,4.9-0.8
	s3.5-0.6,5.2-0.8c2.1-0.3,4.3-0.7,6.4-0.8s4.5,0,6.8,0c1.9,0,3.8-0.2,5.6-0.2c2.4,0,4.8,0.2,7.2,0.4c0.7,0,1.4,0.2,2.2,0.3
	c1.8,0.2,3.6,0.3,5.4,0.6c2.2,0.3,4.4,0.8,6.7,1.2c1.2,0.1,2.4,0.3,3.5,0.6c2.7,1,5.6,1.1,8.3,2c2,0.6,4,0.9,6,1.6
	c1.5,0.5,3.1,0.9,4.6,1.5s2.9,1.2,4.3,1.8c0.4,0.2,0.8,0.1,1.1-0.3c0.1-0.1,0.1-0.2,0.1-0.3c0.7-2.4,1.6-4.8,2.3-7.2
	c0.4-1.4,0.6-2.8,0.8-4.2c0.1-0.8-0.4-1.2-1.1-1.6c-1.7-0.8-3.4-1.9-5.1-2.8c-0.6-0.3-1.2-0.8-1.7-0.8c-1.3,0.1-1.8,1.3-2.4,2.2
	c-1,1.5-1.2,3.4-2.6,4.8c-0.7,0.8-0.9,2-1.4,3s-0.6,2-2,1.8c-0.8-0.2-1.5-0.4-2.2-0.7c-1.8-0.7-3.5-1.5-5.2-2.1
	c-1.5-0.4-3-1.1-4.3-2c0-0.4,0.1-0.9,0.2-1.3c0.2-0.8,0.6-1.5,0.7-2.3c0.2-1.2,0.2-2.4,0.5-3.6c0.3-1.7,0.9-3.2,1.2-4.9
	s-0.2-2-1.7-2c-0.3,0-0.5,0-0.8-0.1c-1.8-0.4-3.6-0.9-5.4-1.3c-0.1,0-0.3,0-0.4,0.1c-0.5,0.6-0.9,1.3-1.2,2
	c-0.5,1.9-0.9,3.9-1.2,5.8c-0.2,1.2-1.1,2.3-0.8,3.6c0.1,0.3-0.3,0.9-0.7,1.2c-1.4,1.3-3.2,0.5-4.8,0.6c-1.8,0.1-3.6-0.3-5.4-0.2
	s-1.7,0.2-2-1.2c-0.2-1.2-0.3-2.3-0.4-3.5c0-0.3,0-0.7,0-1c-0.1-1-0.4-1.9-0.5-2.9c-0.1-1.3-0.1-2.6-0.2-3.9
	c-0.1-0.8-0.4-1.5-1.3-1.5c-1.3,0-2.5,0-3.8,0.1c-0.8,0.2-1.5,0.3-2.3,0.3c-1.9-0.4-2.7-0.1-2.8,2.1s-0.2,4.1-0.3,6.2
	c0,1.3,0,2.6-0.2,3.8c-0.2,0.6-0.7,1.1-1.3,1.3c-1.6,0.3-3.3,0.4-5,0.6c-1.4,0.2-2.8,0.4-4.2,0.6c-0.9,0.1-2,0.5-2.5-0.6
	c-1.5-3.5-3.1-6.9-3.9-10.5c-0.1-0.7-0.7-1.3-1.5-1.2c-0.1,0-0.1,0-0.2,0c-1,0.2-2,0.5-2.9,0.8c-1.4,0.5-2.8,0.9-4.2,1.5
	c-0.5,0.2-1.3,0.7-1.3,1.1c0.1,1,0.3,2,0.7,2.9c0.6,1.5,1.3,2.9,1.9,4.4s1,2.9,1.5,4.2c-0.7,0.5-1.4,0.9-2.1,1.2
	c-1.2,0.5-2.4,0.8-3.6,1.2c-0.9,0.3-1.8,0.7-2.7,1.1c-0.9,0.5-1.8,1.2-2.8,1.6s-2.8-0.7-3.1-1.9c-0.1-0.2-0.2-0.5-0.4-0.7
	c-0.5-0.9-1-1.8-1.5-2.7c-0.8-1.5-1.6-3-2.4-4.4c-0.2-0.3-0.5-0.5-0.8-0.5c-0.8,0.1-1.5,0.4-2.3,0.7c-1.1,0.5-2,1.1-3.1,1.6
	c-1.4,0.6-2.8,1.1-4.1,1.7c-0.3,0.2-0.5,0.6-0.4,1C91.4,60,92.2,62.2,92.9,64.5z"/>
<path class="st0" d="M158.1,193c1.2,0.1,2.4,0.2,3.6,0.2c0.5,0,1.1-0.3,1.6-0.3c1.2,0.1,2.4,0.3,3.5,0.4c1.5,0,2.2-0.7,2.2-2.2
	c0-1.4,0-2.7,0-3.9c-0.3,0-0.6-0.1-0.8-0.2c-0.3-0.2-0.6-0.6-0.9-0.6c-0.9,0-1.7,0-2.6,0.1c-1.4,0.1-2.7,0.2-4,0.2s-2.8-0.6-4.1,0.3
	c-0.1,1.2-0.2,2.5-0.2,3.7c0,0.7,0.1,1.3,0.4,1.9C157,192.8,157.6,193,158.1,193z"/>
<path class="st0" d="M102.4,74.5c0.4-1.4-0.5-2.5-1-3.8c-0.1-0.3-0.5-0.5-0.7-0.7c-0.5,0-1,0.1-1.5,0.3c-0.9,0.4-1.8,1-2.8,1.4
	c-0.5,0.1-0.9,0.7-0.7,1.2c0,0,0,0.1,0,0.1c0.2,1,0.6,1.9,0.9,2.8s0.7,1.2,1.6,0.8c1.2-0.5,2.4-0.9,3.5-1.5
	C102.1,75,102.3,74.8,102.4,74.5z"/>
<path class="st0" d="M105.7,91.8c1.7-0.7,3.4-1.4,5.1-2.1s3.6-1.7,5.4-2.3c1-0.4,1.3-0.9,0.9-1.8c-0.5-0.9-0.8-1.8-1.1-2.8
	c-0.1-0.9-0.6-1-1.1-0.9c-0.8,0.2-1.6,0.4-2.4,0.7c-0.7,0.3-1.4,0.6-2.2,0.9s-1.7,0.6-2.5,1c-1.4,0.5-2.8,1.2-4.1,2
	c-0.9,0.6-3,0.4-2.6,2.7c0.1,0.2,0.2,0.4,0.3,0.6c0.2,0.6,0.4,1.2,0.6,1.8c0.2,1.1,0.8,1.5,1.8,1.1C104.6,92.4,105.1,92,105.7,91.8z
	"/>
<path class="st0" d="M109.9,99.4c0.7-0.3,1.3-0.8,1.7-1.4c0.3-0.6,0.3-1.3,0.1-1.9c-0.4-1.2-0.8-2.3-1.3-3.4c-1.1,0.5-2.3,1-3.6,1.5
	s-2.6,0.8-3.3,2c0.5,1.4,1,2.6,1.5,3.8c0.3,0.8,1.1,1.2,1.9,1c0.2-0.1,0.3-0.1,0.5-0.3C108.2,100.2,109.1,99.9,109.9,99.4z"/>
<path class="st0" d="M109.4,203.5c1.4,0,2.7,0,4.1,0s1.5-0.8,1.8-1.6c0.1-0.7,0-1.4-0.2-2c0.6-0.7,0.9-3.6-0.2-4.5
	c-0.3-0.3-0.6-0.5-1-0.6c-1.3,0-2.6,0.1-3.9,0c-1.9-0.1-2.8,0.6-2.9,2.6c-0.1,0.9-0.3,1.9-0.3,2.8
	C106.7,202.9,106.7,203.4,109.4,203.5z"/>
<path class="st0" d="M177.3,248.8c-0.6,0.1-1.2,0-1.8-0.1c-0.7-0.3-1.6,0.1-1.8,0.9c0,0.1-0.1,0.2-0.1,0.3c-0.1,0.4-0.1,0.9-0.1,1.3
	c-0.1,0.8,1,2.2,1.7,2.2c0.9,0,1.8,0.1,2.7,0.1c1.3,0,2.7-0.2,4-0.1c0.9,0.2,1.8-0.3,2.1-1.2c0.5-1.1,0.5-2.3-0.1-3.4
	C181.8,248.4,179.5,248.4,177.3,248.8z"/>
<path class="st0" d="M189.3,244.2c0-0.5,0-1.1,0-1.6c0-1.3,0.1-2.5,0.1-3.8c0-1-0.6-1.4-1.6-1.4c-2.3-0.1-4.6-0.2-6.8-0.2
	c-0.9,0-2,0.9-2,1.5c0.1,1.5,0.1,3,0.2,4.5h-0.1c0,0.2,0,0.5,0,0.7c0.1,1.6,0.3,1.8,1.7,2c1,0.1,2.1,0.1,3.1,0
	c0.3,0,0.6-0.3,0.8-0.2c0.9,0.1,1.8,0.4,2.7,0.4C188.8,246.1,189.2,245.5,189.3,244.2z"/>
<path class="st0" d="M175.5,245.5c0.8-0.6,1.5-1.2,1-2.5c-0.3-0.9,0.1-2,0.2-3.3c-0.2-0.5-0.3-1-0.4-1.5c0.1-1.1-0.8-0.9-1.2-1
	c-1.4-0.1-2.9,0.1-4.3,0.1c-2.3-0.1-3,0.6-2.7,2.8c0.2,1,0.2,1.9,0.3,2.9c0,1.8,0.6,2.6,2.2,2.8c1.2,0.1,2.4,0.1,3.6,0.1
	C174.6,245.8,175,245.7,175.5,245.5z"/>
<path class="st0" d="M170.6,250.5l-0.2,0.1c-0.1-0.7-0.1-1.3-0.2-2.1c-2.7,0.6-1.4,2.7-1.8,4.1l1.7,0.1c0.6-0.9,0.6-0.9,0.2-1.1
	c0.2-0.4,0.4-0.7,0.6-1.1L170.6,250.5z"/>
<path class="st0" d="M196.7,248.6c-1.6-0.1-3.3-0.1-4.9,0.1c-0.3,0-0.6,0.1-0.9,0.1c-0.7,0-1.5,0-2.2,0h-0.8c-0.6,1-0.8,2.2-0.5,3.4
	c0.1,0.6,0.1,1.3,1.1,1.3c2,0,4.1,0.2,6.1,0.2c1.8,0,3.6,0.1,5.4,0c0.6,0,1.2-0.4,1.2-1c0-0.2,0-0.3-0.1-0.5
	c-0.1-0.4-0.2-0.9-0.3-1.4c-0.2-0.8-0.7-1.5-1.4-1.9C198.2,248.3,197.5,248.7,196.7,248.6z"/>
<path class="st0" d="M0,300h300V0H0V300z M88.1,54.4c4.7-2.1,9.5-4.2,14.3-6.4l6,11.7l8.5-3.3c-1.4-4.2-2.8-8.5-4.2-12.8l9.5-3.1
	c1.2-0.4,2.5-0.7,3.7-1.2c0.8-0.3,1.1,0,1.3,0.6c1.5,4,3.1,8,4.6,11.9c0.1,0.1,0.1,0.3,0.2,0.4c2.7-0.4,5.3-0.7,8-1.1
	c0.7-0.1,0.7-0.5,0.7-1c-0.1-3.1-0.1-6.2-0.2-9.3c0-0.9,0-1.7,0-2.8l16.1-0.4v13.7c2.9,0,5.5,0,8.1,0c0.4-0.1,0.8-0.4,0.9-0.8
	c1-3.8,1.9-7.6,2.8-11.4c0.1-0.3,0.2-0.6,0.3-1l14.6,2.9c-0.4,1.6-0.9,3.2-1.3,4.8c-0.7,2.4-1.3,4.9-2.1,7.3
	c-0.2,0.7-0.1,1.1,0.6,1.4c2.6,1.1,5.3,2.3,8.1,3.5l5.4-13.2l9.7,4.9c1.2,0.6,2.4,1.2,3.7,1.8c0.4,0.1,0.7,0.6,0.6,1
	c0,0,0,0.1-0.1,0.1c-2.5,8.5-5,17.1-7.5,25.6c-3.5,11.8-7.1,23.5-10.5,35.3c-0.4,1.4-0.1,3,0,4.5c0.2,2.8,0.4,5.7,0.6,8.5
	c0.3,4,0.5,7.9,0.9,11.8c0.4,5.3,1,10.6,1.4,15.9c0.3,2.9,0.6,5.8,0.6,8.7c0,1.4,0.4,2.6,0.4,4c0,1.5,0.2,2.9,0.4,4.4
	c0.2,2.2,0.3,4.4,0.5,6.6c0.3,3.1,0.6,6.2,0.9,9.2c0.2,2,0.3,3.9,0.5,5.9c0.3,3.1,0.6,6.1,0.9,9.2c0.3,2.9,0.4,5.8,0.7,8.7
	s0.6,6.1,1,9.2c0.3,2.7,0.7,5.3,1,8s0.6,5.3,1,8s0.8,5.3,1.1,8c0.4,2.9,0.7,5.8,1,8.8h9.6v9.1H88v-9.5h10.6
	c0.7-4.3,1.6-8.4,2.1-12.6c0.8-6.2,1.4-12.5,2.1-18.8c0.6-5.5,1.1-11.1,1.6-16.6c0.4-4.4,0.6-8.9,1-13.4s0.8-8.9,1.1-13.4
	c0.3-4,0.3-8,0.5-12.1c0.1-2.2,0.4-4.4,0.5-6.6c0.1-1.7-0.1-3.4,0-5.1c0-4,0.2-8.1,0.2-12.1c0-4.3,0-8.6,0-12.9
	c0-3.6,0.1-7.1,0.2-10.7c0-1.7-0.2-3.3-0.8-4.9c-4.6-13.6-9.2-27.3-13.7-41c-2-5.7-3.9-11.4-5.8-17.1C87.5,55,87.4,54.7,88.1,54.4z"
	/>
<path class="st0" d="M150.1,213.5c1.6,0.4,3,0.7,3.8-0.8c-0.1-0.4-0.1-0.7-0.1-1.1c0.2-0.5,0.3-1.1,0.4-1.7c0-1-0.2-1.9-0.4-2.9
	c-0.1-0.2-0.3-0.4-0.5-0.5c-0.9-0.2-1.9-0.4-2.8-0.4c-1.9,0-3.9,0.1-5.8,0.1c-1.4,0.1-2.7,0.2-4.1,0.2c0,1.9,0,3.6,0,5.3
	c-0.1,1,0.7,1.9,1.7,2c0,0,0.1,0,0.1,0c1.6,0,3.3,0.1,5,0C148.3,213.8,149.3,213.3,150.1,213.5z"/>
<path class="st0" d="M146,216.2c-1.3-0.2-2.6-0.1-3.9-0.2c-2.5-0.1-5.1-0.1-7.6,0.1c-0.5,0.1-0.8,0.4-1,0.9c0,0.8,0,1.7,0.1,2.5
	h-0.2c0.2,1.2,0.3,2.4,0.3,3.6c0,1.2,0.9,1.4,1.6,1.5c0.7,0,1.5-0.2,2.1-0.6c1.1-0.7,2.1-1.7,3.2-2.3c1.5-0.7,3.1-1.2,4.6-1.6
	c1.4-0.4,1.9-0.9,1.7-2.9C146.8,216.8,146.5,216.4,146,216.2z"/>
<path class="st0" d="M126.8,226.9c-1.3,0-2,0.9-2,2.2c0,1,0,1.9,0,2.8c0.1,0.5,0.2,0.9,0.3,1.3c0.3,1.1,1.3,0.9,2,0.8
	c1.3-0.2,2.9,0.9,3.7-1.3c0.7-1.7,1.7-3.3,2.8-4.8c0.4-0.6,0.3-0.6-0.3-0.7C131.1,227.1,129,226.9,126.8,226.9z"/>
<path class="st0" d="M128.2,236.8c-0.8-0.1-1.7-0.2-2.5-0.2c-0.5,0-1,0.2-1.5,0.3c-0.2-0.1-0.4-0.4-0.8-0.4c-1.7-0.1-3.3,0-5,0
	c-0.7,0-1,0.3-1.3,0.8c-0.3,0.6-0.4,1.4-0.3,2.1c0,0.7-0.1,1.3-0.3,1.9c0,0.1,0,0.3,0.1,0.4c0.2,0.4,0.3,0.8,0.4,1.3
	c0.1,2.1,0.1,2.2,2.3,2c0.2,0,0.4,0,0.6,0h8.3l0.4-2.4c0.2-1.2,0.4-2.3,0.6-3.5C129.3,238.2,128.8,236.9,128.2,236.8z"/>
<path class="st0" d="M164.3,223.3c0.1-1.3,0.1-2.6,0.1-3.9c0-2.2-0.7-3-2.4-3.1c-3.1,0-6.2,0-9.3,0c0,0,0-0.1,0-0.1h-0.4
	c-2.1,0-2.2-0.1-2.4,2.5c0,0.4,0.1,0.8,0.5,1c1.3,0.5,2.8,0.7,4,1.3c1.8,0.7,3.5,1.6,5,2.7c0.8,0.8,2,1.3,3.1,1.3
	C163.7,224.8,164.2,224.6,164.3,223.3z"/>
<path class="st0" d="M168.3,233.6c0.1-1.2,0-2.5,0.3-3.6c0.2-1.4-0.2-2.2-1.6-2.3c-1.1-0.1-2.4-0.5-3.3,0.6c0.6,1.4,1.7,2.4,2,3.9
	c0.3,0.8,0.9,1.6,1.5,2.2c0.1,0.2,0.7,0.3,0.8,0.2C168.1,234.2,168.3,233.9,168.3,233.6z"/>
<path class="st0" d="M128,250.4c0.4-1.7-0.4-2.7-2.1-1.9c0,1,0,2,0,2.9s0.4,1.3,1.3,0.9c0.3-0.1,0.7-0.2,1.1-0.4
	C128.1,251.4,128,250.9,128,250.4z"/>
<path class="st0" d="M107.3,82.2c0.6-0.2,1.1-0.5,1.7-0.9c0.3-0.3,0.5-0.6,0.7-0.9c-0.3-1.1-0.6-1.9-0.8-2.8
	c-0.4-1.6-0.9-2.1-2.7-1.4c-2.2,0.9-4.3,1.8-6.4,2.8c-1.3,0.6-1.6,1.3-1.2,2.6c0.3,0.9,0.7,1.8,1.2,2.7c0.3,0.3,0.8,0.4,1.2,0.3
	c1.4-0.5,2.7-1.1,4-1.6C105.8,82.8,106.5,82.6,107.3,82.2z"/>
<path class="st0" d="M116.7,183c1.4,0.1,2.7,0.3,3.9,0.3c1.7,0.1,3.4,0,5.1,0c1.3-0.1,2.5-0.1,3.8-0.1c1.1,0.1,1.1-0.4,1.1-1.1
	c0-0.7,0-1.4,0-2.1c-0.1-1.2,0.5-2.4,0.1-3.5c-0.2-0.5-0.4-1.2-0.7-1.3c-1.5-0.2-3.1-0.3-4.6-0.3c-2.3-0.1-4.7-0.1-7.1,0
	c-0.7,0.1-1.3,0.5-1.6,1.1c-0.2,0.7-0.2,1.5-0.1,2.2C116.7,179.7,116.7,181.2,116.7,183z"/>
<path class="st0" d="M136.6,185.9c-1.2,0.2-2.4-0.1-3.6,0.1c-0.1,0-0.3-0.2-0.5-0.2c-0.2-0.1-0.4-0.1-0.6-0.1
	c-1.6,0.1-3.1,0.2-4.7,0.2c-0.8,0-2.2,0.7-2.2,1.5c0,1.3,0,2.6,0.2,3.9c0.1,0.6,0.3,1.5,1.3,1.5c1.4,0,2.7,0,4.1,0
	c2.2,0,4.5-0.1,6.8,0c1.3,0.1,1.6-0.6,1.7-1.6c0.1-0.8,0.2-1.6,0.2-2.4c-0.1-0.4-0.2-0.8-0.4-1.2c0,0,0-0.1,0-0.1l0.9-0.8
	C138.5,186.3,137.5,185.8,136.6,185.9z"/>
<path class="st0" d="M109.2,159.5c0,0.8,0.4,1.7,1.5,1.7c1.5,0,3,0,4.5-0.1c1.1-0.1,1.4-0.6,1.1-1.8c0-0.1,0-0.2,0-0.2
	c0.1-0.8,0.3-1.6,0.4-2.4h-0.1c0-0.3,0-0.7,0-1c0-1.6,0-1.7-1.7-1.8c-1.2-0.1-2.4-0.1-3.6-0.1c-1.1,0-2,0.2-1.9,1.7
	C109.4,156.8,109.1,158.2,109.2,159.5z"/>
<path class="st0" d="M149.2,192.9c1.3,0,2.5,0.1,3.8-0.1c0.6-0.1,1-0.6,1.2-1.1c0-1.1-0.1-2.1-0.2-3.2c0-1.7-1.1-2.4-2.9-2.3
	c-1.4,0-2.7-0.1-4.1-0.3v0.5c-1.8-0.7-3.8-0.5-5.4,0.4v5.3c0.4,0.2,0.9,0.4,1.3,0.6c1.4,0.3,2.9,0.3,4.3,0.1c0.4,0,0.8,0.1,1.2,0.3
	C148.7,193,148.9,192.9,149.2,192.9z"/>
<path class="st0" d="M110.7,151.2c1,0,2,0.1,2.9,0.1c1.3,0,2.6,0.1,4,0s2.8-0.2,4.3-0.1s2.3-0.6,2.3-2c0-1.1,0-2.2,0-3.1
	c0.1-1.1-0.2-1.6-1.2-1.6c-2.3,0.2-4.7,0.1-6.9,0.9c-1.5,0.4-2.9,0.6-4.4,0.8c-0.3,0-0.6,0.1-0.9,0.2c-1.4,0.5-0.9,1.9-1.1,2.8
	C109.4,149.8,109.4,151.1,110.7,151.2z"/>
<path class="st0" d="M137.7,213.6c0.3-0.8,0.5-1.7,0.8-2.5c0.1-0.8,0.1-1.5,0.2-2.3c0.1-1.4-0.9-2.7-2.4-2.8c-1.8,0.1-3.6,0-5.4,0
	s-3.5-0.2-5.2-0.1c-0.5,0-1.4,0.5-1.4,0.9c-0.2,1.5-0.2,3-0.2,4.5c-0.1,1.1,0.7,2.1,1.8,2.2c0.1,0,0.2,0,0.3,0c1,0,1.9,0,2.9-0.1
	s1.9-0.1,2.8-0.1C133.7,213.4,135.7,213.6,137.7,213.6z"/>
<path class="st0" d="M197.1,77.2c-1.4-0.5-2.9-0.9-4.4-1.2c-1.1-0.2-1.5,0.4-1.7,1.5c-0.2,0.9-0.5,1.8-0.8,2.7
	c0.5,0.9,1.3,1.6,2.3,1.7c1.1,0.1,2.2,0.4,3.3,0.7c1,0.5,1,0,1.2-0.7s0.5-1.5,0.8-2.2C198.2,78.8,198,77.5,197.1,77.2z"/>
<path class="st0" d="M178.9,155.3c-1-0.3-2-0.5-3.1-0.5c-1-0.1-2.1,0.2-3.1,0.2c-1.2,0-2.4-0.1-3.7-0.2c-0.3,0-0.5,0.2-1,0.4
	c0,0-0.3-0.2-0.6-0.4c-0.7,2.3-0.8,4.8-0.1,7.1h2.4c2.6,0,5.2,0.1,7.8,0.1c1.4,0,2.4-0.7,2.4-1.8c0-1.3-0.1-2.6-0.3-3.9
	C179.7,155.9,179.4,155.5,178.9,155.3z"/>
<path class="st0" d="M158.1,213.9c2.5,0.1,5,0,7.5,0c1.5,0,1.8-0.3,1.8-2c0-1.4,0.2-2.8,0.3-4.6c-0.8-0.3-1.6-0.6-2.5-0.8
	c-1-0.2-1.9-0.3-2.9-0.2c-1.3,0-2.5,0-3.8-0.1c-0.8,0-1.8,0.2-2.1,1.3c-0.4,1.8-0.4,3.8,0.1,5.6
	C156.8,213.5,157.6,213.9,158.1,213.9z"/>
<path class="st0" d="M185.4,192c0.1-1.3,0.1-2.7,0-4.1c-0.1-0.4-0.3-0.7-0.6-0.9c-0.8-0.6-1.8-0.8-2.8-0.6c-0.9,0.1-1.8,0.2-2.7,0.1
	c-0.9,0-2-0.6-2.6-0.2c-0.8,0.3-1.7,0.3-2.5,0c-1-0.4-2.2,0.2-2.6,1.2c-0.1,0.3-0.1,0.6-0.1,1c0.1,0.8,0.1,1.5,0,2.3
	c-0.2,1.7,0.5,2.6,2.1,2.6h10.8C184.8,192.9,185.4,192.5,185.4,192z"/>
<path class="st0" d="M110.2,120.3c0.1,0.9,0.7,1.2,1.6,0.9c2-0.7,3.9-1.3,5.9-2c1-0.4,2-0.8,3-1.2c0.3-0.2,0.8-0.6,0.8-0.9
	c0.1-1-0.1-1.9-0.5-2.8c-0.7-1-1-2.1-1-3.3c0-0.9-1.5-2.3-2.1-1.8c-1.1,0.9-2.5,0.6-3.6,1.6s-3,1.6-4.5,2.4c0.1,0.7,0.2,1.3,0.2,1.8
	C110,116.8,110.1,118.6,110.2,120.3z"/>
<path class="st0" d="M178.6,139c-0.1-1.3-0.1-2.5,0-3.8c0.1-1-0.6-1.9-1.6-2c-0.1,0-0.2,0-0.4,0c-2.8,0.1-5.5,0.3-8.3,0.3
	c-0.6-0.1-1.1,0.3-1.2,0.9c0,0.1,0,0.1,0,0.2c-0.1,1.4-0.1,2.8,0,4.2c0,0.6,0.1,1.3,0.4,1.6c0.6,0.5,1.3,0.8,2.1,0.9
	c1,0.2,2.1,0.1,3.1,0.3c1.4,0.2,2.9,0.4,4.6,0.7C178.6,141.7,178.7,140.5,178.6,139z"/>
<path class="st0" d="M109.7,133.8c-0.1,1.5-0.1,3.1-0.1,4.6c0,1.3,0.2,2.6,0.1,3.9s0.4,1.9,1.7,1.6s2.8-0.7,4.3-1.1
	c0.1-0.5,0.1-1.1,0.2-1.6c0.1-1.8,0.1-3.6,0.1-5.4c0.1-2.3,0.4-3.3-2.5-3.3c-0.3,0-0.7,0-1-0.1C111.4,132.3,109.7,133,109.7,133.8z"
	/>
<path class="st0" d="M184.6,171.6c0-0.6-0.1-1.2-0.1-1.8c0-1.2,0-2.4-0.1-3.6c0.1-1-0.6-1.8-1.5-1.9c-0.2,0-0.3,0-0.5,0
	c-0.6,0-1.1,0.1-1.7,0.1c-2.3,0-4.6,0-6.9,0c-0.2,0.6-0.3,1.2-0.3,1.9c0,1.9-0.1,3.9,0,5.8c0.1,0.4,0.3,0.7,0.6,0.8
	c0.6,0.2,1.1,0.3,1.7,0.3c2.4,0,4.7-0.1,7-0.1C183.9,173.2,184.6,172.8,184.6,171.6z"/>
<path class="st0" d="M190.1,102.7c-0.8-0.3-1.6-0.6-2.3-1c-1.6-0.8-3.2-1.6-4.8-2.3c-1.5-0.4-3-1-4.3-1.7c-1-0.7-1.6,0.4-1.7,0.8
	c-0.6,1.8-0.9,3.7-1.4,5.9c0.1,0.2,0.3,0.7,0.6,0.8c1.3,0.8,2.7,1.4,4.1,2c1.7,0.6,3.5,1,5.3,1.4c0.4,0.1,0.7,0.2,1.1,0.3
	c1.6,0.7,2.8,0.2,2.9-1.5c0.2-1.2,0.6-2.3,1.1-3.4C190.8,103.7,191.1,103,190.1,102.7z"/>
<path class="st0" d="M190.7,164.6c-1.1-0.2-2.3-0.2-3.4,0.2c-0.4,0.1-0.5,1.4-0.6,2.1c-0.1,1.5-0.1,2.9,0,4.4
	c0.1,0.6,0.3,1.1,0.7,1.5c0.6,0.6,2.8,0.7,3.6,0.5c1.2-0.3,1.2-0.9,1-1.9c-0.2-1.6-0.3-3.1-0.3-4.7l0.2-0.1
	C191.5,165.9,191.2,164.8,190.7,164.6z"/>
<path class="st0" d="M188.7,155.1c-0.4,0-0.8,0-1.2,0c-1-0.1-2-0.2-2.9-0.2c-0.7,0.1-1.5,0.4-2.1,0.6c-0.2,0.6-0.3,1.2-0.3,1.8
	c0,1.2,0.2,2.5,0.1,3.7c-0.1,0.8,0.2,0.9,0.8,0.9c2.1,0,4.1,0.1,6.2,0.1c1.6,0,2.2-1.1,1.3-2.5c0.2-0.1,0.5-0.3,0.5-0.4
	c-0.2-1.1-0.4-2.3-0.8-3.4C190.1,155.3,189.3,155.2,188.7,155.1z"/>
<path class="st0" d="M189,146.7c-1-0.3-2-0.6-3-0.7c-2.8-0.5-5.7-0.8-8.4-1.4c-0.9-0.2-1,0.1-1.1,0.7c-0.1,1.4-0.2,2.8-0.4,4.2H176
	c0.2,0.6,0.4,1.3,0.5,1.9c0.1,1,0.9,1.1,1.7,1.1c1.6,0.1,3.2,0,4.7,0c2.1,0,4.1,0.1,6.2,0.1c0.8,0,1.6-0.1,1.1-1.3
	c-0.1-0.1,0.1-0.3,0.1-0.4c0-1.1-0.1-2.1-0.3-3.2C189.8,147.2,189.5,146.9,189,146.7z"/>
<path class="st0" d="M192.2,94c-2-0.9-4-1.7-6-2.5c-1.5-0.6-3.1-1-4.7-1.6s-2.8-1.2-4.3-1.7c-1-0.4-2.2-0.4-3.2-0.9
	c-1.5-0.7-2.6-0.5-3.2,1c-0.1,0.4-0.2,0.8-0.1,1.3c-0.2,1.1-0.4,2.2-0.5,3.4c2.9,0.9,5.6,1.7,8.3,2.5s5.1,1.8,7.7,2.7
	c1.4,0.5,2.7,1,4.1,1.4c0.6,0,1.2-0.3,1.6-0.8c0.5-1.1,0.8-2.2,0.9-3.3C192.9,94.9,192.7,94.4,192.2,94z"/>
<path class="st0" d="M194.8,85.2c-1-0.5-2.1-0.9-3.2-1.2c-1.6-0.5-3.2-0.9-4.8-1.4c-0.3-0.1-0.5-0.3-0.8-0.4
	c-1.4-0.5-2.9-0.9-4.3-1.4c-0.1,0-0.5,0-0.5,0.1c-0.3,0.7-0.5,1.4-0.7,2.1c-0.2,0.6-0.2,1.2-0.3,1.8c-0.1,0.5,0,1,0.1,1.5
	c0.4,1,1.5,1,2.4,1.3c1.9,0.8,4.2,0.7,5.7,2.5c0.1,0.1,0.3,0,0.4,0.1c1.3,0.4,2.6,0.8,3.8,1.2c0.6,0.3,1.3,0.1,1.6-0.5
	c0.1-0.1,0.1-0.3,0.1-0.4c0.1-0.4,0.2-0.9,0.3-1.3c0.3-0.9,0.6-1.8,0.9-2.8C195.3,86,195.2,85.4,194.8,85.2z"/>
<path class="st0" d="M190,175.8c-2.1,0.1-4.2,0-6.4-0.1c-1.2-0.1-2.1,0.3-2.2,1.5c-0.2,1.8-0.3,3.7-0.2,5.6
	c-0.1,0.7,0.5,1.4,1.2,1.4c0.1,0,0.2,0,0.2,0c2.6-0.1,5.2,0,7.8-0.1c0.9,0,1.9-0.1,2.7-0.2c-0.2-2.2-0.3-4.1-0.6-5.9
	C192.3,175.9,192,175.7,190,175.8z"/>
<path class="st0" d="M193.8,206.8c-0.3,0.1-0.5,0.1-0.8,0.1c-1.4,0-2.8-0.1-4.2-0.1c-1.1,0-1.4,0.8-1.4,1.6c-0.1,1.4-0.1,2.9,0,4.3
	c0,0.6,0.1,1.2,1,1.2c1.4,0,2.8,0.2,4.2,0.3v-0.2c0.5,0,1.1,0,1.6,0c0.9-0.1,1.6-0.8,1.6-1.7c-0.1-1.4-0.3-2.9-0.4-4.3
	C195.4,207,194.9,206.6,193.8,206.8z"/>
<path class="st0" d="M183.6,227.6c-1,0-1.9,0.1-2.9,0.1c-2.7,0-5.3-0.2-8-0.2c-0.7,0-1.4,0.2-1.4,1.1c0,1.6,0.1,3.1,0.3,4.7
	c0.1,0.6,0.6,1.1,1.1,1.4c0.8,0.1,1.6,0.2,2.4,0.1h6.3c1,0,2,0,3.4,0c0-2.2,0-4.1,0-6.1c0.1-0.5-0.3-1.1-0.8-1.1
	C183.8,227.6,183.7,227.6,183.6,227.6z"/>
<path class="st0" d="M168.2,224.8c1.5,0.1,2.9,0.1,4.4,0.2s2.7,0,4,0.1c0.9,0.1,1.7-0.4,1.7-1.1c0-1.5,0-2.9,0-4.4h0.2
	c0-0.6,0-1.1,0-1.7c-0.1-0.8-0.3-1.4-1.4-1.4c-2.7,0-5.4-0.2-8.1-0.2c-0.9,0-1.9,0.3-2,1.3c-0.1,1.8-0.1,3.7,0,5.5
	C167,223.9,166.6,224.7,168.2,224.8z"/>
<path class="st0" d="M187.2,195.8c-1.7,0-3.4-0.1-5-0.1c-1.1,0.1-1.9,1.1-1.8,2.2c0.2,1.4,0.3,2.9,0.3,4.4c0,1,0.4,1.7,1.4,1.8
	c0.8,0.1,1.5,0,2.3,0.1s1.7,0.5,2.4,0.3c2.4-0.8,4.8,0.1,7.2-0.3c0.2,0,0.4,0.2,1,0.6c-0.1-1.4-0.2-2.6-0.3-3.7
	c-0.1-0.5-0.2-1-0.3-1.5c0-0.6,0.3-1.1,0.3-1.7c-0.2-1.1-1.1-1.9-2.2-2C190.8,195.8,189,195.9,187.2,195.8z"/>
<path class="st0" d="M192.2,186.6c-0.7,0.1-1.3,0.1-2,0c-1.4-0.2-2.2,0.4-2.3,1.9c-0.1,0.7,0,1.5-0.1,2.2c-0.2,1.4,0.4,2.6,1.8,2.7
	s3.1,0.5,4.3-0.9c0-0.6-0.1-1.2-0.1-1.7s-0.1-1.1-0.1-1.7c-0.1-0.4-0.2-0.8-0.2-1.3C193.4,187.1,193,186.6,192.2,186.6z"/>
</svg>
