<svg id="bd495cbd-81cb-4c73-b1d6-ee3acdf1c037" data-name="PRINT" xmlns="http://www.w3.org/2000/svg" viewBox="0 0 300 300"><path d="M183.58,213.93a1.27,1.27,0,0,0,.89-.84,46.28,46.28,0,0,0,.53-5,1.49,1.49,0,0,0-1.54-1.49c-2-.13-4-.1-6-.1-1.79,0-3.57,0-5.36.08a21.5,21.5,0,0,0-2.21.29,44.49,44.49,0,0,0,.06,5,2.63,2.63,0,0,0,1.31,1.95,16.78,16.78,0,0,0,4.09.24c1.38,0,2.77-.13,4.16-.16S182.24,214,183.58,213.93Z"/><path d="M139.77,121.9a9.19,9.19,0,0,0-2.12.27c-.45.07-.9.09-1.34.16-1.2.2-2.41.38-3.61.63-1,.22-2,.54-3,.82,0-.07,0-.13,0-.2a30.29,30.29,0,0,0-3.17.49c-.58.15-1.47.52-1.54.92a24.2,24.2,0,0,0-.22,4.18.94.94,0,0,0,.61.65,19.8,19.8,0,0,0,3.49.55c2.83.08,5.67,0,8.51,0,.79,0,1.59-.08,2.38-.12a1.11,1.11,0,0,0,1.17-1.24c0-1.25.11-2.5.11-3.75a9.27,9.27,0,0,1-.17-2C141.05,122.27,140.41,122,139.77,121.9Z"/><path d="M168.17,203.89c1.45,0,2.9.17,4.34.09,1.94-.11,4,.7,5.64-.4V196a11.59,11.59,0,0,0-1.92-.4c-2.54,0-5.08,0-7.62,0a1.55,1.55,0,0,0-1.72,1.69c-.06,1.39-.19,2.79-.33,4.18C166.47,202.43,167.43,203.88,168.17,203.89Z"/><path d="M120.91,125.92c-1.67.37-3.36.62-5,1s-3,.81-4.47,1.32c-.46.17-1.16.69-1.14,1,0,.6.65,1,1.36.95,1.42,0,2.83,0,4.25,0a29.69,29.69,0,0,1,3.53,0c2,.23,3-.36,2.79-2.52a3.51,3.51,0,0,1,0-.56C122.28,126.14,122,125.68,120.91,125.92Z"/><path d="M118.15,134.47c-.05,1-.19,1.95-.26,2.92a13.41,13.41,0,0,0,0,2.37,14.41,14.41,0,0,0,.7,2.33,3.26,3.26,0,0,0,1.4.34c1.86-.28,3.69-.72,5.53-1.07,1.34-.26,2.83.33,4-.69.79.87,1.35-.22,2-.29a1.31,1.31,0,0,0,.82-1c0-1.78,0-3.57-.13-5.34a1.67,1.67,0,0,0-.78-1.18,3.92,3.92,0,0,0-1.66-.21c-1.22,0-2.44,0-3.66,0-2.06,0-4.12-.11-6.17-.07C118.71,132.64,118.23,133.24,118.15,134.47Z"/><path d="M185.68,128.64a19.23,19.23,0,0,0-3.5-1.18c-2.28-.29-4.36-1.47-6.71-1.45a6.26,6.26,0,0,1-1.89-.51c-.25-.09-.48-.24-1-.51a10.31,10.31,0,0,0-.71,1.72,8.32,8.32,0,0,0-.07,2c.06,1.92.84,2.5,2.64,2a2.69,2.69,0,0,1,.85,0c1.09.07,2.17.19,3.26.21,1.87,0,3.75,0,5.63,0,.7,0,1.32-.28,2.09.16.39.22,1.28-.39,1.93-.67.19-.09.32-.34.47-.51-.16-.06-.41-.08-.48-.2C187.63,128.71,186.55,128.92,185.68,128.64Z"/><path d="M146.31,183.82a2.72,2.72,0,0,0,1.81-1.7s0-.08,0-.12c-.07-1.66-.18-3.31-.22-5a1.29,1.29,0,0,0-1.41-1.46c-1.27,0-2.54-.07-3.8-.15a17.31,17.31,0,0,0-3.41-.28,21.21,21.21,0,0,1-4.06,0c-1.47-.08-2,.11-2.27,1.43a3.8,3.8,0,0,0,.07.66,23.77,23.77,0,0,1-.05,4c-.25,1.55.21,2.33,1.75,2.32,2.22,0,4.44,0,6.09,0C143,183.66,144.66,183.75,146.31,183.82Z"/><path d="M133.82,60.09a22.81,22.81,0,0,0-3.38.76c-1.75.64-3.76.55-5.63.9-2.45.46-4.89,1-7.32,1.58a1.41,1.41,0,0,0-1,2,9.64,9.64,0,0,1,.56,2,1.83,1.83,0,0,0,2.59,1.52,15.24,15.24,0,0,1,2.06-.72c2.37-.58,4.75-1.16,7.15-1.64,1.94-.39,3.92-.63,6.17-1,.08-.69-.09-1.65.31-2.1.81-.91,0-1.67,0-2.44A1.19,1.19,0,0,0,133.82,60.09Z"/><path d="M130.15,68.79A1.55,1.55,0,0,0,129,71.08c.15.37.49.73.49,1.09,0,2.35.18,2.51,2.42,2.15s4.35-.68,6.53-1c1.1-.14,2.21-.18,3.32-.23s2.45,0,3.65-.15c.68-.1,1.56-.25,1.66-1.25.09-.75.18-1.49.26-2.24-.16-2.12-.51-2.44-2.73-2.29-2.4.16-4.81.27-7.2.53S132.56,68.37,130.15,68.79Z"/><path d="M113.12,92.52a19.2,19.2,0,0,0,.7,2.73c.43,1.61,1,1.9,2.45,1.31.82-.32,1.63-.67,2.46-1,2.13-.72,4.24-1.49,6.4-2.09,1.83-.51,2-.63,1.88-2.47a4.56,4.56,0,0,1,.12-.84c-.15-.67-.28-1.51-.53-2.31a1.9,1.9,0,0,0-2.06-1.27c-1.62.63-3.28,1.15-4.89,1.8-2,.83-4.07,1.69-6.05,2.66C113.28,91.24,113.07,92.05,113.12,92.52Z"/><path d="M185.86,124.22a1.12,1.12,0,0,1-.54-.14,32.93,32.93,0,0,0-4.54-1.72c-2-.48-3.91-1.39-5.89-2s-3.85-1-5.77-1.54c-.66-.17-1.33-.33-2-.53-1.1-.34-2.18-.75-3.29-1.05s-2.17-.47-3.24-.74c-1.28-.32-2.54-.79-3.84-1s-2.5-.14-3.75-.23a42.93,42.93,0,0,0-12.39.54c-2.5.54-5,1-7.54,1.47-.47.09-.9.5-1.35.51-3,0-5.57,1.69-8.45,2.2a29,29,0,0,0-3.73,1.3c-1.16.38-2.36.65-3.52,1-.77.26-1.49.68-2.26,1-1.27.48-2.56.92-3.92,1.4.27.6.41.94.57,1.29,2-.6,3.89-1.18,5.8-1.74,1.4-.4,2.79-.77,4.19-1.14s2.6-.69,3.92-.94c1.64-.31,3.35-.34,4.95-.8a53.09,53.09,0,0,1,8.57-1.45c1-.13,2.06-.4,3.1-.43,2.77-.08,5.54-.1,8.32-.08a60.6,60.6,0,0,1,7.26.24c3.61.45,7.18,1.18,10.76,1.85.89.16,1.73.6,2.61.77s1.78,0,2.63.25c2.51.58,5,1.26,7.49,1.9.88.22,1.77.41,2.65.65,1.33.36,2.64.8,4,1.09a4,4,0,0,0,1.52-.3C187.69,124.63,187,124.06,185.86,124.22Z"/><path d="M121.58,108.9c-.1.61.55,1.31.79,2,.36,1.07.67,2.15.93,3,0,1.58,1.1,2.91,2.16,2.71,1.32-.25,2.61-.66,3.92-1s2.89-.59,4.29-1c.6-.19,1.55-.79,1.53-1.16a32.87,32.87,0,0,0-.71-4.37c-.18-1.11-.34-2.23-.46-3.36s-.7-1.57-1.74-1.39-2.35.61-3.53.88a10.55,10.55,0,0,0-1.62.2,36.2,36.2,0,0,0-4.15,1.9A2.84,2.84,0,0,0,121.58,108.9Z"/><path d="M189.22,135.32a2.85,2.85,0,0,0-.82-1.65,3.6,3.6,0,0,0-1.81-.34,33.16,33.16,0,0,0-4.1-.17c-.58,0-1.29,0-1.54,1.14-.17.76.3,1.52-.06,2-.68.91,0,1.51.19,2.24l-.27,0a6.79,6.79,0,0,0-.09,1.27c0,.34.37.67.35,1-.14,1.66.19,2.12,1.8,2.34,1,.14,2.07.33,3.12.49a20.18,20.18,0,0,0,2.43.31c.33,0,.93-.31,1-.52.13-1.52.16-3.05.18-4.57,0-.1-.34-.21-.3-.18a3.89,3.89,0,0,0,.18-.89A16.14,16.14,0,0,0,189.22,135.32Z"/><path d="M119.77,161c1.1.14,2.22,0,3.33.12a22.77,22.77,0,0,0,2.4.35c1.53-.06,3.05-.28,4.57-.44,0,0,0,.1,0,.16.37,0,.74-.09,1.11-.09,1.44,0,1.4,0,1.31-1.41a33.15,33.15,0,0,1,0-4.11c.05-1-.3-1.5-1.28-1.51-3.62,0-7.24,0-10.86-.08-.67,0-1.22-.16-1.45.6a7.09,7.09,0,0,0-.38,1.85c0,.95.23,1.91.15,2.85S118.79,160.86,119.77,161Z"/><path d="M173.87,184h4c.62,0,.93-.21.89-1a16.78,16.78,0,0,1,.21-2.64,17.31,17.31,0,0,0,.27-2.76c-.09-1.58-.63-2-2-2l-8-.07c-1.58,0-2.48.53-2.58,1.82a26.15,26.15,0,0,0,.16,3.18,2.18,2.18,0,0,1-.1.71c-.46,1.55.27,2.67,1.86,2.71,1.77.05,3.54,0,5.31,0C173.86,184,173.87,184,173.87,184Z"/><path d="M171,165.16c-.28-.8-1.08-.69-1.66-.74a35,35,0,0,0-5.21-.18,2.4,2.4,0,0,0-2.25,1.19,10.85,10.85,0,0,1-2.24,3.24,5.07,5.07,0,0,0-2.08,4.07c4.41.78,8.87.47,13.57.35,0-2.33,0-4.56,0-6.79A4,4,0,0,0,171,165.16Z"/><path d="M150.69,135c-.11.63-.24,1.25-.33,1.88a2.4,2.4,0,0,0,2,2.69c.43,0,.89-.22,1.32-.19,1.32.11,2.62.3,3.94.45,1.78.21,3.56.39,5.34.61,1,.12,2.13-.66,2.09-1.51-.05-1.05-.07-2.1-.16-3.15-.07-.79-.23-1.57-.41-2.74H151C150.89,133.8,150.79,134.4,150.69,135Z"/><path d="M168.37,124.35a4.37,4.37,0,0,0-1.33-.46c-.81-.2-1.64-.35-2.45-.55-1.06-.25-2.11-.54-3.16-.81a1.12,1.12,0,0,1-.66-.06c-1.57-1-3.2-.29-3.36,1.51a24.75,24.75,0,0,0-.12,3c0,1.16.21,2.31.32,3.46,4,.33,7.77.77,11.57,0,.06-.81.12-1.51.15-2.21a16.39,16.39,0,0,1,0-2.22C169.54,125.07,168.93,124.71,168.37,124.35Z"/><path d="M169.24,152.56c1.39-.05,2.79-.18,4.35-.28.15-2.27.35-4.46.4-6.64,0-.67-.09-1.54-1.07-1.71-.64-.12-1.28-.24-1.92-.33-2.61-.34-5.21-.71-7.82-1a2.18,2.18,0,0,0-2.24,1.74,13.57,13.57,0,0,0,1.34,6.44c.79,1.65,1.61,2,3.26,1.16-.33.24-.42.32-.8.61C166.45,152.57,167.85,152.6,169.24,152.56Z"/><path d="M127.34,151.28a4.2,4.2,0,0,0,1.55.23c2,0,4.08,0,6.12,0,1.36,0,2.18-.41,2.35-1.8a46.53,46.53,0,0,0,.32-5.54c0-1.25-.71-1.75-2-1.63s-2.46.3-3.69.39c-1.84.14-3.75-.14-5.48,1.11a1.49,1.49,0,0,1,.12.45c.06,2,.09,4,.18,5.94A1.11,1.11,0,0,0,127.34,151.28Z"/><path d="M158.6,143.09c.07-.16-.24-.61-.48-.73a2.22,2.22,0,0,0-2.43.23l2,1.91A8.52,8.52,0,0,0,158.6,143.09Z"/><path d="M138.63,169.68a12.2,12.2,0,0,0,0,2.26,1.26,1.26,0,0,0,.87.82c1.58.09,3.18,0,4.78,0l.12-.38c-2.08-1.09-3.27-3.37-5.63-4.14C138.71,168.82,138.65,169.25,138.63,169.68Z"/><path d="M123,172.67a10.7,10.7,0,0,1,1.6.06c.87,0,1.74.12,2.61.13,2.38,0,4.77,0,7.15,0,1,0,1.69-.42,1.67-1.28-.05-2.45,0-4.91,0-7.35a7.35,7.35,0,0,0-1.33-.35c-1.9-.06-3.79-.08-5.69-.12s-3.88-.07-5.82-.06c-.32,0-.89.24-.91.42-.11.88-.91,1.6-.46,2.65.19.45-.17,1.13-.27,1.71a1.36,1.36,0,0,0,0,.45c.11.87.18,1.75.35,2.61C122,172.13,122.14,172.75,123,172.67Z"/><path d="M144.9,130.44c2.76-.06,5.51,0,8.26,0,0,.1.08.21.13.31.51-.26,1.21-.4,1.48-.82a3.34,3.34,0,0,0,.16-1.75c-.07-1.26.78-2.55-.07-3.81,0,0,.24-.2.28-.32a1.78,1.78,0,0,0-1.43-2.56c-1.37-.1-2.75-.16-4.13-.18s-2.81,0-4.21,0a1.8,1.8,0,0,0-2,2c0,.52.13,1,.12,1.56,0,1.3-.17,2.59-.17,3.89C143.36,129.76,143.68,130.47,144.9,130.44Z"/><path d="M156.55,59.23c-1.83-.06-3.66-.08-5.5-.08s-3.45,0-5.17.06c-2.35,0-4.7.1-7,.18a.55.55,0,0,0-.44.28,4.22,4.22,0,0,0-.29,1.29c0,1.36.09,2.71.15,4.31,2-.18,3.76-.4,5.5-.46,2-.06,3.92,0,5.88,0,1,0,2,0,3,0,.44,0,.9,0,1.35,0,1.42,0,3,1,3.86-.43.06-1.13.09-2,.17-2.85C158.17,60.4,157.5,59.26,156.55,59.23Z"/><path d="M141.74,144.57a24.47,24.47,0,0,1,2.29-2.06,3,3,0,0,0-3.5.33c-.7.48-.36,1.2-.22,1.69A.86.86,0,0,0,141.74,144.57Z"/><path d="M137.44,132.76c-2.12-.2-2.45,0-2.63,2.2a27.42,27.42,0,0,0-.08,3.27c0,1,.5,1.88,1.61,1.86,1.91,0,3.82-.2,5.73-.32,1.19-.07,2.39-.25,3.57-.22,1.79.06,2.25-.24,2.51-2,.09-.56.09-1.12.15-2-.06-.42-.14-1.13-.26-1.82a.63.63,0,0,0-.34-.42,8.78,8.78,0,0,0-1.95-.4c-1.59,0-3.19.05-4.78,0C139.79,132.94,138.61,132.88,137.44,132.76Z"/><path d="M170.26,67c3.32.71,6.66,1.35,10.07,2,.48-2,2.07-3.67.95-5.78-.31,0-.62.15-.82.06a12.43,12.43,0,0,0-4.17-1.14c-2.1-.21-4.13-1-6.28-1.07-1.28-.07-2.57-.26-3.84-.45-.22,0-.4-.28-.65-.47a19.4,19.4,0,0,0-2.44-.23,5,5,0,0,0-2.19.44c-.27.14-.11,1-.21,1.55s-.33.92-.36,1.38a6.25,6.25,0,0,0,.21,1.41l-.26.34C163.52,66,167,66.26,170.26,67Z"/><path d="M110.45,183.12c.85,0,1.7.09,2.54,0s1.68-.14,1.65-1.38.1-2.6.15-3.9h0a10.67,10.67,0,0,0,0-1.79c0-.33-.34-.88-.57-.9a44.13,44.13,0,0,0-4.73-.28c-.29,0-.77.55-.84.91-.29,1.5-.45,3-.68,4.52C107.67,182.33,108.44,183.21,110.45,183.12Z"/><path d="M108.69,171c0,1,.75,1.31,1.5,1.49a11.45,11.45,0,0,0,2.34.21c1.69,0,3.38.1,5.07,0a1.73,1.73,0,0,0,1.28-.78,6.75,6.75,0,0,0,.43-2.17,19,19,0,0,0,.07-2.72,10.62,10.62,0,0,0-.42-2.57c-.41-1.27-1.37-1-2.29-.64-.08,0-.2-.12-.3-.12-2.07,0-4.14-.06-6.21,0-.25,0-.64.15-.71.32a9.11,9.11,0,0,0-.73,2.44C108.6,167.92,108.69,169.45,108.69,171Z"/><path d="M117.35,201.39c.13.67-.09,1.82,1,2a15.2,15.2,0,0,0,2.43,0c1.08,0,2.16,0,3.24.07.25,0,.5.21.74.21,1.51,0,3,0,4.53-.15.49,0,1.3-.41,1.34-.72a27.84,27.84,0,0,0,.2-3.77c0-.88,0-1.76,0-2.64-.14-1.33-1.19-1.27-2.29-1.25-2.15,0-4.32,0-6.47-.06h-4.29l-.42.77c.05.61.09.92.09,1.23s-.12.44-.12.66A18,18,0,0,0,117.35,201.39Z"/><path d="M111,76.18c.13.55.25,1.1.37,1.65.34,1.58.93,2,2.47,1.57s3.06-.94,4.6-1.39c2.44-.7,4.88-1.41,7.33-2.06a1.73,1.73,0,0,0,1.4-2.33l-.24-.83c-.3-2.62-.6-3.2-3.14-2.65-.18,0-.36.1-.55.16-.63.19-1.26.4-1.89.57-1.39.38-2.8.7-4.17,1.13s-2.82,1.09-4.26,1.5C111.07,74,110.58,74.62,111,76.18Z"/><path d="M113.1,64.94a23.29,23.29,0,0,0-3.77,1c-1.23.44-2.37,1.12-3.59,1.59-1.4.54-1.55.67-1.39,2.22,0,.38.13.75.2,1.13l-.14,0a16.49,16.49,0,0,1,.72,1.61c.29.88.86,1,1.62.7,2.46-.9,4.89-1.91,7.39-2.63.9-.26,1.16-.71,1.06-1.34a16.17,16.17,0,0,0-.84-2.64c0-.13-.2-.27-.18-.38C114.33,65.4,113.93,64.79,113.1,64.94Z"/><path d="M131,217.49c.19-1-.44-1.62-1.82-1.68-1.88-.08-3.76.06-5.64,0-1.45-.07-2.91.17-4.3.15s-1.72.45-1.76,1.41c-.08,1.9,0,3.81,0,5.71,0,1.18,1,1.46,1.84,1.64a10.75,10.75,0,0,0,2.59-.06c.82,0,1.65,0,2.46-.17a12.79,12.79,0,0,1,2,.17,18.72,18.72,0,0,0,3.56-.38c.31-.05.83-.52.79-.65-.27-.94.28-1.71.36-2.55A26.56,26.56,0,0,0,131,217.49Z"/><path d="M150.29,203.13a.86.86,0,0,0,.67.53c1.91.13,3.82.23,5.73.28,2.16.05,4.31,0,6.46.07a1.32,1.32,0,0,0,1.2-1.75c0-.13-.15-.27-.14-.4.14-1.57.31-3.15.45-4.61-.15-1-.58-1.59-1.56-1.58-1.72,0-3.44.06-5.16,0s-3.58-.16-5.36-.21c-2.14-.06-2.76.56-2.71,2.72,0,.53.34,1.15.17,1.58C149.57,201,150.11,202,150.29,203.13Z"/><path d="M193.68,216.78c-1.17.06-2.4-.11-3.63-.05-1.69.08-3.39-.14-5.08-.15a24.67,24.67,0,0,1-2.55.18c-1.19-.13-1.54.38-1.54,1.41,0,1.6,0,3.2,0,4.79-.13,1-.2,1.79,1.16,2.13a9,9,0,0,0,2.1-.06c1.25.07,2.5.14,3.76.14,1.1,0,2.2-.16,3.29-.15,1.32,0,2.63.2,4,.24a2,2,0,0,0,2-2.11c-.12-1.47-.15-3-.4-4.39a3.15,3.15,0,0,0-1.09-1.68A2.79,2.79,0,0,0,193.68,216.78Z"/><path d="M189.14,227.64c-.41,0-1.46-.37-1.51.67-.09,1.66-.12,3.33-.11,5,0,1,.65,1.43,1.56,1.5s1.87.09,2.8.1c2.09,0,4.19,0,6.63,0-.3-2.47-.57-4.75-.88-7.34C194.82,227.57,192,227.51,189.14,227.64Z"/><path d="M193.27,237.51c-.88,0-1.12.49-1.13,1.15a45.26,45.26,0,0,0,.07,5.34c.18,1.95.9,2,2.32,2a8.45,8.45,0,0,1,1.22.09V246a27.77,27.77,0,0,0,3.16,0c.34,0,.93-.59.91-.87-.14-1.93-.34-3.86-.66-5.76-.13-.79-.5-1.74-1.42-1.82C196.26,237.39,194.76,237.56,193.27,237.51Z"/><path d="M147.8,197a1.21,1.21,0,0,0-1-1.46,36.57,36.57,0,0,0-4.58-.32c-.87,0-1.74,0-2.62,0a53.22,53.22,0,0,0-5.51.11,1.59,1.59,0,0,0-1.2,1.78c.16,1.42.17,2.87.23,4.3,0,.57,0,1.14,0,2l7.81.26c.25,0,.52-.1.78-.09,1.55,0,3.11.07,4.67,0a1.18,1.18,0,0,0,.88-.64c.21-.67.6-1.39.06-2.1C148.36,199.71,147.49,198.3,147.8,197Z"/><path d="M150.27,183a4.32,4.32,0,0,0,1.8.68c2.91.07,5.82,0,8.73,0,0,.06,0,.12,0,.18.48,0,1,0,1.45,0,1.36-.08,1.6-.39,1.83-1.81a4.75,4.75,0,0,0,.1-1.69c-.14-.87.25-1.83.11-2.71-.32-1.9-.39-2-2.15-2.1s-3.26-.12-4.89-.15-3.27,0-4.89-.07c-1.35-.1-2.16.42-2.19,1.72,0,1.5,0,3,0,4.49C150.23,182.09,149.55,182.63,150.27,183Z"/><path d="M121.21,227a19.86,19.86,0,0,0-2.89-.21c-1.68,0-3.35,0-5.06,0-1.38,2.49-1,4.79-.37,7.16,2.68,0,5.38,0,8.09,0,.36,0,1-.48,1-.76a12.15,12.15,0,0,0,.1-2.76c-.1-.63-.28-1.25-.35-1.89,0-.24.2-.51.37-.92C121.93,227.44,121.6,227,121.21,227Z"/><path d="M153.69,91.66c-1.86,0-3.72-.21-5.58-.14-2.22.08-4.43.48-6.66.54-1.68,0-1.93,1.24-1.77,2.49s0,2.5.16,3.75c0,.43.41,1.14.73,1.19a21.22,21.22,0,0,0,3.39.21c2.7,0,5.39,0,8.09,0a6.41,6.41,0,0,0,2.41-.16,2.19,2.19,0,0,0,.89-1.61c.13-1.31,0-2.63,0-4h.29A2.2,2.2,0,0,0,153.69,91.66Z"/><path d="M166.92,85.18c-2.14-.32-4.26-.69-6.4-1-1.37-.21-2.74-.42-4.11-.55-1.8-.17-3.61-.19-5.39-.41-1.06-.13-2.59.92-2.41,1.82a15.93,15.93,0,0,1,.29,2.29c0,1,.34,1.78,1.54,1.83a23.32,23.32,0,0,1,2.51.15c1.43.2,2.85.47,4.27.73q3,.54,6,1.12c1,.21,2.07.48,3.1.72,1.67-.09,1.89-.3,2-1.94.07-.87.14-1.73.23-2.59A2,2,0,0,0,166.92,85.18Z"/><path d="M165.17,104.46a14.64,14.64,0,0,0-3.21-.85c-2.87-.28-5.58-1.5-8.55-1.37-1.52.06-2.07.47-1.9,2a5.42,5.42,0,0,1-.21,1.42c-.13.77-.29,1.53-.37,2.3s-.1,1.71-.13,2.56c-.08,1.75.19,2.09,2.17,2.3,2.39.25,4.76.62,7.13,1,1.59.28,3.08,1.32,4.85.6a33.41,33.41,0,0,1,.69-4.37c.28-1-.25-1.93.54-3A1.89,1.89,0,0,0,165.17,104.46Z"/><path d="M150.78,67.16a6.66,6.66,0,0,0-1.26.35,25.11,25.11,0,0,0,0,2.88,5.13,5.13,0,0,0,.63,2c.13.24.78.25,1.2.27,2.24.14,4.49.15,6.71.41a64.34,64.34,0,0,1,6.58,1.18c2.52.56,3.64,0,3.8-2.6,0-.29-.12-.65,0-.87.37-.64.38-1.09-.39-1.42a7.59,7.59,0,0,0-1.49-.73c-1.92-.3-3.85-.52-5.79-.72a21,21,0,0,1-3.59-.3A18.94,18.94,0,0,0,150.78,67.16Z"/><path d="M188,79l1.56-4.3c-1.15-.45-2.18-.89-3.25-1.25-1.66-.57-3.32-1.43-5-1.54-2.11-.14-3.85-1.49-6-1.4-1.12,0-2.28-.57-3.6-.94-.25.87-.52,1.76-.74,2.65-.13.51,0,1.23-.28,1.53-.76.75-.29.94.35,1.16s1.38.47,2.09.68,1.4.35,2.09.57c1.08.33,2.13.79,3.22,1.06a34,34,0,0,1,7.6,2.38C186.71,80,187.56,80.12,188,79Z"/><path d="M187.16,111.94c-2.1-.86-4.29-1.5-6.46-2.21-.79-.26-1.62-.43-2.39-.72-2.34-.89-4.67-1.82-7-2.72a3.94,3.94,0,0,0-1.32-.36,1.64,1.64,0,0,0-1,.47c-1.17,1.07-1,2.71-1.11,4s-.4,2.74-.54,4.12c-.06.5,0,1.17.88,1.27a10.54,10.54,0,0,1,2.27.59c1.14.4,2.24.93,3.38,1.32,2.14.74,4.3,1.44,6.47,2.12a18.92,18.92,0,0,1,3.43,1,5.4,5.4,0,0,0,4.11.5,15.8,15.8,0,0,1-.29-2.09c0-1.81.19-3.62.17-5.43C187.76,113.14,187.56,112.11,187.16,111.94Z"/><path d="M136.74,107.51c.28,1.61.4,3.26.81,4.84A2,2,0,0,0,139,113.6a22.63,22.63,0,0,0,3.51-.55,18.19,18.19,0,0,1,3.51-.42c1.8.08,2.18-.12,2.4-1.85.28-2.22.65-4.44.84-6.67a4.47,4.47,0,0,0-.62-2.17c-.1-.18-.83-.1-1.26-.06-3.08.29-6.17.51-9.24,1-.76.11-2.22-.17-2.19,1.47.08.29.15.58.23.87C136.36,106,136.61,106.72,136.74,107.51Z"/><path d="M177.37,85.36c.37-1.89.71-3.66,1.06-5.48-1.39-.53-2.58-1.08-3.82-1.43-1.47-.41-3-.66-4.49-1-1.65-.35-3.29-.72-4.94-1s-3.06-.58-4.6-.74a3.9,3.9,0,0,0-2.15.33,2.24,2.24,0,0,0-.75,1.58c-.11,1.22,0,2.45,0,3.75.87.24,1.65.52,2.44.67,1.36.25,2.74.39,4.1.61,1.14.18,2.26.39,3.39.62a16.79,16.79,0,0,1,2.84.68A17.4,17.4,0,0,0,177.37,85.36Z"/><path d="M173.74,96.16c-1.89-.64-3.86-1.11-5.8-1.61-2.66-.67-5.33-1.29-8-2a1.84,1.84,0,0,0-2.13,1.24c-.22,1.66-.4,3.33-.64,5.33.24.28.54,1,1,1.13,2,.62,4,1,5.95,1.6,2.61.74,5.19,1.52,7.78,2.31.86.26,1.42.08,1.62-.85.15-.65.27-1.31.43-2,.26-1.1.62-2.18.79-3.28A1.73,1.73,0,0,0,173.74,96.16Z"/><path d="M132.09,85a22.65,22.65,0,0,0-2.69.59.91.91,0,0,0-.47.69c.15,1.6.31,3.19.59,4.77,0,.24.68.59,1,.54,1.18-.18,2.33-.55,3.51-.75a11.46,11.46,0,0,1,1.85,0,2.64,2.64,0,0,1,.79-.42c2.91-.39,5.83-.77,8.75-1.09,1-.11,1.27-.58,1.19-1.5-.13-1.38-.18-2.77-.26-4.28-1.21,0-2.33-.06-3.43,0a19.93,19.93,0,0,0-5.13.49A41.1,41.1,0,0,1,132.09,85Z"/><path d="M135.69,76c-1.83.42-3.68.76-5.52,1.12l0-.12c-1.51.35-3,.69-4.54,1.06-.53.13-1,.37-1.54.53a30.69,30.69,0,0,1-3.58,1.09c-1.34.26-2,1.08-1.54,2.38a2.59,2.59,0,0,1,.18,1.08c-.28,1.79,1.3,2.71,3,2.07a60.71,60.71,0,0,1,7.77-2.14c2.15-.49,4.37-.69,6.54-1.09.31,0,.76-.47.77-.73a39.57,39.57,0,0,0,0-4.49C137.12,76,136.48,75.86,135.69,76Z"/><path d="M137.46,99c.06-1.18,0-2.37,0-3.55,0-2.07-.77-2.87-2.45-2.48-2,.47-4.05,1-6.07,1.49a9.65,9.65,0,0,0-1.14.4,28.85,28.85,0,0,1-2.77,1c-1.62.42-1.65.39-1.24,1.93s.81,3.09,1.24,4.63a1.91,1.91,0,0,0,2.21,1.09c.93-.36,1.88-.67,2.82-1,.73-.29,1.42-.68,2.16-.89a33.48,33.48,0,0,1,3.79-.87A1.59,1.59,0,0,0,137.46,99Z"/><path d="M142.82,81.44c.11,0,.22-.07.33-.07,1.93-.14,3.85-.37,5.77-.38,1.4,0,2.81.26,4.21.39a2.17,2.17,0,0,0,2.55-2.58c-.07-1.06-.09-2.13-.15-3.3A27.38,27.38,0,0,0,152.4,75c-1.57-.06-3.15,0-4.72.08-2.28.08-4.56.17-6.83.36-.34,0-.83.56-.91.93a16.55,16.55,0,0,0-.13,2.45C139.72,81.38,140.65,81.57,142.82,81.44Z"/><path d="M104.25,244.79h10.13c.06-1.28.17-2.61.16-3.94s-.15-2.62-.23-4a29.07,29.07,0,0,0-3.47-.43c-1.9,0-3.8.17-5.7.22-.89,0-1.9.65-1.8,1.42.18,1.42-.56,2.67-.58,4a11.12,11.12,0,0,0,.28,2.57C103.06,244.79,103.83,244.79,104.25,244.79Z"/><path d="M108.79,213.11c2.5,0,5,.06,7.5.12.52,0,1,.3,1.56.28a29.21,29.21,0,0,0,3.07-.37c.13,0,.22-.32.31-.5.25-.47.45-.94,0-1.4,1.07-.91.34-2.14.54-3.21a1.71,1.71,0,0,0-1.77-2.11c-1.72-.06-3.44-.07-5.16-.11-2.23-.06-4.46-.11-6.7-.22-.71,0-1.2.14-1.33.86-.25,1.31-.5,2.63-.64,4a18.7,18.7,0,0,0,.11,2.56C107.05,213,107.92,213.09,108.79,213.11Z"/><path d="M121.64,248.05a5.73,5.73,0,0,0-3.33-.35c-1.49.55-2.84-.08-4.25,0a1.66,1.66,0,0,0-1.66,2,3.07,3.07,0,0,1,.2,1.68c-.34.79.64.68.58,1.17,1.32,0,2.64.15,4,.13s2.51-.23,3.76-.22c1,0,2.07-.87,1.89-1.8a6.26,6.26,0,0,0-.31-.82l.33-.27C122.43,249,122.14,248.21,121.64,248.05Z"/><path d="M106.61,224.28c2.32,0,4.63.09,6.94.14.3,0,.6,0,1,0a4,4,0,0,0,.48-.83c.21-.75.69-1.42.43-2.3a5.56,5.56,0,0,1,0-1.63,4.56,4.56,0,0,0,0-.51c-.16-1-.33-2-.5-3a2.84,2.84,0,0,1-.72,0,20.92,20.92,0,0,0-7-.39c-.77,0-1.82.25-1.69,1.56.14,1.54-.65,3-.29,4.61a1.85,1.85,0,0,1-.07.77C104.83,223.87,105.32,224.3,106.61,224.28Z"/><path d="M107.27,247.92c-.18-.09-.33-.24-.5-.25a12.66,12.66,0,0,1-1.75-.1,2.4,2.4,0,0,0-2.76,1.22c-.18.52-.08,1.13-.22,1.68-.29,1.1.42,1.54,1.22,1.69a21.35,21.35,0,0,0,4.49.48,2.47,2.47,0,0,0,1.75-1.28,4.84,4.84,0,0,0,.14-2.49A1.65,1.65,0,0,0,107.27,247.92Z"/><path d="M105,233.79c1.24,0,2.48.07,3.71.06a.91.91,0,0,0,.7-.29c1.09-1.84.31-3.85.46-5.78,0-.07-.14-.15-.22-.23-.79-.86-1.86-.78-2.87-.84-.56,0-1.12,0-1.86,0a16.78,16.78,0,0,0-.42,1.75,35.72,35.72,0,0,0-.42,4.12C104.1,233,104.15,233.8,105,233.79Z"/><path d="M108.29,192.55c1.43,0,2.85,0,4.28.06h9.22c.81.06,1-.13,1.12-1.37a14.09,14.09,0,0,0-.35-3.94c-.12-.78-.23-1.28-1.08-1.39-.64-.08-1.37-.46-1.89-.25-1.17.46-2.19.05-3.27-.15a1.82,1.82,0,0,0-1.16,0c-.8.5-2.66.89-3.11.29s-1-.25-1.48-.24a3.76,3.76,0,0,0-1.52.14c-.49.24-1.12.72-1.19,1.18-.22,1.59-.22,3.22-.35,4.83C107.47,192.35,107.72,192.55,108.29,192.55Z"/><path d="M190.63,66c-1-.34-2.07-.64-3.11-.94-.41-.12-.84-.17-1.24-.31-.8-.28-1.69-.36-2,.54-.5,1.56-.77,3.2-1.1,4.68,1.69.52,3.06.92,4.41,1.37,1.86.61,3.69,1.28,5.55,1.89,1.62.53,3.26,1.06,4.92,1.5a1.21,1.21,0,0,0,1.07-.46c.54-1.52.94-3.08,1.36-4.51-1.29-.6-2.27-1.15-3.31-1.53C195,67.45,192.82,66.74,190.63,66Z"/><path d="M109,109.94a11.36,11.36,0,0,0,2.29-.6c2.77-1.08,5.54-2.21,8.29-3.34a12.12,12.12,0,0,1,1.59-.76c1.1-.26,1.27-1.09,1.65-2.09a46.5,46.5,0,0,1-1.52-4.77c-.23-1.09-.93-.81-1.53-.85-.22,0-.44.36-.7.48-2.6,1.21-5.2,2.38-7.78,3.6a20.82,20.82,0,0,1-3.37,1.69,1.46,1.46,0,0,0-1.23,1.79,31.18,31.18,0,0,0,1.58,4.43A.89.89,0,0,0,109,109.94Z"/><path d="M92.91,64.53c.39,1.23.68,2.5,1,3.83a1.25,1.25,0,0,1,.56.18,1.72,1.72,0,0,0,2.24-.06A12.44,12.44,0,0,1,99,67.26c2.56-1,5.16-2,7.72-3,1.14-.45,2.19-1.13,3.33-1.53a29.58,29.58,0,0,1,3.23-.73c1.64-.36,3.29-.68,4.91-1.11s3.35-1.1,5.06-1.5,3.25-.54,4.89-.79,3.49-.57,5.25-.81c2.14-.29,4.28-.65,6.43-.78s4.51,0,6.77,0c1.87,0,3.75-.23,5.62-.19,2.39.05,4.78.24,7.17.4.72,0,1.45.24,2.17.32,1.79.19,3.6.29,5.37.56,2.24.34,4.45.83,6.68,1.23a21.32,21.32,0,0,1,3.53.58c2.69,1,5.57,1.1,8.3,2,2,.6,4,.88,6,1.57,1.51.53,3.08.92,4.59,1.48s2.85,1.25,4.31,1.8a.78.78,0,0,0,1.17-.59c.7-2.4,1.58-4.76,2.27-7.16a32.46,32.46,0,0,0,.8-4.25c.11-.8-.37-1.2-1.12-1.57-1.74-.85-3.38-1.89-5.07-2.84-.55-.31-1.17-.79-1.72-.75-1.27.08-1.77,1.28-2.39,2.17-1,1.48-1.24,3.38-2.55,4.77-.71.76-.92,2-1.44,3s-.59,2-2,1.79a11.8,11.8,0,0,1-2.24-.68c-1.76-.7-3.47-1.53-5.25-2.14a12.09,12.09,0,0,1-4.28-2,12.71,12.71,0,0,1,.22-1.33c.22-.78.56-1.54.7-2.33.21-1.19.23-2.42.47-3.6.33-1.65.88-3.25,1.17-4.9s-.23-2-1.73-1.95a2.9,2.9,0,0,1-.78-.06c-1.81-.44-3.62-.91-5.43-1.35-.12,0-.34,0-.39.08a7.38,7.38,0,0,0-1.16,2,48.32,48.32,0,0,0-1.16,5.82c-.17,1.24-1.12,2.26-.84,3.62.08.35-.34.91-.68,1.22-1.43,1.33-3.21.53-4.82.63-1.78.12-3.58-.27-5.36-.21s-1.72.22-2-1.22a31.3,31.3,0,0,1-.39-3.49c0-.34,0-.68,0-1-.14-1-.37-1.91-.46-2.88-.12-1.31-.1-2.63-.21-3.94-.06-.79-.37-1.47-1.33-1.46-1.26,0-2.51,0-3.77.1a10.45,10.45,0,0,1-2.3.3c-1.91-.36-2.67-.06-2.82,2.1s-.22,4.14-.31,6.22a30.51,30.51,0,0,1-.18,3.83,2,2,0,0,1-1.33,1.26c-1.63.31-3.31.36-5,.56-1.41.16-2.81.43-4.22.57-.88.08-2,.54-2.46-.62C128.48,51,126.82,47.62,126,44a1.36,1.36,0,0,0-1.66-1.21,22.69,22.69,0,0,0-2.92.85c-1.41.46-2.84.92-4.22,1.49-.53.22-1.33.74-1.32,1.1a8.66,8.66,0,0,0,.69,2.89c.59,1.5,1.35,2.93,1.95,4.43s1,2.9,1.49,4.25A16,16,0,0,1,117.91,59c-1.18.45-2.41.76-3.6,1.18a21.33,21.33,0,0,0-2.66,1.11c-.94.48-1.79,1.18-2.75,1.59s-2.8-.69-3.14-1.86a3.06,3.06,0,0,0-.37-.69c-.51-.88-1-1.75-1.54-2.65-.81-1.47-1.57-3-2.4-4.43a1.08,1.08,0,0,0-.85-.5,9.43,9.43,0,0,0-2.27.68c-1.06.48-2,1.12-3.12,1.6-1.36.6-2.78,1.06-4.14,1.68a1.14,1.14,0,0,0-.42,1C91.36,60,92.18,62.25,92.91,64.53Z"/><path d="M158.09,193a32.77,32.77,0,0,0,3.58.23c.53,0,1.07-.33,1.6-.3,1.18.06,2.35.33,3.53.36,1.54,0,2.23-.69,2.24-2.23,0-1.36,0-2.72,0-3.95a3.8,3.8,0,0,1-.82-.23c-.32-.2-.59-.63-.9-.65a24.54,24.54,0,0,0-2.57.1c-1.35.06-2.7.22-4,.16s-2.75-.6-4.15.32c-.07,1.22-.2,2.47-.19,3.71a4,4,0,0,0,.42,1.93C157,192.78,157.63,193,158.09,193Z"/><path d="M102.41,74.46c.38-1.42-.53-2.54-1-3.76-.11-.3-.49-.49-.69-.68a7.63,7.63,0,0,0-1.46.29c-.94.44-1.8,1-2.75,1.4a1,1,0,0,0-.68,1.35c.23,1,.6,1.87.9,2.81s.74,1.19,1.63.81c1.17-.5,2.36-.94,3.51-1.47A1.22,1.22,0,0,0,102.41,74.46Z"/><path d="M105.74,91.75c1.71-.72,3.43-1.39,5.14-2.11s3.56-1.68,5.4-2.34c1-.37,1.26-.88.93-1.77a14.27,14.27,0,0,1-1.12-2.79c-.12-.86-.61-1-1.12-.89a12.67,12.67,0,0,0-2.4.7c-.74.27-1.45.64-2.19.93s-1.68.59-2.49,1a25.76,25.76,0,0,0-4.12,2c-.94.64-3,.4-2.58,2.67.11.21.24.41.33.63a10.93,10.93,0,0,1,.59,1.81c.18,1.09.81,1.53,1.84,1.1C104.57,92.41,105.13,92,105.74,91.75Z"/><path d="M109.91,99.37A5.21,5.21,0,0,0,111.64,98a2.76,2.76,0,0,0,.14-1.95,32.32,32.32,0,0,0-1.31-3.39c-1.12.48-2.32,1-3.55,1.52s-2.63.76-3.32,2c.53,1.37,1,2.61,1.48,3.84a1.49,1.49,0,0,0,2.35.71C108.22,100.24,109.11,99.87,109.91,99.37Z"/><path d="M109.39,203.46c1.37,0,2.74,0,4.11,0s1.54-.84,1.81-1.64a5.59,5.59,0,0,0-.2-2c.55-.68.94-3.55-.2-4.49a2,2,0,0,0-1-.57c-1.31,0-2.62.1-3.92,0-1.9-.11-2.77.61-2.91,2.55-.07.94-.32,1.87-.33,2.81C106.72,202.89,106.69,203.36,109.39,203.46Z"/><path d="M177.31,248.78a4.32,4.32,0,0,1-1.75-.11,1.43,1.43,0,0,0-1.91,1.2c-.06.44-.13.89-.15,1.34-.06.8,1,2.21,1.69,2.24.89,0,1.78.08,2.67.07,1.33,0,2.66-.17,4-.06a1.79,1.79,0,0,0,2.13-1.18,4,4,0,0,0-.05-3.38A17.61,17.61,0,0,0,177.31,248.78Z"/><path d="M189.3,244.21c0-.54,0-1.07,0-1.61,0-1.27.12-2.54.11-3.81,0-1-.64-1.37-1.6-1.4-2.27-.06-4.55-.17-6.82-.25-.86,0-2,.88-2,1.54.08,1.51.14,3,.2,4.52h-.07c0,.23,0,.46,0,.68.11,1.57.31,1.84,1.73,2a29.31,29.31,0,0,0,3.11,0c.28,0,.56-.28.82-.25.92.1,1.82.36,2.74.4C188.78,246.06,189.23,245.53,189.3,244.21Z"/><path d="M175.46,245.49c.83-.59,1.52-1.18,1-2.54-.34-.86.07-2,.16-3.29a3.87,3.87,0,0,1-.37-1.48c.11-1.12-.8-.93-1.24-1-1.44-.07-2.89.11-4.33.06-2.34-.08-3,.62-2.73,2.77a22.15,22.15,0,0,1,.26,2.93c0,1.84.59,2.63,2.24,2.77,1.21.1,2.42.11,3.62.09A2.58,2.58,0,0,0,175.46,245.49Z"/><path d="M170.65,250.54l-.22.14c-.06-.67-.13-1.34-.2-2.1-2.68.59-1.45,2.71-1.78,4.14l1.67.13c.57-.88.57-.88.19-1.12.22-.41.4-.74.57-1.07Z"/><path d="M196.66,248.58a24.16,24.16,0,0,0-4.95.09c-.31,0-.61.08-.92.09-.74,0-1.48,0-2.22,0h-.8a4.18,4.18,0,0,0-.53,3.36c.15.62.15,1.32,1.15,1.32,2,0,4.05.16,6.08.2,1.78,0,3.57.05,5.36,0a1.12,1.12,0,0,0,1.12-1.53c-.14-.44-.16-.93-.32-1.37a2.78,2.78,0,0,0-1.41-1.94C198.25,248.28,197.49,248.73,196.66,248.58Z"/><path d="M0,300H300V0H0ZM88.12,54.39c4.74-2.09,9.46-4.22,14.3-6.38l6,11.68,8.54-3.31c-1.4-4.25-2.79-8.46-4.22-12.76l9.46-3.12c1.22-.4,2.47-.71,3.65-1.2.81-.34,1.06,0,1.32.64q2.28,6,4.6,11.94a3.53,3.53,0,0,0,.22.43c2.67-.36,5.32-.72,8-1.06.67-.09.74-.48.73-1q-.1-4.64-.19-9.27c0-.87,0-1.74,0-2.82l16.08-.42V51.43c2.85,0,5.47,0,8.09,0a1.34,1.34,0,0,0,.94-.83c1-3.79,1.87-7.6,2.79-11.41.07-.29.19-.57.34-1l14.57,2.94c-.45,1.64-.88,3.22-1.32,4.81-.68,2.44-1.34,4.89-2.07,7.32-.21.72-.08,1.09.64,1.39,2.65,1.1,5.29,2.26,8.06,3.46L194,44.94l9.68,4.93c1.22.62,2.43,1.25,3.67,1.84a.83.83,0,0,1,.53,1.16c-2.51,8.54-5,17.1-7.51,25.63-3.51,11.78-7.1,23.54-10.53,35.35-.4,1.38-.06,3,0,4.5.17,2.83.41,5.65.61,8.47.29,4,.53,7.91.86,11.85.44,5.31,1,10.61,1.43,15.91.26,2.91.63,5.83.64,8.74,0,1.37.42,2.64.37,4a37.61,37.61,0,0,0,.4,4.35c.18,2.19.3,4.38.5,6.56.27,3.08.6,6.16.88,9.24.18,2,.3,3.93.48,5.89.29,3.06.61,6.11.88,9.17.27,2.91.45,5.83.74,8.74s.63,6.11,1,9.16c.32,2.67.71,5.33,1,8s.62,5.34,1,8,.76,5.32,1.09,8c.37,2.89.69,5.79,1,8.77h9.64v9.12H88v-9.51H98.63c.73-4.28,1.59-8.4,2.13-12.57.82-6.25,1.45-12.54,2.1-18.81q.87-8.29,1.59-16.59c.38-4.45.61-8.92,1-13.38s.81-8.91,1.1-13.37c.26-4,.33-8,.53-12.07.12-2.21.39-4.41.48-6.63.07-1.7-.06-3.41,0-5.11,0-4,.2-8.1.23-12.15,0-4.28,0-8.56,0-12.85q0-5.35.22-10.7a13.58,13.58,0,0,0-.79-4.9q-6.89-20.47-13.72-41C91.5,67,89.63,61.31,87.71,55.63,87.52,55.05,87.42,54.7,88.12,54.39Z"/><path d="M150.13,213.52c1.55.37,3,.68,3.83-.79a3.85,3.85,0,0,1-.14-1.08,10.69,10.69,0,0,0,.41-1.67,19,19,0,0,0-.37-2.9.76.76,0,0,0-.5-.5,16.09,16.09,0,0,0-2.81-.44c-1.93,0-3.86.05-5.78.12-1.37.05-2.73.16-4.12.24,0,1.92,0,3.6,0,5.28a1.86,1.86,0,0,0,1.8,2c1.65,0,3.3.07,5,0C148.33,213.76,149.3,213.32,150.13,213.52Z"/><path d="M146,216.24c-1.29-.18-2.6-.13-3.9-.24a53.32,53.32,0,0,0-7.58.14,1.4,1.4,0,0,0-1,.86,12.14,12.14,0,0,0,.12,2.47l-.22,0a29.25,29.25,0,0,1,.28,3.61c0,1.21.85,1.41,1.56,1.5a3.58,3.58,0,0,0,2.11-.55c1.14-.67,2.07-1.71,3.25-2.28a26.4,26.4,0,0,1,4.65-1.63c1.39-.37,1.95-.95,1.7-2.86A1.48,1.48,0,0,0,146,216.24Z"/><path d="M126.85,226.88c-1.34,0-2,.85-2,2.24,0,1,0,1.92,0,2.76.11.53.17.93.28,1.31.32,1.09,1.33.89,2,.77,1.26-.21,2.9.89,3.7-1.27a23.53,23.53,0,0,1,2.78-4.82c.4-.61.3-.64-.3-.67C131.14,227.09,129,226.9,126.85,226.88Z"/><path d="M128.23,236.81a24.05,24.05,0,0,0-2.54-.16,7.25,7.25,0,0,0-1.51.31c-.15-.09-.45-.41-.77-.42-1.66-.06-3.32,0-5,0-.69,0-1,.31-1.3.83a3,3,0,0,0-.29,2.08,11,11,0,0,1-.28,1.93,1.05,1.05,0,0,0,.09.37A6.37,6.37,0,0,1,117,243c.06,2.11.12,2.18,2.32,2,.19,0,.38,0,.57,0h8.27l.41-2.44c.19-1.16.35-2.33.58-3.49C129.28,238.23,128.82,236.87,128.23,236.81Z"/><path d="M164.26,223.28c.08-1.31.13-2.62.12-3.92,0-2.19-.68-3-2.41-3.06-3.1,0-6.21,0-9.31,0a.19.19,0,0,1,0-.08h-.45c-2.12,0-2.19-.07-2.39,2.49a1.12,1.12,0,0,0,.47,1c1.33.48,2.75.74,4,1.3a21.28,21.28,0,0,1,5,2.66,4.29,4.29,0,0,0,3.13,1.26C163.73,224.81,164.17,224.56,164.26,223.28Z"/><path d="M168.32,233.56c.11-1.22,0-2.46.26-3.65.25-1.38-.17-2.25-1.61-2.34-1.14-.06-2.41-.54-3.34.55.61,1.36,1.66,2.44,2,3.95a6.25,6.25,0,0,0,1.5,2.16c.15.19.68.33.78.24A1.56,1.56,0,0,0,168.32,233.56Z"/><path d="M128,250.37c.41-1.73-.37-2.66-2.09-1.92,0,1,0,2,0,2.94s.38,1.28,1.26.93c.35-.14.71-.24,1.12-.37A4.5,4.5,0,0,1,128,250.37Z"/><path d="M107.28,82.25a8.32,8.32,0,0,0,1.65-.86,3.79,3.79,0,0,0,.74-.92c-.32-1.07-.6-1.93-.82-2.81-.4-1.57-.93-2.1-2.72-1.38-2.16.86-4.27,1.83-6.39,2.77-1.3.57-1.63,1.26-1.16,2.62a15.11,15.11,0,0,0,1.15,2.71,1.37,1.37,0,0,0,1.25.32c1.36-.47,2.68-1.09,4-1.63C105.76,82.77,106.54,82.55,107.28,82.25Z"/><path d="M116.67,183c1.4.11,2.67.27,3.93.31,1.71.06,3.42,0,5.12,0a28.49,28.49,0,0,1,3.8-.09c1.09.15,1.08-.43,1.12-1.1a15.73,15.73,0,0,0,0-2.06c-.08-1.19.52-2.36.11-3.54-.16-.47-.4-1.25-.7-1.29a37.17,37.17,0,0,0-4.6-.34c-2.35-.06-4.71-.12-7.06,0a2.21,2.21,0,0,0-1.57,1.15,5.44,5.44,0,0,0-.14,2.19C116.66,179.7,116.67,181.19,116.67,183Z"/><path d="M136.64,185.92c-1.21.2-2.4-.13-3.59.12-.13,0-.3-.19-.46-.25a1.45,1.45,0,0,0-.57-.14c-1.56.07-3.13.24-4.69.22-.84,0-2.18.68-2.2,1.54a22.09,22.09,0,0,0,.23,3.9c.1.63.34,1.48,1.27,1.5,1.36,0,2.72,0,4.07,0,2.25,0,4.51-.07,6.76,0,1.27.05,1.58-.62,1.66-1.64a22.43,22.43,0,0,0,.18-2.45,4,4,0,0,0-.45-1.18.19.19,0,0,1,0-.11l.85-.78C138.51,186.33,137.52,185.78,136.64,185.92Z"/><path d="M109.16,159.51c0,.77.43,1.71,1.54,1.71,1.5,0,3,0,4.48-.09,1.13-.07,1.43-.65,1.13-1.81a.56.56,0,0,1,0-.25c.14-.79.29-1.58.44-2.36l-.13,0c0-.34,0-.68,0-1,0-1.62,0-1.7-1.69-1.81a30.07,30.07,0,0,0-3.55-.1c-1.06,0-2,.23-1.94,1.72C109.44,156.81,109.08,158.17,109.16,159.51Z"/><path d="M149.2,192.87c1.26,0,2.54.1,3.77-.06a1.77,1.77,0,0,0,1.24-1.13,25.87,25.87,0,0,0-.18-3.16c0-1.69-1.11-2.41-2.87-2.26a22.71,22.71,0,0,1-4.07-.33v.54a6.41,6.41,0,0,0-5.43.38v5.29a10.67,10.67,0,0,0,1.32.62,12.68,12.68,0,0,0,4.3.14,5.51,5.51,0,0,1,1.19.26A2,2,0,0,1,149.2,192.87Z"/><path d="M110.67,151.21c1,0,2,.12,2.92.14,1.32,0,2.64.06,4,0s2.84-.17,4.26-.14,2.34-.63,2.35-2c0-1.09,0-2.19,0-3.08.13-1.12-.19-1.64-1.2-1.55-2.33.21-4.67.13-6.95.88a31,31,0,0,1-4.44.8,5.25,5.25,0,0,0-.87.21c-1.39.5-.92,1.88-1.14,2.83C109.45,149.8,109.36,151.14,110.67,151.21Z"/><path d="M137.68,213.64a23.66,23.66,0,0,0,.75-2.52,21.84,21.84,0,0,0,.16-2.3,2.61,2.61,0,0,0-2.36-2.81c-1.79.05-3.59,0-5.39,0s-3.47-.16-5.19-.08c-.51,0-1.38.54-1.44.91a33.28,33.28,0,0,0-.17,4.47,2,2,0,0,0,2.07,2.22c1,0,1.92,0,2.87-.08s1.86-.13,2.78-.1C133.73,213.43,135.7,213.55,137.68,213.64Z"/><path d="M197.12,77.17A26.56,26.56,0,0,0,192.75,76c-1.11-.18-1.52.39-1.73,1.52a24.24,24.24,0,0,1-.84,2.74A3.24,3.24,0,0,0,192.49,82a18.1,18.1,0,0,1,3.27.74c1,.47,1,0,1.22-.66s.5-1.5.81-2.22C198.22,78.85,198,77.48,197.12,77.17Z"/><path d="M178.93,155.32a12.52,12.52,0,0,0-3.1-.54c-1-.05-2.08.2-3.12.2-1.22,0-2.44-.15-3.66-.18-.27,0-.53.23-1,.43,0,0-.29-.21-.56-.41a12.3,12.3,0,0,0-.08,7.13h2.39c2.62,0,5.23.1,7.84.12,1.4,0,2.45-.73,2.44-1.77a26.44,26.44,0,0,0-.26-3.88A1.6,1.6,0,0,0,178.93,155.32Z"/><path d="M158.12,213.92c2.51.08,5,0,7.54,0,1.52,0,1.76-.33,1.79-2,0-1.39.19-2.79.32-4.6a17.71,17.71,0,0,0-2.46-.82,8.75,8.75,0,0,0-2.92-.2,24.51,24.51,0,0,1-3.75-.15c-.8,0-1.79.19-2.06,1.29a11.37,11.37,0,0,0,.09,5.59C156.77,213.48,157.61,213.91,158.12,213.92Z"/><path d="M185.4,192a28.8,28.8,0,0,0,0-4.05,1.33,1.33,0,0,0-.62-.88,3.72,3.72,0,0,0-2.81-.6,10.83,10.83,0,0,1-2.67.07c-.89,0-2-.55-2.62-.21a3.24,3.24,0,0,1-2.5,0,2,2,0,0,0-2.67,2.16,11.16,11.16,0,0,1,0,2.31c-.18,1.69.53,2.6,2.15,2.61h10.75C184.84,192.9,185.36,192.46,185.4,192Z"/><path d="M110.18,120.34c.06.93.69,1.18,1.59.87,2-.68,3.94-1.29,5.9-2a27.63,27.63,0,0,0,3-1.23c.34-.16.78-.59.77-.89a5.65,5.65,0,0,0-.52-2.83,5.52,5.52,0,0,1-1-3.31c0-.93-1.46-2.26-2.06-1.77-1.07.88-2.49.6-3.59,1.63s-3,1.64-4.51,2.4c.07.7.16,1.27.18,1.84C110,116.83,110.05,118.59,110.18,120.34Z"/><path d="M178.59,139a34,34,0,0,1,0-3.78,1.79,1.79,0,0,0-1.93-2c-2.76.1-5.53.31-8.3.27a1.07,1.07,0,0,0-1.2,1.14,30.42,30.42,0,0,0,0,4.16c0,.55.06,1.31.41,1.59a4.76,4.76,0,0,0,2.08.87c1,.19,2.06.14,3.08.27,1.43.18,2.85.43,4.55.69C178.58,141.73,178.7,140.46,178.59,139Z"/><path d="M109.66,133.78c-.12,1.54-.09,3.1-.07,4.64,0,1.3.18,2.6.09,3.89s.38,1.95,1.68,1.65,2.84-.69,4.31-1.05a14.65,14.65,0,0,0,.18-1.61c.06-1.8.08-3.61.13-5.41.06-2.32.36-3.34-2.54-3.29a5.34,5.34,0,0,1-1-.1C111.42,132.33,109.72,133,109.66,133.78Z"/><path d="M184.6,171.61c0-.58-.09-1.16-.11-1.75,0-1.21,0-2.42-.09-3.63a1.73,1.73,0,0,0-2.05-1.88c-.58,0-1.15.15-1.73.15-2.28,0-4.55,0-6.89,0a12.4,12.4,0,0,0-.32,1.87c0,1.93-.06,3.87,0,5.8a1.14,1.14,0,0,0,.58.84,4.67,4.67,0,0,0,1.73.33c2.35,0,4.69-.14,7-.15C183.88,173.19,184.59,172.84,184.6,171.61Z"/><path d="M190.12,102.71a14.16,14.16,0,0,1-2.3-1,44.56,44.56,0,0,0-4.8-2.26,18.18,18.18,0,0,1-4.32-1.74c-1-.65-1.61.42-1.74.84-.59,1.81-.92,3.71-1.41,5.91.11.17.26.68.58.85a29.8,29.8,0,0,0,4.15,2c1.71.61,3.51,1,5.27,1.45a11.3,11.3,0,0,1,1.08.35c1.65.65,2.76.22,2.9-1.49a13,13,0,0,1,1.13-3.4C190.82,103.74,191.09,103,190.12,102.71Z"/><path d="M190.73,164.63a6.39,6.39,0,0,0-3.41.21c-.39.13-.51,1.38-.56,2.14a37.48,37.48,0,0,0,0,4.37,2.72,2.72,0,0,0,.69,1.53c.59.65,2.76.67,3.6.47,1.22-.29,1.17-.89,1-1.91a45.4,45.4,0,0,1-.32-4.67l.16-.13C191.5,165.93,191.24,164.75,190.73,164.63Z"/><path d="M188.74,155.07a6.29,6.29,0,0,0-1.23,0,22.44,22.44,0,0,0-2.95-.16,10,10,0,0,0-2.14.65,10.94,10.94,0,0,0-.31,1.83c0,1.23.18,2.46.11,3.68-.06.77.2.88.84.89,2.08,0,4.15.1,6.23.08,1.63,0,2.17-1.14,1.31-2.5.18-.15.5-.34.48-.45a17.18,17.18,0,0,0-.82-3.36C190.12,155.34,189.29,155.2,188.74,155.07Z"/><path d="M189,146.71A19.92,19.92,0,0,0,186,146c-2.81-.47-5.66-.79-8.43-1.42-.91-.21-1,.06-1.07.66-.15,1.42-.25,2.84-.37,4.25l-.16,0a17,17,0,0,1,.51,1.95c.15,1,.91,1.14,1.67,1.15,1.58.05,3.16,0,4.74,0,2.06,0,4.11.07,6.16.07.84,0,1.61-.15,1.12-1.33-.05-.12.07-.3.06-.45a25.89,25.89,0,0,0-.27-3.19A1.58,1.58,0,0,0,189,146.71Z"/><path d="M192.23,94c-2-.92-4-1.73-6-2.5-1.54-.59-3.12-1-4.67-1.63s-2.82-1.19-4.27-1.68c-1-.36-2.2-.41-3.19-.86-1.52-.69-2.58-.49-3.2,1a4.79,4.79,0,0,0-.14,1.28c-.17,1.13-.35,2.25-.54,3.41,2.93.89,5.62,1.66,8.28,2.52s5.15,1.77,7.72,2.66a38.8,38.8,0,0,0,4.15,1.38,1.83,1.83,0,0,0,1.57-.75,12,12,0,0,0,.92-3.34A1.72,1.72,0,0,0,192.23,94Z"/><path d="M194.78,85.21A23.38,23.38,0,0,0,191.57,84c-1.59-.5-3.21-.93-4.82-1.41-.28-.08-.52-.27-.79-.36-1.44-.47-2.87-.94-4.32-1.39-.15,0-.47,0-.5.07A18.71,18.71,0,0,0,180.4,83a9,9,0,0,0-.28,1.8,3.36,3.36,0,0,0,.1,1.52c.43,1,1.53,1,2.4,1.34,1.95.75,4.24.71,5.73,2.52.08.09.3,0,.44.08,1.28.39,2.58.76,3.84,1.21a1.21,1.21,0,0,0,1.76-.92c.11-.43.17-.89.3-1.31.27-.88.58-1.75.92-2.75C195.33,86,195.16,85.4,194.78,85.21Z"/><path d="M190,175.78c-2.11.07-4.23,0-6.35-.1-1.23-.06-2.1.29-2.25,1.5a33.28,33.28,0,0,0-.18,5.56,1.31,1.31,0,0,0,1.42,1.42c2.59-.06,5.19,0,7.79-.06.92,0,1.85-.14,2.74-.21-.2-2.18-.32-4.07-.55-5.95C192.34,175.86,192,175.72,190,175.78Z"/><path d="M193.81,206.79a4.06,4.06,0,0,1-.77.1c-1.4,0-2.81-.08-4.21-.1-1.09,0-1.37.84-1.43,1.61a38.55,38.55,0,0,0,0,4.3c0,.62.06,1.23,1,1.24,1.42,0,2.83.21,4.25.34v-.17c.54,0,1.08,0,1.63,0a1.72,1.72,0,0,0,1.6-1.69c-.13-1.44-.29-2.88-.43-4.32C195.37,207,194.89,206.63,193.81,206.79Z"/><path d="M183.63,227.58c-1,0-1.94.13-2.9.12-2.67,0-5.34-.16-8-.17-.67,0-1.43.25-1.42,1.11a37.09,37.09,0,0,0,.27,4.71,2.1,2.1,0,0,0,1.14,1.42,7.85,7.85,0,0,0,2.38.06l6.27,0c1,0,2,0,3.4,0,0-2.2,0-4.15,0-6.1A1,1,0,0,0,183.63,227.58Z"/><path d="M168.19,224.81c1.46.12,2.93.13,4.39.23s2.68,0,4,.08c.87.06,1.71-.39,1.72-1.15,0-1.48,0-2.95,0-4.43h.19a13.29,13.29,0,0,0,0-1.67c-.12-.75-.28-1.37-1.37-1.36-2.72,0-5.43-.16-8.15-.16-.86,0-1.94.29-2,1.29a46.55,46.55,0,0,0,0,5.54C167,223.91,166.64,224.68,168.19,224.81Z"/><path d="M187.18,195.84c-1.68,0-3.35-.05-5-.11a2,2,0,0,0-1.78,2.17,37.27,37.27,0,0,1,.3,4.36c0,1,.36,1.67,1.36,1.75.76.07,1.53,0,2.3.08s1.73.52,2.42.27c2.4-.84,4.83.11,7.21-.31.18,0,.42.21,1,.56-.1-1.42-.16-2.55-.26-3.68a11.07,11.07,0,0,1-.26-1.47c0-.55.31-1.11.3-1.66a2.43,2.43,0,0,0-2.19-2C190.8,195.79,189,195.85,187.18,195.84Z"/><path d="M192.17,186.62a10.69,10.69,0,0,1-2,0c-1.43-.17-2.2.42-2.32,1.93-.06.72,0,1.47-.09,2.18-.25,1.39.37,2.58,1.77,2.7s3.13.49,4.32-.85c0-.6-.07-1.16-.11-1.73s-.07-1.11-.15-1.66a6.31,6.31,0,0,1-.24-1.27C193.39,187.05,193,186.56,192.17,186.62Z"/></svg>