<?xml version="1.0" encoding="utf-8"?>
<!-- Generator: Adobe Illustrator 25.4.1, SVG Export Plug-In . SVG Version: 6.00 Build 0)  -->
<svg version="1.1" id="eb4a7d88-6c64-4a75-b1bb-adf7280608fa"
	 xmlns="http://www.w3.org/2000/svg" xmlns:xlink="http://www.w3.org/1999/xlink" x="0px" y="0px" viewBox="0 0 300 300"
	 style="enable-background:new 0 0 300 300;" xml:space="preserve">
<style type="text/css">
	.st0{fill:#A1A1AA;}
</style>
<path class="st0" d="M0,78c21.5-6.6,43.3-8.2,64.9-1.6c11.3,3.5,21.9,9.6,32.7,14.6c4.1,1.9,4.8,4.6,1.5,8.1
	c-3.9,4.2-7.6,8.6-11.1,13.2c-3,4.1-5.6,4.3-9.8,1.5c-14.8-9.8-31.2-14.6-49-12.9c-5.4,0.5-10.8,1.7-15.9,3.6
	c-5.1,1.9-8.8,5.7-8.7,11.9c-0.1,5.5,3.8,10.3,9.1,11.5c9.6,2.4,19.6,3.5,29.4,5.2c10.8,1.8,21.8,2.8,32.4,5.5
	c21.1,5.5,31.9,17.2,33.7,36.2c1.8,19.6-7.2,34.4-24.2,42.9c-27.6,13.7-56.3,13.4-85,2.8V300h300v-73.5c-6.7-0.1-13.5-0.5-20.2-0.2
	c-5.4,0.3-7.9-1.5-9.3-7c-8-31.2-16.4-62.3-24.7-93.4c-0.1-1-0.4-2-0.8-2.9c-1-1.8-2.2-3.5-3.4-5.3c-1.4,1.8-3.6,3.3-4.2,5.3
	c-4.3,15.1-8.2,30.4-12.2,45.5c-4.5,17.1-9.2,34.2-13.5,51.4c-1.2,4.8-3.6,6.4-8.4,6.3c-12.2-0.2-24.5-0.2-36.7-0.1
	c-4,0-6.5-1-7.6-5.3c-12.4-46.3-24.9-92.5-37.4-138.8c-0.6-2.1-0.7-4.4-1.2-7.7c10.2,0,19.9-0.2,29.5,0.2c1.4,0.1,3.4,3.2,3.9,5.2
	c6.4,24.1,12.7,48.3,18.9,72.4c2.4,9.2,4.9,18.3,7.1,27.6c0.8,3.4,1.7,5.8,6.1,5.9c4.9,0.2,5.8-2.5,6.8-6.1
	c8.7-32.8,17.5-65.6,26-98.4c1.4-5.6,3.8-7.9,9.7-7.6c8.7,0.4,17.5,0.4,26.2,0c5.6-0.3,7.9,1.9,9.2,7.2
	c8.4,32.2,17.3,64.2,25.4,96.3c1.7,6.7,4.5,9.3,10.9,8.8V0H0V78z"/>
<path class="st0" d="M65.4,193.1c5.2-2.2,9.7-6.4,8-12c-1.2-4-6-7.1-9.4-10.3c-1-0.9-2.8-0.8-4.3-1.1C39.8,166.2,19.9,162.6,0,159
	v30c9.1,2.7,17.9,6.2,27.2,7.9C40.1,199.1,53.1,198.5,65.4,193.1z"/>
</svg>
