<svg id="eb4a7d88-6c64-4a75-b1bb-adf7280608fa" data-name="PRINT" xmlns="http://www.w3.org/2000/svg" viewBox="0 0 300 300"><path d="M0,78c21.48-6.59,43.32-8.25,64.88-1.62C76.2,79.86,86.73,85.94,97.57,91c4.13,1.91,4.76,4.55,1.48,8.14A164,164,0,0,0,88,112.32c-3,4.05-5.58,4.33-9.84,1.53-14.83-9.77-31.18-14.6-49-12.94a62.65,62.65,0,0,0-15.94,3.64c-5.1,1.91-8.79,5.69-8.67,11.89a11.63,11.63,0,0,0,9.15,11.5c9.62,2.41,19.57,3.54,29.39,5.17,10.82,1.79,21.85,2.76,32.42,5.5,21.09,5.46,31.88,17.19,33.65,36.23,1.83,19.63-7.2,34.4-24.21,42.86C57.36,231.41,28.69,231.08,0,220.5V300H300V226.5c-6.74-.09-13.5-.52-20.22-.18-5.43.28-7.91-1.53-9.32-7-8-31.19-16.4-62.28-24.67-93.4A12.77,12.77,0,0,0,245,123c-1-1.82-2.24-3.51-3.38-5.26-1.44,1.75-3.64,3.28-4.2,5.27-4.26,15.13-8.21,30.35-12.24,45.54-4.53,17.13-9.2,34.23-13.48,51.43-1.2,4.82-3.62,6.38-8.38,6.28-12.23-.24-24.48-.19-36.73-.07-4,0-6.47-1-7.62-5.29q-18.6-69.42-37.43-138.78c-.58-2.12-.72-4.36-1.25-7.72,10.19,0,19.86-.22,29.5.25,1.42.07,3.35,3.22,3.89,5.25,6.45,24.1,12.67,48.27,18.94,72.42,2.39,9.17,4.85,18.34,7.08,27.55.82,3.43,1.68,5.76,6.11,5.93,4.85.18,5.79-2.5,6.75-6.11,8.66-32.82,17.52-65.59,26-98.45,1.44-5.58,3.8-7.88,9.67-7.58,8.73.43,17.51.43,26.23,0,5.61-.29,7.87,1.95,9.23,7.18C272.07,113,281,145,289.06,177.18c1.68,6.7,4.49,9.34,10.94,8.82V0H0Z"/><path d="M65.39,193.13c5.15-2.24,9.65-6.44,8-12-1.24-4-6-7.07-9.42-10.27-1-.88-2.82-.81-4.29-1.08Q29.82,164.36,0,159v30c9.05,2.69,17.94,6.24,27.17,7.87C40.06,199.15,53.09,198.47,65.39,193.13Z"/></svg>