<?xml version="1.0" encoding="utf-8"?>
<!-- Generator: Adobe Illustrator 25.4.1, SVG Export Plug-In . SVG Version: 6.00 Build 0)  -->
<svg version="1.1" id="f251124b-c59f-4777-8ab0-fe7771913d8c"
	 xmlns="http://www.w3.org/2000/svg" xmlns:xlink="http://www.w3.org/1999/xlink" x="0px" y="0px" viewBox="0 0 300 300"
	 style="enable-background:new 0 0 300 300;" xml:space="preserve">
<style type="text/css">
	.st0{fill:#A1A1AA;}
</style>
<path class="st0" d="M187.3,229.7l-4.2,1.7c0.1,0.2,0.1,0.3,0.2,0.5c0.1,0.7,0.4,0.8,1,0.4c0.7-0.3,1.3-0.6,2-0.9
	c0.2,0.4,0.3,0.8,0.4,1.1c0.1,0.3,0,0.6-0.1,0.9c-0.8,1.1-2.1,1.7-3.4,1.8c-1.5,0.1-2.6-0.7-3.3-2.4c-1.1-2.8,0.3-4.8,3.2-5.1
	c0.9,0,1.8,0.4,2.3,1.1l1-0.8c-0.4-0.8-1.2-1.4-2.1-1.5c-2.7-0.4-6.8,1.6-6.2,5.6c0.3,1.8,1.7,4.1,3.7,4.5c2.7,0.4,5.4-0.9,6.8-3.3
	c0.1-0.1,0.1-0.2,0.1-0.4C188.2,231.9,187.8,230.8,187.3,229.7z"/>
<path class="st0" d="M83.1,185.8c3.4-2.5,6.9-5,10.3-7.5c0.3-0.1,0.4-0.4,0.2-0.7c0,0,0-0.1,0-0.1c-0.4-1-0.9-2-1.3-3
	c-2.5-6.1-4-12.6-4.6-19.1c0-0.5-0.2-0.6-0.7-0.6c-4.1,0-8.2,0-12.3,0c-0.2,0-0.4,0-0.7,0.1c0.6,10.9,3.5,21.6,8.6,31.2
	C82.7,185.9,82.9,185.8,83.1,185.8z"/>
<path class="st0" d="M81.9,186c-0.2-0.6-0.6-1.2-0.8-1.8c-2.7-5.4-4.6-11.1-5.9-17c-0.5-2.4-0.9-4.8-1.2-7.2
	c-0.2-1.6-0.3-3.1-0.4-4.7c0-0.3,0-0.6-0.5-0.6h-4.4c0.7,12,4.2,23.8,10,34.3c1.2-0.9,2.2-1.6,3.3-2.4C82,186.5,82,186.2,81.9,186z"
	/>
<path class="st0" d="M110.1,179c0.4-0.3,0.4-0.5,0.2-0.9c-1.4-2.5-2.8-5-4.1-7.6c-0.3-0.5-0.5-0.5-0.9-0.2c-2.2,1.6-4.5,3.3-6.8,4.9
	c-6.4,4.7-12.8,9.3-19.2,14c-0.4,0.3-0.4,0.5-0.2,0.9c1.2,1.8,2.2,3.6,3.4,5.4c0.6,1,1.3,2,1.9,3.1c0.3-0.2,0.5-0.4,0.8-0.6l7.9-6.1
	C98.8,187.6,104.5,183.3,110.1,179z"/>
<path class="st0" d="M224.3,115.4c-0.9-1.8-1.7-3.6-2.6-5.3c-0.1-0.3-0.3-0.5-0.6-0.3c-1.9,0.9-3.7,1.7-5.6,2.6
	c-0.3,0.2-0.5,0.4-0.6,0.7c-1.1,3-2.1,6.1-3.2,9.2c-0.3,0.8-0.5,1.6-0.8,2.6l14.7-6.7L224.3,115.4z"/>
<path class="st0" d="M146.4,113.5c1.4,0,2.8,0,4.1,0h5.4v-3.7h-10.2c0,1.1,0,2.1,0,3.1C145.7,113.3,145.9,113.5,146.4,113.5z"/>
<path class="st0" d="M145.2,114.9h11.4c0.1-1.1,0.1-1.1-0.8-1.1h-10.6V114.9z"/>
<path class="st0" d="M194.6,148.6c0,0,0,0,0.1-0.1v-3.7c-0.5,0-0.8,0-1.2,0s-0.6,0.1-0.6,0.6s0,1.1,0,1.7
	C193,148.7,193,148.7,194.6,148.6z"/>
<path class="st0" d="M225.1,159.1c-0.3,2.3-0.6,4.6-1,6.8s-1.1,4.7-1.8,7c-1.1,4-2.7,7.9-4.6,11.6c-0.7,1.4-0.7,1.4,0.5,2.3l3.1,2.4
	c5.9-10.6,9.3-22.4,10.1-34.5h-5.9C225.4,156.2,225.3,157.6,225.1,159.1z"/>
<path class="st0" d="M148.2,167.8c-0.5,0-0.9,0.5-0.9,1c0,0.5,0.4,0.9,1.1,0.9c0.4,0,0.7-0.3,0.7-0.9
	C149.2,168.3,148.8,167.8,148.2,167.8C148.2,167.8,148.2,167.8,148.2,167.8z"/>
<path class="st0" d="M110.2,141.3c-0.8,0.9-0.9,0.9-1.3,0c-0.4,1.4-0.9,0.4-1.4-0.1v1.1c0.7,0,1.4,0,2.1,0c0.2,0,0.6,0,0.7-0.2
	C110.2,141.9,110.2,141.6,110.2,141.3z"/>
<path class="st0" d="M219.5,189.3c-1.7-1.3-3.5-2.7-5.2-4L199.4,174l-6.1-4.6c-0.1,0.1-0.1,0.1-0.1,0.2c-1.6,2.8-3.1,5.6-4.7,8.4
	c-0.2,0.4,0,0.6,0.3,0.7l9.2,6.7l11.9,8.7l5,3.7l0.2-0.2c1.5-2.5,3.1-5,4.6-7.4C220,189.7,219.7,189.5,219.5,189.3z"/>
<path class="st0" d="M106.4,143.3c-0.3,0.2-0.5,0.6-0.7,0.6s-0.5-0.3-0.7-0.5c-0.1,0.1-0.2,0.4-0.3,0.5c-0.7,0.4-0.6-0.5-1-0.7v1
	h2.8C106.4,143.9,106.4,143.6,106.4,143.3z"/>
<path class="st0" d="M113.4,148.6c0.1,0,0.1,0,0.2-0.1v-3.7c-0.4,0-0.8,0-1.1,0c-0.5-0.1-0.7,0.1-0.7,0.6s0,1.1,0,1.7
	C111.9,148.6,111.9,148.6,113.4,148.6z"/>
<path class="st0" d="M114.2,143.4c-0.3,0.2-0.5,0.5-0.7,0.5s-0.5-0.2-0.6-0.3c-0.3,0.1-0.5,0.4-0.7,0.3s-0.4-0.3-0.6-0.4l-0.2-0.1
	c0,0.3-0.1,0.6-0.1,1h2.9C114.2,144,114.2,143.7,114.2,143.4z"/>
<path class="st0" d="M105.8,148.5l0.2-0.1v-2.2c0-1.7,0-1.7-1.7-1.5c0,0.1,0,0.2-0.1,0.2c0,0.7,0,1.4,0,2
	C104.2,148.8,103.8,148.6,105.8,148.5z"/>
<path class="st0" d="M108.3,142.6c-0.4,0-0.6,0.1-0.6,0.6c0,1.2,0,2.5,0,3.7c0,1.8,0,1.8,1.8,1.7c0.2,0,0.4-0.3,0.4-0.4
	c0-1.8,0-3.6,0-5.6C109.3,142.6,108.8,142.6,108.3,142.6z"/>
<path class="st0" d="M163.5,188c0,0,0.1-0.1,0.1-0.1v-3.7c-0.4,0-0.8,0-1.1,0c-0.5,0-0.6,0.2-0.6,0.6s0,1.2,0,1.8
	C161.9,188.1,161.9,188.1,163.5,188z"/>
<path class="st0" d="M190.6,141.9c-0.2,0-0.4-0.3-0.7-0.6c0,0.1-0.1,0.4-0.1,0.5c-0.6,0.3-0.8-0.1-0.9-0.6h-0.3c0,0.3,0,0.6,0,0.9
	c0,0.1,0.4,0.2,0.6,0.2c0.6,0,1.1,0,1.7,0c0.2,0,0.5-0.1,0.6-0.2c0-0.3,0-0.6,0-0.9C191,141.5,190.8,141.9,190.6,141.9z"/>
<path class="st0" d="M167.9,180.6c-0.3,0.3-0.5,0.6-0.7,0.7s-0.4-0.3-0.6-0.5c-0.3,0.7-0.6,0.7-1.4-0.3c0,0.5,0,0.8-0.1,1.2
	c0.8,0,1.5,0,2.2,0c0.2,0,0.6-0.1,0.6-0.2C167.9,181.2,167.9,180.9,167.9,180.6z"/>
<path class="st0" d="M160.8,188.9c0,0.5,0.4,0.6,0.8,0.6h10c0.4,0,0.7,0,0.7-0.5s-0.3-0.6-0.7-0.6h-10
	C161.2,188.4,160.9,188.4,160.8,188.9z"/>
<rect x="188.9" y="142.6" class="st0" width="2.1" height="5.9"/>
<path class="st0" d="M164.1,182.7c-0.2,0.3-0.4,0.6-0.6,0.6s-0.5-0.3-0.7-0.4c-0.5,1.2-0.9,0.1-1.3-0.3v1.1h2
	C164.3,183.7,164.3,183.7,164.1,182.7z"/>
<path class="st0" d="M184.3,149.5c0,0.5,0.3,0.5,0.7,0.5h5.2l0,0h5.1c0.4,0,0.6-0.1,0.6-0.5s-0.2-0.5-0.6-0.5H185
	C184.6,149,184.3,149,184.3,149.5z"/>
<rect x="185.4" y="144.8" class="st0" width="1.7" height="3.7"/>
<path class="st0" d="M194.5,150.4h-9c-0.4,0-0.6,0.1-0.6,0.6c0,0.8,0,1.6,0,2.4c0,0.5,0.1,0.7,0.7,0.7c3,0,6,0,9,0
	c0.2,0,0.4,0,0.6-0.1c0-1,0-2,0-3C195.1,150.5,195,150.4,194.5,150.4z"/>
<path class="st0" d="M187.5,144.1c0-0.3,0-0.5,0-0.8c-0.3,0.3-0.4,0.6-0.6,0.6s-0.5-0.3-0.6-0.4c-0.2,0.1-0.4,0.4-0.6,0.4
	s-0.5-0.3-0.9-0.6c0,0.3,0,0.6-0.1,1c0.8,0,1.5,0,2.2,0C187.2,144.3,187.5,144.2,187.5,144.1z"/>
<path class="st0" d="M195.3,143.4c-1,0.7-1,0.7-1.4,0c-0.1,0.6-0.5,0.7-0.9,0.6c-0.1-0.2-0.2-0.4-0.3-0.5s-0.2,0-0.2,0.1
	c-0.1,0.2-0.1,0.5-0.1,0.7c0,0.1,0.2,0.2,0.4,0.2h2.5V143.4z"/>
<path class="st0" d="M167.1,170.8c4.3-5.6,7.8-11.8,10.3-18.4c2.2-5.6,4.2-11.3,6.3-16.9c1.7-4.6,3.4-9.2,5.1-13.9
	c0.1-0.3,0.1-0.5,0.2-0.8h-75.9c0,0.1,0,0.2,0,0.2c1.4,4.8,2.8,9.6,4.3,14.3c1.4,4.6,2.9,9.2,4.5,13.8c1.9,5.5,4.3,10.9,7.2,16
	c3,5.5,7.1,10.4,12,14.4c2.7,2.1,5.8,3.8,9.1,5c0.4,0.1,0.7,0.1,1.1-0.1c1.1-0.6,2.2-1.3,3.3-2C159.4,179.2,163.6,175.3,167.1,170.8
	z M139.4,147.4c-0.6,1.1-1.2,2.2-1.8,3.2c-1.2,2.2-3,4-5.1,5.4c-0.4,0.3-1,0.3-1.5,0c-1.6-0.7-2.8-2.1-3.5-3.7
	c-0.9-2.2-1.6-4.5-2.4-6.8c-0.2-0.5-0.2-1.1-0.4-1.6s0-0.7,0.5-0.7h13.2c0.2,0,0.4,0,0.8,0l-0.9,2.9l0.6,0.1
	C139.9,146.4,139.9,146.6,139.4,147.4z M176.8,143.4c-0.1,0.6-0.3,1-0.4,1.5s0,0.7,0.5,0.6c0.3,0,0.6,0,0.9,0.1
	c-0.6,0.9-1.1,1.7-1.5,2.5c-1.2,2.3-2.7,4.4-4.4,6.4c-0.6,0.6-1.2,1.1-1.9,1.6c-0.3,0.2-0.7,0.2-1.1,0.1c-1.5-0.6-2.7-1.8-3.4-3.2
	c-1.7-2.9-2.4-6.2-3.4-9.5L176.8,143.4z M143.4,125.8h14.4c0.1,0.4,0.3,0.8,0.4,1.1c0,0.1,0,0.3,0,0.4c-0.4,1-0.9,1.9-1.3,2.9
	c-0.7,1.5-1.4,3.1-2.2,4.6c-0.8,1.5-2,2.7-3.4,3.6c-0.8,0.5-1.4,0.1-2-0.3c-1.4-0.9-2.6-2.3-3.2-3.9c-1.1-2.6-2-5.4-2.7-8.2
	C143.4,126,143.4,125.9,143.4,125.8L143.4,125.8z M158,143.3c-0.2,0.8-0.4,1.6-0.6,2.4l1.5,0.1c-0.5,0.9-1,1.8-1.5,2.6
	c-1.1,1.7-2.2,3.4-3.3,5c-0.8,1.1-1.8,2-2.9,2.7c-0.4,0.2-0.8,0.3-1.2,0.1c-1.8-0.8-3.2-2.3-3.9-4.2c-1.1-2.8-2-5.6-3.1-8.6
	L158,143.3z M151.2,173.1c-0.4,0.2-0.8,0.2-1.2,0c-1.7-0.8-3-2.3-3.8-4c-1.1-2.4-1.9-4.8-2.5-7.3c-0.1-0.4-0.2-0.9-0.4-1.3h14.5
	c0.2,0.4,0.4,0.8,0.5,1.1c0.1,0.2,0.1,0.3,0,0.5c-1.2,2.5-2.4,4.9-3.6,7.4C153.9,171,152.6,172.2,151.2,173.1L151.2,173.1z"/>
<path class="st0" d="M87.8,197.1c-0.6,0.5-1.2,0.9-1.8,1.4l0.1,0.1h39.8c-0.1-0.2-0.2-0.3-0.3-0.4c-1.7-1.9-3.4-3.8-5.2-5.6
	c-0.3-0.3-0.6-0.4-1-0.4c-8.2,0-16.3,0-24.5,0c-0.4,0-0.8,0.1-1.1,0.4C91.8,194,89.8,195.6,87.8,197.1z"/>
<path class="st0" d="M220,109.6h-3.9c-0.3,0.7-0.5,1.5-0.8,2.2l0.1,0.1C216.9,111.2,218.5,110.8,220,109.6z"/>
<path class="st0" d="M99.5,187.8l-4.8,3.7h7.6L99.5,187.8z"/>
<path class="st0" d="M104.5,211.8c10.9,8.2,23.7,13.2,37.2,14.6c1.6,0.2,3.2,0.2,4.8,0.4c0-4.2,0-8.3,0-12.4c0-0.1-0.3-0.4-0.5-0.4
	c-2.5-0.3-5-0.6-7.6-1c-4.1-0.7-8.2-1.9-12-3.5c-5.8-2.4-11.1-5.7-15.9-9.7c-0.3-0.2-0.6-0.3-1-0.3c-5.7,0-11.3,0-17,0h-1
	C95.3,204,99.7,208.2,104.5,211.8z"/>
<path class="st0" d="M153,167.9c-0.5,0-0.9,0.4-0.9,0.9c-0.1,0.5,0.2,0.9,0.7,1c0.1,0,0.1,0,0.2,0c0.5,0,0.9-0.4,1-0.9
	C153.9,168.4,153.5,168,153,167.9z"/>
<path class="st0" d="M148.2,162.1c-0.5-0.1-0.9,0.3-0.9,0.8c0,0,0,0.1,0,0.1c-0.1,0.5,0.3,0.9,0.8,1c0,0,0.1,0,0.1,0
	c0.5,0,0.9-0.4,0.9-0.9c0.1-0.5-0.2-0.9-0.7-1C148.4,162.2,148.3,162.1,148.2,162.1z"/>
<path class="st0" d="M129.9,182.6l-0.4,0.7c-0.2,0-0.4,0-0.6,0s-0.2-0.3-0.3-0.5c-0.5,1.2-0.9,0.4-1.4-0.1v1.1c0.7,0,1.4,0,2.1,0
	S130.2,183.7,129.9,182.6z"/>
<path class="st0" d="M209,131.2c1.1,4.1,1.9,8.2,2.2,12.5c0.1,0.8,0.2,1.6,0.3,2.5h13.4c0-0.7,0-1.4,0-2.2c-0.3-2.5-0.6-5-1.1-7.6
	c-0.9-5-2.3-9.9-4.2-14.6c-0.1-0.4-0.3-0.5-0.7-0.3c-2.6,1.2-5.1,2.3-7.6,3.5c-0.3,0.1-0.6,0.4-0.7,0.7c-0.5,1.4-1,2.9-1.5,4.4
	C209,130.5,208.9,130.8,209,131.2z"/>
<path class="st0" d="M150.7,165c-0.5,0-1,0.4-1,0.9c0,0.5,0.5,0.9,1,0.9c0.5,0,0.9-0.4,0.9-1c0,0,0,0,0,0
	C151.6,165.4,151.2,165,150.7,165C150.7,165,150.7,165,150.7,165z"/>
<path class="st0" d="M136,184.2c-0.4,0-0.5,0.2-0.5,0.5c0,0.7,0,1.4,0,2.2c0,1.2,0.1,1.4,1.4,1.1c0.2-0.1,0.4-0.2,0.4-0.5
	c0-1.1,0-2.2,0-3.4C136.8,184.2,136.4,184.2,136,184.2z"/>
<rect x="103.8" y="150.4" class="st0" width="10.1" height="3.6"/>
<path class="st0" d="M128.1,193.6c1.9,0,3.9,0,5.8,0h3.6V190c-0.1,0-0.1-0.1-0.2-0.1h-9.5c-0.4,0-0.5,0.2-0.5,0.6c0,0.8,0,1.7,0,2.5
	C127.4,193.5,127.6,193.7,128.1,193.6z"/>
<path class="st0" d="M137.8,182.9c-0.3,0.2-0.5,0.6-0.7,0.6s-0.5-0.3-0.6-0.4c-0.1,0.1-0.4,0.5-0.6,0.4s-0.5-0.3-0.8-0.5
	c-0.3,0.5-0.2,0.9,0.2,0.9c0.8,0,1.6,0,2.5,0C137.8,183.4,137.8,183.1,137.8,182.9z"/>
<path class="st0" d="M129.1,184.2c-1.5,0.1-1.3-0.3-1.3,1.3v0.5l0,0v0.8c0,1.3,0,1.3,1.3,1.3c0.4,0,0.6-0.1,0.6-0.5c0-1,0-1.9,0-2.9
	C129.6,184.4,129.5,184.2,129.1,184.2z"/>
<path class="st0" d="M114.7,149.5c0-0.5-0.3-0.5-0.8-0.5c-1.7,0-3.3,0-5,0l0,0c-1.7,0-3.4,0-5.1,0c-0.2,0-0.4,0.1-0.6,0.3
	c-0.1,0.2-0.1,0.4,0,0.6c0.2,0.1,0.5,0.2,0.7,0.2c3.3,0,6.6,0,10,0C114.3,150,114.7,150,114.7,149.5z"/>
<path class="st0" d="M127.3,195c3.4,0,6.9,0,10.4,0c0.4,0,0.7,0,0.7-0.6s-0.3-0.6-0.7-0.6h-10.4c-0.4,0-0.6,0.1-0.6,0.5
	S126.8,195,127.3,195z"/>
<path class="st0" d="M127.3,189.5c0.1,0.1,0.2,0,0.3,0h4.8l0,0h4.7c0.2,0,0.5,0,0.7-0.1c0.2-0.2,0.4-0.4,0.5-0.6
	c-0.2-0.1-0.4-0.4-0.6-0.4c-1.8,0-3.6,0-5.5,0c-1.6,0-3.2,0-4.8,0c-0.2,0-0.5,0.3-0.7,0.5C126.9,189.1,127.1,189.3,127.3,189.5z"/>
<path class="st0" d="M218.1,104.5h-0.2l-1.6,4.4h4.5L218.1,104.5z"/>
<path class="st0" d="M133.8,180.7c-0.9,0.9-1,0.9-1.2,0.1c-0.2,0.2-0.4,0.5-0.6,0.6s-0.5-0.2-0.5-0.5c0,0-0.2-0.1-0.3-0.1v1h2.8
	V180.7z"/>
<path class="st0" d="M133.3,182.2c-0.6,0-1.3,0-2,0c0,1.9-0.1,3.7,0,5.4c0.1,0.9,0.9,0.3,1.4,0.4c0.3,0.1,0.8,0.2,0.8-0.4
	c0-1.7,0-3.4,0-5C133.6,182.4,133.4,182.2,133.3,182.2z"/>
<path class="st0" d="M220.6,120.7c-0.7,0.3-0.7,0.6-0.5,1.2c0.9,2.4,1.8,4.8,2.5,7.2c0.6,2.2,1.2,4.5,1.6,6.8
	c0.4,2.5,0.7,5.1,1.1,7.6c0.1,0.9,0.2,1.8,0.3,2.6h6c-0.4-9.5-2.4-18.8-6-27.6C223.8,119.2,222.2,120,220.6,120.7z"/>
<path class="st0" d="M96.6,113.4h9.8c0.2,0,0.3-0.2,0.3-0.3c0-1.1,0-2.2,0-3.3H96.6V113.4z"/>
<path class="st0" d="M103.7,155.6c1.7,0,3.4,0,5.1,0l0,0c1.8,0,3.5,0,5.3,0c0.4,0,0.6-0.1,0.6-0.6s-0.2-0.6-0.6-0.6h-10.5
	c-0.4,0-0.6,0.1-0.6,0.5S103.3,155.6,103.7,155.6z"/>
<path class="st0" d="M95.9,114.9h11.4c0.1-1.1,0.1-1.1-0.9-1.1h-9.7C95.8,113.8,95.8,113.8,95.9,114.9z"/>
<path class="st0" d="M100.5,220.5c0.9,0.3,1.5,1.2,1.4,2.2c0,0.6,0.2,0.7,0.7,0.8l0.9,0.1c0-0.5-0.1-1.1-0.2-1.6
	c-0.9-3-5.2-4.1-7.5-2c-0.9,0.8-1.5,1.8-1.8,3c-0.6,1.6-0.2,3.5,1.2,4.6c2.2,1.9,5,2.1,6.9-0.3l-1.1-0.9c-0.1,0.1-0.3,0.2-0.4,0.4
	c-0.7,0.9-1.9,1.3-2.9,0.9c-1.2-0.2-2.1-1.2-2.3-2.3c-0.1-1.1,0.1-2.2,0.7-3.2c0.6-1.6,2.4-2.4,3.9-1.8
	C100.2,220.4,100.4,220.4,100.5,220.5z"/>
<path class="st0" d="M147.6,231c-1.4-0.7-1-1.9-1-3c0-0.1,0-0.1,0-0.2c0.1-0.5-0.2-0.6-0.6-0.6c-2.4-0.2-4.7-0.4-7.1-0.7
	c-2.9-0.5-5.8-1-8.7-1.7c-5.1-1.3-10-3.2-14.7-5.6c-4.9-2.5-9.5-5.4-13.7-8.9c-3.9-3.2-7.5-6.7-10.7-10.6c-0.2-0.2-0.4-0.4-0.6-0.4
	c-1.6,0-3.2,0-5.1,0C100.3,218.7,123.1,230.3,147.6,231z"/>
<path class="st0" d="M95.9,109c0.1,0.2,0.5,0.4,0.8,0.4c1.7,0,3.3,0,5,0h5c0.4,0,0.8,0,0.8-0.6s-0.4-0.5-0.8-0.5h-4.9
	c-1.7,0-3.4,0-5.1,0C96.2,108.3,95.7,108.4,95.9,109z"/>
<rect x="100.4" y="102.2" class="st0" width="2.2" height="5.8"/>
<path class="st0" d="M102.9,100.7c-0.3,0.2-0.5,0.5-0.7,0.5s-0.4-0.3-0.6-0.4c-0.2,0.1-0.4,0.4-0.7,0.4s-0.4-0.3-0.8-0.6
	c0,0.3,0,0.6,0,0.9c0,0.1,0.4,0.2,0.6,0.2c0.7,0,1.4,0,2.2,0C102.9,101.3,102.9,101,102.9,100.7z"/>
<path class="st0" d="M108.1,231.5c-1.1-0.4-2.2-0.9-3.3-1.3c-0.4-0.2-0.5-0.4-0.3-0.8c0.8-2.1,1.7-4.1,2.5-6.2
	c0.5-1.2,0.5-1.2-1-1.6c-1.2,2.9-2.3,5.8-3.5,8.6c-0.2,0.4,0.1,0.4,0.3,0.6l4.4,1.8l1.1,0.4c0.1-0.2,0.1-0.3,0.2-0.4
	C108.9,231.8,108.9,231.8,108.1,231.5z"/>
<rect x="96.9" y="104.2" class="st0" width="1.7" height="3.7"/>
<path class="st0" d="M96.7,102.8c-0.1-0.1-0.1-0.1-0.2-0.1h-0.1c0,0,0,0.1,0,0.1l-0.1,0.4c0,0.1,0,0.2,0,0.3c0,0.2,0.2,0.3,0.3,0.3
	c0.8,0,1.7,0,2.6,0c0-0.4-0.1-0.7-0.1-1c-0.3,0.2-0.5,0.4-0.7,0.4s-0.4-0.2-0.6-0.4C97.4,103.4,97.2,103.5,96.7,102.8z"/>
<path class="st0" d="M146.3,235.2c-3.2-0.2-5.2,2-5.2,5.1c0.2,2.8,2.6,4.8,5.4,4.6c2.4-0.2,4.3-2,4.6-4.4c0.3-2.7-1.7-5-4.4-5.3
	C146.5,235.2,146.4,235.2,146.3,235.2z M148.2,243.2c-1.1,0.9-2.6,1.1-3.9,0.4c-1.2-0.6-1.9-1.9-1.7-3.2c0-0.7,0.2-1.4,0.4-2.1
	c0.6-1.5,2-2.1,3.8-1.7c1.4,0.3,2.4,1.5,2.5,2.9c0,0.2,0,0.4,0,0.5C149.5,241.1,149.1,242.4,148.2,243.2L148.2,243.2z"/>
<path class="st0" d="M208.6,199.4c-0.3,0.1-0.6,0.2-0.8,0.5c-1.6,1.7-3.1,3.5-4.7,5.1c-4.1,4.1-8.6,7.8-13.6,10.8
	c-4.4,2.8-9.1,5.1-14.1,6.9c-3.2,1.1-6.4,2-9.7,2.8c-1.9,0.4-3.8,0.8-5.7,1c-1.6,0.2-3.3,0.4-5,0.6c-0.1,1.3,0.4,2.8-1.1,3.8
	c7.9-0.3,15.6-1.8,23.1-4.4c14.9-5.3,27.9-14.7,37.6-27.2C212.5,199.3,210.5,199.3,208.6,199.4z"/>
<path class="st0" d="M175.6,230.9c-0.5-1.3-0.5-1.3-1.8-0.5c0.1,0.2,0.2,0.5,0.3,0.7c0.7,1.8,1.5,3.6,2.1,5.5c0.2,0.5,0.1,1-0.1,1.5
	c-0.6,1-1.8,1.6-3,1.4c-1,0-1.4-0.8-1.7-1.5l-0.2-0.6c-0.6-1.6-1.3-3.1-2-4.7c-0.2-0.4-0.5-0.4-0.7-0.2s-1,0-0.7,0.7
	c0.8,1.9,1.5,3.8,2.4,5.6c0.4,1.3,1.7,2.2,3.1,2.1c0.7,0,1.4-0.2,2.1-0.5c2.3-1.1,3.1-2.4,2.2-5
	C176.9,233.9,176.2,232.4,175.6,230.9z"/>
<path class="st0" d="M165.4,187.6c0,0.2,0.2,0.3,0.3,0.4c0.6,0,1.3,0,1.9,0v-5.9h-2.3C165.4,184,165.4,185.8,165.4,187.6z"/>
<path class="st0" d="M209.7,222c1.3,0.2,2.6,0.2,3.8,0.4c0.5,0.1,0.9,0.3,1.2,0.7c0.3,0.6,0,1.3-0.6,1.6c-1.4,1.1-3.4,0.8-4.5-0.6
	c-0.1-0.1-0.2-0.3-0.3-0.5c-0.2,0.1-0.5,0.1-0.7,0.2c-0.6,0.1-0.7,0.4-0.4,0.9c0.4,0.9,1.3,1.7,2.3,1.9c1.4,0.3,2.9,0.1,4.2-0.6
	c1.1-0.5,1.8-1.7,1.7-3c-0.3-1.3-1.4-2.2-2.8-2.1c-1.1-0.1-2.3-0.1-3.4-0.3c-0.4-0.1-0.8-0.3-0.9-0.7c-0.1-0.4,0.1-0.7,0.3-1
	c0.7-0.7,1.8-1,2.8-0.8c0.4,0.1,0.8,0.3,1.1,0.7c0.3,0.8,0.8,0.6,1.4,0.5c0.4-0.1,0.6-0.3,0.3-0.7c-0.3-0.4-0.5-0.8-0.9-1.2
	c-1.6-1.5-4.9-0.6-6,0.6c-0.8,1-0.7,2.5,0.3,3.3C208.9,221.7,209.3,221.9,209.7,222z"/>
<path class="st0" d="M195,222.1c-0.1-0.1-0.3-0.3-0.4-0.3c-1,0.1-1.2,0.4-0.9,1.3c0,0.1,0.1,0.2,0.1,0.2c0.7,1.8,1.4,3.6,2,5.5
	c0.1,0.5,0,1-0.3,1.4c-0.8,1.2-2.4,1.5-3.6,0.8c-0.5-0.3-0.8-0.7-1-1.2c-0.7-1.7-1.4-3.4-2.1-5.1c-0.1-0.2-0.1-0.6-0.6-0.4
	s-0.6,0.3-1,0.5l1,2.7c0.4,0.9,0.7,1.8,1,2.6c0.3,1.2,1.2,2.2,2.3,2.7c1.1,0.3,2.3,0.2,3.3-0.4c2-0.9,3.1-2.5,2.2-4.8
	C196.4,225.7,195.7,223.9,195,222.1z"/>
<path class="st0" d="M152.2,100.7c-0.3,0.2-0.5,0.5-0.8,0.6s-0.4-0.3-0.6-0.4c-0.2,0.1-0.5,0.5-0.6,0.4s-0.5-0.4-0.8-0.7v1.1h2.8
	L152.2,100.7z"/>
<path class="st0" d="M139.4,234.5c-1.1-0.4-2.1-0.6-3.2-0.9c-0.7-0.2-1.3-0.3-2-0.5c-0.2,0.9-0.4,1.8-0.6,2.6
	c-0.5,2.1-1.1,4.2-1.6,6.4c-0.1,0.4-0.1,0.6,0.4,0.6c0.2,0,0.3,0.1,0.4,0.1c0.4,0.1,0.6,0,0.7-0.4c0.2-0.9,0.4-1.8,0.6-2.8
	c0.1-0.4,0.2-0.5,0.6-0.4c1.1,0.3,2.3,0.5,3.4,0.7c1.5,0.2,2.9-0.9,3.1-2.4C141.5,236.2,140.7,234.9,139.4,234.5z M139.4,238
	c-0.3,0.5-0.6,0.6-1.7,0.6c-0.8-0.2-1.8-0.4-2.8-0.6c-0.2-0.1-0.3-0.3-0.3-0.6c0.1-0.8,0.4-1.5,0.5-2.2c0.1-0.3,0.2-0.5,0.6-0.4
	c0.8,0.2,1.7,0.4,2.6,0.6c0.9,0.1,1.5,0.9,1.4,1.8C139.6,237.5,139.5,237.8,139.4,238L139.4,238z"/>
<path class="st0" d="M166.5,233.3c-1.4,0.5-2.9,0.9-4.4,1.3l-2.8,0.8l0.1,0.7c-0.4-0.2-0.9-0.4-1.4-0.5c-1.9,0-3.9,0.1-5.8,0.1
	c-0.4,0-0.5,0.2-0.5,0.6c0.1,2.1,0.1,4.2,0.2,6.4c0,0.9,0.1,1.9,0.2,2.8c0.4,0,0.6,0,0.9,0c0.5,0.1,0.7-0.2,0.6-0.7
	c-0.1-0.7-0.1-1.4-0.1-2.1c-0.1-1.6-0.1-1.5,1.5-1.6c0.8-0.1,1.7,0.3,2.1,1.1c0.5,0.7,1,1.4,1.6,2.1c0.7,1,1.3,1.1,2.7,0.7l-3.4-4.2
	c2.1-0.6,2.6-2.1,1.8-4.1l3.1-0.9c0.8,2.7,1.6,5.4,2.4,8.1c0.2,0,0.4,0,0.6-0.1c0.9-0.2,0.9-0.2,0.7-1.1c-0.7-2.3-1.3-4.5-2-6.8
	c-0.1-0.4-0.1-0.6,0.3-0.7c0.7-0.2,1.4-0.4,2.1-0.6c0.4-0.1,0.7-0.1,0.5-0.7S167.1,233,166.5,233.3z M157.1,239.7
	c-1.2,0.1-2.4,0.1-3.7,0.2c-0.1-1-0.1-1.9-0.2-2.9c1.2-0.1,2.2-0.2,3.3-0.2c0.7-0.1,1.5,0.2,1.9,0.8c0.3,0.8,0,1.7-0.8,2
	C157.5,239.6,157.3,239.7,157.1,239.7z"/>
<path class="st0" d="M119.6,227.1c-0.8,2-1.6,3.9-2.5,5.8c-0.3,1-1.3,1.7-2.3,1.4c-0.1,0-0.1,0-0.2-0.1c-1.8-0.5-2.8-1.4-2.1-3.3
	c0.6-1.6,1.2-3.1,1.8-4.6c0.5-1.2,0.5-1.2-1-1.8c-0.9,2.4-1.8,4.7-2.6,7.1c-0.2,0.9,0.1,1.8,0.8,2.3c1,1,2.3,1.7,3.8,1.7
	c1.1,0.1,2.2-0.4,2.7-1.4c1-2.2,2-4.4,3-6.6L119.6,227.1z"/>
<rect x="104.7" y="104.2" class="st0" width="1.6" height="3.7"/>
<path class="st0" d="M197.6,221.8l2.5,7.8c0.1,0.4,0.3,0.6,0.7,0.4c0.9-0.3,1.8-0.6,2.7-0.9l4.3-1.4c-0.2-0.5-0.4-0.9-0.5-1.3
	c-1.9,0.6-3.7,1.2-5.5,1.8c-0.2,0-0.4-0.1-0.5-0.3c-0.2-0.6-0.4-1.3-0.7-1.9c-0.2-0.4-0.1-0.6,0.4-0.8c1.4-0.4,2.9-0.9,4.3-1.3
	c0.4-0.1,0.6-0.3,0.4-0.7s-0.2-0.5-0.3-0.8l-0.3,0.1c-1.5,0.5-3,1-4.5,1.5c-0.2,0.1-0.6,0-0.6-0.1c-0.3-0.7-0.5-1.5-0.8-2.3
	c1.8-0.6,3.5-1.2,5.2-1.7c0.4-0.1,0.6-0.2,0.4-0.6s0-1-0.8-0.7l-1.5,0.5l-5.3,1.7C197.3,221.2,197.5,221.5,197.6,221.8z"/>
<path class="st0" d="M192.3,105.6v0.8c0,1.7,0,1.7,1.7,1.6v-3.7C192.3,104,192.3,104,192.3,105.6z"/>
<path class="st0" d="M194.9,154.4h-9.8c-0.9,0-0.9,0-0.8,1.1h11.4C195.9,154.5,195.9,154.4,194.9,154.4z"/>
<path class="st0" d="M202.2,108.4c-1.3,0-2.6,0-3.9,0c-2.1,0-4.1,0-6.2,0c-0.5,0-0.8,0-0.9,0.6s0.4,0.6,0.8,0.6h10.1
	c0.4,0,0.7-0.2,0.6-0.6C202.7,108.6,202.5,108.4,202.2,108.4z"/>
<path class="st0" d="M207.5,199.3h-0.8c-5.4,0-10.9,0-16.3,0c-1,0-1.9,0.3-2.7,0.9c-4.2,3.5-8.9,6.4-13.8,8.6
	c-3.8,1.7-7.8,3-11.9,3.8c-2.3,0.5-4.6,0.8-6.9,1.2v12.7c10.1-0.7,19.9-3.5,28.9-8.2C193,213.6,201,207.2,207.5,199.3z"/>
<path class="st0" d="M194.6,102.6c-0.5,0.5-0.9,1.2-1.4,0.1c-0.5,1.2-1,0.4-1.4-0.1v1.1h2.8V102.6z"/>
<rect x="191.9" y="109.8" class="st0" width="10.1" height="3.6"/>
<path class="st0" d="M170,184.2c-0.2,0.1-0.3,0.2-0.4,0.4c0,1.1,0,2.2,0,3.4c0.4,0,0.8,0,1.2,0s0.6-0.2,0.6-0.6c0-0.6,0-1.3,0-2
	C171.4,184.1,171.3,184,170,184.2z"/>
<path class="st0" d="M107,103.7c0-0.4,0-0.7-0.1-1.1c-0.3,0.4-0.5,0.8-0.7,0.8s-0.5-0.3-0.7-0.4c-0.2,0.1-0.5,0.4-0.7,0.4
	s-0.4-0.4-0.7-0.8v1.2h2.5C106.8,103.7,106.9,103.7,107,103.7z"/>
<path class="st0" d="M161.5,195c3.4,0,6.8,0,10.2,0c0.4,0,0.7-0.1,0.7-0.6s-0.3-0.5-0.6-0.5h-10.2c-0.3,0-0.7-0.1-0.7,0.5
	S161.1,195,161.5,195z"/>
<rect x="161.5" y="189.9" class="st0" width="10.1" height="3.5"/>
<path class="st0" d="M171.9,182.7c-0.8,0.8-1,0.8-1.2,0.2c-0.3,0.2-0.6,0.4-0.8,0.4s-0.5-0.4-0.8-0.6v1h2.8V182.7z"/>
<path class="st0" d="M146.3,104.2v3.8c0.4,0,0.8,0,1.1,0c0.5,0,0.6-0.2,0.6-0.6s0-1.1,0-1.6C148,104.1,148,104.1,146.3,104.2z"/>
<path class="st0" d="M154.2,103.3c-0.3-0.1-0.5-0.4-0.8-0.6c0,0.3-0.1,0.5-0.1,0.8c0.1,0.1,0.2,0.2,0.3,0.3c0.9,0,1.7,0,2.5,0v-1.1
	c-0.3,0.3-0.4,0.7-0.6,0.7s-0.5-0.3-0.7-0.4C154.7,103.1,154.4,103.4,154.2,103.3z"/>
<rect x="153.9" y="104.2" class="st0" width="1.7" height="3.7"/>
<path class="st0" d="M98,94.5c0.2,0,0.3,0.1,0.5,0.1c5.9,0,11.8,0,17.7,0c0.4,0,0.8-0.1,1.1-0.3c5.9-3.7,12.4-6.4,19.3-7.9
	c2.9-0.7,5.8-1.1,8.7-1.2c1,0,1-0.1,1-1c0-3.1,0-6.2,0-9.2c0-0.2,0-0.4,0-0.7C128.3,75,111.2,82.2,98,94.5z"/>
<path class="st0" d="M147.1,102.8c-0.2,0.1-0.4,0.4-0.6,0.4s-0.5-0.3-0.8-0.4c-0.3,0.4-0.2,0.9,0.2,1c0.8,0,1.6,0,2.4,0v-1.1
	c-0.3,0.2-0.5,0.5-0.7,0.5S147.2,103,147.1,102.8z"/>
<path class="st0" d="M154.9,74.5c0,3.4,0,6.8,0,10.2c0,0.4,0.2,0.5,0.6,0.6c0.9,0.1,1.9,0.1,2.8,0.3c3.3,0.6,6.6,1.4,9.8,2.4
	c4.7,1.5,9.1,3.6,13.3,6.2c0.5,0.3,1,0.4,1.6,0.4c5.7,0,11.4,0,17.1,0c0.2,0,0.5,0,0.7,0c-12.4-11.8-28.6-19-45.7-20.3
	C154.9,74.4,154.9,74.5,154.9,74.5z"/>
<rect x="195.8" y="102.2" class="st0" width="2.2" height="5.8"/>
<path class="st0" d="M201.8,105.7c0-1.6,0-1.6-1.6-1.5c0,0-0.1,0-0.1,0.1v3.7h1.7V105.7z"/>
<path class="st0" d="M201.6,103.3c-0.3,0-0.5-0.3-0.8-0.5c0,0.1-0.1,0.3-0.1,0.6h-0.7l-0.4-0.7l-0.2,0.1v1h2.9
	c0-0.4-0.1-0.7-0.1-1.1C202,103,201.8,103.3,201.6,103.3z"/>
<path class="st0" d="M198.3,100.6c-0.3,0.3-0.5,0.6-0.7,0.6s-0.4-0.3-0.5-0.4c-0.2,0.2-0.5,0.5-0.7,0.4s-0.5-0.4-0.8-0.7v1.1h2.8
	C198.4,101.3,198.3,101,198.3,100.6z"/>
<path class="st0" d="M127.1,230.4c-1.4-0.7-2.9-1.2-4.4-1.8c-0.4,1.1-0.8,2.1-1.2,3.1c-0.7,1.8-1.4,3.5-2.1,5.2
	c-0.2,0.5-0.2,0.8,0.4,1c0.9,0.3,1.7,0.7,2.6,1c0.9,0.3,1.8,0.5,2.7,0.6c1.4,0,2.4-1.1,2.4-2.5c-0.1-0.7-0.3-1.4-0.6-2
	c0.5-0.4,1-0.8,1.4-1.3c0.6-1.2,0.1-2.6-1.1-3.3C127.3,230.4,127.2,230.4,127.1,230.4z M124.1,238.1c-0.9-0.3-1.7-0.6-2.6-0.9
	c-0.4-0.1-0.5-0.4-0.3-0.8c0.3-0.6,0.5-1.2,0.7-1.9c0.1-0.4,0.3-0.5,0.7-0.3c0.8,0.4,1.6,0.6,2.4,1c0.6,0.3,1.1,0.7,1.1,1.1
	C126.2,237.7,125.2,238.4,124.1,238.1L124.1,238.1z M127.1,233.3c-0.3,0.6-0.9,0.9-1.5,0.6c-1-0.3-2-0.7-3-1.1
	c0.3-0.8,0.6-1.5,0.9-2.2c0.1-0.2,0.3-0.3,0.5-0.3c0.9,0.3,1.8,0.7,2.6,1.1c0.6,0.3,0.9,1.1,0.5,1.7
	C127.2,233.2,127.1,233.2,127.1,233.3L127.1,233.3z"/>
<path class="st0" d="M96.7,94.6c0.3,0,0.6-0.2,0.9-0.4c1.6-1.3,3.1-2.8,4.8-4.1c4.3-3.5,9.1-6.5,14.2-8.9c2.7-1.3,5.4-2.4,8.1-3.4
	c2.6-0.9,5.3-1.6,7.9-2.2c2.1-0.5,4.3-0.9,6.4-1.2c1.3-0.2,2.7-0.3,4-0.4l3.2-0.3c0-1,0-2.1,0-3.1c-0.1-0.6,0.2-1.2,0.7-1.5
	c0.4-0.3,0.8-0.7,1.4-1.1c-23.3,0.9-42.7,9.8-58.7,26.7c0.2,0,0.3,0.1,0.5,0.1C92.3,94.6,94.5,94.6,96.7,94.6z"/>
<path class="st0" d="M79.7,121.1c-2.7,5.1-6.4,21.8-5.6,25h0.2c4.2,0,8.4,0,12.6,0c0.5,0,0.6-0.3,0.6-0.7c0.1-1.3,0.1-2.6,0.3-3.9
	c0.5-3.7,1.2-7.3,2.2-10.8c0.1-0.3,0.1-0.7,0-1c-0.4-1.3-0.9-2.6-1.2-3.9c-0.1-0.4-0.4-0.7-0.7-0.9l-2.9-1.3L79.7,121.1z"/>
<path class="st0" d="M106.6,75.4c0.2-0.1,0.5-0.2,0.7-0.4l-2.7-5.9c0.4,0.2,0.7,0.5,1,0.8l3.5,3.7c0.3,0.3,0.6,0.4,0.9,0.2
	s0.5-0.4,0.5-0.6c-0.1-1.3-0.3-2.5-0.4-3.8c-0.1-0.8-0.1-1.7-0.2-2.6h0.2c0.9,1.9,1.8,3.8,2.7,5.7l1.1-0.6c-1.2-2.6-2.4-5.2-3.5-7.7
	c-0.1-0.2-0.2-0.3-0.3-0.4c-0.5-0.1-1.4,0.8-1.4,1.3c0.2,1.3,0.3,2.7,0.5,4c0.1,0.9,0.2,1.9,0.3,3c-0.2-0.1-0.3-0.3-0.5-0.4
	c-1.4-1.6-2.9-3.1-4.3-4.7c-0.2-0.3-0.7-0.4-1-0.2c0,0,0,0-0.1,0c-0.3,0.2-0.7,0.4-1.1,0.6c1.2,2.6,2.4,5.2,3.6,7.7
	C106.1,75.3,106.4,75.4,106.6,75.4z"/>
<path class="st0" d="M80.5,109.4l3.8,1.8l0.2-0.1c-0.2-0.6-0.3-1.2-0.5-1.8c0-0.1-0.1-0.1-0.2-0.2h-3.1L80.5,109.4z"/>
<path class="st0" d="M115.8,70.3c0-0.1,0-0.1,0-0.2c-0.2-1,0.5-2,1.5-2.2c0.1,0,0.1,0,0.2,0c1.9-0.4,1.8-0.6,2.9,1
	c0.7,0.9,0.8,1,1.9,0.3c-1.7-2.2-3.5-4.5-5.2-6.8c-0.4-0.6-0.9-0.9-1.6-0.6c-0.2,0.1-0.5,0.3-0.5,0.5c-0.1,0.8-0.1,1.6-0.2,2.4
	c-0.1,1.3-0.3,2.6-0.4,3.8c-0.1,1-0.1,2-0.2,3C115.8,71.4,115.8,71.4,115.8,70.3z M116.3,63.5l0.2,0l2.2,3l-2.6,0.8
	C116.1,65.8,116.2,64.7,116.3,63.5z"/>
<path class="st0" d="M72.8,146.1c0.5,0,0.6-0.2,0.7-0.7c0.2-2.3,0.4-4.6,0.7-6.9c0.7-4.8,1.9-9.5,3.6-14c0.4-1.2,0.9-2.4,1.4-3.7
	l-4.7-2.2c-3.6,8.7-5.6,18-5.9,27.4C70,146.1,71.4,146.1,72.8,146.1z"/>
<path class="st0" d="M83.6,108.4l-1.4-4.6l-2.8,4.5c0.1,0,0.3,0,0.4,0.1H83.6z"/>
<path class="st0" d="M88.1,123.4c-1-3.4-2-6.8-3.1-10.2c-0.1-0.2-0.3-0.4-0.5-0.5c-1.3-0.6-2.6-1.2-3.9-1.8l-1.3-0.6
	c-1.2,2.6-2.5,5.1-3.7,7.6l12.5,5.7C88,123.5,88.1,123.4,88.1,123.4z"/>
<path class="st0" d="M171.9,146.9c0.5-0.2,0.8-0.7,0.6-1.3c-0.1-0.3-0.3-0.5-0.6-0.6c-0.5,0-0.9,0.4-0.9,0.9c0,0,0,0.1,0,0.1
	C171,146.5,171.4,146.9,171.9,146.9z"/>
<path class="st0" d="M171.8,152.7c0.5,0.1,0.9-0.2,1-0.7c0-0.1,0-0.1,0-0.2c0.1-0.5-0.3-0.9-0.8-1c0,0-0.1,0-0.1,0
	c-0.5,0-0.9,0.2-0.9,0.9c-0.1,0.5,0.2,0.9,0.7,1C171.7,152.7,171.8,152.7,171.8,152.7z"/>
<path class="st0" d="M123,68.4c0.1,0.6,0.5,0.5,0.9,0.5s0.6-0.3,0.4-0.7c-0.1-0.2-0.1-0.4-0.2-0.6l-0.5-2.7c0.4-0.1,0.7-0.2,1-0.2
	c0.8-0.3,1.6-0.1,2.2,0.5c0.5,0.6,1.1,1.1,1.7,1.7c0.9,0.9,1,0.9,2.3,0.4l-3.4-3.3l0.3-0.2c1-0.7,1.4-2,0.9-3.1
	c-0.4-1.1-1.6-1.7-2.7-1.3c-0.8,0.2-1.6,0.3-2.4,0.5l-2.3,0.5c0.2,0.9,0.4,1.7,0.5,2.4C122.2,64.5,122.6,66.4,123,68.4z M123.1,61
	c1-0.2,2-0.4,2.8-0.6c0.8,0,1.3,0.4,1.5,1c0.2,0.6-0.1,1.3-0.7,1.5c-1,0.3-2,0.6-3,0.8c-0.1,0-0.3-0.2-0.4-0.3
	c-0.2-0.7-0.3-1.3-0.4-2C122.9,61.2,123,61.1,123.1,61L123.1,61z"/>
<path class="st0" d="M169.4,149.8c0.5,0,1-0.4,1-0.9c0.1-0.5-0.3-0.9-0.8-1c0,0-0.1,0-0.1,0c-0.5,0-0.9,0.4-1,0.9
	C168.5,149.3,168.9,149.7,169.4,149.8z"/>
<path class="st0" d="M134.9,65.9c0.1,0.6,0.3,0.6,0.8,0.5c1-0.2,2.1-0.3,3.1-0.5c1.1-0.2,2.1-0.9,2.5-1.9c0.7-1.7,0.5-3.6-0.3-5.2
	c-0.6-1.2-1.9-1.9-3.2-1.8c-0.7,0.1-1.4,0.2-2.1,0.3l-1.9,0.3c0.1,0.5,0.1,0.9,0.1,1.3C134.1,61.2,134.5,63.5,134.9,65.9z
	 M137.7,58.3c0.9-0.1,1.7,0.4,2,1.2c0.6,1.2,0.7,2.6,0.4,3.9c-0.2,0.7-0.9,1.3-1.7,1.4c-0.6,0.1-1.2,0.2-1.9,0.3
	c-0.2,0-0.4-0.1-0.5-0.3c-0.3-2-0.6-4-0.9-6.1L137.7,58.3z"/>
<path class="st0" d="M134.3,145.1c-0.6,0-1,0.4-1,1c0.1,0.5,0.5,0.9,1,0.9c0.5,0,0.9-0.4,0.9-0.9c0,0,0,0,0-0.1
	C135.2,145.5,134.8,145.1,134.3,145.1C134.3,145.1,134.3,145.1,134.3,145.1z"/>
<path class="st0" d="M134.3,150.9c-0.6,0-1,0.4-1,1c0.1,0.5,0.5,0.9,1,0.9c0.5,0,0.8-0.3,0.9-0.8c0,0,0-0.1,0-0.1
	c0.1-0.5-0.2-0.9-0.7-1C134.5,150.9,134.4,150.8,134.3,150.9z"/>
<path class="st0" d="M202.2,113.8h-10.3c-0.4,0-0.7,0.1-0.7,0.6s0.2,0.5,0.6,0.5c1.7,0,3.4,0,5.2,0s3.4,0,5.2,0
	c0.4,0,0.7-0.1,0.7-0.6S202.6,113.8,202.2,113.8z"/>
<path class="st0" d="M178.9,192.2c-0.4,0-0.7,0.2-1,0.5c-1.3,1.4-2.6,2.9-3.9,4.3l-1.6,1.7h40.8l0.1-0.1l-0.2-0.1
	c-2.4-1.8-4.8-3.7-7.2-5.5c-0.3-0.3-0.8-0.5-1.2-0.6C196.1,192.2,187.5,192.1,178.9,192.2z"/>
<path class="st0" d="M69.2,154.2c9.6,0,19.3,0,28.9,0c0.2,0,0.4,0,0.6-0.1c-0.9-2.3-1.8-4.6-2.6-6.8c-0.1-0.4-0.5-0.7-0.9-0.6
	c-8.7,0-17.4,0-26.1,0h-0.7c0,0.2-0.1,0.3-0.1,0.5c0,2.1,0,4.2,0,6.2C68.4,154,68.6,154.2,69.2,154.2z"/>
<path class="st0" d="M231.3,146.7h-27.4c-0.1,0-0.2,0-0.3,0s-0.4,0.2-0.5,0.4c-0.5,1.2-1,2.4-1.4,3.6l-1.4,3.5h10.2
	c6.7,0,13.4,0,20.1,0c0.6,0,0.8-0.1,0.8-0.8c0-0.9,0-1.7,0-2.6C231.3,149.5,231.3,148.1,231.3,146.7z"/>
<path class="st0" d="M196.6,191.4h7.6l-4.9-3.5L196.6,191.4z"/>
<path class="st0" d="M149.7,107.6c0,0.2,0.2,0.3,0.3,0.3c0.6,0,1.3,0,1.9,0v-5.8h-2.2C149.7,104,149.7,105.8,149.7,107.6z"/>
<path class="st0" d="M145.9,108.4c-0.3,0-0.5,0.1-0.7,0.3c-0.1,0.2,0,0.4,0.1,0.6c0.2,0.1,0.5,0.2,0.8,0.2h4.9c1.7,0,3.3,0,5,0
	c0.4,0,0.8-0.1,0.7-0.6s-0.4-0.6-0.8-0.6c-1.4,0-2.7,0-4.1,0C149.8,108.4,147.8,108.3,145.9,108.4z"/>
<path class="st0" d="M223.5,154.7c-3.9,0-7.7,0-11.5,0c-0.6,0-0.8,0.2-0.8,0.8c0,0.5,0,0.9-0.1,1.4c-0.5,3-0.9,6-1.6,9
	c-0.9,3.7-2.1,7.3-3.7,10.7c-0.2,0.4-0.2,0.6,0.2,0.9c3.5,2.7,7.1,5.4,10.7,8.1c0.6-1.1,1.1-2.2,1.6-3.2c2.3-5.1,4.1-10.4,5.2-15.9
	c0.8-3.7,1.3-7.4,1.5-11.2c0-0.4-0.1-0.5-0.4-0.5S223.8,154.7,223.5,154.7z"/>
<path class="st0" d="M131.9,147.9c-0.5,0-0.9,0.3-0.9,0.8c0,0,0,0.1,0,0.1c0,0.5,0.4,0.9,0.9,1c0.5,0,0.9-0.4,0.9-0.9c0,0,0,0,0,0
	c0.1-0.5-0.3-0.9-0.7-0.9C132,147.9,132,147.9,131.9,147.9z"/>
<path class="st0" d="M148,230.6l0.3,0.2c2.1,1.4,3.8,1.2,5.6-0.7c0.4-0.4,0.6-1,0.6-1.6c0-5,0-10.1,0-15.1v-0.9
	c-1,0.6-1.9,1.1-2.8,1.6c-0.3,0.1-0.7,0.2-1,0.1c-1.2-0.4-2.4-0.8-3.6-1.3v0.7c0,5,0,10,0,15C147,229.4,147.4,230.2,148,230.6z"/>
<path class="st0" d="M153.1,164c0.5-0.1,0.9-0.5,0.9-1c-0.1-0.5-0.6-0.9-1.1-0.9c-0.5,0-0.8,0.4-0.8,0.9c0,0,0,0.1,0,0.1
	C152.2,163.6,152.6,164,153.1,164z"/>
<path class="st0" d="M0,300h300V0H0V300z M67.8,145c0.1-2.3,0.3-4.6,0.7-6.9c0.4-2.7,0.9-5.5,1.6-8.2c0.8-3.2,1.7-6.3,2.9-9.4
	c1.2-3.1,2.7-6.1,4-9.1c0.4-1,0.9-2,1.5-3c1-1.7,2.1-3.2,3.1-4.9c0.2-0.3,0.2-0.7,0.2-1c-0.6-2.4-1.3-4.7-2-7.1c-0.3-1-0.3-1,0.7-1
	l7.6-0.1c0.4,0,0.9-0.1,1.2-0.4c2.9-3.2,6-6.1,9.4-8.8c-2.4,0.6-4.9,1.2-7.5,1.8c-2,0.4-4.1,0.8-6.1,1.2c-2.2,0.5-4.4,1-6.6,1.6
	c-1.4,0.3-2.9,0.7-4.3,1.1c-0.2,0-0.4,0-0.7,0c0.3-0.3,0.5-0.5,0.7-0.6c1.7-1.3,3.5-2.5,5.2-3.9c1.7-1.4,2.9-3.4,3.3-5.5
	c0.6-1.7-0.2-3.6-1.8-4.5c-1.9-1.3-4.1-2.3-6.3-3l-6-1.9c-0.2-0.1-0.5-0.2-0.7-0.4c0.5-0.5,1.2-0.7,1.9-0.7
	c3.6-0.2,7.2-0.3,10.8-0.6c1.8-0.2,3.5-0.4,5.3-0.7c1.8-0.3,3.5-0.7,5.2-1.1c2.6-0.7,5.1-1.4,7.6-2.3c4.5-1.6,8.9-3.3,13.3-5
	c3.5-1.3,6.9-2.9,10.4-4.2c3.7-1.4,7.5-2.8,11.3-4.1c3.9-1.2,8-1.8,12.1-1.8c4.8-0.2,9.6,0.1,14.4,0.7c5.7,0.8,11.3,2.2,16.6,4.4
	c6.4,2.5,12.8,5.1,19.2,7.5c5.3,2,10.7,4,16,5.9c3,1.1,6.2,1.2,9.3,1.3s6.2,0.3,9.4,0.5c0.4,0,0.9,0.1,1.3,0.2L232,71
	c-0.2,0.1-0.5,0.3-0.7,0.3c-3.6,1.2-7.2,2.3-10.7,3.6c-1.5,0.6-2.9,1.3-4.3,2.1c-1,0.7-1.6,1.7-1.8,2.9c0,0.8,0.2,1.5,0.6,2.2
	c1.3,2.3,3.4,4.1,5.8,5c1.6,0.7,3.3,1.3,5,2c0.3,0.1,0.6,0.2,1,0.4c-0.3,0.1-0.4,0.2-0.5,0.2c-3.7,0-7.3,0.1-11-0.1
	c-4.1-0.3-8-1.3-11.7-3c-0.2-0.1-0.4-0.1-0.7-0.3c1.1,1,2.1,1.9,3,2.8c1.6,1.6,3.3,3.2,4.9,4.8c0.3,0.3,0.6,0.4,1,0.4
	c3,0,6.1,0.1,9.1,0.1h0.8c-0.2,0.7-0.4,1.2-0.6,1.8c-0.8,2.2-1.7,4.4-2.5,6.6c-0.2,0.4-0.1,0.9,0.1,1.2c0.9,1.4,1.8,2.8,2.6,4.2
	c1.6,3,3.1,6,4.5,9c1.9,4.3,3.4,8.8,4.4,13.3c0.5,2.1,0.8,4.2,1.1,6.4c0.9,5.4,1.2,10.8,0.9,16.2c-0.1,2.8-0.6,5.6-0.9,8.4
	c-0.5,4-1.4,7.9-2.6,11.7c-1.1,3.5-2.3,6.9-3.9,10.2c-1.5,3.3-3.2,6.5-5.2,9.6c-2.2,3.5-4.6,6.8-7.3,9.9c-2.7,3.1-5.7,6.1-8.8,8.8
	c-0.9,0.8-1.9,1.5-2.8,2.3l-0.4,0.3c1.4-0.5,2.7-1.1,4.1-1.4c2.6-0.7,5.3-1.2,7.9-1.8s5.6-1.2,8.3-1.8c1.8-0.4,3.6-1,5.4-1.4
	c0.3,0,0.6-0.1,0.8-0.1l0.1,0.2l-2.4,1.7c-2,1.4-4,2.9-5.3,5c-0.8,1.3-1.3,2.7-1.5,4.2c-0.2,1.5,0.5,3,1.8,3.8
	c1.9,1.4,4.1,2.5,6.3,3.2c1.9,0.6,3.8,1.2,5.7,1.9c0.1,0,0.2,0.1,0.2,0.1c0.1,0,0.1,0.1,0.2,0.2c0.1,0.1,0.3,0.2,0.4,0.4l-0.3,0.2
	c-0.2,0.1-0.4,0.2-0.6,0.2c-1.7,0.2-3.4,0.3-5.1,0.4c-2.8,0.2-5.7,0.2-8.5,0.5c-2.7,0.4-5.3,0.9-7.9,1.5c-4.3,1.1-8.6,2.5-12.8,4.2
	c-4.2,1.6-8.4,3.4-12.7,5.2c-4.6,1.9-9.2,3.8-13.8,5.6c-3.2,1.3-6.6,2.2-10.1,2.7c-2.9,0.3-5.8,0.4-8.7,0.4
	c-6.1,0.1-12.1-0.6-18-2.2c-3.9-1.1-7.8-2.5-11.6-4c-7.9-3.1-15.7-6.5-23.6-9.7c-3.3-1.4-6.7-2.6-10.1-3.8c-2.3-0.7-4.6-1.1-7-1.1
	c-3.5-0.2-7-0.4-10.6-0.6c-0.6,0-1.1-0.2-1.7-0.2v-0.4c0.9-0.3,1.8-0.5,2.8-0.9c3.6-1.3,7.3-2.7,10.9-4c1.7-0.6,3.1-2.1,3.6-3.8
	c0.1-0.5,0.1-1,0-1.4c-0.8-2.5-2.6-4.5-5-5.7c-2-1-4.2-1.9-6.2-2.8c-0.3-0.1-0.6-0.3-0.8-0.5c6.7-0.2,13.3-0.7,19.6,1.8
	c-1-1.1-2.1-2.2-3.1-3.3c-2.1-2.4-4.2-4.8-6.3-7.2c-0.2-0.2-0.4-0.3-0.6-0.4c-0.1-0.1-0.3-0.1-0.3-0.2c-1.5-2.4-3-4.8-4.4-7.2
	c-2.3-3.7-4.2-7.6-5.8-11.6c-1.3-3.4-2.4-6.8-3.4-10.3c-0.7-2.6-1.2-5.3-1.6-8c-0.5-2.6-0.8-5.1-0.9-7.7
	C67.6,151.3,67.7,148.1,67.8,145z"/>
<path class="st0" d="M129.5,150.7c-0.5-0.1-0.9,0.3-1,0.8c-0.1,0.5,0.3,0.9,0.8,1c0.1,0,0.1,0,0.2,0c0.5,0,0.9-0.4,0.9-0.9
	c0,0,0,0,0,0C130.5,151.1,130,150.7,129.5,150.7C129.5,150.7,129.5,150.7,129.5,150.7z"/>
<path class="st0" d="M129.5,145c-0.5,0.2-0.8,0.7-0.6,1.3c0.1,0.3,0.3,0.5,0.6,0.6c0.5,0,1-0.4,1-0.9
	C130.5,145.4,130.1,145,129.5,145z"/>
<path class="st0" d="M150.2,64.1l-0.5-0.1c-1.4-0.1-2.7-0.1-4.1-0.1c-0.5,0-0.6-0.2-0.6-0.6c0-0.5,0-1,0-1.6c0-0.5,0.1-0.7,0.7-0.7
	c1.2,0.1,2.3,0.1,3.5,0.2c0.5,0,0.7-0.1,0.7-0.6s-0.1-0.7-0.7-0.7c-1.2,0-2.4,0-3.6,0c-0.5,0-0.6-0.2-0.6-0.6c0-0.6,0-1.2,0-1.9h0.9
	c1.3,0,2.5,0,3.8,0c0.4,0,0.6-0.1,0.6-0.5c0-0.2,0-0.4,0-0.7h-6.5v9h6.5L150.2,64.1z"/>
<path class="st0" d="M153,135.1c0.5,0,1-0.4,1-0.9c0-0.5-0.4-1-0.9-1c-0.5,0-1,0.4-1,0.9c0,0.5,0.3,0.9,0.8,1
	C152.9,135.1,153,135.1,153,135.1z"/>
<path class="st0" d="M150.6,132.2c0.5,0.1,0.9-0.3,0.9-0.8c0,0,0-0.1,0-0.1c0-0.5-0.3-0.9-0.7-0.9c-0.1,0-0.1,0-0.2,0
	c-0.5,0-0.9,0.4-0.9,0.9S150.1,132.2,150.6,132.2C150.6,132.2,150.6,132.2,150.6,132.2L150.6,132.2z"/>
<path class="st0" d="M148.2,129.4c0.5,0,0.9-0.5,0.9-1c0.1-0.5-0.3-0.9-0.8-1s-0.9,0.3-1,0.8c0,0.1,0,0.1,0,0.2
	C147.3,128.9,147.7,129.4,148.2,129.4z"/>
<path class="st0" d="M146.9,70.3c0,5.4,0,10.8,0,16.2c0,2.5,0,4.9,0,7.4c0,0.5,0.1,0.7,0.7,0.7s1.4,0,2,0h4.7c0-0.2,0-0.3,0-0.4
	c0-8,0-16,0-24c0-0.2-0.1-0.4-0.2-0.5c-2.2-2.1-4.6-2.4-6.8-0.1C147,69.7,146.9,70,146.9,70.3z"/>
<path class="st0" d="M148.2,146.9c0.5-0.1,0.9-0.5,0.8-1c0-0.4-0.4-0.8-0.8-0.8c-0.5,0-0.9,0.5-0.9,1
	C147.3,146.5,147.7,146.9,148.2,146.9z"/>
<path class="st0" d="M189.5,73.6c0.3-0.3,0.6-0.7,1-0.9c0.2-0.2,0.5-0.2,0.8-0.1c0.8,0.3,1.6,0.7,2.4,1.2c0.2,0.1,0.3,0.4,0.4,0.6
	c0,0.6-0.1,1.1-0.1,1.7c-0.1,0.8,0.2,1.2,1.2,1.2c0.1-1.1,0.2-2.3,0.3-3.4c0.1-1.8,0.3-3.7,0.4-5.5c0-0.3-0.1-0.6-0.4-0.8
	c-0.3-0.4-0.9-0.4-1.3-0.1c-0.1,0.1-0.2,0.2-0.2,0.3c-0.3,0.3-0.5,0.6-0.8,0.8l-5.3,5.1C188.7,74.3,188.7,74.3,189.5,73.6z
	 M194.5,68.7c-0.1,1.4-0.2,2.7-0.4,4l-2.3-1.2L194.5,68.7z"/>
<path class="st0" d="M161.7,66.3c0.7,0.2,0.9,0,1-0.7c0.1-0.9,0.3-1.8,0.4-2.8c0.7,0.1,1.2,0.2,1.7,0.2s1.1,0.1,1.6,0.1
	c1.1,0.2,2.4-1,2.5-2.4c0.3-1.3-0.5-2.5-1.8-2.8c-1.5-0.3-3-0.5-4.5-0.8c-0.1,0.4-0.1,0.6-0.2,0.8c-0.2,1.4-0.4,2.8-0.6,4.2
	c-0.2,1.2-0.3,2.4-0.5,3.6C161.4,66,161.5,66.2,161.7,66.3z M163.7,58.6c1.1,0.2,2.1,0.3,3.1,0.6c0.6,0.3,0.9,1,0.8,1.6
	c-0.1,0.7-0.8,1.3-1.5,1.2c-0.8-0.1-1.6-0.2-2.4-0.3c-0.1,0-0.3-0.4-0.2-0.6C163.4,60.3,163.5,59.5,163.7,58.6z"/>
<path class="st0" d="M150.6,149.8c0.5-0.1,0.9-0.5,0.9-1c0-0.5-0.4-0.9-0.9-0.9c0,0,0,0,0,0c-0.5,0-1,0.4-1,0.9
	C149.6,149.4,150.1,149.8,150.6,149.8C150.6,149.8,150.6,149.8,150.6,149.8z"/>
<path class="st0" d="M153,146.9c0.5,0,1-0.4,1-0.9c0-0.5-0.4-1-0.9-1c-0.5,0-0.9,0.4-1,0.9C152,146.4,152.4,146.9,153,146.9
	C152.9,146.9,153,146.9,153,146.9z"/>
<path class="st0" d="M154.1,68.8c0.6,0.4,0.9,1.1,0.8,1.8c-0.1,0.9,0,1.8,0,2.6c0,0.5,0.2,0.7,0.7,0.7c1.8,0.2,3.7,0.3,5.5,0.6
	c2.6,0.5,5.3,1,7.9,1.7c5,1.3,9.9,3.2,14.5,5.5c6.5,3.3,12.5,7.5,17.9,12.5c0.3,0.2,0.6,0.4,1,0.4c2.4,0,4.8,0,7.1,0
	c0.2,0,0.5,0,0.8-0.1c-7.8-8.6-17.4-15.4-28-20c-9.3-4.1-19.2-6.3-29.3-6.5C153.4,68.3,153.7,68.6,154.1,68.8z"/>
<path class="st0" d="M174,68.6c0.3,0.1,0.6,0.2,0.7-0.3s0.2-0.7-0.4-0.9c-1-0.2-1.9-0.6-2.9-0.7c-0.7-0.1-0.6-0.4-0.5-0.9
	c0.6-2.2,1.1-4.3,1.6-6.5c0-0.2,0-0.4-0.2-0.5c-0.3-0.1-0.7-0.2-1-0.2c-0.7,2.9-1.4,5.8-2.1,8.7l0.6,0.2L174,68.6z"/>
<path class="st0" d="M148.2,135c0.5,0,0.9-0.4,0.9-0.8c0-0.1,0-0.1,0-0.2c0-0.5-0.4-0.9-0.9-0.9c-0.5,0.1-0.9,0.5-0.9,1
	c0,0.5,0.4,0.9,0.9,0.9C148.2,135,148.2,135,148.2,135z"/>
<path class="st0" d="M148.2,152.6c0.5,0,0.9-0.5,0.9-1c0-0.5-0.3-0.9-0.8-0.9c0,0-0.1,0-0.1,0c-0.5,0-1,0.4-1,0.9c0,0,0,0,0,0
	C147.2,152.2,147.6,152.6,148.2,152.6C148.2,152.6,148.2,152.6,148.2,152.6z"/>
<path class="st0" d="M153.1,150.9c-0.5,0-0.9,0.3-1,0.8c0,0,0,0,0,0.1c0,0.5,0.4,0.9,0.9,1c0.5,0,1-0.4,1-0.9
	C153.9,151.3,153.5,150.9,153.1,150.9z"/>
<path class="st0" d="M176.8,68.4c0.3-0.4,0.5-0.7,0.8-1.1c0.2-0.2,0.4-0.3,0.7-0.3c0.8,0.2,1.6,0.6,2.5,0.8c0.4,0.1,0.6,0.3,0.6,0.8
	c0,0.5,0,0.9,0,1.4c0.1,1,0.4,1.2,1.4,1.2c-0.2-3.2-0.4-6.3-0.6-9.5c-0.1,0-0.3-0.1-0.4-0.2c-0.6-0.4-1.1-0.2-1.5,0.4
	c-1,1.3-2.1,2.6-3.1,3.9l-2.2,2.8C176,69.2,176.1,69.2,176.8,68.4z M180.9,63h0.2v3.8l-2.5-0.8L180.9,63z"/>
<path class="st0" d="M186.3,68.3c-0.6,1.3-1.1,2.7-1.7,4l1.1,0.6c1-2.4,2.1-4.7,3.1-7.1l2.5,1.1c0.6-0.9,0.6-1.1,0-1.4
	c-1.8-0.8-3.6-1.6-5.3-2.4c-0.4-0.2-0.6-0.2-0.8,0.3s-0.2,0.7,0.3,0.9s1.1,0.5,1.6,0.7c0.4,0.2,0.4,0.3,0.3,0.7
	C187.1,66.5,186.7,67.4,186.3,68.3z"/>
<path class="st0" d="M167.1,146.9c0.5,0,0.9-0.4,0.9-0.9c0,0,0-0.1,0-0.1c0-0.5-0.3-0.9-0.8-0.9c-0.1,0-0.1,0-0.2,0
	c-0.5,0-1,0.5-0.9,1C166.1,146.5,166.6,146.9,167.1,146.9z"/>
<path class="st0" d="M157,65.8c0.3-1.2,0.3-1.2-0.8-1.2l-2.4-0.1c-0.3,0-0.5-0.1-0.8-0.1c0-0.7,0-1.3,0-1.9c0.1-1.8,0.2-3.5,0.4-5.3
	c0.1-0.6-0.2-0.7-0.7-0.7s-0.6,0.3-0.6,0.8c0,1.6-0.2,3.1-0.2,4.7c0,1.2,0,2.3,0,3.5L157,65.8z"/>
<path class="st0" d="M153,129.4c0.5,0,1-0.5,1-1c0-0.5-0.4-0.9-0.9-0.9c-0.5,0-0.9,0.3-0.9,0.8c0,0,0,0.1,0,0.1
	C152.1,128.9,152.5,129.4,153,129.4z"/>
<path class="st0" d="M167,152.5c0.5,0.1,1-0.3,1-0.8c0.1-0.5-0.3-1-0.8-1c-0.1,0-0.1,0-0.2,0c-0.5,0-0.9,0.4-1,0.9
	C166,152.1,166.5,152.5,167,152.5z"/>
</svg>
