<svg id="f251124b-c59f-4777-8ab0-fe7771913d8c" data-name="PRINT" xmlns="http://www.w3.org/2000/svg" viewBox="0 0 300 300"><path d="M187.32,229.71l-4.17,1.7a3.48,3.48,0,0,1,.19.53c.15.66.44.76,1,.43a20.51,20.51,0,0,1,2-.87,7.57,7.57,0,0,1,.45,1.15,1.15,1.15,0,0,1-.13.85,4.93,4.93,0,0,1-3.43,1.83c-1.47.12-2.64-.67-3.34-2.44-1.1-2.79.28-4.77,3.17-5.13a2.56,2.56,0,0,1,2.26,1.12l1-.82a2.88,2.88,0,0,0-2.11-1.54c-2.67-.4-6.75,1.62-6.16,5.62.27,1.82,1.66,4.08,3.68,4.46a6.6,6.6,0,0,0,6.78-3.26.49.49,0,0,0,.07-.38C188.23,231.88,187.78,230.81,187.32,229.71Z"/><path d="M83.06,185.76c3.44-2.5,6.87-5,10.32-7.51a.53.53,0,0,0,.19-.79c-.45-1-.88-2-1.3-3a63.78,63.78,0,0,1-4.55-19.14c0-.47-.21-.6-.67-.6-4.12,0-8.24,0-12.35,0-.22,0-.44,0-.74.05A76.33,76.33,0,0,0,82.57,186,5.38,5.38,0,0,0,83.06,185.76Z"/><path d="M81.88,186c-.25-.6-.56-1.17-.85-1.76a73.31,73.31,0,0,1-5.91-17c-.51-2.37-.89-4.77-1.24-7.17-.23-1.56-.3-3.15-.44-4.72,0-.31,0-.65-.48-.65H68.52a81.25,81.25,0,0,0,10,34.34c1.17-.85,2.24-1.62,3.29-2.42C82,186.52,82,186.17,81.88,186Z"/><path d="M110.12,179c.38-.28.44-.49.19-.93q-2.1-3.77-4.13-7.58c-.28-.54-.48-.5-.9-.19-2.25,1.65-4.52,3.28-6.77,4.92q-9.6,7-19.21,14c-.43.31-.41.51-.16.91,1.15,1.79,2.25,3.59,3.38,5.38.63,1,1.27,2,1.94,3.05.29-.21.54-.37.76-.55l7.92-6.06Q101.63,185.46,110.12,179Z"/><path d="M224.31,115.43q-1.29-2.67-2.57-5.34c-.14-.28-.26-.51-.65-.33-1.85.86-3.71,1.7-5.55,2.58a1.39,1.39,0,0,0-.62.71c-1.09,3-2.15,6.09-3.21,9.15-.27.8-.51,1.62-.83,2.62l14.72-6.74Z"/><path d="M146.37,113.46c1.38,0,2.76,0,4.13,0h5.42v-3.67H145.74c0,1.06,0,2.07,0,3.09C145.72,113.34,145.91,113.47,146.37,113.46Z"/><path d="M145.19,114.88h11.45c.13-1.06.12-1.07-.83-1.07H145.19Z"/><path d="M194.6,148.55s0,0,.11-.08v-3.7c-.46,0-.82,0-1.18,0s-.61.13-.58.58,0,1.12,0,1.69C193,148.7,193,148.7,194.6,148.55Z"/><path d="M225.12,159.06c-.3,2.28-.58,4.56-1,6.81s-1.15,4.69-1.8,7a65.07,65.07,0,0,1-4.57,11.65c-.69,1.36-.72,1.35.48,2.26l3.15,2.38a81.21,81.21,0,0,0,10.1-34.47h-5.87C225.42,156.2,225.32,157.64,225.12,159.06Z"/><path d="M148.21,167.76a1,1,0,0,0-.93,1c0,.54.39.91,1.11.91.39,0,.69-.32.71-.88A.94.94,0,0,0,148.21,167.76Z"/><path d="M110.21,141.26c-.75.91-.87.91-1.35,0-.45,1.43-.92.36-1.4-.07v1.12c.73,0,1.4,0,2.07,0,.23,0,.61,0,.65-.16A2.68,2.68,0,0,0,110.21,141.26Z"/><path d="M219.48,189.32q-2.61-2-5.23-4L199.37,174l-6.06-4.63c-.09.1-.13.12-.15.16-1.57,2.81-3.13,5.61-4.71,8.41-.24.42,0,.55.26.74l9.22,6.72,11.95,8.72,5,3.66.19-.24q2.31-3.72,4.64-7.43C220,189.69,219.74,189.51,219.48,189.32Z"/><path d="M106.4,143.32c-.29.25-.5.59-.7.59s-.47-.32-.66-.46c-.09.13-.17.37-.33.46-.65.35-.59-.51-1-.7v1h2.81C106.44,143.89,106.42,143.6,106.4,143.32Z"/><path d="M113.44,148.56a.56.56,0,0,0,.19-.07v-3.72c-.41,0-.75,0-1.09,0-.49-.05-.7.1-.66.63s0,1.12,0,1.69C111.89,148.64,111.89,148.64,113.44,148.56Z"/><path d="M114.16,143.45c-.26.2-.47.48-.66.47s-.49-.25-.61-.32c-.27.13-.5.35-.71.33s-.39-.28-.59-.43l-.16-.14c0,.32-.06.63-.09,1h2.87C114.19,144,114.17,143.7,114.16,143.45Z"/><path d="M105.83,148.54l.17-.07V146.3c0-1.68,0-1.68-1.74-1.48a1.17,1.17,0,0,0-.06.24c0,.68,0,1.36,0,2C104.23,148.75,103.79,148.62,105.83,148.54Z"/><path d="M108.26,142.59c-.44,0-.59.14-.59.58,0,1.24,0,2.48,0,3.72,0,1.82,0,1.83,1.83,1.67.17,0,.45-.26.45-.41,0-1.82,0-3.64,0-5.55C109.34,142.6,108.8,142.62,108.26,142.59Z"/><path d="M163.46,188s.07-.05.14-.09v-3.72a10.62,10.62,0,0,1-1.14,0c-.5,0-.63.19-.61.64s0,1.17,0,1.76C161.86,188.12,161.86,188.12,163.46,188Z"/><path d="M190.57,141.87c-.22,0-.44-.34-.68-.56,0,.15-.08.35-.12.53-.64.29-.82-.12-.94-.62l-.27,0a3.22,3.22,0,0,0,0,.88c0,.11.37.17.56.18.56,0,1.13,0,1.69,0,.19,0,.52-.1.55-.21a3.47,3.47,0,0,0,0-.85C191,141.54,190.79,141.87,190.57,141.87Z"/><path d="M167.88,180.6c-.31.31-.5.64-.71.66s-.42-.3-.63-.46c-.33.74-.63.72-1.4-.29,0,.48,0,.8-.07,1.19.81,0,1.52,0,2.24,0,.2,0,.56-.06.58-.16A3.72,3.72,0,0,0,167.88,180.6Z"/><path d="M160.84,188.88c0,.5.35.56.75.56h10c.36,0,.7,0,.72-.5s-.29-.58-.71-.58h-10C161.2,188.35,160.85,188.38,160.84,188.88Z"/><rect x="188.91" y="142.65" width="2.14" height="5.88"/><path d="M164.07,182.66c-.25.26-.43.61-.65.63s-.49-.26-.74-.4c-.5,1.18-.85.11-1.33-.3v1.15h2C164.26,183.74,164.28,183.7,164.07,182.66Z"/><path d="M184.26,149.47c0,.52.34.51.68.51h5.16v0h5.08c.39,0,.61-.08.63-.5s-.22-.54-.6-.54H185C184.63,149,184.27,149,184.26,149.47Z"/><rect x="185.4" y="144.81" width="1.66" height="3.74"/><path d="M194.51,150.39h-9c-.44,0-.65.14-.63.64,0,.79,0,1.58,0,2.37,0,.49.15.67.66.67,3,0,6,0,9,0a3.88,3.88,0,0,0,.59-.08c0-1,0-2,0-3C195.15,150.52,195,150.38,194.51,150.39Z"/><path d="M187.54,144.08a2.37,2.37,0,0,0,0-.79c-.26.28-.45.63-.6.61s-.48-.29-.65-.41c-.16.12-.4.45-.59.43s-.5-.34-.85-.61c0,.28,0,.59-.06,1,.81,0,1.52,0,2.24,0C187.18,144.3,187.51,144.2,187.54,144.08Z"/><path d="M195.33,143.36c-1,.74-1,.74-1.38,0-.1.64-.48.69-.89.57-.11-.21-.18-.39-.28-.54s-.23,0-.23.05a2.52,2.52,0,0,0-.05.72c0,.09.23.2.35.21h2.48Z"/><path d="M167.08,170.8a76.38,76.38,0,0,0,10.34-18.44c2.25-5.58,4.23-11.26,6.32-16.9q2.55-6.92,5.07-13.86c.1-.26.15-.53.24-.83H113.14c0,.1,0,.17,0,.23,1.42,4.78,2.79,9.57,4.28,14.33,1.44,4.61,2.92,9.21,4.52,13.76a96.26,96.26,0,0,0,7.21,16,47.87,47.87,0,0,0,12,14.41,32.3,32.3,0,0,0,9.1,5,1.45,1.45,0,0,0,1.06-.1c1.12-.63,2.21-1.29,3.28-2A52.26,52.26,0,0,0,167.08,170.8Zm-27.64-23.45c-.63,1.06-1.16,2.18-1.81,3.23a16.3,16.3,0,0,1-5.06,5.42,1.39,1.39,0,0,1-1.47,0,7,7,0,0,1-3.47-3.66c-.92-2.2-1.64-4.5-2.42-6.76-.18-.52-.24-1.1-.44-1.61s0-.67.5-.66h13.22c.22,0,.44,0,.76,0l-.86,2.88.56.07C139.86,146.37,139.91,146.56,139.44,147.35Zm37.36-4c-.15.55-.27,1-.4,1.48s0,.69.53.65a7.71,7.71,0,0,1,.95.08c-.56.93-1.06,1.7-1.52,2.49a34.7,34.7,0,0,1-4.36,6.37,10.15,10.15,0,0,1-1.95,1.55,1.38,1.38,0,0,1-1.11.08,7.06,7.06,0,0,1-3.44-3.21c-1.71-2.91-2.4-6.18-3.36-9.49Zm-33.42-17.56h14.45c.15.42.29.77.4,1.13a.77.77,0,0,1,0,.45c-.44,1-.89,1.91-1.34,2.87-.72,1.52-1.39,3.07-2.19,4.56a10.22,10.22,0,0,1-3.39,3.62c-.78.52-1.38.06-2-.29a8.58,8.58,0,0,1-3.24-3.88,47.73,47.73,0,0,1-2.66-8.16A1.18,1.18,0,0,1,143.38,125.78ZM158,143.34c-.2.8-.4,1.56-.61,2.38l1.54.12c-.53.94-1,1.77-1.46,2.55-1.08,1.68-2.17,3.35-3.3,5a9.89,9.89,0,0,1-2.92,2.69,1.11,1.11,0,0,1-1.19.06,7.48,7.48,0,0,1-3.87-4.16c-1.11-2.77-2-5.63-3.09-8.63Zm-6.83,29.76a1.49,1.49,0,0,1-1.19,0,7.9,7.9,0,0,1-3.78-4,41.25,41.25,0,0,1-2.48-7.32c-.12-.42-.22-.85-.35-1.34h14.46c.22.44.4.77.53,1.11a.67.67,0,0,1,0,.5c-1.19,2.46-2.36,4.93-3.63,7.36A9.34,9.34,0,0,1,151.12,173.1Z"/><path d="M87.82,197.06c-.61.46-1.21.95-1.81,1.42l.07.14h39.79c-.13-.17-.19-.28-.28-.38-1.72-1.87-3.42-3.76-5.17-5.61a1.54,1.54,0,0,0-1-.45q-12.26,0-24.5,0a2,2,0,0,0-1.1.37C91.78,194,89.8,195.55,87.82,197.06Z"/><path d="M220,109.64h-3.89c-.26.74-.53,1.49-.79,2.24l.12.13C216.88,111.24,218.53,110.83,220,109.64Z"/><path d="M99.53,187.78l-4.8,3.67h7.58Z"/><path d="M104.46,211.75a74.64,74.64,0,0,0,37.25,14.58c1.58.16,3.17.24,4.8.37,0-4.25,0-8.32,0-12.38,0-.15-.32-.39-.51-.42-2.52-.33-5-.58-7.56-1a52.12,52.12,0,0,1-12-3.54,61.15,61.15,0,0,1-15.88-9.7,1.72,1.72,0,0,0-1-.33q-8.49,0-17,0h-1A73.29,73.29,0,0,0,104.46,211.75Z"/><path d="M153,167.89a1,1,0,0,0-.95.93.86.86,0,0,0,.9,1,1,1,0,0,0,1-.9A1.08,1.08,0,0,0,153,167.89Z"/><path d="M148.25,162.15a.85.85,0,0,0-.94.9.9.9,0,0,0,.89,1,1,1,0,0,0,.92-.89A.86.86,0,0,0,148.25,162.15Z"/><path d="M129.93,182.64l-.36.71c-.18,0-.42,0-.56,0s-.19-.33-.29-.54c-.5,1.24-.94.4-1.44-.07v1.07c.72,0,1.39,0,2.06,0S130.22,183.67,129.93,182.64Z"/><path d="M209,131.17a65.09,65.09,0,0,1,2.21,12.46c.06.82.18,1.64.27,2.47h13.42a17.36,17.36,0,0,0,0-2.17c-.33-2.52-.65-5-1.07-7.55a71.83,71.83,0,0,0-4.2-14.57c-.15-.39-.32-.46-.7-.29-2.55,1.18-5.1,2.32-7.64,3.51a1.4,1.4,0,0,0-.69.73q-.79,2.17-1.5,4.38A1.93,1.93,0,0,0,209,131.17Z"/><path d="M150.66,165a1,1,0,0,0-1,.93,1,1,0,0,0,1,.93.94.94,0,0,0,.92-1A.88.88,0,0,0,150.66,165Z"/><path d="M136,184.2c-.39,0-.49.17-.48.54,0,.72,0,1.44,0,2.17,0,1.24.11,1.35,1.35,1.15a.64.64,0,0,0,.4-.46c0-1.08,0-2.16,0-3.4C136.8,184.2,136.4,184.22,136,184.2Z"/><rect x="103.78" y="150.45" width="10.12" height="3.56"/><path d="M128.12,193.65c1.95,0,3.89,0,5.83,0h3.57v-3.69c-.09,0-.12-.07-.16-.07l-9.48,0c-.42,0-.49.23-.49.55,0,.84,0,1.68,0,2.51C127.36,193.47,127.56,193.66,128.12,193.65Z"/><path d="M137.78,182.85c-.26.24-.46.58-.66.58s-.46-.3-.64-.44c-.15.13-.38.47-.55.44s-.49-.32-.78-.53c-.28.47-.22.93.22.95.8,0,1.6,0,2.48,0C137.82,183.45,137.8,183.13,137.78,182.85Z"/><path d="M129.14,184.19c-1.5.11-1.32-.26-1.34,1.34v.54h0v.75c0,1.31,0,1.29,1.29,1.26.38,0,.55-.12.55-.5,0-1,0-1.94,0-2.91C129.61,184.35,129.53,184.17,129.14,184.19Z"/><path d="M114.69,149.49c0-.47-.34-.53-.75-.53-1.67,0-3.34,0-5,0h0c-1.7,0-3.39,0-5.08,0a1,1,0,0,0-.62.26.56.56,0,0,0,0,.55,1.44,1.44,0,0,0,.74.2c3.32,0,6.63,0,10,0C114.35,150,114.69,150,114.69,149.49Z"/><path d="M127.31,195c3.45,0,6.91,0,10.36,0,.38,0,.72,0,.71-.55s-.29-.56-.69-.56H127.32c-.37,0-.62.08-.61.52S126.85,195,127.31,195Z"/><path d="M127.34,189.5c.08.06.22,0,.34,0h4.81v0h4.68a1.27,1.27,0,0,0,.66-.07,2.35,2.35,0,0,0,.52-.6c-.21-.15-.43-.43-.65-.44-1.82,0-3.65,0-5.48,0-1.6,0-3.2,0-4.8,0-.23,0-.47.3-.7.46A8.36,8.36,0,0,0,127.34,189.5Z"/><path d="M218.12,104.46l-.2,0-1.57,4.39h4.49Z"/><path d="M133.83,180.7c-.85.91-1,.91-1.25.14-.23.21-.41.48-.65.56s-.49-.19-.52-.52c0,0-.21-.08-.33-.13v1h2.75Z"/><path d="M133.3,182.18c-.64,0-1.29,0-2,0,0,1.89-.08,3.68,0,5.45.06.9.95.33,1.44.44.3.07.83.22.83-.44,0-1.67,0-3.35,0-5C133.6,182.45,133.42,182.18,133.3,182.18Z"/><path d="M220.62,120.7c-.68.27-.68.56-.47,1.15.86,2.38,1.76,4.75,2.48,7.18a66.15,66.15,0,0,1,1.58,6.79c.45,2.52.72,5.07,1.06,7.61.11.89.2,1.78.3,2.65h6a81.83,81.83,0,0,0-6-27.6C223.84,119.25,222.25,120,220.62,120.7Z"/><path d="M96.57,113.44h9.76a.52.52,0,0,0,.33-.32c0-1.1,0-2.21,0-3.32H96.57Z"/><path d="M103.73,155.55c1.69,0,3.39,0,5.09,0v0c1.76,0,3.52,0,5.29,0,.41,0,.63-.13.63-.58s-.22-.56-.59-.56H103.7c-.38,0-.59.12-.59.54S103.3,155.56,103.73,155.55Z"/><path d="M95.92,114.88h11.45c.08-1.07.08-1.07-.91-1.07H96.77C95.8,113.81,95.8,113.82,95.92,114.88Z"/><path d="M100.54,220.53a2.18,2.18,0,0,1,1.45,2.22c0,.56.24.72.69.77l.86.09a10.16,10.16,0,0,0-.18-1.63c-.88-3-5.17-4.09-7.52-2a5.9,5.9,0,0,0-1.75,3,4.19,4.19,0,0,0,1.15,4.63c2.21,1.92,5,2.13,6.91-.33l-1.14-.93a3.22,3.22,0,0,0-.37.35,2.6,2.6,0,0,1-2.93.88,2.93,2.93,0,0,1-2.28-2.32,4.72,4.72,0,0,1,.71-3.16A3.06,3.06,0,0,1,100.54,220.53Z"/><path d="M147.57,231c-1.37-.67-1-1.87-1-3a.67.67,0,0,1,0-.2c.07-.47-.16-.61-.61-.65-2.35-.21-4.72-.35-7.06-.71-2.92-.46-5.84-1-8.71-1.71a71.55,71.55,0,0,1-14.66-5.55,76.3,76.3,0,0,1-13.74-8.89,75.21,75.21,0,0,1-10.69-10.57,1.08,1.08,0,0,0-.63-.42c-1.63,0-3.25,0-5.06,0A81.36,81.36,0,0,0,147.57,231Z"/><path d="M95.9,109c.06.2.5.42.76.43,1.65,0,3.3,0,5,0h5c.41,0,.79,0,.79-.58s-.39-.52-.76-.52h-4.87c-1.71,0-3.42,0-5.13,0C96.22,108.32,95.74,108.41,95.9,109Z"/><rect x="100.43" y="102.15" width="2.2" height="5.79"/><path d="M102.89,100.74c-.28.21-.49.5-.71.52s-.43-.28-.57-.39c-.21.14-.45.42-.65.4s-.42-.32-.79-.63a3,3,0,0,0,0,.9c0,.1.37.17.57.18.72,0,1.44,0,2.23,0C102.93,101.34,102.91,101,102.89,100.74Z"/><path d="M108.1,231.46c-1.11-.44-2.22-.89-3.33-1.3-.43-.16-.54-.35-.35-.8.85-2.06,1.65-4.14,2.48-6.21.48-1.22.47-1.24-1-1.57-1.17,2.9-2.32,5.75-3.48,8.6-.16.38.07.45.35.57l4.44,1.8,1.14.42c.07-.2.11-.32.16-.44C108.89,231.77,108.89,231.77,108.1,231.46Z"/><rect x="96.95" y="104.22" width="1.69" height="3.72"/><path d="M96.7,102.84a.44.44,0,0,0-.23-.09l-.09,0s0,.06,0,.09l-.06.36a1.13,1.13,0,0,0,0,.26.48.48,0,0,0,.33.32c.82,0,1.65,0,2.55,0,0-.42-.06-.74-.08-1-.3.2-.51.45-.73.45s-.42-.23-.64-.36C97.44,103.45,97.19,103.47,96.7,102.84Z"/><path d="M146.3,235.2c-3.18-.16-5.18,2-5.25,5.15a5,5,0,0,0,9.95.17A4.85,4.85,0,0,0,146.3,235.2Zm1.91,8a3.37,3.37,0,0,1-3.85.36,3,3,0,0,1-1.71-3.24,7,7,0,0,1,.43-2.08c.57-1.46,2-2.06,3.83-1.71a3,3,0,0,1,2.46,2.89c0,.2,0,.4,0,.49A4,4,0,0,1,148.21,243.22Z"/><path d="M208.59,199.36a1.28,1.28,0,0,0-.75.46c-1.57,1.7-3.07,3.48-4.7,5.13a75.85,75.85,0,0,1-13.57,10.83,70.11,70.11,0,0,1-14.08,6.89c-3.17,1.11-6.43,2-9.69,2.83a57.08,57.08,0,0,1-5.7,1c-1.65.25-3.3.43-5,.64-.08,1.3.39,2.78-1.06,3.78a77.84,77.84,0,0,0,23.05-4.42,81.89,81.89,0,0,0,37.55-27.17C212.47,199.34,210.53,199.33,208.59,199.36Z"/><path d="M175.57,230.85c-.52-1.28-.52-1.29-1.84-.54.09.25.17.48.26.71.72,1.82,1.48,3.62,2.13,5.46A2,2,0,0,1,176,238a3,3,0,0,1-3,1.4c-1,0-1.35-.77-1.71-1.51l-.24-.55c-.65-1.56-1.31-3.11-2-4.66-.17-.43-.47-.43-.74-.21s-1,0-.69.73c.78,1.89,1.52,3.79,2.37,5.65a3.05,3.05,0,0,0,3.1,2.06,6,6,0,0,0,2.08-.52c2.26-1.05,3.11-2.42,2.2-5C176.89,233.86,176.19,232.36,175.57,230.85Z"/><path d="M165.38,187.6a.54.54,0,0,0,.34.38c.64,0,1.28,0,1.94,0v-5.86h-2.29C165.37,184,165.36,185.8,165.38,187.6Z"/><path d="M209.71,222c1.26.22,2.56.23,3.82.44a1.92,1.92,0,0,1,1.23.74,1.24,1.24,0,0,1-.57,1.62,3.19,3.19,0,0,1-4.76-1.1,5.66,5.66,0,0,1-.74.18c-.61.07-.71.37-.44.88a3.55,3.55,0,0,0,2.28,1.93,5.92,5.92,0,0,0,4.19-.6,3,3,0,0,0,1.68-3,2.77,2.77,0,0,0-2.75-2.15c-1.12-.07-2.26-.12-3.37-.29a1.36,1.36,0,0,1-.94-.72,1.24,1.24,0,0,1,.29-1,3,3,0,0,1,2.79-.77,1.58,1.58,0,0,1,1.08.68c.32.77.84.65,1.4.51.37-.09.56-.34.33-.7a6.37,6.37,0,0,0-.89-1.16c-1.58-1.49-4.93-.6-6,.65A2.36,2.36,0,0,0,209.71,222Z"/><path d="M195,222.05c-.06-.14-.27-.33-.4-.32-1,.07-1.19.45-.85,1.34,0,.08.07.16.1.25.67,1.83,1.39,3.65,2,5.51a1.87,1.87,0,0,1-.32,1.43,2.57,2.57,0,0,1-4.56-.48c-.72-1.7-1.38-3.42-2.07-5.13-.11-.25-.15-.62-.59-.42s-.64.3-1,.48l1,2.7c.35.88.66,1.78,1,2.64a4.19,4.19,0,0,0,2.32,2.67,4.3,4.3,0,0,0,3.26-.39c2-.89,3.12-2.46,2.24-4.77C196.45,225.72,195.71,223.88,195,222.05Z"/><path d="M152.18,100.69c-.29.24-.5.54-.75.57s-.4-.3-.55-.42c-.19.14-.46.47-.64.43s-.47-.38-.78-.66v1.08h2.76Z"/><path d="M139.36,234.5c-1.05-.38-2.15-.63-3.23-.92-.66-.18-1.33-.31-2-.48-.23.94-.44,1.76-.64,2.59-.54,2.12-1.06,4.25-1.61,6.37-.1.39-.08.62.39.62a1.53,1.53,0,0,1,.45.13c.41.12.63,0,.72-.45.19-.92.42-1.83.63-2.75.08-.36.19-.52.64-.4a25.3,25.3,0,0,0,3.42.7,2.8,2.8,0,0,0,3.1-2.4A2.66,2.66,0,0,0,139.36,234.5Zm0,3.49c-.31.47-.64.62-1.66.6-.75-.17-1.76-.37-2.75-.65a.7.7,0,0,1-.34-.59c.13-.75.35-1.48.52-2.22.08-.33.16-.51.59-.38.84.25,1.71.39,2.55.62A1.62,1.62,0,0,1,139.33,238Z"/><path d="M166.48,233.26c-1.44.49-2.92.88-4.38,1.31l-2.79.84.11.73a4.54,4.54,0,0,0-1.38-.5c-1.93,0-3.87.05-5.81.08-.42,0-.53.16-.51.58.1,2.12.14,4.24.23,6.36,0,.94.13,1.88.19,2.84.35,0,.64,0,.93,0,.53.06.67-.17.62-.67-.07-.69-.07-1.39-.11-2.09-.11-1.55-.11-1.53,1.48-1.6a2.3,2.3,0,0,1,2.13,1.05c.5.7,1,1.37,1.55,2.05.74,1,1.28,1.15,2.66.7L158,240.76c2.05-.65,2.61-2.1,1.8-4.14l3.07-.91c.79,2.7,1.56,5.35,2.35,8.08a5.45,5.45,0,0,0,.64-.07c.88-.21.92-.24.66-1.13-.67-2.26-1.34-4.51-2-6.76-.12-.37-.1-.6.31-.72.7-.19,1.38-.4,2.07-.58.37-.1.73-.12.54-.69S167.15,233,166.48,233.26Zm-9.37,6.41c-1.19.11-2.38.14-3.66.2-.07-1-.14-1.92-.2-2.92,1.18-.09,2.23-.21,3.29-.24a1.86,1.86,0,0,1,1.88.82A1.52,1.52,0,0,1,157.11,239.67Z"/><path d="M119.64,227.15c-.85,2-1.64,3.89-2.49,5.78a1.93,1.93,0,0,1-2.57,1.32c-1.78-.48-2.79-1.39-2.1-3.29.56-1.57,1.23-3.09,1.85-4.63.49-1.21.5-1.21-1-1.76-.88,2.4-1.79,4.74-2.59,7.11a2.32,2.32,0,0,0,.77,2.34,5.51,5.51,0,0,0,3.78,1.72,2.66,2.66,0,0,0,2.71-1.4c1-2.16,2-4.36,3-6.62Z"/><rect x="104.68" y="104.21" width="1.63" height="3.74"/><path d="M197.56,221.83l2.48,7.76c.11.36.26.55.72.37.88-.34,1.79-.58,2.68-.87l4.29-1.41c-.21-.49-.37-.9-.53-1.29-1.92.63-3.7,1.23-5.5,1.79a.6.6,0,0,1-.51-.26c-.25-.62-.41-1.28-.66-1.9-.18-.44-.1-.63.37-.77,1.44-.42,2.87-.9,4.3-1.34.36-.11.55-.3.39-.69s-.2-.53-.3-.8l-.26.05c-1.51.5-3,1-4.54,1.5-.18.06-.58,0-.63-.15-.3-.72-.52-1.47-.79-2.26,1.8-.59,3.52-1.16,5.25-1.69.35-.1.59-.22.38-.57s0-1-.76-.74l-1.47.49-5.26,1.74C197.34,221.17,197.46,221.5,197.56,221.83Z"/><path d="M192.28,105.64v.75c0,1.66,0,1.66,1.74,1.56v-3.72C192.28,104,192.28,104,192.28,105.64Z"/><path d="M194.91,154.44h-9.77c-.91,0-.91,0-.84,1.07h11.45C195.9,154.48,195.87,154.44,194.91,154.44Z"/><path d="M202.23,108.36c-1.31,0-2.62,0-3.93,0-2.05,0-4.1,0-6.16,0-.46,0-.84,0-.87.56s.4.56.81.56h10.1c.43,0,.69-.21.62-.59A.79.79,0,0,0,202.23,108.36Z"/><path d="M207.49,199.34h-.83c-5.43,0-10.86,0-16.29,0a3.78,3.78,0,0,0-2.67.94,59.64,59.64,0,0,1-13.84,8.56A55.77,55.77,0,0,1,162,212.66c-2.26.46-4.55.8-6.87,1.19v12.67a74.29,74.29,0,0,0,28.89-8.2A75.4,75.4,0,0,0,207.49,199.34Z"/><path d="M194.56,102.61c-.47.51-.92,1.22-1.35.06-.52,1.21-1,.42-1.43-.09v1.13h2.78Z"/><rect x="191.92" y="109.77" width="10.08" height="3.61"/><path d="M170,184.18a.61.61,0,0,0-.38.4c0,1.1,0,2.2,0,3.41.45,0,.81,0,1.17,0s.62-.18.6-.64c0-.65,0-1.31,0-2C171.36,184.08,171.28,184,170,184.18Z"/><path d="M107,103.7c0-.37,0-.69-.08-1.14-.3.36-.47.75-.68.77s-.51-.29-.68-.4c-.19.12-.47.44-.69.4s-.41-.41-.72-.75v1.18h2.5A3.16,3.16,0,0,0,107,103.7Z"/><path d="M161.52,195q5.1,0,10.18,0c.44,0,.67-.1.68-.6s-.26-.54-.64-.54H161.49c-.33,0-.7-.07-.7.47S161.06,195,161.52,195Z"/><rect x="161.47" y="189.87" width="10.12" height="3.5"/><path d="M171.85,182.74c-.75.81-1,.81-1.23.18-.28.17-.55.45-.76.41s-.46-.37-.77-.63v1h2.76Z"/><path d="M146.27,104.22V108a10.52,10.52,0,0,1,1.13,0c.49,0,.64-.17.61-.63s0-1.08,0-1.63C148,104.06,148,104.06,146.27,104.22Z"/><path d="M154.24,103.34c-.27-.06-.48-.36-.82-.64a4.91,4.91,0,0,0-.08.79.42.42,0,0,0,.3.26c.85,0,1.69,0,2.51,0v-1.12c-.27.32-.45.69-.63.69s-.51-.28-.7-.4C154.66,103.05,154.41,103.38,154.24,103.34Z"/><rect x="153.88" y="104.21" width="1.68" height="3.73"/><path d="M98,94.52a3.56,3.56,0,0,0,.46.07c5.9,0,11.81,0,17.72,0a2.22,2.22,0,0,0,1.13-.3,61,61,0,0,1,19.27-7.9,50.4,50.4,0,0,1,8.74-1.23c1,0,1-.06,1-1,0-3.08,0-6.15,0-9.23,0-.22,0-.44,0-.74A75.42,75.42,0,0,0,98,94.52Z"/><path d="M147.08,102.85c-.19.14-.4.41-.57.38s-.5-.27-.77-.44c-.3.4-.24.95.21,1,.81,0,1.61,0,2.42,0v-1.05c-.29.22-.5.49-.73.51S147.22,103,147.08,102.85Z"/><path d="M154.89,74.52c0,3.41,0,6.83,0,10.24,0,.42.23.52.6.55.92.07,1.85.12,2.75.28A74.49,74.49,0,0,1,168.08,88a62.08,62.08,0,0,1,13.27,6.17,3.11,3.11,0,0,0,1.58.42c5.7,0,11.4,0,17.1,0,.24,0,.47,0,.7,0A74.27,74.27,0,0,0,155,74.31C154.93,74.44,154.89,74.48,154.89,74.52Z"/><rect x="195.83" y="102.17" width="2.22" height="5.77"/><path d="M201.78,105.67c0-1.6,0-1.6-1.6-1.47,0,0-.08,0-.11.07V108h1.71Z"/><path d="M201.65,103.32c-.28,0-.52-.34-.78-.53,0,.14-.07.35-.12.55h-.67l-.39-.69-.16.07v1h2.87c0-.41-.05-.74-.08-1.12C202,103,201.79,103.35,201.65,103.32Z"/><path d="M198.3,100.61c-.34.31-.53.63-.73.63s-.41-.31-.53-.41c-.22.15-.48.47-.68.44s-.46-.38-.77-.67v1.08h2.81C198.37,101.3,198.34,101,198.3,100.61Z"/><path d="M127.13,230.36c-1.43-.66-2.91-1.21-4.45-1.83-.42,1.09-.81,2.09-1.21,3.09-.69,1.75-1.38,3.51-2.1,5.25-.2.51-.25.84.43,1,.9.27,1.74.72,2.64,1a11.5,11.5,0,0,0,2.74.6,2.48,2.48,0,0,0,2.43-2.48,9.15,9.15,0,0,0-.57-2,6.55,6.55,0,0,0,1.41-1.27A2.42,2.42,0,0,0,127.13,230.36Zm-3,7.73c-.88-.27-1.73-.61-2.6-.92-.39-.14-.52-.35-.34-.77.27-.61.49-1.25.72-1.89.13-.38.32-.48.71-.31.8.35,1.63.63,2.42,1,.6.26,1.07.67,1.08,1.08C126.16,237.73,125.25,238.44,124.15,238.09Zm3-4.83a1.22,1.22,0,0,1-1.51.65c-1-.31-2-.69-3-1.07.32-.81.56-1.51.87-2.17a.63.63,0,0,1,.54-.29,24.85,24.85,0,0,1,2.61,1.1A1.24,1.24,0,0,1,127.12,233.26Z"/><path d="M96.7,94.57a1.55,1.55,0,0,0,.87-.4c1.6-1.35,3.14-2.78,4.77-4.09a70.16,70.16,0,0,1,14.17-8.93,87.18,87.18,0,0,1,8.14-3.37c2.6-.91,5.28-1.59,7.95-2.24,2.11-.52,4.27-.87,6.41-1.22,1.34-.21,2.69-.29,4-.42l3.24-.32c0-1,0-2.09,0-3.12a1.7,1.7,0,0,1,.67-1.53c.43-.33.83-.69,1.35-1.13-23.28.87-42.71,9.78-58.71,26.68a3.48,3.48,0,0,0,.47.09C92.26,94.58,94.48,94.6,96.7,94.57Z"/><path d="M79.69,121.12c-2.67,5.11-6.4,21.85-5.57,25l.25,0c4.21,0,8.42,0,12.63,0,.53,0,.56-.28.59-.68.08-1.3.13-2.61.3-3.91a71.37,71.37,0,0,1,2.22-10.82,1.85,1.85,0,0,0,0-1c-.39-1.31-.86-2.6-1.23-3.91a1.18,1.18,0,0,0-.74-.87l-2.88-1.31Z"/><path d="M106.63,75.36a2.42,2.42,0,0,0,.69-.39l-2.73-5.89a4.21,4.21,0,0,1,1,.83l3.49,3.67c.26.28.55.43.87.15s.47-.42.46-.61c-.1-1.26-.28-2.51-.41-3.76-.08-.85-.13-1.71-.19-2.56l.18,0c.88,1.87,1.76,3.75,2.65,5.67l1.11-.59c-1.2-2.63-2.36-5.17-3.53-7.7-.07-.15-.22-.34-.35-.36-.51-.08-1.44.8-1.39,1.3.15,1.34.32,2.68.48,4,.11.94.21,1.89.34,3a5.65,5.65,0,0,1-.49-.4c-1.44-1.56-2.89-3.11-4.31-4.68a.72.72,0,0,0-1.06-.17c-.33.22-.71.37-1.09.57,1.21,2.59,2.41,5.16,3.63,7.71C106.07,75.29,106.43,75.39,106.63,75.36Z"/><path d="M80.46,109.36l3.75,1.78.16-.13c-.18-.59-.35-1.18-.54-1.77a.26.26,0,0,0-.19-.16H80.53Z"/><path d="M115.83,70.28a.74.74,0,0,0,0-.21,1.87,1.87,0,0,1,1.68-2.21c1.86-.41,1.82-.58,2.94,1,.67.94.82,1,1.92.31-1.73-2.25-3.48-4.48-5.16-6.76-.45-.61-.86-.94-1.57-.57-.2.1-.46.31-.48.5-.1.8-.11,1.61-.17,2.42-.11,1.28-.26,2.56-.36,3.84-.08,1-.1,2-.16,3C115.77,71.37,115.77,71.37,115.83,70.28Zm.46-6.82.17-.05,2.18,3-2.59.76C116.14,65.85,116.22,64.66,116.29,63.46Z"/><path d="M72.79,146.14c.53,0,.63-.23.67-.67.22-2.31.37-4.63.71-6.92a74.26,74.26,0,0,1,3.55-14c.43-1.22.9-2.43,1.37-3.69l-4.73-2.16a80.49,80.49,0,0,0-5.92,27.45C70,146.13,71.37,146.1,72.79,146.14Z"/><path d="M83.6,108.41l-1.36-4.57-2.8,4.51a3,3,0,0,0,.42.06Z"/><path d="M88.08,123.36c-1-3.41-2-6.82-3.09-10.23a1.09,1.09,0,0,0-.52-.54c-1.3-.62-2.61-1.21-3.91-1.8l-1.33-.57c-1.25,2.57-2.48,5.08-3.72,7.64L88,123.6A.81.81,0,0,0,88.08,123.36Z"/><path d="M171.88,146.94a1,1,0,0,0,0-1.9.89.89,0,0,0-.88,1A.9.9,0,0,0,171.88,146.94Z"/><path d="M171.82,152.68a.86.86,0,0,0,1-.88.89.89,0,0,0-.9-1c-.51,0-.91.24-.93.85A.88.88,0,0,0,171.82,152.68Z"/><path d="M123,68.39c.13.64.51.5.89.47s.56-.31.43-.72c-.06-.19-.11-.39-.15-.58l-.54-2.67c.41-.1.7-.15,1-.24a1.92,1.92,0,0,1,2.15.52c.54.58,1.14,1.09,1.69,1.65.87.87,1,.9,2.31.36l-3.44-3.32.35-.24a2.42,2.42,0,0,0,.87-3.09,2.25,2.25,0,0,0-2.7-1.35c-.78.19-1.58.32-2.37.48l-2.26.51c.2.91.37,1.67.53,2.44C122.17,64.53,122.63,66.45,123,68.39Zm.11-7.41c1-.24,2-.44,2.78-.62.85,0,1.32.38,1.46,1a1.24,1.24,0,0,1-.71,1.5,29.36,29.36,0,0,1-3,.81c-.1,0-.34-.19-.38-.33a18.49,18.49,0,0,1-.43-2A.47.47,0,0,1,123.12,61Z"/><path d="M169.44,149.77a1,1,0,0,0,1-.93.9.9,0,0,0-.91-1,1,1,0,0,0-1,.9A1,1,0,0,0,169.44,149.77Z"/><path d="M134.85,65.87c.08.55.32.62.77.54,1-.18,2.08-.32,3.11-.54a3.17,3.17,0,0,0,2.49-1.94,6,6,0,0,0-.34-5.15A3.16,3.16,0,0,0,137.66,57c-.71.07-1.42.19-2.13.3l-1.89.33c.05.49.08.9.14,1.29C134.14,61.21,134.53,63.54,134.85,65.87Zm2.83-7.6a1.87,1.87,0,0,1,2,1.17,5.39,5.39,0,0,1,.37,3.93,2,2,0,0,1-1.66,1.38,13.07,13.07,0,0,1-1.86.29.6.6,0,0,1-.51-.34c-.32-2-.59-4-.88-6.12Z"/><path d="M134.3,145.05a1,1,0,0,0-1,1,1.08,1.08,0,0,0,1,.93.92.92,0,0,0,.9-1A.9.9,0,0,0,134.3,145.05Z"/><path d="M134.34,150.85a1,1,0,0,0-1,1,1,1,0,0,0,1,.87.82.82,0,0,0,.88-.88A.85.85,0,0,0,134.34,150.85Z"/><path d="M202.2,113.81H191.89c-.45,0-.66.1-.67.59s.25.54.64.53c1.72,0,3.44,0,5.16,0s3.44,0,5.16,0c.43,0,.69-.07.67-.58S202.61,113.81,202.2,113.81Z"/><path d="M178.86,192.18a1.53,1.53,0,0,0-1,.48c-1.33,1.41-2.61,2.86-3.91,4.29l-1.55,1.66h40.79l.09-.15-.23-.14c-2.39-1.84-4.77-3.7-7.17-5.52a2.26,2.26,0,0,0-1.21-.61Q191.78,192.13,178.86,192.18Z"/><path d="M69.24,154.19q14.45,0,28.9,0a5,5,0,0,0,.6-.07c-.89-2.34-1.77-4.58-2.59-6.83a.82.82,0,0,0-.93-.62q-13,0-26.06,0h-.68a3.72,3.72,0,0,0-.07.46c0,2.08,0,4.16,0,6.24C68.37,154,68.6,154.19,69.24,154.19Z"/><path d="M231.29,146.67H203.84c-.11,0-.25,0-.33,0s-.43.23-.5.4c-.5,1.2-1,2.42-1.44,3.63l-1.36,3.46H210.4c6.7,0,13.39,0,20.09,0,.59,0,.8-.13.77-.75,0-.85,0-1.72,0-2.57C231.3,149.48,231.29,148.11,231.29,146.67Z"/><path d="M196.6,191.44h7.55l-4.85-3.54Z"/><path d="M149.68,107.63a.45.45,0,0,0,.31.33c.64,0,1.29,0,1.91,0v-5.84h-2.24C149.66,104,149.66,105.83,149.68,107.63Z"/><path d="M145.86,108.36a.9.9,0,0,0-.66.31.58.58,0,0,0,.1.59,1.38,1.38,0,0,0,.76.18h4.88c1.67,0,3.34,0,5,0,.42,0,.75-.11.74-.58s-.37-.56-.77-.55c-1.37,0-2.74,0-4.12,0C149.82,108.36,147.84,108.34,145.86,108.36Z"/><path d="M223.47,154.69c-3.85,0-7.69,0-11.53,0-.59,0-.82.18-.8.77a7.4,7.4,0,0,1-.13,1.41c-.51,3-.94,6-1.6,9a55,55,0,0,1-3.68,10.72c-.16.35-.19.58.17.86,3.54,2.67,7.06,5.36,10.69,8.13.56-1.13,1.12-2.17,1.6-3.25a77.74,77.74,0,0,0,5.21-15.93,75.83,75.83,0,0,0,1.52-11.22c0-.36-.07-.51-.43-.49S223.81,154.69,223.47,154.69Z"/><path d="M131.94,147.9a.86.86,0,0,0-.93.9,1,1,0,0,0,.9,1,.92.92,0,0,0,.92-.95A.85.85,0,0,0,131.94,147.9Z"/><path d="M148,230.58l.33.23c2.11,1.43,3.83,1.21,5.58-.66a2.12,2.12,0,0,0,.63-1.55c0-5,0-10.08,0-15.12v-.89c-1,.59-1.9,1.13-2.82,1.6a1.5,1.5,0,0,1-1,.09c-1.2-.38-2.36-.84-3.62-1.3v.71c0,5,0,10,0,15A2,2,0,0,0,148,230.58Z"/><path d="M153.08,164a1,1,0,0,0,.89-1,1,1,0,0,0-1.09-.86.86.86,0,0,0-.8,1A1,1,0,0,0,153.08,164Z"/><path d="M0,300H300V0H0ZM67.81,145a62.2,62.2,0,0,1,.67-6.94,80.52,80.52,0,0,1,1.59-8.16,89.66,89.66,0,0,1,2.87-9.37c1.16-3.1,2.65-6.07,4-9.08a27,27,0,0,1,1.51-3c1-1.65,2.11-3.24,3.14-4.88a1.4,1.4,0,0,0,.17-1c-.64-2.37-1.32-4.73-2-7.09-.29-1-.29-1,.69-1l7.61-.05A1.36,1.36,0,0,0,89.21,94a80.84,80.84,0,0,1,9.41-8.81c-2.4.58-4.92,1.23-7.47,1.8-2,.45-4.07.76-6.1,1.2-2.2.47-4.38,1-6.57,1.55-1.45.34-2.88.72-4.32,1.07a3.23,3.23,0,0,1-.67,0c.33-.3.51-.49.71-.64,1.72-1.3,3.51-2.52,5.17-3.9a9.87,9.87,0,0,0,3.31-5.54,3.83,3.83,0,0,0-1.78-4.51,22.7,22.7,0,0,0-6.3-3l-6-1.89a3.88,3.88,0,0,1-.69-.39,2.42,2.42,0,0,1,1.89-.69c3.6-.23,7.22-.35,10.83-.61a52.37,52.37,0,0,0,5.28-.74c1.75-.31,3.5-.65,5.21-1.12,2.56-.7,5.11-1.44,7.6-2.34,4.46-1.61,8.89-3.31,13.31-5,3.47-1.35,6.88-2.87,10.36-4.21,3.73-1.44,7.47-2.85,11.27-4.09a44.23,44.23,0,0,1,12.07-1.85,86.72,86.72,0,0,1,14.41.71,70.23,70.23,0,0,1,16.6,4.38c6.41,2.48,12.79,5.08,19.21,7.54,5.31,2,10.66,4,16,5.89,3,1.07,6.16,1.17,9.3,1.35s6.23.32,9.35.5c.44,0,.88.12,1.32.18l.06.2a5,5,0,0,1-.69.35c-3.57,1.21-7.16,2.35-10.7,3.63a29.46,29.46,0,0,0-4.3,2.1A4.14,4.14,0,0,0,214.5,80a3.75,3.75,0,0,0,.59,2.15,11.2,11.2,0,0,0,5.84,5c1.64.7,3.31,1.34,5,2,.29.11.56.24,1,.43-.26.11-.37.2-.47.2-3.67,0-7.34.11-11-.06a32.43,32.43,0,0,1-11.74-3c-.18-.08-.37-.14-.74-.28,1.1,1,2.08,1.86,3,2.76,1.65,1.6,3.26,3.24,4.91,4.84a1.61,1.61,0,0,0,1,.42c3,0,6.07.06,9.1.07h.77c-.24.67-.43,1.24-.64,1.81-.83,2.22-1.66,4.43-2.51,6.64a1.19,1.19,0,0,0,.15,1.23c.9,1.38,1.84,2.75,2.6,4.2,1.55,3,3.05,6,4.46,9a68,68,0,0,1,4.36,13.34c.48,2.1.77,4.25,1.15,6.37a73.87,73.87,0,0,1,.9,16.2c-.11,2.81-.56,5.6-.88,8.4a68.6,68.6,0,0,1-2.57,11.68,78.07,78.07,0,0,1-3.88,10.24,84.13,84.13,0,0,1-5.17,9.58,80.24,80.24,0,0,1-7.34,9.95,87,87,0,0,1-8.81,8.79c-.92.79-1.88,1.53-2.82,2.3l-.37.33c1.45-.5,2.73-1.05,4.08-1.39,2.62-.66,5.27-1.22,7.92-1.79s5.56-1.16,8.33-1.8c1.8-.42,3.56-1,5.35-1.43a3.78,3.78,0,0,1,.83-.05l.09.19-2.41,1.74c-2,1.45-4,2.86-5.32,5a10.89,10.89,0,0,0-1.53,4.24,3.91,3.91,0,0,0,1.77,3.79,21.56,21.56,0,0,0,6.33,3.24c1.9.64,3.8,1.24,5.69,1.89a1,1,0,0,1,.23.12,1.46,1.46,0,0,1,.21.16c.14.12.28.25.42.35l-.34.2a1.4,1.4,0,0,1-.58.25c-1.68.17-3.37.3-5.06.41-2.82.17-5.66.18-8.46.52a79,79,0,0,0-7.9,1.49,89.3,89.3,0,0,0-12.75,4.2c-4.25,1.65-8.45,3.45-12.67,5.17-4.61,1.88-9.19,3.81-13.83,5.58a39.82,39.82,0,0,1-10.11,2.67c-2.88.29-5.78.41-8.67.44a64.19,64.19,0,0,1-18-2.19,114.21,114.21,0,0,1-11.64-4c-7.89-3.14-15.7-6.49-23.57-9.69-3.34-1.36-6.74-2.59-10.14-3.83a24.77,24.77,0,0,0-7-1.15c-3.52-.24-7-.41-10.57-.63-.56,0-1.12-.16-1.68-.25v-.35c.92-.29,1.84-.54,2.75-.87,3.64-1.33,7.29-2.66,10.92-4A5.87,5.87,0,0,0,86.68,219a2.44,2.44,0,0,0,0-1.44,9.85,9.85,0,0,0-5-5.67c-2-1-4.16-1.88-6.24-2.81a2.47,2.47,0,0,1-.79-.49c6.65-.23,13.32-.74,19.61,1.77-1-1.08-2.1-2.17-3.11-3.31-2.11-2.38-4.18-4.8-6.28-7.19a2.71,2.71,0,0,0-.58-.4c-.1-.07-.26-.11-.32-.21-1.49-2.38-3-4.77-4.45-7.16a68.38,68.38,0,0,1-5.78-11.62c-1.28-3.39-2.44-6.84-3.43-10.32a74.91,74.91,0,0,1-1.62-8,67.16,67.16,0,0,1-.92-7.72C67.63,151.28,67.69,148.15,67.81,145Z"/><path d="M129.54,150.72a.91.91,0,1,0,0,1.81.93.93,0,0,0,.94-.94A.9.9,0,0,0,129.54,150.72Z"/><path d="M129.53,145a1,1,0,0,0,0,1.9,1,1,0,0,0,1-.95A1,1,0,0,0,129.53,145Z"/><path d="M150.21,64.12l-.54-.06C148.31,64,147,64,145.6,64c-.48,0-.64-.15-.6-.63a13.51,13.51,0,0,0,0-1.56c0-.51.13-.73.7-.69,1.17.09,2.34.1,3.51.16.49,0,.7-.1.69-.63s-.11-.74-.67-.73c-1.2,0-2.4,0-3.59,0-.46,0-.59-.16-.57-.59,0-.61,0-1.21,0-1.9H146c1.26,0,2.53,0,3.79,0,.42,0,.6-.11.57-.53,0-.21,0-.43,0-.74h-6.54v9h6.47Z"/><path d="M153,135.13a1,1,0,0,0,1-.91,1,1,0,0,0-.93-1,1,1,0,0,0-1,.95A.88.88,0,0,0,153,135.13Z"/><path d="M150.6,132.16a.85.85,0,0,0,.94-.89.82.82,0,0,0-.91-.89.89.89,0,1,0,0,1.78Z"/><path d="M148.2,129.43a1,1,0,0,0,.92-1,.91.91,0,1,0-1.81,0A1,1,0,0,0,148.2,129.43Z"/><path d="M146.88,70.35c0,5.38,0,10.77,0,16.15q0,3.7,0,7.4c0,.52.15.73.7.69s1.35,0,2,0h4.66c0-.23,0-.34,0-.45q0-12,0-24a.78.78,0,0,0-.19-.54c-2.22-2.11-4.59-2.43-6.84-.1A1.41,1.41,0,0,0,146.88,70.35Z"/><path d="M148.21,146.94a.95.95,0,0,0,0-1.89,1,1,0,0,0-.93,1A1,1,0,0,0,148.21,146.94Z"/><path d="M189.51,73.59a9.52,9.52,0,0,1,1-.94.89.89,0,0,1,.75-.13,24.57,24.57,0,0,1,2.42,1.18.83.83,0,0,1,.36.61A15.79,15.79,0,0,1,193.9,76c-.07.84.22,1.15,1.17,1.25.11-1.14.24-2.28.32-3.42.14-1.84.27-3.68.35-5.52a1.06,1.06,0,0,0-.35-.75.94.94,0,0,0-1.54.18,8.89,8.89,0,0,1-.82.8l-5.3,5.1C188.72,74.35,188.74,74.35,189.51,73.59Zm5-4.87c-.13,1.42-.23,2.66-.35,4l-2.34-1.17Z"/><path d="M161.7,66.26c.71.2.91,0,1-.73.09-.91.26-1.81.39-2.75.66.1,1.18.19,1.72.25s1.07.06,1.6.14c1.06.17,2.35-1,2.48-2.37A2.38,2.38,0,0,0,167.08,58c-1.47-.32-3-.53-4.52-.81-.07.36-.12.6-.16.84-.19,1.39-.37,2.77-.56,4.15-.16,1.21-.34,2.41-.47,3.61A.57.57,0,0,0,161.7,66.26Zm2-7.66c1.05.2,2.08.35,3.09.6a1.34,1.34,0,0,1,.75,1.62A1.41,1.41,0,0,1,166,62a22.55,22.55,0,0,1-2.45-.34c-.12,0-.26-.38-.24-.56C163.39,60.32,163.54,59.55,163.7,58.6Z"/><path d="M150.65,149.8a1,1,0,0,0,.89-1,.92.92,0,0,0-.95-.91,1,1,0,0,0-1,.94A1,1,0,0,0,150.65,149.8Z"/><path d="M153,146.94a1,1,0,0,0,1-.93,1,1,0,0,0-.92-1,1,1,0,0,0-1,.9A.93.93,0,0,0,153,146.94Z"/><path d="M154.05,68.78a1.79,1.79,0,0,1,.84,1.78c-.06.87,0,1.76,0,2.64,0,.5.19.66.67.7,1.84.16,3.69.26,5.51.57,2.65.46,5.3,1,7.89,1.66a74.16,74.16,0,0,1,14.5,5.52,78.32,78.32,0,0,1,17.88,12.48,1.76,1.76,0,0,0,1,.43c2.38,0,4.75,0,7.13,0,.23,0,.47,0,.84-.06a81.65,81.65,0,0,0-28-20,76.81,76.81,0,0,0-29.31-6.46C153.4,68.3,153.71,68.56,154.05,68.78Z"/><path d="M174,68.59c.32.08.65.16.74-.27s.19-.74-.41-.86c-1-.2-1.94-.56-2.92-.73-.66-.11-.63-.4-.51-.88.55-2.15,1.1-4.29,1.63-6.45a.62.62,0,0,0-.18-.53,5.64,5.64,0,0,0-1-.19c-.69,2.92-1.37,5.77-2.06,8.67l.6.17Z"/><path d="M148.24,135a.86.86,0,0,0,.87-1,1,1,0,0,0-.94-.94,1,1,0,0,0-.89,1A.9.9,0,0,0,148.24,135Z"/><path d="M148.19,152.64a1,1,0,0,0,.91-1,.85.85,0,0,0-.91-.91.94.94,0,0,0-1,.89A1,1,0,0,0,148.19,152.64Z"/><path d="M153.05,150.88a.91.91,0,0,0-1,.89,1,1,0,0,0,.89,1,1,1,0,0,0,1-.95A1,1,0,0,0,153.05,150.88Z"/><path d="M176.75,68.39a9.56,9.56,0,0,1,.83-1.07.88.88,0,0,1,.67-.27c.84.24,1.64.58,2.47.85.41.13.6.32.56.77a13.45,13.45,0,0,0,0,1.42c.05,1,.41,1.24,1.45,1.16-.19-3.15-.38-6.3-.58-9.51a2.15,2.15,0,0,1-.38-.15c-.65-.4-1.06-.18-1.5.41-1,1.33-2.06,2.58-3.09,3.86L175,68.66C176,69.24,176.12,69.22,176.75,68.39ZM180.93,63l.18,0v3.8L178.59,66Z"/><path d="M186.34,68.26c-.57,1.33-1.12,2.67-1.69,4l1.12.56c1-2.38,2.06-4.73,3.1-7.12l2.53,1.14c.62-.94.62-1.08,0-1.36-1.78-.8-3.57-1.57-5.34-2.39-.41-.19-.58-.17-.76.26s-.21.7.3.89,1.07.46,1.61.68c.38.15.44.35.26.72C187.06,66.52,186.7,67.39,186.34,68.26Z"/><path d="M167.09,146.94a.89.89,0,0,0,.88-1A.88.88,0,0,0,167,145a1,1,0,0,0-.95,1A1.05,1.05,0,0,0,167.09,146.94Z"/><path d="M157,65.76c.33-1.18.32-1.19-.76-1.24l-2.43-.13a7.64,7.64,0,0,1-.79-.13c0-.67,0-1.28,0-1.88.11-1.76.23-3.51.38-5.27.05-.57-.17-.72-.73-.74s-.63.27-.65.75c0,1.57-.18,3.14-.24,4.72,0,1.16,0,2.32,0,3.54Z"/><path d="M153,129.43a1.07,1.07,0,0,0,1-1,1,1,0,0,0-.95-.93.87.87,0,0,0-.94.91A1,1,0,0,0,153,129.43Z"/><path d="M167,152.54a.92.92,0,1,0,0-1.83,1,1,0,0,0-1,.9A1,1,0,0,0,167,152.54Z"/></svg>