<?xml version="1.0" encoding="utf-8"?>
<!-- Generator: Adobe Illustrator 25.4.1, SVG Export Plug-In . SVG Version: 6.00 Build 0)  -->
<svg version="1.1" id="a5f48cc1-2cd1-4fbe-ad6e-46c7c480309d"
	 xmlns="http://www.w3.org/2000/svg" xmlns:xlink="http://www.w3.org/1999/xlink" x="0px" y="0px" viewBox="0 0 300 300"
	 style="enable-background:new 0 0 300 300;" xml:space="preserve">
<style type="text/css">
	.st0{fill:#A1A1AA;}
</style>
<path class="st0" d="M162.8,147.9c-6.2,0.3-12.4-1.1-17.9-4c2.9,5.5,4.3,11.7,4,17.9c0,0.8-0.1,1.5-0.2,2.2l17.6,13.5
	c2.7-2.4,6.5-3.3,10-2.1c-1.2-3.5-0.4-7.4,2.2-10.2L165,147.7C164.2,147.8,163.5,147.9,162.8,147.9z"/>
<path class="st0" d="M146.5,166.9c-0.7,0.3-1.4,0.5-2,0.7c-5.9,1.9-12.3,2.2-18.4,0.8c4.2,4.6,7.2,10.2,8.5,16.3
	c0.2,0.7,0.3,1.5,0.4,2.2l20.5,8.5c2-3.1,5.5-4.9,9.2-4.6c-2.1-3.1-2.3-7.1-0.5-10.4L146.5,166.9z"/>
<path class="st0" d="M154.3,130.9c-4.7,3.6-10.8,4.7-16.4,3.1c6.7,7.6,16.7,11.4,26.7,10.2c3.7-9.4,2.6-20-3-28.4
	C161.6,121.7,159,127.3,154.3,130.9z"/>
<path class="st0" d="M167.8,145.6l13.5,17.6c3.3-1.7,7.2-1.4,10.3,0.6c-0.2-3.7,1.6-7.3,4.7-9.2l-8.5-20.6c-0.7-0.1-1.4-0.2-2.1-0.4
	c-6.1-1.3-11.7-4.2-16.3-8.5c1.4,6.1,1.1,12.4-0.8,18.3C168.3,144.2,168.1,144.9,167.8,145.6z"/>
<path class="st0" d="M190,177.5c2.9-2.2,3.4-6.4,1.2-9.3c-2.2-2.9-6.4-3.4-9.3-1.2c-2.9,2.2-3.4,6.4-1.2,9.3c0,0,0,0,0,0
	C182.9,179.2,187.1,179.7,190,177.5C190,177.5,190,177.5,190,177.5z"/>
<path class="st0" d="M204.2,169.3c3.4-1.4,5-5.3,3.6-8.6c-1.4-3.4-5.3-5-8.6-3.6c-3.4,1.4-5,5.3-3.6,8.6
	C197,169.1,200.9,170.7,204.2,169.3z"/>
<path class="st0" d="M116.7,160.6c8.4,5.6,19,6.7,28.4,3c1.1-10-2.7-20-10.2-26.6c2.8,9.8-2.8,20.1-12.7,23
	C120.4,160.5,118.6,160.7,116.7,160.6L116.7,160.6z"/>
<path class="st0" d="M176.4,102c2.3-0.9,3.3-3.5,2.4-5.8c-0.9-2.3-3.5-3.3-5.8-2.4s-3.3,3.5-2.4,5.8c0,0,0,0,0,0
	C171.6,101.9,174.2,102.9,176.4,102z"/>
<path class="st0" d="M181.8,115c-5.4,2.3-11.6,1.8-16.7-1.3c4.5,9,13.2,15.3,23.1,16.8c6-8.1,7.7-18.6,4.4-28.2
	C191.3,108,187.3,112.8,181.8,115z"/>
<path class="st0" d="M178.3,189.2c2.2-2.9,1.7-7.1-1.2-9.3s-7.1-1.7-9.3,1.2c-2.2,2.9-1.7,7.1,1.2,9.3c0,0,0,0,0,0
	C171.9,192.6,176.1,192.1,178.3,189.2C178.3,189.2,178.3,189.2,178.3,189.2z"/>
<path class="st0" d="M211.5,201.7l-15.7-27.2c-1.3,5.4-6.7,8.8-12.1,7.6c-0.3-0.1-0.7-0.2-1-0.3c1.8,5.3-1,11.1-6.4,12.9
	c-0.3,0.1-0.5,0.2-0.8,0.2l27,15.6C204.9,207.1,207.9,204.1,211.5,201.7z"/>
<path class="st0" d="M161.5,207.1c3.4,1.4,7.3-0.2,8.7-3.6s-0.2-7.3-3.6-8.7c-3.4-1.4-7.3,0.2-8.7,3.6c0,0,0,0,0,0
	C156.5,201.8,158.1,205.6,161.5,207.1C161.4,207,161.5,207,161.5,207.1z"/>
<path class="st0" d="M212.5,106.8c-5.8,0.8-11.7-1.3-15.8-5.5c2,9.9,8.7,18.2,18,22.2c7.9-6.3,12.2-16,11.6-26.1
	C223.5,102.5,218.4,106,212.5,106.8z"/>
<path class="st0" d="M210.7,92.8c2.4-0.3,4.1-2.5,3.8-5c-0.3-2.4-2.5-4.1-5-3.8s-4.1,2.5-3.8,5c0,0,0,0,0,0
	C206.1,91.4,208.3,93.1,210.7,92.8z"/>
<path class="st0" d="M220.1,165c3.6-0.5,6.2-3.8,5.7-7.4c-0.5-3.6-3.8-6.2-7.4-5.7c-3.6,0.5-6.2,3.8-5.7,7.4
	C213.2,162.9,216.5,165.5,220.1,165C220.1,165,220.1,165,220.1,165z"/>
<path class="st0" d="M103.2,191.8c9.6,3.2,20.1,1.5,28.2-4.5c-1.5-10-7.8-18.6-16.8-23.1c5.3,8.8,2.5,20.2-6.3,25.4
	C106.7,190.7,105,191.4,103.2,191.8z"/>
<path class="st0" d="M191.1,132.7l8.5,20.5c3.6-0.8,7.3,0.5,9.8,3.2c0.7-3.7,3.4-6.6,7-7.7l-2.9-22c-0.7-0.3-1.3-0.6-2-0.9
	c-5.6-2.8-10.2-7.1-13.6-12.4c-0.2,6.2-2.1,12.3-5.5,17.5C191.9,131.5,191.5,132.1,191.1,132.7z"/>
<path class="st0" d="M212.1,103.3c8.2-1.1,14-8.6,12.9-16.8c-1.1-8.2-8.6-14-16.8-12.9c-8.2,1.1-14,8.6-12.9,16.8
	C196.3,98.6,203.9,104.4,212.1,103.3C212.1,103.3,212.1,103.3,212.1,103.3z M209.1,80.5c4.4-0.6,8.3,2.5,8.9,6.8
	c0.6,4.4-2.5,8.3-6.8,8.9c-4.4,0.6-8.3-2.5-8.9-6.8c0,0,0,0,0,0C201.7,85.1,204.7,81.1,209.1,80.5C209.1,80.5,209.1,80.5,209.1,80.5
	L209.1,80.5z"/>
<path class="st0" d="M201.1,225.8h25.6v-25.5C213,201.1,202,212.1,201.1,225.8z"/>
<path class="st0" d="M124.3,213.8c-4-9.3-12.3-16-22.2-18c7.4,7.1,7.6,18.8,0.5,26.2c-1.3,1.3-2.8,2.5-4.4,3.4
	C108.3,226,118,221.7,124.3,213.8z"/>
<path class="st0" d="M0,300h300V0H0V300z M70.9,206.8c0.7-5.5,3.9-10.4,8.6-13.4c-2.6-2.2-3-6-0.9-8.7c1-1.2,2.3-1.9,3.8-2.2
	c-4.8-9-1.5-20.2,7.5-25.1c1.1-0.6,2.3-1.1,3.5-1.4c-2-2.8-1.3-6.6,1.4-8.6c1-0.7,2.3-1.1,3.6-1.1c0.2,0,0.4,0,0.6,0
	c-2.3-10,3.8-20,13.8-22.3c1.2-0.3,2.4-0.4,3.7-0.5c-1.2-3.2,0.4-6.7,3.6-7.9c0.7-0.3,1.4-0.4,2.2-0.4c0.7,0,1.5,0.1,2.1,0.4
	c0.3-10.2,8.8-18.3,19-18c1.3,0,2.5,0.2,3.7,0.5c0-0.2,0-0.4,0-0.6c0-3.4,2.8-6.2,6.2-6.2c1.3,0,2.5,0.4,3.6,1.2
	c2.9-9.8,13.3-15.4,23.1-12.4c1.2,0.4,2.4,0.8,3.5,1.4c0.5-3.4,3.7-5.6,7.1-5.1c1.5,0.2,2.8,1,3.8,2.2c5.4-8.7,16.8-11.4,25.5-6
	c1.1,0.7,2,1.4,2.9,2.3c1-2.2,3.2-3.6,5.6-3.6h1.8v158h-158v-1.8c0-2.4,1.4-4.6,3.6-5.6C72,217.9,70.2,212.3,70.9,206.8z"/>
<path class="st0" d="M87.3,224.1c8.2,1.1,15.7-4.7,16.8-12.9c1.1-8.2-4.7-15.7-12.9-16.8c-8.2-1.1-15.7,4.7-16.8,12.9
	C73.3,215.5,79.1,223,87.3,224.1C87.3,224.1,87.3,224.1,87.3,224.1z M81.4,208.2c0.6-4.4,4.6-7.4,8.9-6.9c4.4,0.6,7.4,4.6,6.9,8.9
	c-0.6,4.4-4.6,7.4-8.9,6.9c0,0,0,0,0,0C83.9,216.5,80.9,212.5,81.4,208.2z"/>
<path class="st0" d="M88.7,213.6c2.4,0.3,4.6-1.4,5-3.8s-1.4-4.6-3.8-5c-2.4-0.3-4.6,1.4-5,3.8C84.6,211,86.2,213.3,88.7,213.6
	C88.7,213.6,88.7,213.6,88.7,213.6z"/>
<path class="st0" d="M154.1,198.7l-20.5-8.5c-0.6,0.4-1.2,0.9-1.8,1.2c-5.2,3.4-11.3,5.3-17.5,5.6c5.3,3.3,9.6,8,12.4,13.5
	c0.3,0.7,0.7,1.3,1,2l22,2.9c1.1-3.5,4.1-6.1,7.7-6.9C154.5,206.1,153.3,202.3,154.1,198.7z"/>
<path class="st0" d="M160.2,212c-3.6-0.5-6.9,2.1-7.4,5.7c-0.5,3.6,2.1,6.9,5.7,7.4c3.6,0.5,6.9-2.1,7.4-5.7
	C166.3,215.8,163.8,212.5,160.2,212z"/>
<path class="st0" d="M211.6,165.1c-1.1,5.5-6.4,9.1-11.9,8c-0.3-0.1-0.5-0.1-0.8-0.2l15.6,27c3.8-1.9,7.9-3,12.1-3.2v-31.3
	c-3.8,4.1-10.3,4.3-14.3,0.4C212.1,165.6,211.9,165.4,211.6,165.1L211.6,165.1z"/>
<path class="st0" d="M93,187.7c7.7,3.2,16.4-0.5,19.6-8.1c3.2-7.7-0.5-16.4-8.1-19.6c-7.7-3.2-16.4,0.5-19.6,8.1
	C81.7,175.8,85.3,184.5,93,187.7C93,187.7,93,187.7,93,187.7z M91.4,170.8c1.7-4.1,6.3-6,10.4-4.3c4.1,1.7,6,6.3,4.3,10.4
	c-1.7,4-6.3,6-10.4,4.3C91.7,179.5,89.8,174.9,91.4,170.8L91.4,170.8z"/>
<path class="st0" d="M218.6,124.8c-0.6,0.5-1.1,1-1.7,1.5l2.9,22c2.6,0.1,5.1,1.3,6.9,3.2v-37.6C224.7,118,222,121.7,218.6,124.8z"
	/>
<path class="st0" d="M173.4,204.8c-1.3,3.1-4.1,5.4-7.4,6.1c2.6,2.2,3.8,5.6,3.4,9c-0.3,2.3-1.3,4.4-3,6h31.2
	c0.2-4.2,1.3-8.4,3.2-12.1L173.7,198C174.4,200.2,174.3,202.7,173.4,204.8z"/>
<path class="st0" d="M127.1,216c-0.4,0.6-0.9,1.1-1.4,1.7c-3.1,3.4-6.8,6.2-11,8.1h37.5c-1.9-1.8-3-4.3-3.1-6.9L127.1,216z"/>
<path class="st0" d="M180.5,111.7c7.7-3.2,11.3-11.9,8.1-19.6c-3.2-7.7-11.9-11.3-19.6-8.1s-11.3,11.9-8.1,19.6c0,0,0,0,0,0
	C164,111.3,172.8,114.9,180.5,111.7z M171.7,90.5c4.1-1.7,8.7,0.2,10.4,4.3c1.7,4.1-0.2,8.7-4.3,10.4s-8.7-0.2-10.4-4.3c0,0,0,0,0,0
	C165.7,96.9,167.7,92.3,171.7,90.5L171.7,90.5z"/>
<path class="st0" d="M114.4,145.6c1.9,1.5,4.7,1.1,6.2-0.8c1.5-1.9,1.1-4.7-0.8-6.2c-1.9-1.5-4.7-1.1-6.2,0.8c0,0,0,0,0,0
	C112.1,141.4,112.5,144.1,114.4,145.6C114.4,145.6,114.4,145.6,114.4,145.6z"/>
<path class="st0" d="M145.7,119.7c1.9-1.5,2.3-4.3,0.8-6.2c-1.5-1.9-4.3-2.3-6.2-0.8c-1.9,1.5-2.3,4.3-0.8,6.2c0,0,0,0,0,0
	C141,120.8,143.7,121.2,145.7,119.7z"/>
<path class="st0" d="M152.1,128.1c6.6-5,7.8-14.4,2.8-21c-5-6.6-14.4-7.8-21-2.8c-6.6,5-7.8,14.4-2.8,21c0,0,0,0,0,0
	C136.2,131.9,145.6,133.1,152.1,128.1z M138.1,109.9c3.5-2.7,8.5-2.1,11.1,1.4c2.7,3.5,2.1,8.5-1.4,11.1c-3.5,2.7-8.5,2.1-11.1-1.4
	c0,0,0,0,0-0.1C134.1,117.5,134.7,112.6,138.1,109.9L138.1,109.9z"/>
<path class="st0" d="M97.1,177.9c2.2,0.9,4.8-0.1,5.8-2.4s-0.1-4.8-2.4-5.8c-2.2-0.9-4.8,0.1-5.8,2.4
	C93.8,174.4,94.8,177,97.1,177.9C97.1,177.9,97.1,177.9,97.1,177.9z"/>
<path class="st0" d="M108,154c6.6,5,16,3.8,21-2.8s3.8-16-2.8-21c-6.6-5-16-3.8-21,2.8c0,0,0,0,0,0C100.2,139.6,101.4,149,108,154z
	 M110.8,137.2c2.7-3.5,7.7-4.1,11.1-1.5c3.5,2.7,4.1,7.7,1.5,11.1c-2.7,3.5-7.7,4.1-11.1,1.5C108.8,145.7,108.1,140.8,110.8,137.2
	L110.8,137.2z"/>
</svg>
