<svg id="a5f48cc1-2cd1-4fbe-ad6e-46c7c480309d" data-name="PRINT" xmlns="http://www.w3.org/2000/svg" viewBox="0 0 300 300"><path d="M162.79,147.92a34.57,34.57,0,0,1-17.95-4,34.58,34.58,0,0,1,4,17.91c0,.76-.11,1.5-.19,2.24l17.64,13.53a10.15,10.15,0,0,1,10-2.1,10.18,10.18,0,0,1,2.17-10.16L165,147.73C164.24,147.81,163.52,147.88,162.79,147.92Z"/><path d="M146.46,166.87c-.68.28-1.35.52-2,.74a34.55,34.55,0,0,1-18.38.83,34.55,34.55,0,0,1,8.49,16.27c.16.72.29,1.46.4,2.2l20.53,8.51a10.14,10.14,0,0,1,9.18-4.62,10.15,10.15,0,0,1-.54-10.38Z"/><path d="M154.28,130.92A18.48,18.48,0,0,1,137.83,134a30.87,30.87,0,0,0,26.69,10.22,30.86,30.86,0,0,0-3-28.39A18.54,18.54,0,0,1,154.28,130.92Z"/><path d="M167.78,145.61l13.53,17.62a10.17,10.17,0,0,1,10.26.59,10.14,10.14,0,0,1,4.72-9.25L187.79,134c-.73-.1-1.44-.23-2.15-.38a34.69,34.69,0,0,1-16.32-8.48,34.6,34.6,0,0,1-.79,18.34C168.3,144.21,168.05,144.91,167.78,145.61Z"/><path d="M190,177.52a6.62,6.62,0,1,0-9.28-1.22A6.61,6.61,0,0,0,190,177.52Z"/><path d="M204.23,169.27a6.62,6.62,0,1,0-8.65-3.59A6.63,6.63,0,0,0,204.23,169.27Z"/><path d="M116.71,160.65a30.88,30.88,0,0,0,28.43,3A30.89,30.89,0,0,0,134.89,137a18.54,18.54,0,0,1-18.18,23.68Z"/><path d="M176.41,102a4.41,4.41,0,1,0-5.76-2.38A4.41,4.41,0,0,0,176.41,102Z"/><path d="M181.82,115a18.53,18.53,0,0,1-16.69-1.26,30.94,30.94,0,0,0,23.14,16.78,30.92,30.92,0,0,0,4.45-28.2A18.49,18.49,0,0,1,181.82,115Z"/><path d="M178.33,189.18a6.62,6.62,0,1,0-9.28,1.22A6.61,6.61,0,0,0,178.33,189.18Z"/><path d="M211.49,201.74l-15.67-27.16a10.12,10.12,0,0,1-13.13,7.3A10.17,10.17,0,0,1,175.56,195l27,15.61A30.79,30.79,0,0,1,211.49,201.74Z"/><path d="M161.46,207.05a6.62,6.62,0,1,0-3.58-8.65A6.61,6.61,0,0,0,161.46,207.05Z"/><path d="M212.54,106.79a18.59,18.59,0,0,1-15.79-5.54,30.9,30.9,0,0,0,18,22.19,30.9,30.9,0,0,0,11.6-26.09A18.56,18.56,0,0,1,212.54,106.79Z"/><path d="M210.69,92.78a4.42,4.42,0,1,0-4.95-3.8A4.42,4.42,0,0,0,210.69,92.78Z"/><path d="M220.14,165a6.62,6.62,0,1,0-7.43-5.7A6.62,6.62,0,0,0,220.14,165Z"/><path d="M103.2,191.84a30.86,30.86,0,0,0,28.22-4.49,30.86,30.86,0,0,0-16.79-23.08,18.53,18.53,0,0,1-11.43,27.57Z"/><path d="M191.06,132.7l8.5,20.53a10.19,10.19,0,0,1,9.76,3.21,10.14,10.14,0,0,1,7-7.71l-2.91-22c-.66-.3-1.32-.6-2-.94a34.57,34.57,0,0,1-13.57-12.39,34.66,34.66,0,0,1-5.5,17.5C191.93,131.49,191.5,132.1,191.06,132.7Z"/><path d="M212.07,103.28a15,15,0,1,0-16.83-12.92A15,15,0,0,0,212.07,103.28Zm-3-22.76a7.95,7.95,0,1,1-6.84,8.92A7.95,7.95,0,0,1,209.08,80.52Z"/><path d="M201.13,225.79h25.55V200.25A27.36,27.36,0,0,0,201.13,225.79Z"/><path d="M124.32,213.83a30.9,30.9,0,0,0-22.19-18,18.53,18.53,0,0,1-3.9,29.59A30.89,30.89,0,0,0,124.32,213.83Z"/><path d="M0,300H300V0H0Zm70.91-93.17a18.46,18.46,0,0,1,8.62-13.35,6.17,6.17,0,0,1,2.91-10.86,18.52,18.52,0,0,1,11-26.52,6.18,6.18,0,0,1,5-9.77,4.08,4.08,0,0,1,.59,0,18.55,18.55,0,0,1,17.48-22.79,6.17,6.17,0,0,1,5.8-8.33,6.12,6.12,0,0,1,2.14.41,18.52,18.52,0,0,1,22.78-17.49c0-.2,0-.39,0-.6a6.17,6.17,0,0,1,9.76-5,18.53,18.53,0,0,1,26.53-11,6.16,6.16,0,0,1,10.85-2.91,18.54,18.54,0,0,1,28.47-3.74,6.17,6.17,0,0,1,5.55-3.59h1.82v158h-158v-1.77a6.17,6.17,0,0,1,3.6-5.61A18.45,18.45,0,0,1,70.91,206.83Z"/><path d="M87.32,224.11A15,15,0,1,0,74.4,207.28,15,15,0,0,0,87.32,224.11ZM81.4,208.2a7.95,7.95,0,1,1,6.84,8.91A8,8,0,0,1,81.4,208.2Z"/><path d="M88.7,213.61a4.42,4.42,0,1,0-3.8-5A4.41,4.41,0,0,0,88.7,213.61Z"/><path d="M154.08,198.67l-20.52-8.51c-.59.43-1.19.85-1.79,1.25A34.5,34.5,0,0,1,114.23,197a34.73,34.73,0,0,1,12.41,13.53c.34.66.65,1.34,1,2l22,2.9a10.17,10.17,0,0,1,7.67-6.85A10.19,10.19,0,0,1,154.08,198.67Z"/><path d="M160.16,212a6.61,6.61,0,1,0,5.69,7.42A6.64,6.64,0,0,0,160.16,212Z"/><path d="M211.65,165.13a10.13,10.13,0,0,1-12.71,7.79l15.6,27a31,31,0,0,1,12.14-3.25V165.38a10.15,10.15,0,0,1-15-.25Z"/><path d="M93,187.71a15,15,0,1,0-8.12-19.6A15,15,0,0,0,93,187.71Zm-1.6-16.9a7.94,7.94,0,1,1,4.3,10.38A8,8,0,0,1,91.42,170.81Z"/><path d="M218.59,124.8c-.56.51-1.13,1-1.71,1.46l2.9,22a10.16,10.16,0,0,1,6.9,3.19l0-37.58A34.25,34.25,0,0,1,218.59,124.8Z"/><path d="M173.36,204.81a10.1,10.1,0,0,1-7.38,6.07,10.16,10.16,0,0,1,3.38,9,10,10,0,0,1-3,6h31.23a30.39,30.39,0,0,1,3.25-12.12L173.71,198A10.05,10.05,0,0,1,173.36,204.81Z"/><path d="M127.11,216c-.45.57-.92,1.12-1.4,1.66a34.67,34.67,0,0,1-11,8.13h37.48a10.08,10.08,0,0,1-3.07-6.89Z"/><path d="M180.46,111.74a15,15,0,1,0-19.6-8.11A15,15,0,0,0,180.46,111.74Zm-8.78-21.19a7.95,7.95,0,1,1-4.3,10.37A8,8,0,0,1,171.68,90.55Z"/><path d="M114.39,145.61a4.42,4.42,0,1,0-.81-6.18A4.4,4.4,0,0,0,114.39,145.61Z"/><path d="M145.68,119.7a4.42,4.42,0,1,0-6.19-.81A4.42,4.42,0,0,0,145.68,119.7Z"/><path d="M152.13,128.11a15,15,0,1,0-21-2.77A15,15,0,0,0,152.13,128.11Zm-14-18.2A7.94,7.94,0,1,1,136.69,121,7.94,7.94,0,0,1,138.16,109.91Z"/><path d="M97.07,177.92a4.41,4.41,0,1,0-2.38-5.77A4.41,4.41,0,0,0,97.07,177.92Z"/><path d="M108,154A15,15,0,1,0,105.18,133,15,15,0,0,0,108,154Zm2.83-16.76a7.95,7.95,0,1,1,1.46,11.15A7.94,7.94,0,0,1,110.78,137.27Z"/></svg>