<svg id="acfcab0a-e00b-417e-987f-abf24c1a0e62" data-name="PRINT" xmlns="http://www.w3.org/2000/svg" viewBox="0 0 300 300"><path d="M206.66,105.76V97.6c-2.49,0-5.12.63-5.12,3.77C201.54,104.67,203.68,105.58,206.66,105.76Z"/><path d="M201.71,178c0,3.29,2.14,4.21,5.12,4.39v-8.17C204.33,174.19,201.71,174.82,201.71,178Z"/><path d="M205,150.22c5.26,0,9.48-.88,9.48-6.14S210.21,138,205,138s-9.48.85-9.48,6.11S199.7,150.22,205,150.22Z"/><path d="M247.35,155.23v-8.07c-2.49,0-5.12.63-5.12,3.73C242.23,154.16,244.36,155.06,247.35,155.23Z"/><path d="M85.56,150.41c16.54,0,30.63-13.89,30.66-30.23s-13.7-29.94-30.11-29.91-30.64,13.8-30.68,30A30,30,0,0,0,85.56,150.41Z"/><path d="M213.64,125.77a10.88,10.88,0,0,0,.86-4.29c0-3.71-2.9-4.28-6.31-4.28s-6.3.57-6.3,4.28a9.82,9.82,0,0,0,.9,4.29Z"/><path d="M0,300H300V0H0Zm217.58-79.87H196v7h-3.62V209.07H196v7.06h21.6Zm-14.79-18.57h14.79v3.86H192.36v-3.86h7.17a12.83,12.83,0,0,1-1.21-5c0-4.7,2.25-6.59,6-6.59h13.22l-.07,3.89H204.23c-1.77,0-2.34,1.4-2.34,3.17A11,11,0,0,0,202.79,201.56Zm5.4-15.15c-5.78,0-9.86-2.28-9.86-8.54,0-6.63,4.83-7.61,10-7.61h1.49V182.4c3.27-.29,4.58-1.73,4.58-5.49a18.06,18.06,0,0,0-1.05-5.73h3.42a17.46,17.46,0,0,1,1.26,6.69C218.07,184.35,214.12,186.41,208.19,186.41Zm41.24,40.12H233v-3.86h16c5.66,0,6.1-3.36,6.1-5.46s-.44-5.48-6.09-5.48H233v-3.86h16.48c8.11,0,9.37,5.83,9.37,9.35S257.54,226.54,249.43,226.53Zm5.84-121.35h3.41a14.65,14.65,0,0,1,.07,1.78c0,2.25-1.11,3.79-4.11,3.79H239.5v-3.86h14.8c.67,0,1,0,1-1.07Zm-15.16,9.55h3.56a17.33,17.33,0,0,0-1.1,5.73c0,2.85,1.06,3.45,2.41,3.45,1.08,0,1.64-.56,1.9-3.38.51-5.4,2.41-6.65,5.73-6.65,3,0,6.14,1.86,6.14,7.61a18.76,18.76,0,0,1-1.05,5.87h-3.65a17.47,17.47,0,0,0,1.14-5.92c0-3-1.28-3.86-2.55-3.86s-2.07.44-2.34,3.35c-.48,5.49-2.55,6.6-5.33,6.6s-6-1.73-6-7.12A14.1,14.1,0,0,1,240.11,114.73Zm-1.06,17.58a13.34,13.34,0,0,1,.15-2.5h3.66a14.43,14.43,0,0,0-.18,2.58,8.57,8.57,0,0,0,.78,3.65H258.3v3.84H239.48v-2.57l1.06-.37A8.81,8.81,0,0,1,239.05,132.31Zm10,11h1.51V155.2c3.28-.3,4.58-1.7,4.58-5.37a17.24,17.24,0,0,0-1-5.59h3.42a16.71,16.71,0,0,1,1.25,6.53c0,6.31-3.94,8.33-9.86,8.33s-9.88-2.23-9.88-8.33C239,144.31,243.86,143.34,249,143.34Zm-6.44,52.54a9.86,9.86,0,0,0,.9,4.31h14.8V204H239.53v-2.54l1-.37a11.14,11.14,0,0,1-1.53-5.56c0-4.55,2.25-6.44,6-6.44H258.3v3.82H245C242.53,192.89,242.6,195.46,242.6,195.88Zm12-10.36H239.5v-3.85h14.79c.68,0,1,0,1-1.06v-.66h3.41a15.18,15.18,0,0,1,.07,1.79C258.75,184,257.64,185.52,254.64,185.52Zm-15.14-7.38v-4.21l14.61-4.69-14.61-4.69v-4.2l19.25,7.3v3.15Zm0-93.76L253,80.32,239.5,75.66v-4l24.68,9.52V84.8l-6.81-2.63-17.87,6.5Zm0,12.16V91.4h3.31v5.14H253c1.57,0,2.16-.84,2.16-2.79a22.44,22.44,0,0,0-.13-2.37h3.43a19.07,19.07,0,0,1,.25,3.55c0,3-1.57,5.4-5.25,5.4H242.81v3.26H239.7l-.2-3.26h-4.73l-.53-3.79ZM234,106a2.55,2.55,0,1,1-2.56,2.54A2.52,2.52,0,0,1,234,106Zm0,75.08a2.55,2.55,0,1,1-2.56,2.55A2.53,2.53,0,0,1,234,181.06Zm-29.66-107h13.22V78H204.29c-2.47,0-2.41,2.64-2.41,3.07a10.53,10.53,0,0,0,.91,4.4h14.79v3.89H198.81v-2.6l1.05-.38a11.68,11.68,0,0,1-1.53-5.69C198.32,76,200.57,74.05,204.36,74.05Zm4,19.58h1.49v12.14c3.27-.29,4.58-1.73,4.58-5.49a18.06,18.06,0,0,0-1.05-5.73h3.42a17.46,17.46,0,0,1,1.26,6.69c0,6.47-3.95,8.54-9.88,8.54-5.78,0-9.86-2.28-9.86-8.54C198.32,94.62,203.16,93.64,208.37,93.63Zm-.18,19.63c5.93,0,9.88,1.81,9.88,8.22a10.06,10.06,0,0,1-1,4.29h6.45v3.88H198.82v-2.6l1-.38a11.58,11.58,0,0,1-1.54-5.48C198.32,114.78,202.31,113.26,208.19,113.26ZM205,133.85c6.84,0,13.12,2,13.12,10.26,0,8.52-6.3,10.27-13.12,10.27s-13.12-2-13.12-10.28C191.83,135.58,198.1,133.85,205,133.85ZM35.83,81.45c0-5.55,3.2-8.78,8.72-8.79h64.68c16.66,0,33.33.09,50-.09A8.59,8.59,0,0,1,167.63,81c-.07,28.22.08,56.44-.07,84.66s-18.6,52.28-46.11,59.79c-20.21,5.53-39.58,3.29-57.38-8.09-15.9-10.16-25-24.94-27.5-43.64a96.77,96.77,0,0,1-.71-12.51Q35.77,121.33,35.83,81.45Z"/></svg>