<?xml version="1.0" encoding="utf-8"?>
<!-- Generator: Adobe Illustrator 25.4.1, SVG Export Plug-In . SVG Version: 6.00 Build 0)  -->
<svg version="1.1" id="acfcab0a-e00b-417e-987f-abf24c1a0e62"
	 xmlns="http://www.w3.org/2000/svg" xmlns:xlink="http://www.w3.org/1999/xlink" x="0px" y="0px" viewBox="0 0 300 300"
	 style="enable-background:new 0 0 300 300;" xml:space="preserve">
<style type="text/css">
	.st0{fill:#A1A1AA;}
</style>
<path class="st0" d="M206.7,105.8v-8.2c-2.5,0-5.1,0.6-5.1,3.8C201.5,104.7,203.7,105.6,206.7,105.8z"/>
<path class="st0" d="M201.7,178c0,3.3,2.1,4.2,5.1,4.4v-8.2C204.3,174.2,201.7,174.8,201.7,178z"/>
<path class="st0" d="M205,150.2c5.3,0,9.5-0.9,9.5-6.1s-4.3-6.1-9.5-6.1s-9.5,0.9-9.5,6.1S199.7,150.2,205,150.2z"/>
<path class="st0" d="M247.4,155.2v-8.1c-2.5,0-5.1,0.6-5.1,3.7C242.2,154.2,244.4,155.1,247.4,155.2z"/>
<path class="st0" d="M85.6,150.4c16.5,0,30.6-13.9,30.7-30.2s-13.7-29.9-30.1-29.9s-30.6,13.8-30.7,30
	c-0.1,16.6,13.3,30.1,29.9,30.1C85.4,150.4,85.5,150.4,85.6,150.4z"/>
<path class="st0" d="M213.6,125.8c0.6-1.4,0.9-2.8,0.9-4.3c0-3.7-2.9-4.3-6.3-4.3s-6.3,0.6-6.3,4.3c0,1.5,0.3,2.9,0.9,4.3H213.6z"/>
<path class="st0" d="M0,300h300V0H0V300z M217.6,220.1H196v7h-3.6v-18.1h3.6v7.1h21.6L217.6,220.1z M202.8,201.6h14.8v3.9h-25.2
	v-3.9h7.2c-0.7-1.6-1.1-3.3-1.2-5c0-4.7,2.2-6.6,6-6.6h13.2l-0.1,3.9h-13.2c-1.8,0-2.3,1.4-2.3,3.2
	C201.9,198.6,202.2,200.1,202.8,201.6L202.8,201.6z M208.2,186.4c-5.8,0-9.9-2.3-9.9-8.5c0-6.6,4.8-7.6,10-7.6h1.5v12.1
	c3.3-0.3,4.6-1.7,4.6-5.5c0-2-0.4-3.9-1.1-5.7h3.4c0.9,2.1,1.3,4.4,1.3,6.7C218.1,184.4,214.1,186.4,208.2,186.4z M249.4,226.5H233
	v-3.9h16c5.7,0,6.1-3.4,6.1-5.5s-0.4-5.5-6.1-5.5h-16v-3.9h16.5c8.1,0,9.4,5.8,9.4,9.4S257.5,226.5,249.4,226.5L249.4,226.5z
	 M255.3,105.2h3.4c0.1,0.6,0.1,1.2,0.1,1.8c0,2.2-1.1,3.8-4.1,3.8h-15.1v-3.9h14.8c0.7,0,1,0,1-1.1L255.3,105.2z M240.1,114.7h3.6
	c-0.7,1.8-1.1,3.8-1.1,5.7c0,2.8,1.1,3.4,2.4,3.4c1.1,0,1.6-0.6,1.9-3.4c0.5-5.4,2.4-6.7,5.7-6.7c3,0,6.1,1.9,6.1,7.6
	c0,2-0.4,4-1,5.9h-3.6c0.7-1.9,1.1-3.9,1.1-5.9c0-3-1.3-3.9-2.6-3.9s-2.1,0.4-2.3,3.3c-0.5,5.5-2.6,6.6-5.3,6.6s-6-1.7-6-7.1
	C239,118.5,239.3,116.5,240.1,114.7z M239.1,132.3c0-0.8,0-1.7,0.1-2.5h3.7c-0.1,0.9-0.2,1.7-0.2,2.6c0,1.3,0.3,2.5,0.8,3.6h14.8
	v3.8h-18.8v-2.6l1.1-0.4C239.6,135.6,239.1,134,239.1,132.3z M249.1,143.3h1.5v11.9c3.3-0.3,4.6-1.7,4.6-5.4c0-1.9-0.4-3.8-1-5.6
	h3.4c0.8,2.1,1.3,4.3,1.2,6.5c0,6.3-3.9,8.3-9.9,8.3s-9.9-2.2-9.9-8.3C239,144.3,243.9,143.3,249.1,143.3L249.1,143.3z M242.6,195.9
	c0,1.5,0.3,3,0.9,4.3h14.8v3.8h-18.8v-2.5l1-0.4c-1-1.7-1.5-3.6-1.5-5.6c0-4.6,2.2-6.4,6-6.4h13.3v3.8H245
	C242.5,192.9,242.6,195.5,242.6,195.9L242.6,195.9z M254.6,185.5h-15.1v-3.9h14.8c0.7,0,1,0,1-1.1v-0.7h3.4c0.1,0.6,0.1,1.2,0.1,1.8
	C258.8,184,257.6,185.5,254.6,185.5L254.6,185.5z M239.5,178.1v-4.2l14.6-4.7l-14.6-4.7v-4.2l19.2,7.3v3.1L239.5,178.1z M239.5,84.3
	l13.5-4l-13.5-4.7v-4l24.7,9.5v3.6l-6.8-2.6l-17.9,6.5L239.5,84.3z M239.5,96.5v-5.1h3.3v5.1H253c1.6,0,2.2-0.8,2.2-2.8
	c0-0.8,0-1.6-0.1-2.4h3.4c0.2,1.2,0.3,2.4,0.2,3.6c0,3-1.6,5.4-5.2,5.4h-10.6v3.3h-3.1l-0.2-3.3h-4.7l-0.5-3.8L239.5,96.5z M234,106
	c1.4,0,2.5,1.2,2.5,2.6s-1.2,2.5-2.6,2.5c-1.4,0-2.5-1.2-2.5-2.6C231.4,107.1,232.5,106,234,106C234,106,234,106,234,106z
	 M234,181.1c1.4,0,2.5,1.2,2.5,2.6c0,1.4-1.2,2.5-2.6,2.5c-1.4,0-2.5-1.1-2.5-2.5C231.4,182.2,232.5,181.1,234,181.1
	C234,181.1,234,181.1,234,181.1L234,181.1z M204.3,74.1h13.2V78h-13.3c-2.5,0-2.4,2.6-2.4,3.1c0,1.5,0.3,3,0.9,4.4h14.8v3.9h-18.8
	v-2.6l1.1-0.4c-1-1.7-1.5-3.7-1.5-5.7C198.3,76,200.6,74.1,204.3,74.1L204.3,74.1z M208.3,93.7h1.5v12.1c3.3-0.3,4.6-1.7,4.6-5.5
	c0-2-0.4-3.9-1.1-5.7h3.4c0.9,2.1,1.3,4.4,1.3,6.7c0,6.5-3.9,8.5-9.9,8.5c-5.8,0-9.9-2.3-9.9-8.5C198.3,94.6,203.2,93.6,208.3,93.7
	L208.3,93.7z M208.2,113.3c5.9,0,9.9,1.8,9.9,8.2c0,1.5-0.4,3-1,4.3h6.4v3.9h-24.7v-2.6l1-0.4c-1-1.7-1.5-3.6-1.5-5.5
	C198.3,114.8,202.3,113.3,208.2,113.3L208.2,113.3z M205,133.9c6.8,0,13.1,2,13.1,10.3c0,8.5-6.3,10.3-13.1,10.3s-13.1-2-13.1-10.3
	C191.8,135.6,198.1,133.9,205,133.9z M35.8,81.4c0-5.6,3.2-8.8,8.7-8.8h64.7c16.7,0,33.3,0.1,50-0.1c4.6,0.1,8.3,3.8,8.4,8.4
	c-0.1,28.2,0.1,56.4-0.1,84.7s-18.6,52.3-46.1,59.8c-20.2,5.5-39.6,3.3-57.4-8.1c-15.9-10.2-25-24.9-27.5-43.6
	c-0.5-4.2-0.7-8.3-0.7-12.5C35.8,134.6,35.8,108,35.8,81.4z"/>
</svg>
