<?xml version="1.0" encoding="utf-8"?>
<!-- Generator: Adobe Illustrator 25.4.1, SVG Export Plug-In . SVG Version: 6.00 Build 0)  -->
<svg version="1.1" id="ebdc9aea-545c-4b52-93d0-2e5dd88c47fc"
	 xmlns="http://www.w3.org/2000/svg" xmlns:xlink="http://www.w3.org/1999/xlink" x="0px" y="0px" viewBox="0 0 300 300"
	 style="enable-background:new 0 0 300 300;" xml:space="preserve">
<style type="text/css">
	.st0{fill:#A1A1AA;}
</style>
<g>
	<path class="st0" d="M135.5,178.9c0,7.5,5.8,9.4,12.4,9.4c15.8,0,16.3-12.5,16.3-16.9v-7.5c-3.4,3-10.5,3.1-16.8,4.3
		C141.2,169.3,135.5,171.5,135.5,178.9z"/>
	<path class="st0" d="M0,0v300h300V0H0z M85,199.8v-10.2l-0.4,0c-5.1,8.3-13.9,12.2-22.5,12.2c-21.5,0-26.9-12.1-26.9-30.3l0-45.2
		h20.2v41.5c0,12.1,3.5,18,12.9,18c10.9,0,15.6-6.1,15.6-21l0-38.5h20.2l0,73.5H85z M166.5,199.8c-0.7-2.3-1.3-4.7-1.4-7.1
		c-6.4,6.7-15.8,9.1-24.7,9.1c-13.9,0-25-7-25-22c0-16.6,12.5-20.6,25-22.3c12.4-1.8,23.9-1.4,23.9-9.7c0-8.7-6-10-13.1-10
		c-7.7,0-12.7,3.1-13.4,11.1h-20.2c1.1-18.9,18-24.6,34.5-24.6c14.6,0,32.3,3.3,32.3,20.9v38.3c0,6.7,0.7,13.3,2.6,16.3H166.5z
		 M199.9,199.8l0-101.5h20.2l0,101.5H199.9z M242.4,127.5l22.3,0v21.9l-22.3,0V127.5z M242.4,199.7v-21.9h22.3l0,21.9L242.4,199.7z"
		/>
</g>
</svg>
