<svg id="ebdc9aea-545c-4b52-93d0-2e5dd88c47fc" data-name="PRINT" xmlns="http://www.w3.org/2000/svg" viewBox="0 0 300 300"><path d="M0,300H300V0H0Zm80.54-63.14c-3.41.2-3.45.56-3.41,4.95v11.62c0,1.92,0,4.31.16,5.75.16,2.08,1,2.48,3.25,2.68v1.52H68v-1.52c3.62-.24,3.62-.4,3.66-5.63V242.05l-10,21.69H59.06l-9.23-22-.22,16.57c0,2.76.33,3.28,3.38,3.52v1.52H43v-1.52c2.32-.12,3.21-.44,3.38-2.36.08-.76.2-3.11.24-4.67L47.05,243c0-.91,0-2.28,0-3.27,0-2.8-.57-3-3.13-3v-1.52h9l8.95,21.4,9.86-21.4h8.74Zm2.21-24.81-.27,14.38H81.35l-1.7-2.08c-.86-1.06-1.72-2.12-2.58-3.14l-7.51-9.08v9.66c0,3,.22,3.12,3.12,3.4v1H64.94v-1c1.56-.08,2.15-.1,2.36-1.16.27-1.24.35-12.3.38-14.23a3.69,3.69,0,0,0-2.74-1.24v-1h5.7c1.59,2.22,1.94,2.72,4.73,6.12l5.31,6.44v-8.34c0-2.95-.11-3.11-3.13-3.22v-1H85v1C83,208.59,82.77,209,82.75,212.05Zm12.54,24.66c-3.38.31-3.38.47-3.38,6.5v11.38c0,1,0,4.15.13,5,.2,1.72,1,2.12,3.25,2.28v1.52H83.36v-1.52c2.81-.36,3.38-.68,3.42-3.64v-15c0-5.87,0-6-3.42-6.5v-1.52H95.29Zm-8.21-28.15v-1H95v1c-2.24.22-2.24.32-2.24,4.31v7.52c0,.66,0,2.75.09,3.3.13,1.13.67,1.4,2.15,1.5v1H87.08v-1c1.85-.24,2.23-.45,2.26-2.4v-9.92C89.31,209,89.31,208.88,87.08,208.56ZM110,264.13c-8.66,0-14.27-6.26-14.27-14.49,0-7.62,4.75-15.14,14.46-15.14a14.12,14.12,0,0,1,9.47,3.4l2-1.76.16,8.55-1.28.24a11.81,11.81,0,0,0-3.09-5,8.61,8.61,0,0,0-6-2.76c-5.18,0-9.28,4.15-9.28,11.46,0,6.19,3.36,12,10,12,5,0,6.91-2.75,8.42-4.86l1.71,1.27A13.34,13.34,0,0,1,110,264.13Zm-6.06-51.84,3.31,9.47,3.88-9.79a7.84,7.84,0,0,0,.56-2c0-1.35-1.34-1.4-2.53-1.43v-1h6.65v1c-1.83.27-2.07.77-3.63,4.46l-5.79,13.55h-1l-5.19-13.75c-1.29-3.55-1.45-4-3.37-4.26v-1h9v1c-1.54.06-2.53.11-2.53,1.19A8.5,8.5,0,0,0,103.9,212.29Zm14.83-2.65c-.18-.87-.78-.95-2.15-1.08v-1h13.54l.1,4.43h-.86c-.43-2.53-1.59-2.77-4.81-2.77H122.2v6.56h2.08c2.44,0,2.79-.54,3-2.2h.92v6.15h-.92c0-2.09-.67-2.29-3-2.29h-2v5.22c0,1.21.52,1.87,3,1.87,2.74,0,4.65.16,5.29-3.17h.92a47.37,47.37,0,0,0-.4,4.84H116.58v-1c2-.19,2.21-.37,2.26-2.41,0-.44.06-2.69.06-3.19V213A25.82,25.82,0,0,0,118.73,209.64Zm36,27.07c-3.34.39-3.34.43-3.34,5.78v11.9c0,1.12,0,4.68.16,5.51.2,1.48,1.06,1.76,3.18,2v1.52H142.25v-1.52c2.9-.32,3.67-.4,3.91-2.36.08-.79.08-1.87.08-3.91v-5.17c-2.28-.08-4.17-.2-6.53-.2s-4.42.08-6.9.2v5.17c0,5.87.12,5.87,3.83,6.27v1.52h-12.3v-1.52c3.25-.28,3.29-1,3.29-3.67,0-1,0-2,0-3V243.37c0-1.83,0-3.67-.12-4.55-.16-1.68-1-1.92-3.21-2.11v-1.52h12.3v1.52c-2.4.23-3.3.31-3.58,1.87a28.75,28.75,0,0,0-.25,4.67v3.9c2.48.11,4.22.19,6.62.19s4.37-.08,6.81-.19v-4.74c0-5.15-.08-5.35-4-5.7v-1.52h12.47ZM135.48,209.9c-.13-1-.64-1.21-2.2-1.34v-1l8.61,0c4.68,0,6.16,2.19,6.16,4.77a5.22,5.22,0,0,1-3.74,4.93l3.36,5.74c1.21,2.18,1.86,2.69,3.39,2.9v.63c-.4,0-.8.06-1.24.06-3.57,0-5-1.22-6.56-4.36l-1-2.19c-1.13-2.35-1.51-2.2-3.31-2.23v2.42c0,4.28,0,4.85,2.31,4.9v1h-7.93v-1c2.05-.15,2.26-.47,2.29-2.48,0-.76,0-1.63,0-2.39v-6.75A28.23,28.23,0,0,0,135.48,209.9Zm23.08,8.88c-.75-.29-1.56-.53-2.32-.82-1.56-.55-4.49-1.74-4.49-5.36s2.8-5.44,6.06-5.44a8.06,8.06,0,0,1,4.36,1.27l1.16-.82.62,5.55-.94.18a6.61,6.61,0,0,0-1.32-2.76,4.53,4.53,0,0,0-3.72-1.7c-2,0-3.21,1-3.21,2.43,0,2.21,2.24,2.95,4.37,3.64a14,14,0,0,1,2.75,1.08,5.43,5.43,0,0,1,2.74,4.76c0,3.21-2.69,5.88-6.7,5.88a8.64,8.64,0,0,1-4.93-1.48l-1.59-1.13-.27-3.67,1-.1c1.05,3,2.8,4.66,5.66,4.66,2,0,3.8-.84,3.8-2.85S159.48,219.15,158.56,218.78ZM169,236.71c-3.38.31-3.38.47-3.38,6.5v11.38c0,1,0,4.15.13,5,.2,1.72,1,2.12,3.25,2.28v1.52H157.09v-1.52c2.82-.36,3.39-.68,3.43-3.64v-15c0-5.87,0-6-3.43-6.5v-1.52H169Zm-3.17-28.15v-1h7.88v1c-2.23.22-2.23.32-2.23,4.31v7.52c0,.66,0,2.75.08,3.3.13,1.13.67,1.4,2.15,1.5v1h-7.88v-1c1.85-.24,2.23-.45,2.26-2.4v-9.92C168.1,209,168.1,208.88,165.87,208.56Zm29.67,50.1v2.12a19.36,19.36,0,0,1-11.06,3.31c-9.9,0-14.62-7.34-14.62-14.73,0-9,6.23-14.9,14-14.9,4.91,0,7.73,1.8,10.08,3.19l1.5-1.67.22,8.82-1.18.2a13.94,13.94,0,0,0-3.62-5.73,8,8,0,0,0-5.68-2.09c-5,0-9.2,4.15-9.2,12.26,0,6.47,3.26,12,8.87,12a6.44,6.44,0,0,0,5-2.36,4,4,0,0,0,.58-2.68c-.12-3.59-.62-3.67-3.8-4v-1.52h11.57v1.52C195.61,252.59,195.61,253.31,195.54,258.66Zm-7.25-33.25v.79h-7.86v-.79c1.75,0,2.23-.67,2.23-2.14V209.54H180.3c-2.16,0-3.58-.08-3.74,3.24h-1l.16-5.22H193l.17,5.22h-1c-.16-3.32-1.58-3.24-3.74-3.24h-2.36v13.73C186.06,224.74,186.54,225.38,188.29,225.41Zm14.16-14,2.91,4.67,2.68-4.64a5,5,0,0,0,.76-1.9c0-.9-.79-.93-2.1-1v-1h7.42v1c-1.91.06-2.47.61-4.65,4.09l-3,4.86v3.88c0,3.38,0,3.65,2.85,3.8v1H200v-1c1.48-.15,2-.21,2.42-.58s.43-.89.45-2.93v-3.27l-5.05-7.68c-1.37-2-1.4-2.06-3.23-2.17v-1h9.9v1c-2,.06-2.88.11-2.88,1A4.21,4.21,0,0,0,202.45,211.44ZM257,236.71c-3.13,0-3.42.67-3.46,5.26l-.41,21.77h-1.7l-2.57-3.16c-1.3-1.6-2.6-3.19-3.91-4.75l-11.35-13.74v14.62c0,4.55.32,4.71,4.72,5.15v1.52H214v-1.52c1.95-.12,3.46-.28,3.46-1.84a6,6,0,0,0-.33-1.68l-.86-2.87H206.13l-.89,2.44a5.54,5.54,0,0,0-.37,1.75c0,2,2.16,2.12,3.91,2.2v1.52H196.93v-1.52c3-.12,4-.72,5.09-3.67l7.78-20.93-.45-.68c3.34-1.08,4.27-1.56,5.7-2.6.57,1.92.65,2.16,1.3,4.16l6.35,19.17c1.11,3.29,1.64,4.18,4.46,4.52,1.92-.11,2.7-.27,3-1.73.41-1.88.53-18.6.57-21.52a5.5,5.5,0,0,0-4.15-1.87v-1.52h8.63c2.4,3.35,2.93,4.11,7.16,9.26l8,9.74V241.57c0-4.47-.16-4.71-4.72-4.86v-1.52H257ZM222.3,217c0-5.1,3.48-9.69,9.59-9.67,5.75,0,9.76,4,9.76,9.69,0,6.45-4.47,9.82-9.51,9.82A9.48,9.48,0,0,1,222.3,217Zm22.43-7.18c-.19-.87-.78-.95-2.15-1.08v-1h13.93l.3,4.57h-.95c-.49-2.92-1.69-2.9-5.4-2.9a15.94,15.94,0,0,0-2.26.1v6.46h2.51c2.31,0,2.88-.2,3-2.21h.92v6.15h-.92c-.13-2.08-1.26-2.28-3.39-2.28h-2.1v5.32c.06,2,.3,2.21,2.26,2.4v1h-7.86v-1c2-.19,2.2-.37,2.25-2.4,0-.45.06-2.7.06-3.2v-6.54A27.77,27.77,0,0,0,244.73,209.78ZM43,143.78H59.36V78.07H43V35.87h63.3L150,95.17l43.73-59.3H257v42.2H240.65v65.71H257V186H176.4v-42.2h17.42V101.05l-44.08,58.76-43.56-58.76v42.73h17.43V186H43Zm-.18,63.78h8.55v1c-2.53.19-2.53.27-2.56,4.23v4.38c0,2.27.05,4.22,1.27,6a4.15,4.15,0,0,0,3.46,1.56,4.59,4.59,0,0,0,4.85-3.57A30.36,30.36,0,0,0,59,214c0-.69,0-2.91,0-3.51-.11-1.69-1-1.74-2.69-1.88v-1H63.5v1c-1.78,0-2.15.37-2.26,2.22,0,.45-.25,5.62-.27,6.41a20.41,20.41,0,0,1-.46,4.17c-1.29,5-6.27,5.28-7.59,5.28a9.39,9.39,0,0,1-5-1.31c-2.83-1.88-2.85-4.68-2.85-7.69v-4.22c0-2,0-2.9-.09-3.38-.16-1.16-.75-1.4-2.17-1.48Z"/><polygon points="207.19 252.43 215.45 252.43 211.42 240.75 207.19 252.43"/><path d="M232.16,225.09a4.73,4.73,0,0,0,3.76-2.31,9.78,9.78,0,0,0,1.55-6.3,8.75,8.75,0,0,0-2.16-5.93,4.38,4.38,0,0,0-6.75.1,8.74,8.74,0,0,0-2,6,9.84,9.84,0,0,0,1.73,6.26A4.77,4.77,0,0,0,232.16,225.09Z"/><path d="M144.55,213.24c.12-2.16-1-4-4.49-4a5.08,5.08,0,0,0-1.16.11v6.89a9.51,9.51,0,0,0,1.78.19A3.79,3.79,0,0,0,144.55,213.24Z"/></svg>