<?xml version="1.0" encoding="utf-8"?>
<!-- Generator: Adobe Illustrator 25.4.1, SVG Export Plug-In . SVG Version: 6.00 Build 0)  -->
<svg version="1.1" id="a0ffce2d-0740-4d08-af33-5ea82f1c5057"
	 xmlns="http://www.w3.org/2000/svg" xmlns:xlink="http://www.w3.org/1999/xlink" x="0px" y="0px" viewBox="0 0 300 300"
	 style="enable-background:new 0 0 300 300;" xml:space="preserve">
<style type="text/css">
	.st0{fill:#A1A1AA;}
</style>
<rect x="146.7" y="160.3" class="st0" width="1.7" height="6.2"/>
<polygon class="st0" points="148.3,55.4 151.3,55.4 149.9,52.8 "/>
<polygon class="st0" points="151.2,166.5 152.9,166.5 152.9,161.8 154.2,161.8 154.2,160.3 149.7,160.3 149.7,161.8 151.2,161.8 "/>
<path class="st0" d="M131.6,166.5l2.7-6.2h-1.8l-1.2,3.5c0,0.3-0.1,0.6-0.2,0.8c0-0.3,0-0.6-0.2-0.8l-1.2-3.5h-1.8l2.3,6.2H131.6z"
	/>
<path class="st0" d="M145.4,46l-0.1,0.1c1.1,0.1,2.1,0.5,3,1.2c0-0.1,0-0.1,0-0.2l0,0c-0.1-0.8-0.1-1.6-0.1-2.4
	c0.1-2.6,0.6-5.1,1.6-7.6v11.4c5.2-4.9,8.7-0.5,12.9-1.7c-0.3-1.5-1.2-9.5-2.2-13.9l0,0c-5.4,1.7-8.5-1.5-10.7,2.7v0l0,0
	c-0.3-0.7-0.8-1.2-1.4-1.7l-0.1-0.2v0.1c-2.1-1.3-4.9,0.4-9.2-0.9c-1,4.5-1.8,12.4-2.2,13.7C139.8,47.5,142.4,45.7,145.4,46z"/>
<path class="st0" d="M142.1,164.2l1.5,2.5h2l-1.7-2.5c0.8-0.2,1.4-1,1.3-1.8c0.1-0.6-0.2-1.2-0.7-1.5c-0.6-0.4-1.3-0.6-2-0.5h-2v6.4
	h1.5L142.1,164.2z M142.3,161.7h0.3c0.7,0,1,0.2,1,0.8s-0.3,0.8-1,0.8h-0.3V161.7z"/>
<polygon class="st0" points="139.1,165.2 137,165.2 137,164.2 139,164.2 139,162.8 137,162.8 137,161.7 139.1,161.7 139.1,160.3 
	135.3,160.3 135.3,166.5 139.1,166.5 "/>
<path class="st0" d="M163.9,165.4L163.9,165.4c-0.5,0.1-1.1-0.3-1.2-0.8l-0.8,1.2c0.6,0.5,1.4,0.8,2.2,0.8h0.4c1.1-0.1,2-1,2-2.2
	c0,0,0,0,0,0v-0.1c0-0.9-0.8-1.7-1.7-1.7c0,0,0,0,0,0c-0.5-0.1-1-0.3-1-0.7s0.1-0.5,0.7-0.5c0.4,0,0.9,0.2,1.2,0.5l0.5-1.2
	c-0.5-0.3-1.2-0.5-1.8-0.5H164c-1.1,0-1.9,0.9-1.9,2c0,0.9,0.8,1.7,1.7,1.7c0.7,0.2,1,0.3,1,0.8
	C164.7,165.1,164.4,165.4,163.9,165.4C163.9,165.4,163.9,165.4,163.9,165.4z"/>
<polygon class="st0" points="181.8,166.5 183.5,166.5 183.5,161.8 184.8,161.8 184.8,160.3 180.5,160.3 180.5,161.8 181.8,161.8 "/>
<path class="st0" d="M187.5,165.4h2.3l0.3,1.2h1.7l-2.2-6.2h-2.2l-2,6.2h1.7L187.5,165.4z M188.5,162.2c0-0.3,0.1-0.6,0.2-0.8
	c0,0.3,0.1,0.6,0.2,0.8l0.7,2h-1.7L188.5,162.2z"/>
<rect x="177.5" y="160.3" class="st0" width="1.7" height="6.2"/>
<path class="st0" d="M156.9,165.4h2.3l0.3,1.2h1.7l-2.2-6.2h-2.2l-2,6.2h1.7L156.9,165.4z M157.6,162.2c0-0.3,0.1-0.6,0.2-0.8
	c0,0.3,0.1,0.6,0.2,0.8l0.7,2H157L157.6,162.2z"/>
<path class="st0" d="M121.9,101.1h5.1c-1.2-3.5-1.2-11.2-1.2-12.2c5.1,1.5,9.9,1.3,12.4-0.7c-0.7-1.1-1.6-2.1-2.7-2.8
	c1.9-0.4,3.6-1.4,4.9-2.8c-1-1.1-2.3-1.8-3.7-2.2h-0.1c0,0,4.2-2,4.5-4.2c-1.4-0.8-2.9-1.3-4.5-1.3c0,0,3.7-2.9,3.5-4.9
	c-1.7-0.5-3.5-0.6-5.2-0.3c1.2-1.5,1.9-3.4,1.8-5.3c-1.7-0.1-3.3,0.2-4.9,0.8c0,0,1-3.5,0-5.3c-1.8-0.5-4.3,2.7-4.3,2.7
	c-0.4-1.9-1.2-3.6-2.4-5.2c0.1-0.1,0-0.3-0.1-0.4c-0.1-0.1-0.3-0.2-0.4-0.3c0,0-0.1-0.1-0.1-0.2c0,0,0,0,0,0.1
	c-0.6-0.4-1.2-0.9-1.6-1.5c-0.2-0.3-0.1-0.8,0.2-1.1c0,0,0,0,0,0c0.1-0.1,0.2-0.1,0.3-0.1c0.3-0.1,0.7-0.1,1-0.2l-0.2,0.4
	c2.3-0.5,3.9-2.4,4.2-4.8c0.2-0.7,0.2-1.5,0.1-2.2v-0.3c-0.3-0.5,0.3-1.5,1.5-2H130c0.6-0.1,1.1-0.2,1.7-0.2
	c-0.5-0.4-1.1-0.7-1.7-0.8c-0.8-3.2-5.5-2.3-6,0.5c-0.2,1-3.8,1.5-8,7.2c-1.6,2.1-3.4,3.9-5.5,5.3c-0.8,0.5,1.2,0.3,2.2-0.7
	c0.8,0.8,2.5-1.7,5.2-2.2c0.7-0.2,9.2-1.7,7-6.5c3,3.9-2,6.7-5.2,6.8c0.7,0.2,1.4,0.3,2.2,0.3c0.5,0.2-0.2,0.7,0.2,1
	c0.7,0.5,1.4,1,2.1,1.6c-1.2,1.6-2,3.4-2.4,5.3c0,0-2.5-3.2-4.3-2.7c-1,1.8,0,5.3,0,5.3c-1.5-0.6-3.2-0.9-4.9-0.8
	c0,1.9,0.7,3.8,1.8,5.3c-1.7-0.3-3.5-0.2-5.2,0.3c-0.2,2,3.5,4.9,3.5,4.9c-1.6,0-3.2,0.5-4.6,1.3c0.3,2.2,4.5,4.2,4.5,4.2
	c-1.5,0.3-2.9,1.1-4,2.2c1.3,1.4,3,2.4,4.9,2.8c-1.1,0.8-2,1.7-2.7,2.8c2.3,1.8,7.4,2.2,12.4,0.7C123.1,89.8,123.1,97.6,121.9,101.1
	z"/>
<path class="st0" d="M120.2,165.4h2.5l0.3,1.2h1.7l-2.2-6.2h-2.2l-2.2,6.2h1.7L120.2,165.4z M121.2,162.2c0-0.3,0.1-0.6,0.2-0.8
	c0,0.3,0.1,0.6,0.2,0.8l0.7,2h-1.7L121.2,162.2z"/>
<path class="st0" d="M173.5,166.5l2.7-6.2h-1.8l-1.2,3.5c0,0.3-0.1,0.6-0.2,0.8c0-0.3-0.1-0.6-0.2-0.8l-1.2-3.5h-1.9l2.4,6.2H173.5z
	"/>
<path class="st0" d="M164.2,75.4c-0.8,6.5-1.8,15.3-2,15.9s-0.3,1.5,1.2,1.5c2.5,0.2,5.7,0.2,10.7,0c0.6,0.4,1.3,0.5,2,0.5
	c0.7,0.1,1.3-0.1,1.8-0.5c2,0,4.5-0.2,7.2-0.3c-2.3,0-4.7-0.2-6.7-0.2c0.5-0.8,0.7-1.6,0.7-2.5c-0.3,3.4-4.7,3-3.7-0.5
	c-0.9-0.1-1.8,0.2-2.5,0.7c-0.2,0.7-0.1,1.5,0.3,2.2c-2.9-0.2-5.2-0.2-7-0.3c-0.8,0-1.3-0.7-0.8-1.3c1.8-2.2,2-2.7,3.4-2.7l0,0h14.6
	c4.4,0,4.7,0.7,5.1,1.5c-0.2-1.5-1.2-8.7-1.7-14.1c-0.2-2.7-1.1-5.3-2.5-7.5c-0.5-0.8-1.3-1.4-2.2-1.7c0.2-0.3,1.3-3.2,2.2-5.7
	c0.5-1.1,0.1-2.4-1-3c-0.8-0.4-1.8-0.6-2.7-0.5h-10.5c-2.7,0-3.9,1.7-3.2,3.7c0.7,1.5,1.7,4.2,2.2,5.3
	C165.7,67,164.8,71.4,164.2,75.4z M170.2,59.3L170.2,59.3l9.7-0.1c0.8,0,2.4-0.3,1.5,1.7c-0.7,1.7-1.7,4-2.2,5.1h-7.4
	c-0.5-1.2-1.2-2.7-2-4.7C169.3,60.1,169.2,59.2,170.2,59.3z"/>
<path class="st0" d="M130,130.2c5.2,3.6,11.3,5.6,17.5,5.8c4.6,1.6,9.6,2,14.4,1.2c-1.2-0.6-2.3-1.5-3-2.7c8.5-2.5,15.9-8,18.9-16.4
	c0-0.1,0.1-0.3,0.2-0.3c0.5-1.8-1.2-4.3-3.9-1.8c2.2-5.3,5.9-3,5.1,0.2c2.9-3.9,6.8-8,12.1-9.7c-4.9-2.2-9.5-0.2-12.6,1.5h-0.1
	c-2.7-1.8-6.2-0.3-9.7-3.5c0,9.4,6.8,11.4,3,13.9c-3,2-6.6,2.9-10.2,2.5c0.3-0.5,0.8-1.3,1.2-1.8c-3.2-0.4-6.4-0.4-9.6,0l-0.8-0.2
	v-1.9c-0.3-0.2-0.5-0.5-0.8-0.7c-0.5-0.4-1.1-0.7-1.7-1c-0.5-0.3-1.1-0.5-1.7-0.7h4.2v-0.2c1.3-0.2,2.3-1.3,2.3-2.7v-0.1
	c-0.1-1.3-1.1-2.4-2.3-2.5v-9.5c-0.3-0.2-0.6-0.5-0.8-0.7c-0.5-0.4-1.1-0.7-1.7-1c-0.6-0.3-1.2-0.6-1.8-0.8h4.4v-0.2
	c1.4-0.2,2.4-1.3,2.3-2.7v-0.1c-0.1-1.3-1.1-2.4-2.3-2.5V82c-0.3-0.2-0.6-0.4-0.8-0.6c-0.5-0.4-1.1-0.7-1.7-1
	c-0.6-0.4-1.3-0.7-2-0.9h4.5v-0.2c1.4-0.1,2.5-1.3,2.5-2.6c-0.1-1.3-1-2.4-2.3-2.6c0-0.8,0.5-1.5,1.3-1.7l0,0v-8.2h-1.5v-4.4h-1.2
	v-3.5h-3v3.5H147v4.4h-1.3v8.2h0.2c0.5,0.2,0.9,0.6,1.1,1.1V74c-1.3,0.2-2.3,1.3-2.4,2.7c0.1,1.3,1.1,2.4,2.4,2.6v12.1
	c-1.4,0.1-2.5,1.2-2.5,2.6c0.1,1.4,1.1,2.5,2.5,2.7v12.3c-1.4,0.1-2.5,1.3-2.5,2.7c0.1,1.4,1.1,2.5,2.5,2.7v2.9
	c-3.9-1.1-7.9-1.7-11.9-1.9c1.8,1.5,2.7,3.7,2.5,6c-1-4.2-5.5-6.4-7.7-7.2l-1.8-0.5c-0.5,0.7-1.1,1.1-1.9,1.4
	c0.3-0.4,0.6-0.8,0.7-1.2c0.8-1.6,0.2-3.5-1.3-4.3c-0.7-0.2-1.4-0.1-2,0.2c-0.9,0.4-1.7,1.2-2,2.2c-0.1,0.4-0.2,0.9-0.2,1.3
	c-0.2,0-0.4,0-0.6,0c-0.3,0-0.5,0.1-0.7,0.3c0.3,0.5,0.8,0.7,1.4,0.8c0,0.2,0.1,0.4,0.1,0.5c0.3,0.6,0.7,1.1,1.3,1.3
	c0.6,0.2,1.2,0.1,1.7-0.1c-0.8,0.7-2.6,0.4-4-0.3c-1.8-0.7-1.7,0.7-1.3,1.2c0.5,1,1.2,1.7,1.3,2.2C122.9,124,124.8,127.2,130,130.2z
	"/>
<path class="st0" d="M154.2,144.4c0.4-0.5,0.7-1.1,0.6-1.8c0-1.3-0.9-2.3-2.1-2.6v-1c-0.4,0-0.9-0.1-1.5-0.2s-0.9-0.2-1.3-0.3
	c-1-0.3-2-0.6-3-1v2.5c-1.2,0.3-2.1,1.3-2.1,2.6l0,0c0,0.7,0.3,1.3,0.7,1.8l-1.8,1.8c4,1.3,8.4,1.3,12.4,0
	C155.4,145.6,154.8,144.9,154.2,144.4z"/>
<path class="st0" d="M136.8,221.8L136.8,221.8c-5.7,0-10.8,10.9-10.8,19.9c0,7.6,3.2,11.2,6.3,11.2c7.1,0,11.4-11.7,11.4-20
	C143.9,226.6,140.8,221.8,136.8,221.8z"/>
<path class="st0" d="M161.7,51.2c0.2-1,0.5-1.9,0.8-2.8c-4.2-1-10.7-0.2-12.7,1.5c-2-1.8-8.5-2.7-12.7-1.5c0.4,0.9,0.7,1.9,0.8,2.8
	c4-1.1,8.2-0.8,11.9,1C153.6,50.4,157.8,50,161.7,51.2z"/>
<rect x="115.4" y="160.3" class="st0" width="1.7" height="6.2"/>
<path class="st0" d="M111.8,166.5l2.5-6.2h-1.8l-1.2,3.5c0,0.3-0.1,0.6-0.2,0.8c0-0.3,0-0.6-0.2-0.8l-1.2-3.5H108l2.5,6.2H111.8z"/>
<path class="st0" d="M300,0H0v300h300V0z M103.3,27.6h93.1c0,0,0.2,44,0,76c0,23.6-29.1,49.6-46.6,50.4
	c-19.3-1.5-46.6-28.6-46.6-50.2L103.3,27.6z M103.3,158.1c0-4.4,0-5.4,2.7-6.8c3.2-1.9,7.9-2.9,10.5-6.4c1,3.5-1.5,5.5-1.3,10.9
	l-0.1-0.2c-2-3.9-0.2-4.9-0.6-6.9c-1.8,2.3-4.5,2.7-6.4,3.7c-2.5,1.3-3.9,4,1.2,4h81.2c5,0,3.5-2.9,1.2-4c-1.9-0.8-4.5-1.2-6.4-3.5
	c-0.5,1.8,1.3,2.9-0.8,7c0-0.2,0-0.3,0-0.5c-0.1-5-2.3-7-1.3-10.6c2.7,3.7,7.2,4.7,10.4,6.4v0.1c2.7,1.3,2.9,2.1,2.9,6.8v9.5
	c0,1.9-2.2,2.9-4.7,2.9H108c-2.5,0-4.7-1-4.7-2.9L103.3,158.1z M112.1,206.4V231c0,11.4-7.2,23.6-27,23.6c-17.5,0-26.3-10-26.3-23.1
	v-26.7c0-5.9-1.8-6.7-7.9-6.9v-1.8h23.4v1.8h-0.9c-5,0-7.2,1.4-7.2,6.7v25.5c0,12.4,7.2,19.8,20.8,19.8c10.3,0,20.8-4.3,20.8-19.8
	v-21.4c0-8.7-1.4-10.4-9-10.7v-1.8h21.6v1.6C114.2,198.1,112.1,200.5,112.1,206.4z M120.2,242c0-14.6,15.6-23.6,21.1-23.6l0,0
	c2.6,0,8.1,3.6,8.1,13.2c0,17.2-17,24.6-21.2,24.6S120.2,249.5,120.2,242L120.2,242z M183.1,203.2L183.1,203.2c-3,0-5.5-3.7-8.1-3.7
	c-3.6,0-6.5,3.9-7.6,9.9l-2.4,11.9h7.8l-0.9,3.1h-7.4l-4.6,26.3c-3.6,20.2-13.8,27.4-22.3,27.4c-3.8,0-6.9-1.9-6.9-4.1
	c0.1-1.6,1.5-2.8,3.1-2.7c3.4,0,5.2,3.9,8.5,3.9c2.1-0.1,4-1,5.4-2.5c4.6-4.6,6.3-19.9,6.6-22.1l4.6-26.2h-6.6l0.3-1.5
	c2.2-0.3,4.4-0.7,6.6-1.2c1.4-7.5,4.1-15.1,9.2-20.2c2.8-3,6.6-4.8,10.7-4.9c3.6,0,6.5,2,6.5,4.2
	C185.5,202.1,184.5,203.2,183.1,203.2z M246.4,231c-4.6,0.3-6.3,1.9-6.3,5.6v12.6l0,0c-7.6,3.5-15.8,5.4-24.1,5.6
	c-19.7,0-28.9-15.3-28.9-28.3c0-13.6,9.5-30.4,31.4-30.4c9.7,0,16.1,3.1,18,3.1c0.7,0.1,1.4-0.2,2-0.7h1.2V213h-1.9
	c-2.4-11.2-10-14.8-18.5-14.8c-15.8,0-23.9,13.2-23.9,27.6c0,18.5,12.9,26.6,23.4,26.6c4.8,0,9.5-1.2,13.8-3.4v-11.3
	c0-5.2-1.9-6.8-7.1-6.8h-3.4v-1.7h24.3L246.4,231z"/>
</svg>
