<?xml version="1.0" encoding="utf-8"?>
<!-- Generator: Adobe Illustrator 25.4.1, SVG Export Plug-In . SVG Version: 6.00 Build 0)  -->
<svg version="1.1" id="ae2f9094-e884-4011-a9f6-948d238c061c"
	 xmlns="http://www.w3.org/2000/svg" xmlns:xlink="http://www.w3.org/1999/xlink" x="0px" y="0px" viewBox="0 0 300 300"
	 style="enable-background:new 0 0 300 300;" xml:space="preserve">
<style type="text/css">
	.st0{fill:#A1A1AA;}
</style>
<path class="st0" d="M207.6,186.5c-1.4,0-2.7,0.8-3.3,2c-1,2.4-1,5.2,0.1,7.6c0.7,1.3,2,2,3.4,1.9c1.5,0,2.9-0.9,3.4-2.4
	c0.1-0.2,0.2-0.5,0.2-0.7c0.1-0.9,0.3-1.8,0.4-2.6h-0.1c0-0.5-0.1-1.1-0.1-1.6c-0.1-0.8-0.3-1.6-0.7-2.3
	C210.4,187.2,209,186.4,207.6,186.5z"/>
<path class="st0" d="M50.2,233.5c-0.5-0.8-1.3-1.3-2.2-1.5c-1.9-0.5-3.9,0.5-4.6,2.4c-0.5,1.3-0.7,2.7-0.5,4.1
	c0.1,1.1,0.4,2.2,0.9,3.1c0.9,1.6,2.9,2.4,4.7,1.7c1-0.4,1.7-1.1,2.1-2.1c0.4-1.2,0.7-2.4,0.7-3.6c0-0.5-0.1-1.1-0.2-1.8
	C51,235,50.7,234.2,50.2,233.5z"/>
<path class="st0" d="M72.8,231.3c-2.3,0-4.2,1.8-4.3,4.1c2.8,0.1,5.6,0.1,8.4,0c0-2.2-1.7-4-3.9-4.1
	C72.9,231.3,72.9,231.3,72.8,231.3z"/>
<path class="st0" d="M113.9,225.5c-0.2,0-0.3-0.1-0.5-0.1H108c-0.1,0.1-0.1,0.3-0.1,0.5c0,2.1,0,4.2,0,6.4c0,0.2,0.1,0.3,0.2,0.5
	h1.2c1.5,0,2.9,0,4.4-0.1c0.6-0.1,1.1-0.2,1.6-0.5c0.5-0.2,0.9-0.6,1.2-1.1c1.1-1.8,0.5-4.1-1.2-5.2
	C114.8,225.8,114.4,225.6,113.9,225.5z"/>
<path class="st0" d="M135.8,190.1c-0.3-2.7-2-4.3-4.2-4.2c-2.3,0.1-4.1,1.9-4.2,4.2H135.8z"/>
<path class="st0" d="M210.9,99.1c1.2,0,2.5-0.1,3.7-0.2c1.5-0.2,3-0.6,4.4-1.2c2.9-1.2,5-3.7,5.9-6.7c1-3.4,0.9-7.1-0.3-10.5
	c-0.9-2.8-3-5.1-5.7-6.3c-0.6-0.3-1.3-0.6-2-0.8c-1.9-0.6-3.9-0.8-5.8-0.8h-13.2c-1.4,0-2.8,0-4.2,0c-0.3,0-0.6,0.1-0.8,0.1v26.3
	c0.5,0,0.8,0.1,1.2,0.1C199.7,99.1,205.3,99.1,210.9,99.1z"/>
<path class="st0" d="M136.2,239.5c-0.6,0.2-1.2,0.4-1.7,0.7c-0.9,0.5-1.3,1.5-1.1,2.4c0.1,0.9,0.8,1.6,1.7,1.8
	c0.8,0.2,1.7,0.2,2.5,0c1.2-0.2,2.3-1.1,2.6-2.3c0.3-1.1,0.4-2.3,0.3-3.4C139,238.9,137.6,239.2,136.2,239.5z"/>
<path class="st0" d="M173.9,231.3c-2.3,0-4.2,1.8-4.4,4.1c0.1,0.1,0.2,0.1,0.3,0.1h7.7c0.1,0,0.2-0.1,0.3-0.1
	C178,233.2,176.2,231.4,173.9,231.3C174,231.3,173.9,231.3,173.9,231.3z"/>
<path class="st0" d="M0,0v300h300V0H0z M165.9,51c0.4-0.1,0.9-0.1,1.3-0.1h10.3H214c2.5,0,5,0.1,7.5,0.3c5.2,0.5,10.2,1.9,14.9,4.3
	c7.8,3.9,13.4,11.1,15.1,19.6c0.9,4.1,1.2,8.3,0.9,12.5c-0.1,2.8-0.5,5.5-1.1,8.3c-0.5,2.2-1.1,4.3-2,6.3c-2.7,6.3-7.7,11.4-14,14.1
	c-3.3,1.5-6.8,2.5-10.3,3c-3.4,0.5-6.9,0.8-10.4,0.7c-6.7,0-13.4,0-20.1,0H193c-0.1,0.2-0.1,0.5-0.1,0.8c0,0.4,0,0.7,0,1.1V153
	c0,0.5,0,1,0,1.5c-1.1,0.2-23.2,0.3-26.3,0.1c-0.2,0-0.4-0.1-0.6-0.1c0-0.1-0.1-0.3-0.1-0.4c0-34.2,0-68.4,0-102.7
	C165.9,51.3,165.9,51.2,165.9,51z M211.6,182.1c0-0.5,0-1.1,0-1.6v-6.4c0.2-0.1,0.3-0.1,0.5-0.2h6c0.1,0,0.3,0.1,0.4,0.1
	c0,0.2,0.1,0.5,0.1,0.7v3.1c0,7.7,0,15.5,0,23.2c0,0.5,0,1,0,1.5c-1.1,0.2-2.1,0.2-3.2,0.1c-1.1,0-2.1,0.1-3.2,0
	c-0.1-0.7-0.1-1.3-0.2-2.1c-0.2,0.1-0.3,0.2-0.4,0.3c-3,3.6-9.1,3-12-0.3c-0.7-0.7-1.2-1.6-1.6-2.5c-1.5-3.4-1.7-7.2-0.6-10.8
	c0.3-1,0.8-2,1.5-2.8c2.3-3.1,6.4-4.2,9.9-2.7c0.7,0.3,1.4,0.7,2,1.2l0.8,0.7C211.6,183.2,211.6,182.7,211.6,182.1L211.6,182.1z
	 M33,196.7c-0.4-1.2-0.7-2.5-0.8-3.8c0-0.9-0.1-1.7-0.1-2.6c0-5,0-10,0-15c0-0.4,0-0.8,0.1-1.2c0.1,0,0.3-0.1,0.5-0.1
	c2.2,0,4.4,0,6.6,0c0.1,0,0.2,0.1,0.4,0.2c0,0.4,0,0.9,0,1.3c0,5.2,0,10.4,0,15.6c0,0.9,0.1,1.8,0.2,2.7c0.3,1.6,1.6,2.8,3.2,3
	c1.2,0.3,2.4,0.3,3.5,0c1.4-0.3,2.5-1.3,2.8-2.6c0.2-0.5,0.3-1,0.3-1.6c0.1-0.6,0-1.3,0-2c0-5,0-10.1,0-15.1c0-0.4,0-0.9,0-1.4
	c2.5-0.2,5-0.2,7.5,0c0,0.2,0.1,0.4,0.1,0.7c0,5.7,0,11.4,0,17.1c0,1.6-0.3,3.2-0.8,4.7c-0.9,3-3.3,5.3-6.2,6.1
	c-1.3,0.4-2.7,0.7-4.1,0.7c-2.1,0.2-4.3,0-6.3-0.5c-0.5-0.1-1-0.3-1.5-0.5C35.9,201.4,33.9,199.3,33,196.7z M57.9,242.7v5.4
	c-0.2,0.1-0.3,0.1-0.5,0.2h-5.7c-0.1,0-0.2-0.1-0.3-0.1c-0.3-0.6,0.1-1.3-0.3-2c-0.2,0.2-0.4,0.3-0.5,0.4c-1.8,1.9-4.5,2.7-7.1,2.1
	c-2.5-0.4-4.7-2-5.9-4.2c-1.4-2.6-2-5.5-1.7-8.4c0.1-1.7,0.6-3.3,1.4-4.8c0.9-1.8,2.5-3.2,4.4-3.9c1.7-0.6,3.5-0.7,5.2-0.4
	c1.1,0.2,2.2,0.8,3,1.6l0.8,0.8c0.1-0.6,0.2-1.1,0.1-1.7c0-0.5,0-1.1,0-1.6v-1.6c0-0.5,0-1.1,0-1.6v-3.2c0.2-0.1,0.3-0.1,0.5-0.1
	c2,0,4,0,6,0c0.1,0,0.3,0,0.4,0.1c0.2,0.4,0.2,0.9,0.2,1.4L57.9,242.7z M83.9,239.4h-7.8c-1.3,0-2.5,0-3.8,0s-2.5,0-3.8,0
	c-0.1,2,1.1,3.9,3,4.5c2.2,0.7,4,0.1,5.7-2h6.3c0,0.2-0.1,0.5-0.1,0.7c-0.7,2-2,3.6-3.8,4.6c-1.2,0.7-2.6,1.2-4,1.4
	c-2.4,0.4-4.8,0.2-7.1-0.6c-3.3-1.1-5.8-3.9-6.5-7.4c-0.5-1.9-0.5-3.8,0-5.7c0.9-3.8,3.8-6.7,7.5-7.7c2.5-0.8,5.1-0.7,7.6,0.1
	c2.2,0.7,4.1,2.2,5.2,4.2c0.9,1.4,1.4,3.1,1.6,4.7c0.1,0.6,0.1,1.3,0.2,2C83.9,238.7,83.9,239.1,83.9,239.4L83.9,239.4z M76.2,191.2
	c0-0.6,0-1.1-0.1-1.7c0-1.2-0.9-2.3-2.2-2.5c-1.9-0.6-3.9,0.5-4.5,2.4c-0.1,0.2-0.1,0.4-0.1,0.6c-0.1,0.7-0.2,1.4-0.2,2.1
	c0,3.1,0,6.2,0,9.3c0,0.4,0,0.8-0.2,1.2c-0.2,0-0.4,0.1-0.6,0.1h-5.8c-0.1,0-0.3-0.1-0.4-0.1c0-0.2-0.1-0.4-0.1-0.6
	c0-6.7,0-13.3,0-20c0.7-0.2,1.5-0.3,2.2-0.2c0.7,0,1.5,0,2.2,0c0.8,0,1.5,0,2.3,0.1c0,0.8,0.1,1.6,0.1,2.3c0.3,0.2,0.4-0.1,0.5-0.2
	c2.6-2.7,6.6-3.5,10-2c1.9,0.9,3.2,2.7,3.5,4.7c0.1,0.8,0.2,1.6,0.2,2.4c0,4.2,0,8.4,0,12.6c0,0.2,0,0.5,0,0.8
	c-0.4,0-0.6,0.1-0.8,0.1c-1.9,0-3.8,0-5.6,0c-0.1,0-0.2-0.1-0.3-0.1c-0.2-0.4-0.2-0.9-0.1-1.3C76.3,197.8,76.3,194.5,76.2,191.2
	L76.2,191.2z M73.7,147.2c-4.1-3.6-7.2-8.2-9-13.2c-1.3-3.5-2.2-7.1-2.8-10.8c-0.5-3.9-0.8-7.7-0.8-11.6c0-19.7,0-39.5,0-59.2v-1.3
	c0.2-0.1,0.5-0.1,0.7-0.2c0.2,0,0.5,0,0.7,0h24.1c0.4,0,0.9,0,1.4,0c0,0.4,0.1,0.8,0.1,1.2v7.5c0,17.4,0,34.9,0,52.3
	c0,2.2,0,4.4,0.3,6.6c0.2,1.7,0.6,3.3,1.1,4.9c1.4,4.7,5.3,8.3,10.1,9.3c2.9,0.7,6,0.9,9,0.7c1.8-0.1,3.5-0.4,5.2-0.9
	c4.2-1.2,7.6-4.4,9-8.5c0.9-2.4,1.4-4.9,1.5-7.4c0.1-1.7,0.1-3.4,0.1-5.2c0-19.6,0-39.2,0-58.8c0-0.5,0-1,0.1-1.5
	c1.3-0.2,18.9-0.3,26-0.1c0.3,0,0.6,0,0.9,0.1c0.1,0.5,0.1,1,0.1,1.5c0,12.9,0,25.7,0,38.6v19c0,3.2,0,6.4-0.4,9.6
	c-0.4,4.6-1.4,9.2-2.9,13.5c-3.2,9.6-10.7,17.1-20.2,20.3c-3.2,1.1-6.5,2-9.9,2.5c-5.8,0.8-11.7,1.1-17.6,0.6
	c-5.2-0.2-10.3-1.2-15.3-2.9C81,152.3,77.2,150.1,73.7,147.2L73.7,147.2z M128,196.6c0.4,0.8,1.2,1.4,2,1.7c2.2,0.9,4.7,0.2,6-1.8
	c2.1-0.1,4.2-0.1,6.3,0c0,0.2,0,0.5-0.1,0.7c-0.6,1.7-1.7,3.2-3.2,4.2c-1.6,1.1-3.5,1.7-5.4,1.9c-2.1,0.2-4.3,0-6.3-0.7
	c-3.8-1.2-6.5-4.5-6.9-8.5c-0.3-1.7-0.2-3.5,0.4-5.2c1.2-3.8,4.5-6.7,8.4-7.4c1.8-0.4,3.8-0.4,5.6,0.1c3.2,0.7,5.8,3,7,6
	c0.7,1.7,1.1,3.6,1,5.5c0,0.3-0.1,0.6-0.1,0.9c-5.2,0-10.2,0-15.4,0C127.3,194.9,127.5,195.8,128,196.6z M94.8,202.6
	c-1.1,0.1-2.2,0.1-3.2,0.1c-1.1,0-2.2,0-3.2,0c-0.3-0.4-0.3-0.9-0.2-1.4c0-4.8,0-9.7,0-14.5c0-1.3,0-2.6,0-3.9c0-0.3,0-0.6,0.1-1
	c1.1-0.1,2.2-0.2,3.3-0.1c1.1,0,2.2,0,3.4,0C94.9,183.1,94.9,201.5,94.8,202.6L94.8,202.6z M94.9,178.6c0,0.2-0.1,0.4-0.2,0.5
	c-2.2,0.1-4.4,0.1-6.5,0c-0.2-1.7-0.2-3.4,0-5.1c2.2-0.2,4.4-0.2,6.6,0C95,175.6,95,177.1,94.9,178.6L94.9,178.6z M97.3,181.9
	c2.4-0.2,4.7-0.2,7.1,0c0.1,0.3,0.2,0.7,0.4,1.1l3.2,11.5c0.1,0.3,0.2,0.5,0.3,0.8c0.3,0.1,0.2-0.2,0.3-0.3c0.1-0.1,0.1-0.2,0.1-0.4
	l3.2-11.4c0.1-0.4,0.2-0.9,0.4-1.3c1.1-0.1,2.3-0.2,3.5-0.1c1.1,0,2.3,0,3.4,0c0,0.2,0.1,0.4,0,0.5c-2.3,6.8-4.5,13.5-6.8,20.3
	c-2.7,0.2-5.5,0.2-8.2,0c-2.3-6.7-4.5-13.4-6.8-20.2C97.3,182.2,97.3,182,97.3,181.9L97.3,181.9z M124,232.8
	c-0.8,2.8-3.2,4.9-6.1,5.4c-1.4,0.3-2.7,0.4-4.1,0.4c-1.5,0-3,0-4.5,0c-0.4,0-0.8,0-1.2,0c-0.2,0.3-0.3,0.7-0.2,1.1
	c0,2.4,0,4.8,0,7.1c0,0.4,0,0.8,0,1.2c-2.5,0.3-5,0.3-7.5,0.1c-0.1-0.2-0.1-0.4-0.2-0.6c0-0.3,0-0.7,0-1v-25.4c0-0.5,0-1,0-1.6
	c0.4,0,0.8-0.1,1.1-0.1h12.4c1.5-0.1,3,0.1,4.5,0.5c0.8,0.2,1.5,0.6,2.3,0.9c2,1,3.4,2.9,3.9,5.1C124.8,228.3,124.7,230.6,124,232.8
	z M147.9,248.1c0,0,0,0.1,0,0.1c0,0-0.1,0-0.1,0H142c-0.2,0-0.5,0-0.8,0c-0.2-0.6-0.4-1.1-0.5-1.6c-0.4-0.1-0.6,0.2-0.8,0.3
	c-2.5,1.7-5.6,2.3-8.6,1.6c-2.9-0.5-4.9-3.1-4.8-6c0-0.4,0-0.8,0.1-1.2c0.2-1.7,1.3-3.3,2.9-4.1c1.3-0.6,2.7-1.1,4.2-1.2
	c1.6-0.2,3.2-0.5,4.9-0.7c0.4-0.1,0.8-0.2,1.2-0.4c0.9-0.5,1.2-1.5,0.7-2.4c-0.1-0.1-0.1-0.2-0.2-0.3c-0.2-0.2-0.5-0.4-0.8-0.6
	c-1.2-0.6-2.5-0.6-3.7-0.2c-0.7,0.2-1.2,0.7-1.6,1.3c-0.2,0.3-0.3,0.6-0.5,1c-2.1,0-4.1,0-6.3,0c0-0.2-0.1-0.4-0.1-0.6
	c0.3-2.7,2.2-4.9,4.8-5.6c1.3-0.4,2.6-0.6,4-0.7c1.9-0.1,3.8,0,5.6,0.4c0.7,0.2,1.4,0.4,2.1,0.7c1.9,0.8,3.2,2.7,3.3,4.8
	c0,0.6,0.1,1.1,0.1,1.7c0,2.9,0,5.7,0,8.6c-0.1,1.6,0.2,3.3,0.7,4.8C147.9,247.9,147.9,248,147.9,248.1z M158.6,248.2h-6.7
	c0-0.5-0.1-0.8-0.1-1.2V221c0-0.4,0-0.9,0-1.4c0.7-0.1,1.5-0.1,2.2-0.1h2.3h2.2c0,0.3,0.1,0.5,0.1,0.8s0,0.6,0,0.9
	c0,8.5,0,17,0,25.5C158.8,247.2,158.8,247.7,158.6,248.2z M161,187.8l-1.5-0.3c-1-0.2-2-0.1-2.9,0.2c-1.8,0.5-3.1,2.1-3.3,4
	c0,0.4,0,0.9,0,1.4c0,2.7,0,5.5,0,8.2c0,0.4,0,0.8-0.1,1.2c-0.1,0.1-0.3,0.1-0.5,0.2c-2,0-3.9,0-5.9,0c-0.2,0-0.3-0.1-0.5-0.1
	c0-0.2-0.1-0.3-0.1-0.5v-20.1c2.2-0.2,4.5-0.2,6.7,0c0.1,0.5,0.2,1,0.1,1.5c0,0.6,0,1.2,0.1,1.7c0.6-1.3,1.6-2.3,2.9-3
	c0.8-0.4,1.6-0.6,2.5-0.7c0.8-0.1,1.6,0,2.4,0.1c0.2,0.7,0.2,1.4,0.1,2.1c0,0.6,0,1.3,0,2C161.2,186.4,161.1,187.1,161,187.8z
	 M162.1,195.9c2.1-0.2,4.3-0.2,6.4-0.1c0.1,0.3,0.2,0.5,0.3,0.8c0.2,0.9,0.8,1.6,1.7,1.8c1.2,0.5,2.6,0.5,3.8,0
	c0.3-0.1,0.5-0.3,0.7-0.5c0.7-0.6,0.7-1.6,0.1-2.3c-0.1-0.1-0.2-0.2-0.3-0.3c-0.5-0.3-1-0.5-1.6-0.7c-1.5-0.4-3-0.7-4.4-1
	c-0.9-0.2-1.7-0.4-2.6-0.7c-0.7-0.3-1.3-0.6-1.8-1c-0.4-0.3-0.8-0.7-1.1-1.1c-1.6-2.3-1.2-5.4,0.8-7.4c0.6-0.6,1.4-1,2.2-1.3
	c1.2-0.5,2.4-0.8,3.7-0.9c2.2-0.3,4.3-0.1,6.5,0.4c1,0.2,1.9,0.7,2.8,1.2c1.6,1.1,2.5,2.9,2.5,4.9c-2.1,0.2-4.2,0.2-6.2,0
	c-0.1-0.1-0.1-0.2-0.1-0.3c-0.2-0.9-0.9-1.6-1.8-1.8c-1-0.3-2-0.2-3,0.1c-0.2,0.1-0.5,0.2-0.6,0.3c-0.5,0.3-0.7,1-0.4,1.6
	c0,0.1,0.1,0.2,0.2,0.2c0.3,0.4,0.7,0.6,1.2,0.8c0.9,0.3,1.8,0.6,2.7,0.8c1.3,0.3,2.6,0.4,3.8,0.8c0.8,0.2,1.5,0.4,2.2,0.8
	c2.2,1.2,3.4,3.7,2.9,6.1c-0.3,1.7-1.2,3.2-2.6,4.1c-0.9,0.7-2,1.2-3.1,1.4c-2.9,0.8-6,0.8-8.9,0c-1-0.2-1.9-0.6-2.8-1.2
	c-1.9-1.2-3-3.2-3.1-5.4C162,196.1,162.1,196,162.1,195.9L162.1,195.9z M185,238.9c0,0.1-0.1,0.3-0.1,0.4c-0.8,0.1-1.7,0.1-2.5,0.1
	h-10.2h-2.5c-0.2,1.9,0.9,3.7,2.7,4.4c2.2,0.9,4.2,0.2,6-2c2,0,4.1,0,6.2,0c0,0.3,0,0.5-0.1,0.8c-0.7,2.1-2.3,3.8-4.3,4.8
	c-1.2,0.6-2.6,1-4,1.2c-2.3,0.3-4.6,0.1-6.8-0.7c-3.8-1.3-6.5-4.7-6.7-8.7c-0.2-1.3-0.1-2.5,0.1-3.8c0.7-4,3.7-7.2,7.6-8.2
	c2.4-0.8,5.1-0.8,7.5,0c2.5,0.7,4.5,2.5,5.7,4.8C184.6,234.1,185.1,236.5,185,238.9L185,238.9z M186.1,174.1c2.2-0.2,4.4-0.2,6.6,0
	c0.1,0.5,0.2,1.1,0.1,1.6c0,0.6,0,1.1,0,1.7c0,0.6,0,1.2-0.1,1.8h-6.6C186,177.5,185.9,175.8,186.1,174.1L186.1,174.1z M186.1,202.6
	c-0.1-0.3-0.1-0.6-0.1-0.8v-19c0-0.3,0-0.6,0.1-0.8c2.2-0.2,4.5-0.2,6.7,0c0.1,0.4,0.2,0.9,0.1,1.3c0,4.5,0,9.1,0,13.6
	c0,1.6,0,3.1,0,4.7c0,0.4,0,0.7-0.1,1c-0.1,0.1-0.2,0.1-0.3,0.1c-1.9,0-3.8,0-5.6,0C186.6,202.7,186.4,202.6,186.1,202.6
	L186.1,202.6z M203.4,233.2l-0.8-0.1c-1-0.2-2-0.2-3.1-0.1c-2.1,0.3-3.7,2-4,4.1c-0.1,0.5-0.1,1-0.1,1.5c0,2.8,0,5.6,0,8.4
	c0.1,0.4,0,0.8-0.1,1.2c-2.2,0.2-4.4,0.2-6.6,0c-0.1-0.1-0.1-0.2-0.1-0.3c0-6.7,0-13.3,0-20c0-0.1,0.1-0.2,0.1-0.3
	c2.1-0.2,4.3-0.2,6.4,0c0.3,0.3,0.2,0.8,0.2,1.2c0,0.6,0.1,1.1,0.1,1.7c0,0,0.1,0,0.2,0.1c0.3-0.2,0.4-0.6,0.6-0.8
	c0.3-0.3,0.5-0.6,0.8-0.9c0.3-0.3,0.6-0.5,0.9-0.7c0.3-0.2,0.7-0.4,1-0.5c0.3-0.1,0.7-0.2,1.1-0.3c0.4-0.1,0.8-0.2,1.2-0.2
	c0.4,0,0.7,0,1.1,0c0.4,0,0.7,0.1,1.1,0.1c0.2,1,0.2,2,0.1,3.1C203.4,231.1,203.4,232.1,203.4,233.2L203.4,233.2z M238.6,246.9
	c0,0.4,0,0.8,0,1.2c-0.7,0.2-1.5,0.2-2.2,0.2c-0.7,0-1.5,0-2.2,0h-2.4c0-0.6,0-1,0-1.5c0-3.3,0-6.6,0-10c0-0.4,0-0.9,0-1.3
	c0-0.5-0.2-1-0.3-1.4c-0.4-1.1-1.6-1.8-2.8-1.7c-1.2,0-2.3,0.7-2.6,1.9c-0.3,0.9-0.4,1.9-0.4,2.9c0,3.2,0,6.4,0,9.6v1.4
	c-0.7,0.2-1.5,0.3-2.2,0.2c-0.8,0-1.6,0-2.3,0h-2.2c-0.2-0.4-0.3-0.9-0.2-1.4c0-3.3,0-6.6,0-9.9c0-0.7,0-1.4-0.1-2.1
	c-0.4-2.7-2.4-2.8-3.9-2.3c-0.8,0.2-1.4,0.7-1.6,1.4c-0.2,0.6-0.4,1.3-0.5,2c-0.1,0.9-0.1,1.7-0.1,2.6c0,2.7,0,5.5,0,8.2
	c0.1,0.5,0,1-0.2,1.4c-0.7,0.1-1.4,0.1-2.1,0.1h-2.3h-2.2c-0.2-0.4-0.2-0.9-0.1-1.4c0-5.4,0-10.8,0-16.2c0-0.8,0-1.6,0-2.4
	c0-0.2,0-0.5,0.1-0.7c0.2-0.1,0.3-0.1,0.5-0.1c1.9,0,3.8,0,5.8,0c0.1,0,0.3,0.1,0.4,0.1c0.2,0.7,0,1.5,0.2,2.4
	c0.5-0.4,0.8-0.9,1.2-1.2c0.4-0.4,0.8-0.7,1.3-1c0.5-0.3,1-0.5,1.5-0.6c0.5-0.2,1-0.3,1.6-0.3c0.5-0.1,1-0.1,1.5,0
	c0.5,0,1.1,0.1,1.6,0.3c0.5,0.1,1,0.3,1.5,0.6c0.5,0.3,0.9,0.6,1.3,1c0.4,0.4,0.7,0.9,1,1.3c0.2-0.2,0.4-0.3,0.5-0.5
	c1.3-1.5,3.2-2.5,5.2-2.6c1.3-0.1,2.5,0,3.8,0.4c1.7,0.5,3,1.7,3.7,3.4c0.4,1.1,0.7,2.3,0.8,3.5c0,0.6,0,1.3,0,2L238.6,246.9z
	 M236.7,202.6c-0.4-0.4-0.3-1-0.5-1.4c-0.3-0.1-0.5,0.1-0.7,0.2c-2.6,1.9-5.9,2.5-9,1.7c-2.2-0.4-3.9-2.1-4.3-4.2
	c-0.3-1.2-0.3-2.4,0-3.5c0.3-1.5,1.4-2.8,2.8-3.5c1.3-0.6,2.6-1,4-1.2c1.6-0.3,3.2-0.5,4.8-0.7c0.4-0.1,0.7-0.1,1.1-0.2
	c0.9-0.2,1.4-1.2,1.2-2.1c-0.1-0.2-0.2-0.4-0.3-0.6c-0.2-0.3-0.6-0.6-0.9-0.8c-1-0.5-2.1-0.7-3.2-0.4c-0.9,0.2-1.7,0.8-2.1,1.7
	c-0.1,0.2-0.2,0.4-0.3,0.7c-2.1,0.2-4.3,0.1-6.4-0.1c0-1.5,0.6-3,1.6-4.1c0.7-0.8,1.7-1.5,2.7-1.8c1.3-0.5,2.6-0.8,3.9-0.9
	c2.2-0.2,4.3-0.1,6.4,0.4c0.7,0.2,1.4,0.4,2,0.7c1.8,0.9,3,2.6,3.2,4.6c0.1,0.7,0.1,1.3,0.1,2c0,2.8,0,5.6,0,8.5
	c-0.1,1.6,0.1,3.3,0.6,4.9c0,0.1,0,0.1,0,0.2C241.2,202.8,238.9,202.8,236.7,202.6L236.7,202.6z M261.6,245.3
	c-1.8,2-4.4,3.2-7.1,3.4c-1.6,0.2-3.3,0-4.9-0.5c-3.8-1.1-6.7-4.3-7.4-8.2c-0.5-2.1-0.3-4.3,0.5-6.3c1.3-3.6,4.5-6.3,8.3-6.8
	c1.9-0.4,3.8-0.3,5.6,0.2c4.4,1.2,7.6,5.1,7.8,9.6c0,0.3,0,0.6,0,0.9C264.5,240.5,263.5,243.2,261.6,245.3L261.6,245.3z M268,202.5
	c-1,0.2-2.1,0.2-3.1,0.1c-1.1,0.1-2.2,0.1-3.3,0c-0.1-0.7-0.1-1.3-0.2-2.1c-0.3,0.3-0.5,0.4-0.6,0.6c-1.9,1.9-4.6,2.7-7.2,2.1
	c-2.5-0.4-4.6-2-5.8-4.2c-0.9-1.7-1.5-3.5-1.6-5.4c-0.3-2.1,0-4.3,0.6-6.3c0.4-1.1,0.9-2.1,1.6-3c2.4-3,6.6-4,10.1-2.4
	c0.8,0.4,1.4,0.8,2,1.4c0.1,0.1,0.2,0.2,0.5,0.4c0.1-0.6,0.1-1.2,0.1-1.7v-4.9c0-0.5,0-1.1,0-1.6c-0.1-0.5,0-1,0.1-1.6
	c0.1-0.1,0.2-0.1,0.4-0.1h5.9c0.2,0,0.3,0.1,0.5,0.1c0,0.2,0.1,0.4,0.1,0.6C268.2,177,268.1,201.5,268,202.5z"/>
<path class="st0" d="M261.4,191.1c-0.1-0.9-0.3-1.9-0.8-2.7c-0.4-0.9-1.2-1.5-2.1-1.8c-2-0.7-4.2,0.4-4.9,2.3
	c-0.1,0.3-0.2,0.5-0.3,0.8c-0.5,1.8-0.4,3.6,0.2,5.3c0.2,0.6,0.5,1.1,0.9,1.6c0.4,0.5,0.9,0.9,1.6,1.1c1.9,0.8,4.1-0.2,4.9-2.1
	c0-0.1,0.1-0.2,0.1-0.2c0.4-1,0.5-2.1,0.5-3.1C261.4,191.9,261.4,191.5,261.4,191.1z"/>
<path class="st0" d="M254.1,232c-1.8-0.5-3.7,0.5-4.4,2.2c-0.1,0.3-0.3,0.6-0.3,0.9c-0.5,1.8-0.4,3.7,0.1,5.4
	c0.1,0.4,0.3,0.8,0.6,1.2c0.9,1.5,2.6,2.1,4.2,1.6c1.1-0.3,2-1.1,2.5-2.2c0.5-1.1,0.7-2.2,0.7-3.4c0-1.3-0.2-2.5-0.7-3.6
	C256.2,233.1,255.3,232.2,254.1,232z"/>
<path class="st0" d="M231.8,194.1c-0.4,0.1-0.7,0.2-1.1,0.3c-0.3,0.1-0.6,0.3-0.9,0.4c-0.7,0.5-1.1,1.4-0.9,2.2
	c0.1,0.9,0.8,1.6,1.6,1.8c0.8,0.2,1.5,0.2,2.3,0.1c1.3-0.1,2.4-1.1,2.7-2.3c0.3-1.1,0.5-2.3,0.4-3.5
	C234.5,193.5,233.2,193.8,231.8,194.1z"/>
</svg>
