<svg id="f04bd28c-ab41-4ce3-9ac7-0140516bf085" data-name="PRINT" xmlns="http://www.w3.org/2000/svg" viewBox="0 0 300 300"><path d="M137.7,145.32c6.57,0,13.14.16,19.69-.06,14.78-.51,25.2-7.3,29.41-20.17,4.78-14.64,6.35-29.77,1.94-44.79-5-17-14.89-29.79-33.46-32.87-6.5-1.08-13.33-.17-20.31-.17a4.39,4.39,0,0,0-.36,1.2q0,47.1-.08,94.21C134.52,145.1,135.81,145.34,137.7,145.32Z"/><path d="M165.53,148.59c-8.43-1.76-17.38-.93-26.08-1.51-3.75-.25-5,.69-5,4.79.18,34.85.11,69.71.11,104.57v4.63c11,0,21.45.69,31.77-.16,16.06-1.32,27.19-9.91,31.42-25.74,4.64-17.38,5.39-35.12.84-52.6S183.77,152.4,165.53,148.59Z"/><path d="M300,0H0V300H300ZM220.77,249a79.8,79.8,0,0,1-40.18,13.27c-18.61,1-37.27.8-55.91.92-19.69.13-39.37,0-59.05,0-1.39,0-2.79-.2-4.19-.31l.06-1.4H90V46.78H60.82l-.09-1.32A13.85,13.85,0,0,1,63.24,45c32.29,0,64.58-.15,96.86.29,15,.19,29.55,3.32,43.05,10.38,24.47,12.81,31.09,36.69,25.56,57-2.87,10.57-9.77,18.44-19,23.84-5.92,3.46-12.57,5.69-18.9,8.45-.88.39-1.8.68-3.65,1.36,15.1,2.53,27.76,8.13,38.82,17.11,10.85,8.82,18.43,19.71,19.81,34C247.89,219.7,239.2,236.83,220.77,249Z"/></svg>