<?xml version="1.0" encoding="utf-8"?>
<!-- Generator: Adobe Illustrator 25.4.1, SVG Export Plug-In . SVG Version: 6.00 Build 0)  -->
<svg version="1.1" id="ebdc9aea-545c-4b52-93d0-2e5dd88c47fc"
	 xmlns="http://www.w3.org/2000/svg" xmlns:xlink="http://www.w3.org/1999/xlink" x="0px" y="0px" viewBox="0 0 300 300"
	 style="enable-background:new 0 0 300 300;" xml:space="preserve">
<style type="text/css">
	.st0{fill:#A1A1AA;}
</style>
<path class="st0" d="M0,300h300V0H0V300z M80.5,236.9c-3.4,0.2-3.4,0.6-3.4,4.9v11.6c0,1.9,0,4.3,0.2,5.8c0.2,2.1,1,2.5,3.2,2.7v1.5
	H68v-1.5c3.6-0.2,3.6-0.4,3.7-5.6v-14.2l-10,21.7h-2.6l-9.2-22l-0.2,16.6c0,2.8,0.3,3.3,3.4,3.5v1.5H43v-1.5
	c2.3-0.1,3.2-0.4,3.4-2.4c0.1-0.8,0.2-3.1,0.2-4.7L47,243c0-0.9,0-2.3,0-3.3c0-2.8-0.6-3-3.1-3v-1.5h9l9,21.4l9.9-21.4h8.7
	L80.5,236.9z M82.8,212.1l-0.3,14.4h-1.1l-1.7-2.1c-0.9-1.1-1.7-2.1-2.6-3.1l-7.5-9.1v9.7c0,3,0.2,3.1,3.1,3.4v1h-7.7v-1
	c1.6-0.1,2.2-0.1,2.4-1.2c0.3-1.2,0.3-12.3,0.4-14.2c-0.7-0.8-1.7-1.2-2.7-1.2v-1h5.7c1.6,2.2,1.9,2.7,4.7,6.1l5.3,6.4v-8.3
	c0-2.9-0.1-3.1-3.1-3.2v-1H85v1C83,208.6,82.8,209,82.8,212.1z M95.3,236.7c-3.4,0.3-3.4,0.5-3.4,6.5v11.4c0,1,0,4.2,0.1,5
	c0.2,1.7,1,2.1,3.2,2.3v1.5H83.4v-1.5c2.8-0.4,3.4-0.7,3.4-3.6v-15c0-5.9,0-6-3.4-6.5v-1.5h11.9V236.7z M87.1,208.6v-1H95v1
	c-2.2,0.2-2.2,0.3-2.2,4.3v7.5c0,0.7,0,2.8,0.1,3.3c0.1,1.1,0.7,1.4,2.2,1.5v1h-7.9v-1c1.8-0.2,2.2-0.4,2.3-2.4v-9.9
	C89.3,209,89.3,208.9,87.1,208.6L87.1,208.6z M110,264.1c-8.7,0-14.3-6.3-14.3-14.5c0-7.6,4.8-15.1,14.5-15.1
	c3.5-0.1,6.8,1.1,9.5,3.4l2-1.8l0.2,8.6l-1.3,0.2c-0.6-1.9-1.7-3.6-3.1-5c-1.6-1.7-3.7-2.7-6-2.8c-5.2,0-9.3,4.1-9.3,11.5
	c0,6.2,3.4,12,10,12c5,0,6.9-2.8,8.4-4.9l1.7,1.3C119.9,261.6,115.1,264.3,110,264.1z M103.9,212.3l3.3,9.5l3.9-9.8
	c0.3-0.6,0.5-1.3,0.6-2c0-1.4-1.3-1.4-2.5-1.4v-1h6.7v1c-1.8,0.3-2.1,0.8-3.6,4.5l-5.8,13.6h-1l-5.2-13.8c-1.3-3.6-1.4-4-3.4-4.3v-1
	h9v1c-1.5,0.1-2.5,0.1-2.5,1.2C103.4,210.6,103.6,211.5,103.9,212.3L103.9,212.3z M118.8,209.6c-0.2-0.9-0.8-0.9-2.2-1.1v-1h13.5
	l0.1,4.4h-0.9c-0.4-2.5-1.6-2.8-4.8-2.8h-2.4v6.6h2.1c2.4,0,2.8-0.5,3-2.2h0.9v6.1h-0.9c0-2.1-0.7-2.3-3-2.3h-2v5.2
	c0,1.2,0.5,1.9,3,1.9c2.7,0,4.6,0.2,5.3-3.2h0.9c-0.2,1.6-0.3,3.2-0.4,4.8h-14.5v-1c2-0.2,2.2-0.4,2.3-2.4c0-0.4,0.1-2.7,0.1-3.2
	V213C118.9,211.9,118.9,210.8,118.8,209.6L118.8,209.6z M154.8,236.7c-3.3,0.4-3.3,0.4-3.3,5.8v11.9c0,1.1,0,4.7,0.2,5.5
	c0.2,1.5,1.1,1.8,3.2,2v1.5h-12.5v-1.5c2.9-0.3,3.7-0.4,3.9-2.4c0.1-0.8,0.1-1.9,0.1-3.9v-5.2c-2.3-0.1-4.2-0.2-6.5-0.2
	s-4.4,0.1-6.9,0.2v5.2c0,5.9,0.1,5.9,3.8,6.3v1.5h-12.3v-1.5c3.2-0.3,3.3-1,3.3-3.7c0-1,0-2,0-3v-11.9c0-1.8,0-3.7-0.1-4.6
	c-0.2-1.7-1-1.9-3.2-2.1v-1.5h12.3v1.5c-2.4,0.2-3.3,0.3-3.6,1.9c-0.2,1.5-0.3,3.1-0.2,4.7v3.9c2.5,0.1,4.2,0.2,6.6,0.2
	s4.4-0.1,6.8-0.2v-4.7c0-5.1-0.1-5.4-4-5.7v-1.5h12.5L154.8,236.7z M135.5,209.9c-0.1-1-0.6-1.2-2.2-1.3v-1h8.6
	c4.7,0,6.2,2.2,6.2,4.8c0,2.3-1.5,4.3-3.7,4.9l3.4,5.7c1.2,2.2,1.9,2.7,3.4,2.9v0.6c-0.4,0-0.8,0.1-1.2,0.1c-3.6,0-5-1.2-6.6-4.4
	l-1-2.2c-1.1-2.4-1.5-2.2-3.3-2.2v2.4c0,4.3,0,4.9,2.3,4.9v1h-7.9v-1c2.1-0.1,2.3-0.5,2.3-2.5c0-0.8,0-1.6,0-2.4v-6.8
	C135.7,212.3,135.6,211.1,135.5,209.9z M158.6,218.8c-0.8-0.3-1.6-0.5-2.3-0.8c-1.6-0.6-4.5-1.7-4.5-5.4s2.8-5.4,6.1-5.4
	c1.5,0,3.1,0.4,4.4,1.3l1.2-0.8l0.6,5.6l-0.9,0.2c-0.2-1-0.7-2-1.3-2.8c-0.9-1.1-2.3-1.8-3.7-1.7c-2,0-3.2,1-3.2,2.4
	c0,2.2,2.2,2.9,4.4,3.6c1,0.3,1.9,0.6,2.8,1.1c1.7,1,2.8,2.8,2.7,4.8c0,3.2-2.7,5.9-6.7,5.9c-1.8,0-3.5-0.5-4.9-1.5l-1.6-1.1
	l-0.3-3.7l1-0.1c1.1,3,2.8,4.7,5.7,4.7c2,0,3.8-0.8,3.8-2.9S159.5,219.1,158.6,218.8z M169,236.7c-3.4,0.3-3.4,0.5-3.4,6.5v11.4
	c0,1,0,4.2,0.1,5c0.2,1.7,1,2.1,3.2,2.3v1.5h-11.9v-1.5c2.8-0.4,3.4-0.7,3.4-3.6v-15c0-5.9,0-6-3.4-6.5v-1.5H169V236.7z
	 M165.8,208.6v-1h7.9v1c-2.2,0.2-2.2,0.3-2.2,4.3v7.5c0,0.7,0,2.8,0.1,3.3c0.1,1.1,0.7,1.4,2.1,1.5v1h-7.9v-1
	c1.9-0.2,2.2-0.4,2.3-2.4v-9.9C168.1,209,168.1,208.9,165.8,208.6L165.8,208.6z M195.5,258.7v2.1c-3.3,2.2-7.1,3.4-11.1,3.3
	c-9.9,0-14.6-7.3-14.6-14.7c0-9,6.2-14.9,14-14.9c4.9,0,7.7,1.8,10.1,3.2l1.5-1.7l0.2,8.8l-1.2,0.2c-0.7-2.2-2-4.1-3.6-5.7
	c-1.5-1.4-3.6-2.2-5.7-2.1c-5,0-9.2,4.1-9.2,12.3c0,6.5,3.3,12,8.9,12c1.9,0,3.8-0.9,5-2.4c0.5-0.8,0.7-1.7,0.6-2.7
	c-0.1-3.6-0.6-3.7-3.8-4v-1.5h11.6v1.5C195.6,252.6,195.6,253.3,195.5,258.7L195.5,258.7z M188.2,225.4v0.8h-7.9v-0.8
	c1.8,0,2.2-0.7,2.2-2.1v-13.7h-2.3c-2.2,0-3.6-0.1-3.7,3.2h-1l0.2-5.2H193l0.2,5.2h-1c-0.2-3.3-1.6-3.2-3.7-3.2h-2.4v13.7
	C186.1,224.7,186.5,225.4,188.2,225.4L188.2,225.4z M202.4,211.4l2.9,4.7l2.7-4.6c0.4-0.6,0.6-1.2,0.8-1.9c0-0.9-0.8-0.9-2.1-1v-1
	h7.4v1c-1.9,0.1-2.5,0.6-4.6,4.1l-3,4.9v3.9c0,3.4,0,3.6,2.9,3.8v1H200v-1c1.5-0.1,2-0.2,2.4-0.6s0.4-0.9,0.4-2.9v-3.3l-5.1-7.7
	c-1.4-2-1.4-2.1-3.2-2.2v-1h9.9v1c-2,0.1-2.9,0.1-2.9,1C201.7,210.2,202,210.9,202.4,211.4L202.4,211.4z M257,236.7
	c-3.1,0-3.4,0.7-3.5,5.3l-0.4,21.8h-1.7l-2.6-3.2c-1.3-1.6-2.6-3.2-3.9-4.8l-11.4-13.7v14.6c0,4.5,0.3,4.7,4.7,5.1v1.5H214v-1.5
	c1.9-0.1,3.5-0.3,3.5-1.8c0-0.6-0.1-1.1-0.3-1.7l-0.9-2.9h-10.1l-0.9,2.4c-0.2,0.6-0.3,1.2-0.4,1.8c0,2,2.2,2.1,3.9,2.2v1.5h-11.9
	v-1.5c3-0.1,4-0.7,5.1-3.7l7.8-20.9l-0.4-0.7c3.3-1.1,4.3-1.6,5.7-2.6c0.6,1.9,0.6,2.2,1.3,4.2l6.4,19.2c1.1,3.3,1.6,4.2,4.5,4.5
	c1.9-0.1,2.7-0.3,3-1.7c0.4-1.9,0.5-18.6,0.6-21.5c-1-1.2-2.6-1.9-4.1-1.9v-1.5h8.6c2.4,3.4,2.9,4.1,7.2,9.3l8,9.7v-12.6
	c0-4.5-0.2-4.7-4.7-4.9v-1.5H257V236.7z M222.3,217c0-5.1,3.5-9.7,9.6-9.7c5.8,0,9.8,4,9.8,9.7c0,6.4-4.5,9.8-9.5,9.8
	c-5.2,0.2-9.6-3.9-9.8-9.1C222.3,217.5,222.3,217.2,222.3,217z M244.7,209.8c-0.2-0.9-0.8-0.9-2.1-1.1v-1h13.9l0.3,4.6h-0.9
	c-0.5-2.9-1.7-2.9-5.4-2.9c-0.8,0-1.5,0-2.3,0.1v6.5h2.5c2.3,0,2.9-0.2,3-2.2h0.9v6.1h-0.9c-0.1-2.1-1.3-2.3-3.4-2.3h-2.1v5.3
	c0.1,2,0.3,2.2,2.3,2.4v1h-7.9v-1c2-0.2,2.2-0.4,2.2-2.4c0-0.4,0.1-2.7,0.1-3.2v-6.5C244.9,212.1,244.9,210.9,244.7,209.8
	L244.7,209.8z M43,143.8h16.4V78.1H43V35.9h63.3L150,95.2l43.7-59.3H257v42.2h-16.4v65.7H257V186h-80.6v-42.2h17.4v-42.8l-44.1,58.8
	l-43.6-58.8v42.7h17.4V186H43V143.8z M42.8,207.6h8.5v1c-2.5,0.2-2.5,0.3-2.6,4.2v4.4c0,2.3,0,4.2,1.3,6c0.8,1,2.1,1.6,3.5,1.6
	c2.3,0.2,4.3-1.3,4.8-3.6c0.5-2.4,0.7-4.8,0.6-7.2c0-0.7,0-2.9,0-3.5c-0.1-1.7-1-1.7-2.7-1.9v-1h7.2v1c-1.8,0-2.2,0.4-2.3,2.2
	c0,0.4-0.2,5.6-0.3,6.4c0,1.4-0.2,2.8-0.5,4.2c-1.3,5-6.3,5.3-7.6,5.3c-1.8,0-3.5-0.4-5-1.3c-2.8-1.9-2.8-4.7-2.8-7.7v-4.2
	c0-2,0-2.9-0.1-3.4c-0.2-1.2-0.8-1.4-2.2-1.5L42.8,207.6z"/>
<polygon class="st0" points="207.2,252.4 215.4,252.4 211.4,240.8 "/>
<path class="st0" d="M232.2,225.1c1.6-0.1,3-1,3.8-2.3c1.2-1.9,1.8-4.1,1.6-6.3c0-2.2-0.7-4.3-2.2-5.9c-1.6-1.8-4.3-2.1-6.2-0.5
	c-0.2,0.2-0.4,0.4-0.6,0.6c-1.4,1.7-2.1,3.8-2,6c-0.1,2.2,0.5,4.4,1.7,6.3C229.1,224.2,230.6,225,232.2,225.1z"/>
<path class="st0" d="M144.6,213.2c0.1-2.2-1-4-4.5-4c-0.4,0-0.8,0-1.2,0.1v6.9c0.6,0.1,1.2,0.2,1.8,0.2
	C142.6,216.5,144.2,215.1,144.6,213.2z"/>
</svg>
