<svg id="a0ffce2d-0740-4d08-af33-5ea82f1c5057" data-name="PRINT" xmlns="http://www.w3.org/2000/svg" viewBox="0 0 300 300"><rect x="146.66" y="160.34" width="1.68" height="6.2"/><polygon points="148.34 55.36 151.34 55.36 149.85 52.84 148.34 55.36"/><polygon points="151.19 166.52 152.85 166.52 152.85 161.84 154.2 161.84 154.2 160.34 149.68 160.34 149.68 161.84 151.19 161.84 151.19 166.52"/><path d="M131.58,166.52l2.68-6.2h-1.83l-1.18,3.52a2.67,2.67,0,0,1-.17.83,1.82,1.82,0,0,0-.17-.83l-1.17-3.52h-1.85l2.35,6.2Z"/><path d="M145.39,46l-.06.11a6.32,6.32,0,0,1,3,1.18c0-.07,0-.13,0-.19h0c-.06-.81-.08-1.63-.06-2.44a22.89,22.89,0,0,1,1.57-7.56V48.48c5.2-4.86,8.71-.51,12.89-1.7-.34-1.51-1.17-9.54-2.17-13.89v0c-5.35,1.7-8.5-1.51-10.72,2.68v-.05h0a4.63,4.63,0,0,0-1.36-1.68l-.15-.15v.06c-2.05-1.26-4.85.41-9.2-.91-1,4.52-1.83,12.39-2.17,13.72C139.77,47.47,142.38,45.65,145.39,46Z"/><path d="M142.07,164.18l1.51,2.51h2l-1.7-2.51a1.81,1.81,0,0,0,1.34-1.84,1.69,1.69,0,0,0-.66-1.51,2.63,2.63,0,0,0-2-.51h-2v6.37h1.51Zm.19-2.51h.3c.67,0,1,.16,1,.83s-.34.83-1,.83l-.3,0Z"/><polygon points="139.13 165.18 136.96 165.18 136.96 164.18 138.96 164.18 138.96 162.84 136.96 162.84 136.96 161.66 139.13 161.66 139.13 160.34 135.28 160.34 135.28 166.52 139.13 166.52 139.13 165.18"/><path d="M163.91,165.35l0,0a1.07,1.07,0,0,1-1.17-.83l-.83,1.17a3.49,3.49,0,0,0,2.17.83h.4a2.07,2.07,0,0,0,1.95-2.19v-.14a1.69,1.69,0,0,0-1.7-1.69c-.49-.15-1-.32-1-.66s.15-.51.66-.51a1.77,1.77,0,0,1,1.17.51l.51-1.17a3.31,3.31,0,0,0-1.83-.51H164a2,2,0,0,0-1.92,2,1.7,1.7,0,0,0,1.7,1.7c.66.17,1,.32,1,.83A.76.76,0,0,1,163.91,165.35Z"/><polygon points="181.83 166.52 183.49 166.52 183.49 161.84 184.83 161.84 184.83 160.34 180.49 160.34 180.49 161.84 181.83 161.84 181.83 166.52"/><path d="M187.48,165.35h2.34l.34,1.17h1.7l-2.17-6.2h-2.24l-2,6.2h1.7Zm1-3.18a2.2,2.2,0,0,1,.17-.83,3.22,3.22,0,0,0,.17.83l.66,2h-1.66Z"/><rect x="177.48" y="160.34" width="1.68" height="6.2"/><path d="M156.85,165.35h2.34l.34,1.17h1.7l-2.18-6.2h-2.24l-2,6.2h1.7Zm.79-3.18a2.41,2.41,0,0,1,.17-.83,3.7,3.7,0,0,0,.17.83l.67,2H157Z"/><path d="M121.9,101.07H127c-1.17-3.51-1.17-11.22-1.17-12.22,5.09,1.51,9.88,1.34,12.4-.67a9.75,9.75,0,0,0-2.69-2.85,8.91,8.91,0,0,0,4.86-2.85,7.24,7.24,0,0,0-3.68-2.18h-.09s4.18-2,4.52-4.17a9.48,9.48,0,0,0-4.52-1.34s3.69-2.86,3.52-4.86a11.73,11.73,0,0,0-5.2-.34,7.9,7.9,0,0,0,1.83-5.35,11.17,11.17,0,0,0-4.85.83s1-3.51,0-5.35c-1.84-.51-4.35,2.69-4.35,2.69a14.07,14.07,0,0,0-2.38-5.2.32.32,0,0,0-.1-.39,3.39,3.39,0,0,1-.39-.27s-.09-.12-.14-.17a.21.21,0,0,1,0,.06,6.52,6.52,0,0,1-1.6-1.45.76.76,0,0,1,.22-1.06.69.69,0,0,1,.29-.12,6.13,6.13,0,0,0,1-.24l-.15.43a5.48,5.48,0,0,0,4.16-4.75,6.14,6.14,0,0,0,.12-2.23V46.7c-.34-.51.34-1.51,1.51-2l-.1,0a5.72,5.72,0,0,1,1.7-.17,3.87,3.87,0,0,0-1.7-.83c-.83-3.17-5.52-2.34-6,.51-.17,1-3.85,1.51-8,7.2a25.24,25.24,0,0,1-5.52,5.35c-.83.51,1.17.34,2.17-.66.84.83,2.52-1.7,5.2-2.18.66-.17,9.2-1.69,7-6.52,3,3.86-2,6.69-5.2,6.8a10.65,10.65,0,0,0,2.18.34c.51.17-.17.66.17,1a15.81,15.81,0,0,1,2.1,1.64,13.33,13.33,0,0,0-2.44,5.29s-2.52-3.18-4.35-2.69c-1,1.84,0,5.35,0,5.35a12,12,0,0,0-4.86-.83,8.93,8.93,0,0,0,1.84,5.35,11.73,11.73,0,0,0-5.2.34c-.17,2,3.52,4.86,3.52,4.86A9.48,9.48,0,0,0,108,76.13c.34,2.17,4.52,4.17,4.52,4.17a8.39,8.39,0,0,0-4,2.18,8.94,8.94,0,0,0,4.86,2.85,9.68,9.68,0,0,0-2.67,2.85c2.35,1.84,7.37,2.18,12.4.67C123.07,89.85,123.07,97.56,121.9,101.07Z"/><path d="M120.18,165.35h2.52l.34,1.17h1.69l-2.17-6.2h-2.24l-2.18,6.2h1.7Zm1-3.18a2.2,2.2,0,0,1,.17-.83,3.22,3.22,0,0,0,.17.83l.66,2h-1.66Z"/><path d="M173.54,166.52l2.68-6.2h-1.76l-1.18,3.52a3,3,0,0,1-.16.83,2,2,0,0,0-.18-.83l-1.17-3.52h-1.92l2.35,6.2Z"/><path d="M164.25,75.41c-.83,6.53-1.83,15.29-2,15.92s-.34,1.51,1.17,1.51c2.51.17,5.69.17,10.71,0a3.64,3.64,0,0,0,2,.51,2.72,2.72,0,0,0,1.83-.51c2,0,4.52-.17,7.2-.34-2.34,0-4.68-.17-6.69-.17a4.55,4.55,0,0,0,.66-2.51c-.34,3.39-4.68,3-3.68-.51a4,4,0,0,0-2.52.66,2.76,2.76,0,0,0,.34,2.17c-2.85-.17-5.19-.17-7-.34-.83,0-1.34-.66-.83-1.34,1.84-2.17,2-2.68,3.4-2.68l0,0h14.57c4.35,0,4.68.66,5.09,1.51-.17-1.51-1.17-8.71-1.7-14.06a16.48,16.48,0,0,0-2.51-7.54,4.72,4.72,0,0,0-2.17-1.7c.17-.34,1.34-3.18,2.17-5.69a2.35,2.35,0,0,0-1-3,5,5,0,0,0-2.68-.51H170.11c-2.68,0-3.86,1.69-3.18,3.68.67,1.51,1.7,4.18,2.18,5.35C165.71,67,164.76,71.39,164.25,75.41Zm5.93-16.16,0-.1h9.71c.84,0,2.35-.34,1.52,1.69-.67,1.7-1.7,4-2.18,5.1h-7.37c-.51-1.17-1.17-2.68-2-4.69C169.33,60.08,169.18,59.25,170.18,59.25Z"/><path d="M130,130.18A32.54,32.54,0,0,0,147.54,136a28.65,28.65,0,0,0,14.4,1.17,6.91,6.91,0,0,1-3-2.68c8.5-2.52,15.92-8,18.92-16.41a.36.36,0,0,1,.17-.34c.51-1.83-1.17-4.34-3.85-1.83,2.17-5.35,5.86-3,5.09.17,2.86-3.86,6.8-8,12.06-9.71-4.86-2.18-9.54-.17-12.55,1.51h-.14c-2.68-1.84-6.19-.34-9.71-3.52,0,9.38,6.79,11.38,3,13.89a15.76,15.76,0,0,1-10.19,2.52c.34-.51.83-1.34,1.17-1.84a43.56,43.56,0,0,0-9.55,0l-.84-.24v-1.87a10.59,10.59,0,0,0-.84-.66,12,12,0,0,0-1.68-1,12.87,12.87,0,0,0-1.66-.73h4.18v-.19a2.7,2.7,0,0,0,2.34-2.65v-.13a2.7,2.7,0,0,0-2.34-2.53V99.41q-.41-.37-.84-.72a10.76,10.76,0,0,0-1.68-1,10.94,10.94,0,0,0-1.83-.78h4.35v-.19A2.68,2.68,0,0,0,154.86,94v-.14a2.68,2.68,0,0,0-2.34-2.52V82c-.28-.22-.55-.44-.84-.64a15.1,15.1,0,0,0-1.68-1,14.43,14.43,0,0,0-2-.91h4.52v-.18A2.69,2.69,0,0,0,155,76.62,2.8,2.8,0,0,0,152.7,74,1.76,1.76,0,0,1,154,72.27h0v-8.2h-1.51V59.71h-1.18V56.19h-3v3.52H147v4.36h-1.34v8.2h.2A2,2,0,0,1,147,73.38V74a2.7,2.7,0,0,0-2.35,2.65A2.8,2.8,0,0,0,147,79.26v12.1A2.7,2.7,0,0,0,144.5,94a2.79,2.79,0,0,0,2.5,2.65v12.26a2.7,2.7,0,0,0-2.5,2.66,2.8,2.8,0,0,0,2.5,2.66v2.9a50.18,50.18,0,0,0-11.89-1.87,7.06,7.06,0,0,1,2.51,6c-1-4.18-5.52-6.37-7.71-7.2l-1.83-.51a3.86,3.86,0,0,1-1.89,1.41,3.69,3.69,0,0,0,.73-1.24,3.22,3.22,0,0,0-1.34-4.35,2.82,2.82,0,0,0-2,.17,3.66,3.66,0,0,0-2,2.17,4.58,4.58,0,0,0-.24,1.31c-.2,0-.41,0-.61,0a.64.64,0,0,0-.67.34,2,2,0,0,0,1.38.81,4.58,4.58,0,0,0,.14.53,2.58,2.58,0,0,0,1.34,1.34,2.74,2.74,0,0,0,1.72-.07c-.75.69-2.63.38-4-.27-1.83-.66-1.7.66-1.34,1.17.51,1,1.17,1.7,1.34,2.18C122.93,124,124.77,127.16,130,130.18Z"/><path d="M154.18,144.37a2.54,2.54,0,0,0,.63-1.79A2.65,2.65,0,0,0,152.7,140V139c-.44,0-.95-.11-1.51-.21s-.87-.16-1.34-.27a19.4,19.4,0,0,1-3-1V140a2.63,2.63,0,0,0-2.08,2.55h0a3.45,3.45,0,0,0,.66,1.83l-1.84,1.84a19.63,19.63,0,0,0,12.4,0A19.22,19.22,0,0,0,154.18,144.37Z"/><path d="M136.81,221.81h-.08c-5.6,0-10.71,10.88-10.71,19.88,0,7.65,3.23,11.22,6.3,11.22,7.13,0,11.39-11.72,11.39-20C143.88,226.57,140.81,221.81,136.81,221.81Z"/><path d="M161.74,51.16a13.66,13.66,0,0,1,.83-2.85c-4.18-1-10.72-.17-12.72,1.51-2-1.83-8.49-2.68-12.72-1.51a13.66,13.66,0,0,1,.83,2.85,16.75,16.75,0,0,1,11.89,1A16.75,16.75,0,0,1,161.74,51.16Z"/><rect x="115.36" y="160.34" width="1.68" height="6.2"/><path d="M111.83,166.52l2.51-6.2h-1.83l-1.18,3.52a2.67,2.67,0,0,1-.17.83,2,2,0,0,0-.16-.83l-1.18-3.52H108l2.52,6.2Z"/><path d="M300,0H0V300H300ZM103.3,27.56h93.1s.17,44,0,76c0,23.6-29.13,49.55-46.55,50.4-19.26-1.51-46.55-28.63-46.55-50.23Zm0,130.52c0-4.45,0-5.45,2.69-6.79,3.17-1.85,7.86-2.85,10.54-6.37,1,3.52-1.51,5.54-1.34,10.89l-.09-.18c-2-3.87-.24-4.88-.57-6.85-1.85,2.34-4.54,2.68-6.37,3.68-2.51,1.34-3.92,4,1.17,4h81.21c5,0,3.51-2.86,1.17-4-1.85-.83-4.53-1.17-6.37-3.51-.49,1.83,1.34,2.85-.83,7,0-.17,0-.3,0-.46-.14-5-2.29-7-1.32-10.6,2.66,3.69,7.2,4.67,10.37,6.37v.07c2.68,1.27,2.85,2.1,2.85,6.79v9.48c0,1.85-2.17,2.85-4.69,2.85H108c-2.51,0-4.69-1-4.69-2.85Zm8.83,48.29V231c0,11.37-7.23,23.6-27,23.6-17.48,0-26.35-10-26.35-23.08V204.8c0-5.85-1.75-6.71-7.93-6.88v-1.75H74.24v1.75h-.86c-5,0-7.23,1.38-7.23,6.71v25.49c0,12.4,7.23,19.81,20.84,19.81,10.34,0,20.84-4.3,20.84-19.81V208.77c0-8.74-1.38-10.35-9-10.68v-1.75H120.4v1.59C114.19,198.11,112.13,200.52,112.13,206.37Zm8.1,35.61c0-14.62,15.64-23.61,21.08-23.61v0c2.55,0,8.15,3.57,8.15,13.25,0,17.24-17,24.65-21.24,24.65S120.23,249.46,120.23,242Zm62.86-38.78H183c-2.89,0-5.43-3.74-8-3.74-3.56,0-6.46,3.92-7.65,9.86L165,221.22h7.78l-.85,3.05h-7.43l-4.58,26.34C156.32,270.83,146.1,278,137.62,278c-3.75,0-6.9-1.86-6.9-4.08a3,3,0,0,1,3.05-2.73c3.45,0,5.17,3.92,8.5,3.92a7.83,7.83,0,0,0,5.43-2.55c4.58-4.59,6.29-19.88,6.62-22.1l4.58-26.17h-6.62l.3-1.5c2.2-.34,4.41-.67,6.62-1.19,1.36-7.48,4.08-15.12,9.17-20.22a15.48,15.48,0,0,1,10.7-4.93c3.57,0,6.47,2,6.47,4.24A2.5,2.5,0,0,1,183.09,203.2ZM246.36,231c-4.58.34-6.29,1.86-6.29,5.59v12.56h0a60.81,60.81,0,0,1-24.09,5.6c-19.69,0-28.85-15.27-28.85-28.33,0-13.58,9.5-30.38,31.39-30.38,9.68,0,16.13,3.05,18,3.05a2.74,2.74,0,0,0,2-.67h1.19V213h-1.86c-2.38-11.2-10-14.76-18.5-14.76-15.78,0-23.92,13.23-23.92,27.65,0,18.5,12.89,26.64,23.42,26.64a29.67,29.67,0,0,0,13.77-3.44V237.8c0-5.17-1.86-6.78-7.13-6.78h-3.44V229.3h24.27Z"/></svg>