<svg id="ae2f9094-e884-4011-a9f6-948d238c061c" data-name="PRINT" xmlns="http://www.w3.org/2000/svg" viewBox="0 0 300 300"><path d="M207.59,186.51a3.61,3.61,0,0,0-3.27,2,9.5,9.5,0,0,0,.12,7.61,3.59,3.59,0,0,0,3.44,1.93,3.52,3.52,0,0,0,3.42-2.35,3.58,3.58,0,0,0,.23-.7c.15-.88.27-1.77.4-2.65l-.06,0c0-.53-.05-1.06-.11-1.59a6.2,6.2,0,0,0-.72-2.33A3.56,3.56,0,0,0,207.59,186.51Z"/><path d="M50.19,233.49A3.34,3.34,0,0,0,48,232a3.84,3.84,0,0,0-4.57,2.4,8.28,8.28,0,0,0-.54,4.09,7.73,7.73,0,0,0,.94,3.15,3.85,3.85,0,0,0,4.67,1.71,3.67,3.67,0,0,0,2.13-2.08,9.88,9.88,0,0,0,.65-3.65c0-.48-.07-1.14-.17-1.78A5.84,5.84,0,0,0,50.19,233.49Z"/><path d="M72.84,231.34a4.31,4.31,0,0,0-4.33,4.09,80.53,80.53,0,0,0,8.37,0A4,4,0,0,0,72.84,231.34Z"/><path d="M113.89,225.54a2.65,2.65,0,0,0-.48-.07H108a1.81,1.81,0,0,0-.14.47q0,3.18,0,6.36a1.88,1.88,0,0,0,.16.5h1.24c1.47,0,2.93,0,4.4-.05a5.41,5.41,0,0,0,1.63-.47,2.41,2.41,0,0,0,1.15-1.06A3.76,3.76,0,0,0,113.89,225.54Z"/><path d="M135.78,190.09c-.33-2.7-2-4.29-4.22-4.25a4.37,4.37,0,0,0-4.2,4.25Z"/><path d="M210.89,99.11a32.32,32.32,0,0,0,3.67-.25,15.12,15.12,0,0,0,4.36-1.2A10.22,10.22,0,0,0,224.81,91a17.12,17.12,0,0,0-.26-10.5,10.69,10.69,0,0,0-5.67-6.32,16.37,16.37,0,0,0-2-.79,19.08,19.08,0,0,0-5.82-.8H197.87c-1.39,0-2.78,0-4.17,0a5.14,5.14,0,0,0-.82.13V99.06c.47,0,.83.06,1.19.06C199.67,99.12,205.28,99.14,210.89,99.11Z"/><path d="M136.22,239.53a6.42,6.42,0,0,0-1.69.7,2.22,2.22,0,0,0-1.08,2.41,2.18,2.18,0,0,0,1.67,1.77,5,5,0,0,0,2.53,0,3.17,3.17,0,0,0,2.59-2.32,8.64,8.64,0,0,0,.27-3.45C139,238.94,137.6,239.2,136.22,239.53Z"/><path d="M173.92,231.34a4.28,4.28,0,0,0-4.35,4.07,1.07,1.07,0,0,0,.33.11h7.7a1,1,0,0,0,.33-.11A4,4,0,0,0,173.92,231.34Z"/><path d="M0,0V300H300V0ZM165.93,51a4.12,4.12,0,0,1,1.31-.09l10.32,0H214a66.56,66.56,0,0,1,7.47.32,42.54,42.54,0,0,1,14.9,4.27,28.14,28.14,0,0,1,15.13,19.64,43.42,43.42,0,0,1,.87,12.46,51.07,51.07,0,0,1-1.1,8.26,35.53,35.53,0,0,1-2,6.29,26.91,26.91,0,0,1-14,14.14,39.67,39.67,0,0,1-10.34,3,66.93,66.93,0,0,1-10.4.74c-6.71,0-13.42,0-20.13,0H193a5.07,5.07,0,0,0-.14.75c0,.37,0,.74,0,1.1V153c0,.48,0,1,0,1.5-1.15.18-23.22.27-26.3.14a5.81,5.81,0,0,1-.58-.09,2.31,2.31,0,0,1-.1-.4q0-51.34,0-102.67A2.11,2.11,0,0,1,165.93,51Zm45.63,131.08c0-.53,0-1.06,0-1.59v-6.43a2.31,2.31,0,0,1,.49-.16h6a1.75,1.75,0,0,1,.4.14c0,.22.08.46.09.69v3.07q0,11.61,0,23.21c0,.48,0,1,0,1.49a12.56,12.56,0,0,1-3.22.15c-1.06,0-2.12.05-3.25,0-.07-.68-.12-1.31-.19-2.06a2.18,2.18,0,0,0-.44.32c-3,3.62-9.07,3-12-.33a9.63,9.63,0,0,1-1.6-2.46,15,15,0,0,1-.56-10.78,9.91,9.91,0,0,1,1.47-2.83,8.34,8.34,0,0,1,9.89-2.68,6.94,6.94,0,0,1,2,1.23l.8.71A4.57,4.57,0,0,0,211.56,182.11ZM33,196.67a13.61,13.61,0,0,1-.79-3.84c0-.85-.08-1.71-.08-2.57q0-7.5,0-15a3,3,0,0,1,.12-1.24,2.52,2.52,0,0,1,.46-.1q3.31,0,6.63,0c.11,0,.22.09.41.17,0,.42,0,.86,0,1.31q0,7.78,0,15.59a10.5,10.5,0,0,0,.25,2.68,3.84,3.84,0,0,0,3.17,3,7.93,7.93,0,0,0,3.53,0,3.71,3.71,0,0,0,2.84-2.61,8.13,8.13,0,0,0,.31-1.56c.06-.65,0-1.31,0-2q0-7.56,0-15.11c0-.44,0-.88,0-1.38a51.61,51.61,0,0,1,7.46,0c0,.21.08.44.08.67q0,8.53,0,17.07a14.76,14.76,0,0,1-.77,4.71,9.12,9.12,0,0,1-6.23,6.11,15.34,15.34,0,0,1-4.09.72,21.12,21.12,0,0,1-6.34-.49c-.51-.13-1-.29-1.52-.47A9.07,9.07,0,0,1,33,196.67Zm24.94,46v5.42a1.91,1.91,0,0,1-.49.17H51.73a1,1,0,0,1-.29-.1c-.34-.57.07-1.33-.32-2-.2.18-.36.31-.5.45a7.45,7.45,0,0,1-7.09,2.07,8.08,8.08,0,0,1-5.86-4.23A14.4,14.4,0,0,1,36,236a11.91,11.91,0,0,1,1.38-4.8,8,8,0,0,1,4.38-3.91,9.19,9.19,0,0,1,5.19-.36,6.2,6.2,0,0,1,3,1.6l.85.83a5.68,5.68,0,0,0,.13-1.69c0-.53,0-1.06,0-1.59v-1.6c0-.53,0-1.06,0-1.6v-3.2a2,2,0,0,1,.51-.15c2,0,4,0,6,0a1.52,1.52,0,0,1,.37.09A3.36,3.36,0,0,1,58,221Zm25.91-3.23H76.05c-1.26,0-2.53,0-3.8,0s-2.52,0-3.78,0a4.44,4.44,0,0,0,3,4.51c2.2.73,4,.07,5.69-2h6.28a5.71,5.71,0,0,1-.13.73,8.5,8.5,0,0,1-3.85,4.61,11.59,11.59,0,0,1-4,1.37,14.44,14.44,0,0,1-7.14-.6,9.68,9.68,0,0,1-6.51-7.37,11.78,11.78,0,0,1,0-5.72,10.54,10.54,0,0,1,7.54-7.69,12.27,12.27,0,0,1,7.6.14,9.35,9.35,0,0,1,5.23,4.21,12.08,12.08,0,0,1,1.6,4.73c.09.65.13,1.31.16,2A8.55,8.55,0,0,1,83.89,239.4Zm-7.62-48.27a13.89,13.89,0,0,0-.08-1.71A2.57,2.57,0,0,0,74,187a3.61,3.61,0,0,0-4.65,3,11.16,11.16,0,0,0-.17,2.08c0,3.11,0,6.22,0,9.32A2.82,2.82,0,0,1,69,202.6a4.51,4.51,0,0,1-.6.08l-5.77,0a1.46,1.46,0,0,1-.39-.13,5.42,5.42,0,0,1-.06-.58q0-10,0-20a5.65,5.65,0,0,1,2.25-.18c.73,0,1.47,0,2.21,0a17.44,17.44,0,0,1,2.26.07c0,.83.07,1.59.1,2.32.34.16.42-.09.53-.23a8.86,8.86,0,0,1,10-2A6,6,0,0,1,83,186.67a14.29,14.29,0,0,1,.23,2.44q0,6.33,0,12.64c0,.24,0,.48,0,.84-.36,0-.6.1-.85.1-1.88,0-3.76,0-5.64,0a1.1,1.1,0,0,1-.33-.12,2.8,2.8,0,0,1-.13-1.34C76.27,197.84,76.28,194.49,76.27,191.13Zm-2.49-43.92A32.8,32.8,0,0,1,64.7,134a50.38,50.38,0,0,1-2.76-10.8,80.76,80.76,0,0,1-.76-11.63q0-29.59,0-59.2V51.08a6.34,6.34,0,0,1,.73-.15,6.12,6.12,0,0,1,.74,0l24.06,0c.45,0,.89,0,1.41,0,0,.44.07.79.07,1.15v7.49q0,26.17,0,52.33a50.5,50.5,0,0,0,.29,6.62,26.59,26.59,0,0,0,1.09,4.91,13.48,13.48,0,0,0,10.07,9.29,28.53,28.53,0,0,0,9,.66,22.85,22.85,0,0,0,5.19-.9,13.28,13.28,0,0,0,9-8.51,25.26,25.26,0,0,0,1.46-7.44c.09-1.71.11-3.44.11-5.16q0-29.42,0-58.83a6.52,6.52,0,0,1,.08-1.54c1.28-.2,18.86-.27,26-.11.28,0,.55.05.85.07a5.28,5.28,0,0,1,.11,1.51q0,19.29,0,38.57v19c0,3.19,0,6.38-.35,9.57a54.83,54.83,0,0,1-2.9,13.52A32.35,32.35,0,0,1,128,153.46a51.46,51.46,0,0,1-9.87,2.46,82.53,82.53,0,0,1-17.63.65,56,56,0,0,1-15.26-2.88A34.91,34.91,0,0,1,73.78,147.21ZM128,196.61a3.86,3.86,0,0,0,2,1.7,4.93,4.93,0,0,0,6-1.79,45.57,45.57,0,0,1,6.3,0,2.53,2.53,0,0,1-.08.68,8.5,8.5,0,0,1-3.25,4.2,11.37,11.37,0,0,1-5.39,1.88,15,15,0,0,1-6.3-.7,9.81,9.81,0,0,1-6.86-8.48,11.25,11.25,0,0,1,.38-5.22,10.89,10.89,0,0,1,8.44-7.41,11.78,11.78,0,0,1,5.6.09,9.79,9.79,0,0,1,7,6,13,13,0,0,1,1,5.51,8.53,8.53,0,0,1-.1.89c-5.18,0-10.24,0-15.37,0A4.29,4.29,0,0,0,128,196.61Zm-33.25,6a20.67,20.67,0,0,1-3.25.08c-1.1,0-2.2,0-3.25,0a1.89,1.89,0,0,1-.23-1.38c0-4.83,0-9.66,0-14.49,0-1.31,0-2.62,0-3.93,0-.32,0-.64.06-1a16.84,16.84,0,0,1,3.32-.11c1.09,0,2.19,0,3.36,0C94.91,183.15,94.9,201.5,94.72,202.58Zm.13-24a2.18,2.18,0,0,1-.15.53,56.3,56.3,0,0,1-6.54,0,19.39,19.39,0,0,1,0-5.07,39.83,39.83,0,0,1,6.57,0A19.62,19.62,0,0,1,94.85,178.63Zm2.4,3.26a49.09,49.09,0,0,1,7.08,0c.12.34.25.72.36,1.1l3.18,11.46c.08.27.18.54.27.79.28.06.25-.16.32-.27a1.31,1.31,0,0,0,.12-.35l3.24-11.44c.12-.42.25-.85.39-1.3a22.44,22.44,0,0,1,3.46-.1c1.13,0,2.27,0,3.41,0,0,.22.07.35,0,.46q-3.4,10.17-6.82,20.29a46.78,46.78,0,0,1-8.2,0q-3.39-10-6.79-20.16A2.22,2.22,0,0,1,97.25,181.89ZM124,232.75a7.79,7.79,0,0,1-6.11,5.43,18.61,18.61,0,0,1-4.14.44c-1.51,0-3,0-4.54,0-.4,0-.8,0-1.17,0a1.41,1.41,0,0,0-.22,1.1c0,2.37,0,4.75,0,7.12,0,.4,0,.8,0,1.18a42.79,42.79,0,0,1-7.46.11,4.27,4.27,0,0,1-.15-.64c0-.33,0-.66,0-1V221.13c0-.48,0-1,0-1.59.45,0,.77-.06,1.09-.06h12.39a14.44,14.44,0,0,1,4.49.54,14,14,0,0,1,2.26.94,7.53,7.53,0,0,1,3.87,5.12A12.49,12.49,0,0,1,124,232.75Zm23.89,15.3a.58.58,0,0,1,0,.11.25.25,0,0,1-.11,0l-5.77,0c-.24,0-.49,0-.8,0-.18-.55-.36-1.08-.52-1.58-.38-.11-.56.17-.78.32a10.66,10.66,0,0,1-8.56,1.57,5.77,5.77,0,0,1-4.76-6,8.32,8.32,0,0,1,.07-1.22,5.21,5.21,0,0,1,2.86-4.05,13.44,13.44,0,0,1,4.21-1.24c1.62-.24,3.24-.46,4.86-.71a4,4,0,0,0,1.17-.36,1.77,1.77,0,0,0,.5-2.72,2.78,2.78,0,0,0-.78-.58,4.8,4.8,0,0,0-3.7-.22,2.66,2.66,0,0,0-1.55,1.32c-.16.28-.29.58-.49,1-2.11,0-4.15,0-6.26,0a2.86,2.86,0,0,1-.05-.62,6.65,6.65,0,0,1,4.81-5.64,15,15,0,0,1,4-.68,20.74,20.74,0,0,1,5.61.4,10.86,10.86,0,0,1,2.08.71,5.5,5.5,0,0,1,3.3,4.81,16.47,16.47,0,0,1,.05,1.72c0,2.87,0,5.73,0,8.6a14.09,14.09,0,0,0,.68,4.83A1,1,0,0,1,147.89,248.05Zm10.74.19h-6.71c0-.46-.09-.81-.09-1.16V221c0-.44,0-.88,0-1.38a12.24,12.24,0,0,1,2.24-.09h2.33l2.25,0c0,.3.08.53.1.76s0,.57,0,.86q0,12.75,0,25.51A3.7,3.7,0,0,1,158.63,248.24ZM161,187.76l-1.47-.29a5.86,5.86,0,0,0-2.91.18,4.61,4.61,0,0,0-3.29,4c0,.44,0,.9,0,1.35q0,4.11,0,8.22c0,.4,0,.81-.05,1.25a1.54,1.54,0,0,1-.47.16c-2,0-3.93,0-5.89,0a2.86,2.86,0,0,1-.5-.11,3.17,3.17,0,0,1-.1-.48V181.91a40.09,40.09,0,0,1,6.67,0,3.69,3.69,0,0,1,.13,1.52,6.88,6.88,0,0,0,.13,1.73,7.07,7.07,0,0,1,2.88-3,6.65,6.65,0,0,1,2.46-.72,8.27,8.27,0,0,1,2.43.11,7.08,7.08,0,0,1,.14,2.13c0,.65,0,1.31,0,2A7.62,7.62,0,0,1,161,187.76Zm1.12,8.18a42.93,42.93,0,0,1,6.4-.06,7.71,7.71,0,0,1,.26.77,2.55,2.55,0,0,0,1.66,1.84,5,5,0,0,0,3.82,0A2.82,2.82,0,0,0,175,198a1.61,1.61,0,0,0-.18-2.55,4.7,4.7,0,0,0-1.56-.67c-1.46-.37-3-.66-4.42-1a21.34,21.34,0,0,1-2.6-.73,8.71,8.71,0,0,1-1.84-1,4.72,4.72,0,0,1-1.13-1.1,5.81,5.81,0,0,1,.78-7.4,7.48,7.48,0,0,1,2.19-1.33,13.2,13.2,0,0,1,3.69-.9,18,18,0,0,1,6.46.41,8.27,8.27,0,0,1,2.78,1.24,6,6,0,0,1,2.54,4.88,39.14,39.14,0,0,1-6.23,0,1.87,1.87,0,0,1-.15-.32,2.19,2.19,0,0,0-1.81-1.77,5.48,5.48,0,0,0-3,.06,2.19,2.19,0,0,0-.65.32,1.16,1.16,0,0,0-.23,1.81,3.35,3.35,0,0,0,1.2.81,22.77,22.77,0,0,0,2.72.75c1.27.28,2.57.45,3.84.76a8.94,8.94,0,0,1,2.18.81,5.57,5.57,0,0,1,2.87,6.11,6.34,6.34,0,0,1-2.63,4.14,9.38,9.38,0,0,1-3.09,1.44,17.61,17.61,0,0,1-8.86,0,8.94,8.94,0,0,1-2.8-1.21,6.8,6.8,0,0,1-3.09-5.45C162,196.09,162.05,196,162.08,195.94Zm22.91,43a2.17,2.17,0,0,1-.12.42,21.54,21.54,0,0,1-2.54.06H172.14l-2.54,0a4.31,4.31,0,0,0,2.67,4.44c2.24.86,4.25.22,6-2,2,0,4.07,0,6.23,0a3.63,3.63,0,0,1-.11.77,8.54,8.54,0,0,1-4.28,4.84,11.46,11.46,0,0,1-4,1.2,14.42,14.42,0,0,1-6.77-.66,9.8,9.8,0,0,1-6.7-8.72,11.49,11.49,0,0,1,.11-3.79,10.53,10.53,0,0,1,7.58-8.24,12.28,12.28,0,0,1,7.49,0,9.4,9.4,0,0,1,5.69,4.75A13.51,13.51,0,0,1,185,238.92Zm1.12-64.85a35.6,35.6,0,0,1,6.64,0,4.49,4.49,0,0,1,.11,1.64c0,.57,0,1.14,0,1.72a7,7,0,0,1-.1,1.79h-6.57A18.81,18.81,0,0,1,186.11,174.07Zm0,28.52a6.24,6.24,0,0,1-.11-.84v-19c0-.28,0-.56.07-.81a36.21,36.21,0,0,1,6.69,0,2.89,2.89,0,0,1,.11,1.28c0,4.54,0,9.09,0,13.63,0,1.55,0,3.11,0,4.66,0,.36,0,.72-.06,1-.14.08-.21.15-.28.15q-2.82,0-5.64,0C186.64,202.66,186.4,202.62,186.1,202.59Zm17.25,30.61-.8-.11a9.24,9.24,0,0,0-3.06-.06,4.69,4.69,0,0,0-4,4.07,10.27,10.27,0,0,0-.08,1.47c0,2.78,0,5.56,0,8.35a2.16,2.16,0,0,1-.13,1.18,39.28,39.28,0,0,1-6.6,0,1.1,1.1,0,0,1-.12-.33q0-10,0-20a1.17,1.17,0,0,1,.11-.33,45.24,45.24,0,0,1,6.39,0c.31.34.16.77.18,1.16,0,.57.05,1.14.08,1.71,0,0,.06,0,.16.11.27-.21.39-.57.61-.84a10.06,10.06,0,0,1,.81-.92,5.74,5.74,0,0,1,.87-.67,6.08,6.08,0,0,1,1-.51,7.92,7.92,0,0,1,1.05-.32,9.85,9.85,0,0,1,1.21-.2,8.13,8.13,0,0,1,1.1,0c.37,0,.73.06,1.13.09a12.27,12.27,0,0,1,.14,3.07C203.39,231.09,203.38,232.11,203.35,233.2Zm35.21,13.65c0,.4,0,.81,0,1.23a6.32,6.32,0,0,1-2.23.16c-.73,0-1.47,0-2.21,0h-2.37c0-.59,0-1,0-1.47,0-3.32,0-6.63,0-10a10,10,0,0,0,0-1.34,5.72,5.72,0,0,0-.33-1.43,2.73,2.73,0,0,0-2.83-1.72,2.57,2.57,0,0,0-2.57,1.9,8.93,8.93,0,0,0-.39,2.91q0,4.79,0,9.57v1.35a5.9,5.9,0,0,1-2.23.18c-.78,0-1.55,0-2.33,0l-2.21,0a2.44,2.44,0,0,1-.18-1.36c0-3.31,0-6.63,0-9.94a14.54,14.54,0,0,0-.14-2.08c-.38-2.68-2.37-2.82-3.94-2.27A2.31,2.31,0,0,0,213,234a9.39,9.39,0,0,0-.5,2,20,20,0,0,0-.12,2.57c0,2.74,0,5.48,0,8.23a2.69,2.69,0,0,1-.17,1.4,15.19,15.19,0,0,1-2.14.05h-2.33l-2.2,0a3,3,0,0,1-.15-1.39q0-8.1,0-16.21c0-.82,0-1.63,0-2.45a6.41,6.41,0,0,1,.07-.73,2.35,2.35,0,0,1,.52-.1c1.92,0,3.84,0,5.76,0a1.24,1.24,0,0,1,.37.14c.19.73,0,1.51.19,2.36.54-.36.78-.85,1.18-1.17a12.71,12.71,0,0,1,1.27-1,7.93,7.93,0,0,1,1.46-.65,7.49,7.49,0,0,1,1.55-.32,7.22,7.22,0,0,1,1.47,0,9.19,9.19,0,0,1,1.57.26,6.46,6.46,0,0,1,1.47.59,5.84,5.84,0,0,1,1.26,1,15.81,15.81,0,0,1,1,1.31c.2-.2.37-.34.52-.52a7.51,7.51,0,0,1,5.24-2.61,9.75,9.75,0,0,1,3.76.4,5.59,5.59,0,0,1,3.68,3.35,10.51,10.51,0,0,1,.75,3.46c0,.65,0,1.31,0,2Zm-1.9-44.28c-.43-.4-.28-1-.47-1.45-.33-.15-.48.09-.67.23a10.47,10.47,0,0,1-9,1.67,5.52,5.52,0,0,1-4.34-4.21,7.52,7.52,0,0,1,0-3.53,5.1,5.1,0,0,1,2.81-3.52,13.07,13.07,0,0,1,4-1.22c1.61-.26,3.23-.49,4.84-.74a9.4,9.4,0,0,0,1.08-.23,1.69,1.69,0,0,0,.92-2.65,2.8,2.8,0,0,0-.91-.8,4.47,4.47,0,0,0-3.21-.39,2.78,2.78,0,0,0-2.08,1.73c-.1.23-.2.45-.31.72a37,37,0,0,1-6.39-.06,6.24,6.24,0,0,1,1.55-4.12,7,7,0,0,1,2.72-1.84,14.41,14.41,0,0,1,3.94-.87,18.66,18.66,0,0,1,6.45.39,10.43,10.43,0,0,1,2,.71,5.58,5.58,0,0,1,3.19,4.63,18.35,18.35,0,0,1,.08,2c0,2.82,0,5.65,0,8.47a15,15,0,0,0,.6,4.85c0,.06,0,.15,0,.23A38.12,38.12,0,0,1,236.66,202.57Zm24.9,42.72a10.72,10.72,0,0,1-7.11,3.45,11.56,11.56,0,0,1-4.85-.47,10.41,10.41,0,0,1-7.37-8.24,11,11,0,0,1,.46-6.27,10.32,10.32,0,0,1,8.28-6.84,12.11,12.11,0,0,1,5.58.25,10.5,10.5,0,0,1,7.79,9.63c0,.28,0,.57,0,.85A10.82,10.82,0,0,1,261.56,245.29ZM268,202.54a12,12,0,0,1-3.11.13,32.59,32.59,0,0,1-3.26,0c-.06-.68-.12-1.3-.19-2.07-.29.26-.48.39-.64.56a7.41,7.41,0,0,1-7.21,2.07,8.1,8.1,0,0,1-5.75-4.19,13.36,13.36,0,0,1-1.62-5.36,14.35,14.35,0,0,1,.64-6.3,10.65,10.65,0,0,1,1.61-3A8.36,8.36,0,0,1,258.53,182a6.53,6.53,0,0,1,2,1.45c.11.11.25.21.52.45a7.75,7.75,0,0,0,.11-1.73v-4.91c0-.53,0-1.06,0-1.6a5.11,5.11,0,0,1,.09-1.56,1.5,1.5,0,0,1,.37-.13h5.89a2.6,2.6,0,0,1,.5.1,4.93,4.93,0,0,1,.11.61C268.2,177,268.12,201.54,268,202.54Z"/><path d="M261.35,191.12a6.85,6.85,0,0,0-.75-2.69,3.3,3.3,0,0,0-2.11-1.76,3.89,3.89,0,0,0-4.92,2.34,6.48,6.48,0,0,0-.28.81,9,9,0,0,0,.21,5.32,7,7,0,0,0,.88,1.6,2.82,2.82,0,0,0,1.57,1.11,3.79,3.79,0,0,0,5-2.37,7.94,7.94,0,0,0,.45-3.13C261.36,191.94,261.39,191.53,261.35,191.12Z"/><path d="M254.08,232a3.76,3.76,0,0,0-4.42,2.22,6.38,6.38,0,0,0-.34.92,10,10,0,0,0,.08,5.44,5.57,5.57,0,0,0,.57,1.21,3.67,3.67,0,0,0,4.24,1.62,3.83,3.83,0,0,0,2.48-2.2,8.64,8.64,0,0,0,.72-3.39,8.55,8.55,0,0,0-.72-3.64A3.59,3.59,0,0,0,254.08,232Z"/><path d="M231.84,194.05a6.71,6.71,0,0,0-1.05.33,4.78,4.78,0,0,0-.87.45,2.21,2.21,0,0,0-.93,2.25,2.09,2.09,0,0,0,1.62,1.79,5.46,5.46,0,0,0,2.31.12,3.19,3.19,0,0,0,2.73-2.31,9,9,0,0,0,.35-3.51C234.54,193.48,233.19,193.75,231.84,194.05Z"/></svg>