<svg id="a457d079-78e8-4bb2-9fdd-a306865a99fe" data-name="PRINT" xmlns="http://www.w3.org/2000/svg" viewBox="0 0 300 300"><defs><style>.a2bb48fd-8cc2-4cdd-b4d8-9e6862a9f95f{fill:#a1a1aa;}</style></defs><path class="a2bb48fd-8cc2-4cdd-b4d8-9e6862a9f95f" d="M120.24,199.86H142.7s-13.68-7.7-18.59-14.48l0-.1h-3.46a26.6,26.6,0,0,1-26.24-27c0-.18,0-.37,0-.56a25.91,25.91,0,0,1,25.69-26.13,26.67,26.67,0,0,1,17.41,6.46l17.19,17.64a7.45,7.45,0,0,0,10.7-10.38L148,127.58l-.2-.18a42.44,42.44,0,0,0-28-11c-22.93,0-40.17,19-40.17,42,0,.36,0,.71,0,1.07A40.49,40.49,0,0,0,120.24,199.86Z"/><path class="a2bb48fd-8cc2-4cdd-b4d8-9e6862a9f95f" d="M143.23,115c1,.54,2.22,1.23,3.37,1.93,1.85,1.12,3.5,2.22,3.56,2.27a32.07,32.07,0,0,1,19.8-5.77h.76a34.76,34.76,0,0,1,33.76,35.73,35.87,35.87,0,0,1-9.22,25.77,34.54,34.54,0,0,1-25.17,10.63,36.4,36.4,0,0,1-25.41-11.14l-22.74-22.79a7.46,7.46,0,0,0-10.68,10.43l22.89,23a50.57,50.57,0,0,0,71.74.4h0A51,51,0,0,0,219.2,149c0-.49,0-1,0-1.48a48.8,48.8,0,0,0-49.92-47.66c-12.89,0-23.93,3-33.35,11.78l-.06,0c.26.08.86.3,1.32.49C139,112.89,142.14,114.42,143.23,115Z"/><path class="a2bb48fd-8cc2-4cdd-b4d8-9e6862a9f95f" d="M44.89,255.11H255.11V44.89H44.89ZM71,152.44A50.44,50.44,0,0,1,126.84,108,56,56,0,0,1,167.9,90.75a58.45,58.45,0,0,1,60.49,58.67,59.47,59.47,0,0,1-59.17,59.64H121.14a49.4,49.4,0,0,1-36.28-15.69A51,51,0,0,1,71,152.44Z"/></svg>