<svg id="b348232a-f63b-441b-9950-4427cb4add96" data-name="PRINT" xmlns="http://www.w3.org/2000/svg" viewBox="0 0 300 300"><defs><style>.adf33668-c749-4261-a3ef-60f218440bf4{fill:#a1a1aa;}</style></defs><path class="adf33668-c749-4261-a3ef-60f218440bf4" d="M44.89,255.11H255.11V44.89H44.89ZM165,148.32a35.68,35.68,0,0,1,6.45-11.8,31.2,31.2,0,0,1,10.43-8.2,32.62,32.62,0,0,1,14.46-3,34.77,34.77,0,0,1,14.12,2.8,24.19,24.19,0,0,1,9.1,7.15,31.64,31.64,0,0,1,5.13,9.79,35.09,35.09,0,0,1,1.66,10.56c0,2-.06,3.89-.2,5.56a24.51,24.51,0,0,1-.54,2.94,1.25,1.25,0,0,1-1.25,1.11c-.55,0-1.5.07-2.84.21s-3.73.09-5.72.13-4.1.07-6.32.07H182.15A20.93,20.93,0,0,0,185,173.6a14.23,14.23,0,0,0,6.32,5.21,27.32,27.32,0,0,0,11.26,2.4,38.82,38.82,0,0,0,7.76-.61,37.16,37.16,0,0,0,8.13-2.44c.46-.36.69-.13.69.7v13.19a2.06,2.06,0,0,1-.2,1,2,2,0,0,1-.63.63,38.92,38.92,0,0,1-9,3,56.46,56.46,0,0,1-11.25.44,39.69,39.69,0,0,1-16.53-3.06,29.5,29.5,0,0,1-10.84-8.19,32.19,32.19,0,0,1-6-11.32A44.64,44.64,0,0,1,162.87,162,43.89,43.89,0,0,1,165,148.32ZM73.71,194.1l27.78-78.88q.42-1.25.84-2.85a29.49,29.49,0,0,0,.55-5.62.87.87,0,0,1,.73-1h22.33c.64,0,1,.24,1.11.7l31.53,87.77c.28.93,0,1.39-.83,1.39H139.69a1.27,1.27,0,0,1-1.39-1l-7.08-21.43H99.13L92.6,194.38a1.63,1.63,0,0,1-1.66,1.25H74.68C73.75,195.63,73.43,195.12,73.71,194.1Z"/><path class="adf33668-c749-4261-a3ef-60f218440bf4" d="M205.18,154.55a9.76,9.76,0,0,0,2-.21v-.84a23.54,23.54,0,0,0-.29-5,11.35,11.35,0,0,0-11.25-7.92,12.07,12.07,0,0,0-11.47,6.53,29.32,29.32,0,0,0-2.12,7.46h18.19Q203.59,154.61,205.18,154.55Z"/><path class="adf33668-c749-4261-a3ef-60f218440bf4" d="M124.13,150.48c-.74-2.31-1.52-4.79-2.36-7.43s-1.66-5.28-2.5-7.92-1.59-5.18-2.3-7.64-1.31-4.7-1.87-6.73H115A112,112,0,0,1,112,131.87q-2,6.25-4,12.78c-1.33,4.35-2.65,10.09-4,13.8h22C125.52,156.6,124.87,152.8,124.13,150.48Z"/></svg>