<svg id="a6041418-dd94-4cb3-943c-775ef5c9f35f" data-name="PRINT" xmlns="http://www.w3.org/2000/svg" viewBox="0 0 300 300"><defs><style>.e897cd95-b031-4fb6-ae21-1ebe53213cec{fill:#a1a1aa;}</style></defs><path class="e897cd95-b031-4fb6-ae21-1ebe53213cec" d="M275.43,141.92c-5.91-2.2-10-6.48-13.11-11.81-3.78-6.48-5.83-13.58-7.26-20.88a161.85,161.85,0,0,1-2.52-31.08,92.75,92.75,0,0,0-.11-10c-1.15-10.61-9.24-20.43-20.57-22.56-1.08-.21-2.17-.39-3.26-.58h-157c-1.42.27-2.85.49-4.25.82A25.9,25.9,0,0,0,48,66.61a74,74,0,0,0-.41,8.82c-.15,5.52,0,11.06-.43,16.57-.42,5.78-1.1,11.58-2.09,17.29-1.38,8-3.79,15.72-8.31,22.6-4.07,6.21-9.62,10.25-17.08,11.39a10.86,10.86,0,0,1-1.4.05v13.38A20.33,20.33,0,0,1,28.63,160c5.54,3.45,9,8.64,11.55,14.45a83.77,83.77,0,0,1,6,22.76,180.9,180.9,0,0,1,1.47,24.62,98.57,98.57,0,0,0,.08,9.88c1.12,10.88,9.45,20.7,20.69,22.71a32.16,32.16,0,0,0,5.62.49c50.68,0,101.36,0,152,.07a26.14,26.14,0,0,0,26.33-22.4,51.7,51.7,0,0,0,.24-8.72c-.21-13.41.53-26.73,4-39.76a53.68,53.68,0,0,1,6.77-15.89c4.28-6.51,10.1-10.62,17.95-11.59a3.11,3.11,0,0,0,.42-.13V143.65C279.6,143.07,277.45,142.67,275.43,141.92ZM174.18,203.39a51,51,0,0,1-16.39,2.77c-15.66.08-31.32,0-47,0-.38,0-.76,0-1.23-.08V93.82h1.35c15.4,0,30.81-.06,46.2,0,7.78.05,15.15,1.84,21.55,6.47,8.13,5.89,11.66,14.12,10.69,23.93-1,10-6.54,17.07-15.81,21.1-1.21.52-2.52.82-3.68,1.19,2.27.61,4.7,1.07,7,1.91,10.09,3.71,16.49,10.78,18,21.51C196.86,184.85,189.93,198,174.18,203.39Z"/><path class="e897cd95-b031-4fb6-ae21-1ebe53213cec" d="M165.77,157.56c-4.7-1.84-9.65-2.27-14.63-2.31-7.25-.06-14.5,0-21.74,0h-1.31v36.06c.39,0,.69.07,1,.07,7.81,0,15.61.09,23.42-.05a49.19,49.19,0,0,0,9.29-1c8-1.69,13.44-6.34,14.34-14.46S174.16,160.84,165.77,157.56Z"/><path class="e897cd95-b031-4fb6-ae21-1ebe53213cec" d="M147.51,141.22a52.72,52.72,0,0,0,9.05-.84c7.32-1.43,13.87-5.54,14.45-14.76.38-6.14-1.81-11.72-8-14.68a25.8,25.8,0,0,0-11.1-2.27c-7.55-.08-15.1,0-22.64,0h-1.22v32.53c.43,0,.81.1,1.18.1C135.33,141.27,141.42,141.35,147.51,141.22Z"/></svg>