<svg id="a9e08845-4494-49a4-9c94-040d25cb6233" data-name="PRINT" xmlns="http://www.w3.org/2000/svg" viewBox="0 0 300 300"><defs><style>.f50f5ddc-9aa2-4359-bc5a-ed030c5e8640{fill:#a1a1aa;}</style></defs><path class="f50f5ddc-9aa2-4359-bc5a-ed030c5e8640" d="M135.24,178.39c2.93-2.18,4.46-5.48,4.46-10.09a11.19,11.19,0,0,0-4.27-9.46h0c-2.76-2.28-7-3.51-12.87-3.51H113v26.35c1.71.11,4.41.17,8.14.17C127.63,181.84,132.25,180.63,135.24,178.39Z"/><path class="f50f5ddc-9aa2-4359-bc5a-ed030c5e8640" d="M44.89,255.11H255.11V44.89H44.89ZM173.54,128.63a2,2,0,0,1,1.54-.64h12.65a2.63,2.63,0,0,1,1.58.5,2.79,2.79,0,0,1,1,1.31,21.09,21.09,0,0,1,1.2,5.37,25.73,25.73,0,0,1,19.68-8.39,2,2,0,0,1,2.09,1.83v13.85a2,2,0,0,1-2.32,2.08c-7.56-.43-13.34,1.53-17.54,5.73a3.28,3.28,0,0,0-.88,2.42v41.06a2,2,0,0,1-.65,1.57,2.33,2.33,0,0,1-1.56.51H176.15a2.43,2.43,0,0,1-1.66-.55,2.18,2.18,0,0,1-.69-1.66v-45.5q0-10.86-.67-17.91A2,2,0,0,1,173.54,128.63ZM94.73,106.52a2.94,2.94,0,0,1,.32-1.4,1.81,1.81,0,0,1,1.27-.93l.1,0h.1q15.75-.4,25.34-.41A51.42,51.42,0,0,1,138,106a22,22,0,0,1,10.19,6.12,22.34,22.34,0,0,1,4.66,7.64,23.52,23.52,0,0,1,1.41,8.19,19.44,19.44,0,0,1-4.17,12.84,22.85,22.85,0,0,1-7.31,5.9,28.88,28.88,0,0,1,10.46,6.55c3.86,3.68,5.73,8.76,5.73,15.09a24.05,24.05,0,0,1-10.44,20.86c-6.82,4.76-16.24,7.07-28.12,7.07q-9.59,0-23.73-.4H96.5a2,2,0,0,1-1.37-.87,2.63,2.63,0,0,1-.4-1.47Z"/><path class="f50f5ddc-9aa2-4359-bc5a-ed030c5e8640" d="M132.66,137.59a11.72,11.72,0,0,0-.27-16.52c-2.36-1.88-6-2.91-11.21-2.91-4,0-6.7,0-8.14.07v22.42h8.82C127,140.65,130.54,139.55,132.66,137.59Z"/></svg>