<svg id="a3073b43-2bfa-4da2-8744-41d27846b4a0" data-name="PRINT" xmlns="http://www.w3.org/2000/svg" viewBox="0 0 300 300"><defs><style>.a26028f6-650a-464d-8921-c1786d32baee{fill:#a1a1aa;}</style></defs><path class="a26028f6-650a-464d-8921-c1786d32baee" d="M44.89,255.11H255.11V44.89H44.89ZM162.94,127.47q6.63,0,13.26,0c1.5,0,1.83.22,2.27,1.63.37,1.2.69,2.42,1.07,3.76.4-.32.76-.61,1.13-.89a27.79,27.79,0,0,1,14.85-5.7,24.48,24.48,0,0,1,12.92,2.08A19.49,19.49,0,0,1,219.37,142a37.24,37.24,0,0,1,1.16,8.32c.12,14,.07,27.91.07,41.87,0,1.2-.26,1.45-1.46,1.45H203.8c-1.22,0-1.55-.35-1.55-1.59,0-12.66,0-25.32,0-38a19.42,19.42,0,0,0-.92-5.6A8.75,8.75,0,0,0,193,142a16,16,0,0,0-11.71,3.67,1.71,1.71,0,0,0-.68,1.48q0,22.31,0,44.6c0,1.72-.19,1.91-1.89,1.91H163.8c-1.34,0-1.65-.31-1.65-1.66,0-17.51,0-35,0-52.55,0-3.53-.29-7.06-.47-10.59C161.59,127.65,161.71,127.47,162.94,127.47ZM79.4,108.11c0-1.39,0-1.52,1.46-1.6,2.15-.13,4.31-.21,6.46-.24,6.8-.07,13.59-.22,20.39-.14,7.32.08,14.54,1,21.39,3.76,13.48,5.47,21.47,15.45,24,29.74a50,50,0,0,1-1.9,25.63c-3.34,9.55-9.66,16.67-18.29,21.81a46.88,46.88,0,0,1-18.76,6.28,73.52,73.52,0,0,1-8.25.51c-6.39.07-12.77,0-19.15,0-2.07,0-4.14-.12-6.22-.15a1,1,0,0,1-1.12-1.13c0-.3,0-.61,0-.91V150.05Q79.39,129.08,79.4,108.11Z"/><path class="a26028f6-650a-464d-8921-c1786d32baee" d="M98.61,177.84c1,0,2.1,0,3.15.07a41.82,41.82,0,0,0,12.91-.86c8.76-2.12,14.9-7.28,18-15.75a35,35,0,0,0,1.1-20.84c-2-8.05-6.94-13.47-14.68-16.32a31.21,31.21,0,0,0-10.2-1.93c-3.7-.07-7.4,0-11.22,0V156.4c0,6.83,0,13.65,0,20.48C97.68,177.6,97.89,177.86,98.61,177.84Z"/></svg>