<svg id="a544c142-a912-4409-942e-c4811e3261d0" data-name="PRINT" xmlns="http://www.w3.org/2000/svg" viewBox="0 0 300 300"><defs><style>.fa26f982-83d9-4635-821c-4c2b36393075{fill:#a1a1aa;}</style></defs><path class="fa26f982-83d9-4635-821c-4c2b36393075" d="M44.89,255.11H255.11V44.89H44.89Zm60.85-105A22.16,22.16,0,0,1,127.89,128a22.15,22.15,0,1,1,0-44.29h44.29a22.15,22.15,0,0,1,0,44.29A22.14,22.14,0,1,1,150,150.11V194.4a22.15,22.15,0,1,1-22.14-22.15A22.16,22.16,0,0,1,105.74,150.11Z"/><path class="fa26f982-83d9-4635-821c-4c2b36393075" d="M150,150.11A22.15,22.15,0,0,1,172.18,128H150Z"/></svg>