<svg id="b72419e0-593e-43e5-a7a5-c2516e5d0903" data-name="PRINT" xmlns="http://www.w3.org/2000/svg" viewBox="0 0 300 300"><defs><style>.a8a6e59d-e073-4cb1-b600-a0a9cc6579b6{fill:#a1a1aa;}</style></defs><path class="a8a6e59d-e073-4cb1-b600-a0a9cc6579b6" d="M146.22,277.48h8l7.68-4.36c24.34-13.89,48.58-28,73.11-41.5,4.79-2.65,5.37-5.43,4.59-10.19-4.38-26.67-8.5-53.39-12.72-80.1-3.15-20-6.22-40-9.61-59.94-.38-2.26-2.24-5.55-4-6-2.1-.5-4.81,1.56-7.24,2.54-.28.12-.47.46-.7.7q-71,73-141.95,146c-1,1.06-2,2.19-3.23,3.59,3.53,2.07,6.77,4,10,5.89Q108.2,255.83,146.22,277.48Z"/><path class="a8a6e59d-e073-4cb1-b600-a0a9cc6579b6" d="M64.46,211.16,174.11,98.43c-6.25-12.24-12.09-24-18.27-35.5-1-1.92-3.6-4.29-5.36-4.21-2.07.1-4.06,2.58-6,4.13-.47.38-.65,1.14-1,1.72L78.63,183.33Q71.18,197,63.75,210.64Z"/><path class="a8a6e59d-e073-4cb1-b600-a0a9cc6579b6" d="M95.24,22.6c-3.82.62-4.6,3.66-5.1,7Q80.87,90.86,71.5,152.11q-2.58,16.89-5.13,33.8l.73.27c.52-.77,1.1-1.5,1.54-2.31Q97.29,131.49,125.78,79c.86-1.59.63-4.48-.24-6.19-7.63-15.09-15.53-30-23.33-45C100.71,24.91,99.15,22,95.24,22.6Z"/></svg>