<svg id="b74ec0da-7c34-41a7-9a26-97b75ae77bb3" data-name="PRINT" xmlns="http://www.w3.org/2000/svg" viewBox="0 0 300 300"><defs><style>.bc0ddc42-9bec-41df-b7f9-ddf67de005b6{fill:#a1a1aa;}</style></defs><path class="bc0ddc42-9bec-41df-b7f9-ddf67de005b6" d="M45,255H255V45H45ZM105.18,80a15.68,15.68,0,0,1,15.7,15.71A14.9,14.9,0,0,1,114.75,108v8.68a9.56,9.56,0,0,0,2.53-1.13c8.68-3.65,19-6.69,28.82-6.69,10.65,0,19,2.81,28.55,6.41a15.14,15.14,0,0,0,6.14,1.14c10.65,0,22.41-7.55,25.22-7.55,2.25,0,4.22,1.68,4.22,3.65v65.76h0c0,2-1.68,2.82-3.65,3.66-7.83,3.38-16.22,6.42-25.22,6.42-12.61,0-18.46-7.82-33.6-7.82-10.92,0-22.41,3.94-31.65,8.11-.57.28-1.12.28-1.68.55v21.29a5.31,5.31,0,0,1-.29,2.25v.56a9.29,9.29,0,0,1-9,6.71,9.47,9.47,0,0,1-9.52-9.52V108a15.62,15.62,0,0,1,9.56-28Z"/></svg>