<svg id="ec62d427-58c7-43c8-b2ab-9bcf98d2d407" data-name="PRINT" xmlns="http://www.w3.org/2000/svg" viewBox="0 0 300 300"><defs><style>.bf9b2b2c-0cc5-48c0-a0ba-4f02ef874d12{fill:#a1a1aa;}</style></defs><path class="bf9b2b2c-0cc5-48c0-a0ba-4f02ef874d12" d="M119.79,192.27c0-4.6-4.88-4-27.64-5.59-1.55,1.9-3.08,3.92-3.1,6.3C89.05,201.68,119.79,201.65,119.79,192.27Z"/><path class="bf9b2b2c-0cc5-48c0-a0ba-4f02ef874d12" d="M104.91,152.84c15.23,0,14.86-20.83.35-20.83C90.12,132,89.43,152.84,104.91,152.84Z"/><path class="bf9b2b2c-0cc5-48c0-a0ba-4f02ef874d12" d="M45,255H255V45H45ZM176.78,120.26c10.46-1.19,14.63-6.43,15.94-19.42h11.34c0,19.3-.41,18.12.93,18.12h16.79v11.9H204v28.47c0,2-1.45,15,17.74,7.84L225,177.66a47.42,47.42,0,0,1-19.4,4.78c-14.17,0-19.54-5.72-19.54-19.18V132.05c0-1.59.31-1.19-9.28-1.19ZM159.32,89.53c6.9,0,10.83,3.66,10.83,10.46s-3.93,10.72-10.85,10.72-10.71-3.92-10.71-10.72S152.54,89.53,159.32,89.53Zm-15.38,83.38c7.82-1.08,8-.59,8-3.22v-35c0-2.49-.6-2.15-8-4.77l1.31-9.64H169.9v49.43c0,1.91.11,2.14,1.91,2.39l6.1.84,0,9.41H143.94ZM76.31,175.6c0-4.5,3.49-7.68,10.83-14.42-5.83-2.86-10.23-9-10.23-17.85,0-24.2,26.52-25,38.23-21.92h23.22v10.11l-11,.84a18.86,18.86,0,0,1,4.4,12c0,22.81-26.81,22.11-34.78,19.89l-3.93,6.3c31.19,1.89,44.42,1.26,44.42,18.45,0,13.7-12,21.44-32.75,21.44C83.22,210.47,75,205,75,195.6c0-5.36,2.4-8.21,6.57-12.15A8,8,0,0,1,76.31,175.6Z"/></svg>