<svg id="aa570768-61ea-4de2-ba59-bbf46e5d09eb" data-name="PRINT" xmlns="http://www.w3.org/2000/svg" viewBox="0 0 300 300"><defs><style>.ab75145d-7438-4c3f-b536-d99fa231c605{fill:#a1a1aa;}</style></defs><path class="ab75145d-7438-4c3f-b536-d99fa231c605" d="M108.89,217.5c-1.36,0-2.43.75-2.43,1.68s1.07,1.83,2.61,1.69c1.36,0,2.44-.74,2.44-1.69S110.29,217.36,108.89,217.5Z"/><path class="ab75145d-7438-4c3f-b536-d99fa231c605" d="M89.44,211.22c-.75.6-.47,2,.61,2.9,1.07,1.07,2.43,1.22,3,.46.61-.59.34-2-.61-2.9C91.46,210.61,90.05,210.46,89.44,211.22Z"/><path class="ab75145d-7438-4c3f-b536-d99fa231c605" d="M117.66,216.28c-1.36.32-2.3,1.22-2.16,2.29s1.36,1.56,2.77,1.22,2.29-1.22,2.15-2.15S119,216.14,117.66,216.28Z"/><path class="ab75145d-7438-4c3f-b536-d99fa231c605" d="M74.24,194.53c-.32.61.16,1.35,1.09,1.83a1.39,1.39,0,0,0,2-.34c.33-.61-.13-1.36-1.08-1.82C75.33,193.91,74.58,194.05,74.24,194.53Z"/><path class="ab75145d-7438-4c3f-b536-d99fa231c605" d="M84.1,204.32c-.75.47-.75,1.69,0,2.76s2,1.56,2.62,1.08.75-1.83,0-2.9S84.84,203.72,84.1,204.32Z"/><path class="ab75145d-7438-4c3f-b536-d99fa231c605" d="M148.5,36.66C83.48,36.66,33.75,86,33.75,151c0,52,32.72,96.48,79.46,112.13,6,1.07,8.1-2.62,8.1-5.68,0-2.9-.14-18.92-.14-28.78,0,0-32.81,7-39.7-14,0,0-5.35-13.64-13-17.15,0,0-10.74-7.36.75-7.22a24.74,24.74,0,0,1,18.1,12.09c10.26,18.09,27.46,12.89,34.17,9.79,1.07-7.5,4.12-12.7,7.5-15.79-26.21-2.9-52.66-6.71-52.66-51.8,0-12.89,3.58-19.37,11.08-27.62-1.22-3-5.21-15.59,1.21-31.81,9.8-3.06,32.35,12.64,32.35,12.64a110.84,110.84,0,0,1,58.87,0s22.55-15.75,32.35-12.64c6.42,16.26,2.43,28.77,1.21,31.81,7.5,8.31,12.1,14.78,12.1,27.62,0,45.23-27.61,48.85-53.82,51.8,4.33,3.7,8,10.74,8,21.75,0,15.8-.14,35.35-.14,39.18,0,3.06,2.15,6.75,8.11,5.68,46.86-15.56,78.65-60.06,78.65-112C266.25,86,213.52,36.66,148.5,36.66Z"/><path class="ab75145d-7438-4c3f-b536-d99fa231c605" d="M79.31,198.33c-.61.46-.47,1.54.32,2.43s1.84,1.08,2.45.47.47-1.54-.34-2.44C81,198,79.93,197.72,79.31,198.33Z"/><path class="ab75145d-7438-4c3f-b536-d99fa231c605" d="M96.94,217.07c-.33.93.61,2,2,2.29,1.2.48,2.61,0,2.9-.93s-.61-2-2-2.43A2.39,2.39,0,0,0,96.94,217.07Z"/></svg>