<svg id="b9c5f031-556e-45af-be27-493c684d2c53" data-name="PRINT" xmlns="http://www.w3.org/2000/svg" viewBox="0 0 300 300"><defs><style>.b561a67b-2b7c-4d13-8c28-9dbd742e2a0f{fill:#a1a1aa;}</style></defs><path class="b561a67b-2b7c-4d13-8c28-9dbd742e2a0f" d="M140.43,149.64c-.75-2.32-1.76-4.16-2.59-6.8s-1.67-5.28-2.5-7.91-1.6-5.19-2.3-7.64-1.32-4.7-1.88-6.74H131a109.33,109.33,0,0,1-2.92,11.11q-1.93,6.26-3.95,12.78c-1.34,4.35-2.73,9.94-4,13.64h23.51C143.08,156.23,141.17,152,140.43,149.64Z"/><path class="b561a67b-2b7c-4d13-8c28-9dbd742e2a0f" d="M44.89,255.11H255.11V44.89H44.89Zm157.63-61c0,.93-.38,1.39-1.12,1.39H185.77c-.84,0-1.25-.46-1.25-1.39v-63.5c0-.83.37-1.25,1.11-1.25H201.4c.74,0,1.12.42,1.12,1.25Zm-16.45-92.9a10.74,10.74,0,0,1,7.71-3,10.35,10.35,0,0,1,7.85,3,11.92,11.92,0,0,1-.14,15.63,10.65,10.65,0,0,1-8,3.06,10.11,10.11,0,0,1-7.64-3.06A11,11,0,0,1,183,109,10.21,10.21,0,0,1,186.07,101.26ZM89.85,194l27.71-80c.27-.83.55-1.78.83-2.85a19,19,0,0,0,.55-4.75.86.86,0,0,1,.73-1,1,1,0,0,1,.25,0H142c.65,0,1,.23,1.11.7l31.61,88c.28.93,0,1.4-.83,1.39H155.83a1.28,1.28,0,0,1-1.39-1l-7.05-21.71H115.3l-6.55,21.43a1.62,1.62,0,0,1-1.67,1.25H90.82C89.9,195.54,89.57,195,89.85,194Z"/></svg>