<?xml version="1.0" encoding="utf-8"?>
<!-- Generator: Adobe Illustrator 27.1.1, SVG Export Plug-In . SVG Version: 6.00 Build 0)  -->
<svg version="1.1" id="b9c5f031-556e-45af-be27-493c684d2c53"
	 xmlns="http://www.w3.org/2000/svg" xmlns:xlink="http://www.w3.org/1999/xlink" x="0px" y="0px" viewBox="0 0 300 300"
	 style="enable-background:new 0 0 300 300;" xml:space="preserve">
<path d="M140.4,149.6c-0.8-2.3-1.8-4.2-2.6-6.8s-1.7-5.3-2.5-7.9s-1.6-5.2-2.3-7.6s-1.3-4.7-1.9-6.7H131c-0.8,3.8-1.8,7.5-2.9,11.1
	c-1.3,4.2-2.6,8.4-3.9,12.8c-1.3,4.4-2.7,9.9-4,13.6h23.5C143.1,156.2,141.2,152,140.4,149.6z"/>
<path d="M44.9,255.1h210.2V44.9H44.9V255.1z M202.5,194.1c0,0.9-0.4,1.4-1.1,1.4h-15.6c-0.8,0-1.2-0.5-1.2-1.4v-63.5
	c0-0.8,0.4-1.2,1.1-1.2h15.8c0.7,0,1.1,0.4,1.1,1.2L202.5,194.1z M186.1,101.2c2.1-2,4.8-3.1,7.7-3c2.9-0.2,5.8,0.9,7.9,3
	c3.9,4.5,3.8,11.2-0.1,15.6c-2.1,2.1-5,3.2-8,3.1c-2.9,0.1-5.6-1-7.6-3.1c-1.9-2.1-3-5-2.9-7.8C182.9,106.1,184,103.3,186.1,101.2
	L186.1,101.2z M89.8,194l27.7-80c0.3-0.8,0.6-1.8,0.8-2.8c0.4-1.6,0.6-3.1,0.6-4.8c-0.1-0.5,0.2-0.9,0.7-1c0,0,0,0,0,0
	c0.1,0,0.2,0,0.2,0H142c0.6,0,1,0.2,1.1,0.7l31.6,88c0.3,0.9,0,1.4-0.8,1.4h-18.1c-0.7,0.1-1.3-0.4-1.4-1l-7.1-21.7h-32.1l-6.6,21.4
	c-0.2,0.8-0.9,1.3-1.7,1.2H90.8C89.9,195.5,89.6,195,89.8,194z"/>
</svg>
