<svg id="ecdf7356-e5e6-40db-8888-32b5bb508345" data-name="PRINT" xmlns="http://www.w3.org/2000/svg" viewBox="0 0 300 300"><defs><style>.be2835a6-aa1f-4553-a5c0-b37514d32715{fill:#a1a1aa;}</style></defs><path class="be2835a6-aa1f-4553-a5c0-b37514d32715" d="M44.89,255.11H255.11V44.89H44.89Zm90-93a36.39,36.39,0,0,1,4.72-18.2,34.6,34.6,0,0,1,13.76-13.33,44.3,44.3,0,0,1,21.8-5c.46,0,1.06,0,1.81.06s2.36.12,3.38.21V99.58c0-.65.28-1,.83-1H197.3a.73.73,0,0,1,.83.63.67.67,0,0,1,0,.2v81c0,1.57.07,3.29.21,5.14s.26,3.52.35,5a1.45,1.45,0,0,1-.84,1.39,64,64,0,0,1-13.37,4.16,76.57,76.57,0,0,1-13.34,1.26,43.07,43.07,0,0,1-26.45-8.58A37.57,37.57,0,0,1,134.89,162.12Zm-33.58-55c0-.74.42-1.12,1.25-1.12h15.9a1,1,0,0,1,1.1.85.61.61,0,0,1,0,.27h0v87c0,.93-.42,1.39-1.25,1.39h-15.9c-.74,0-1.11-.46-1.11-1.39Z"/><path class="be2835a6-aa1f-4553-a5c0-b37514d32715" d="M156.07,170.18a16.94,16.94,0,0,0,3.88,6.11,14.85,14.85,0,0,0,5.84,3.47,22.88,22.88,0,0,0,7.15,1.12c1.3,0,2.5,0,3.62-.14a23.22,23.22,0,0,0,3.8-.56h0V142.26a23.88,23.88,0,0,0-3-.41,24.61,24.61,0,0,0-2.85-.14,21.28,21.28,0,0,0-9.72,2.22,17.84,17.84,0,0,0-10.14,17.36A24.27,24.27,0,0,0,156.07,170.18Z"/></svg>