<svg id="a452f598-9b96-4f7b-af28-c54bf0a1764b" data-name="PRINT" xmlns="http://www.w3.org/2000/svg" viewBox="0 0 300 300"><defs><style>.e64ca640-e09a-467a-a1eb-4eff998e2555{fill:#a1a1aa;}</style></defs><path class="e64ca640-e09a-467a-a1eb-4eff998e2555" d="M255,45H45V255H255ZM159.29,208.78c0,20.44-12,29.77-29.5,29.77-15.79,0-24.93-8.16-29.62-18.05l16.09-9.71c3.08,5.49,5.89,10.13,12.69,10.13,6.48,0,10.6-2.53,10.6-12.42V141.42h19.74ZM206,238.55c-18.33,0-30.19-8.72-36-20.16l16.09-9.28c4.21,6.89,9.74,12,19.44,12,8.16,0,13.41-4.08,13.41-9.75,0-6.75-5.35-9.13-14.39-13.12l-4.92-2.11c-14.25-6-23.67-13.69-23.67-29.77,0-14.82,11.3-26.06,28.87-26.06,12.57,0,21.57,4.35,28,15.8l-15.38,9.83c-3.37-6-7-8.43-12.71-8.43s-9.41,3.65-9.41,8.43c0,5.91,3.65,8.31,12.13,12l4.93,2.11c16.78,7.18,26.2,14.52,26.2,31C238.64,228.8,224.68,238.55,206,238.55Z"/></svg>