<svg id="b7314632-f6d0-4e98-a56a-20eff3c5431b" data-name="PRINT" xmlns="http://www.w3.org/2000/svg" viewBox="0 0 300 300"><defs><style>.b46fe528-52c0-49d7-8017-d0e8bc60afd2{fill:#a1a1aa;}</style></defs><path class="b46fe528-52c0-49d7-8017-d0e8bc60afd2" d="M255.11,44.89H44.89V255.11H255.11ZM158.56,178.38l-2.32,16a1.33,1.33,0,0,1-.55,1,1.91,1.91,0,0,1-.84.22H98.74l.07-88.69a1.1,1.1,0,0,1,.93-1.25.86.86,0,0,1,.32,0h16.09a.85.85,0,0,1,1,.73,1,1,0,0,1,0,.24l.23,70.5h40.24C158.42,177.13,158.74,177.55,158.56,178.38Zm52.54-51.93v16.8c0,.64-.47,1-1.39,1a29.41,29.41,0,0,0-8.42.62,34.58,34.58,0,0,0-7.23,2.3,20.72,20.72,0,0,0-5.62,3.19v44c0,.84-.37,1.25-1.11,1.25H171.49a1.22,1.22,0,0,1-1.38-1,1.09,1.09,0,0,1,0-.36V146.44c0-2,0-4.19-.07-6.46s-.12-4.51-.21-6.73a45.44,45.44,0,0,0-.55-5.7.79.79,0,0,1,.57-1,.9.9,0,0,1,.4,0h15.13a1.88,1.88,0,0,1,1.81,1.39,6.73,6.73,0,0,1,.7,1.94,22.43,22.43,0,0,1,.41,2.71c.09,1,.14,2,.14,3.12a32.54,32.54,0,0,1,9.24-7.42,23.48,23.48,0,0,1,12.17-3.12,1.13,1.13,0,0,1,.94.31,1.06,1.06,0,0,1,.26.43A1.11,1.11,0,0,1,211.1,126.45Z"/></svg>