<svg id="a16aeeb7-c874-4747-b590-422452edcf25" data-name="PRINT" xmlns="http://www.w3.org/2000/svg" viewBox="0 0 300 300"><defs><style>.ba9a5176-049b-4c67-99e0-999eabd57fec{fill:#a1a1aa;}</style></defs><path class="ba9a5176-049b-4c67-99e0-999eabd57fec" d="M44.89,255.11H255.11V44.89H44.89Zm119.68-78.86a.81.81,0,0,1,.34-.76.66.66,0,0,1,.76.07,40.66,40.66,0,0,0,11.26,4.23,44.47,44.47,0,0,0,10.14,1.32,15.71,15.71,0,0,0,7.16-1.25,3.91,3.91,0,0,0,2.29-3.61,4.6,4.6,0,0,0-2.08-3.48,34.63,34.63,0,0,0-8.47-4,51,51,0,0,1-12.29-6.25,21.19,21.19,0,0,1-6.53-7.3,19.12,19.12,0,0,1-2-8.82A20,20,0,0,1,168.05,136a21.15,21.15,0,0,1,9-7.92,28.66,28.66,0,0,1,14-3.51,88,88,0,0,1,11.71.17,39.55,39.55,0,0,1,9.17,3.06,1.26,1.26,0,0,1,.83.76,4.07,4.07,0,0,1,.14,1v14a.92.92,0,0,1-.42.83.9.9,0,0,1-1,0h0a49.06,49.06,0,0,0-10-2.91,43.55,43.55,0,0,0-9.65-1.11,18,18,0,0,0-5.21.62,4.68,4.68,0,0,0-2.71,1.73,4.42,4.42,0,0,0-.69,2.37,3.68,3.68,0,0,0,.83,2.22,9.6,9.6,0,0,0,2.92,2.3,59.41,59.41,0,0,0,6.11,2.84,60.68,60.68,0,0,1,13.26,6.32,20.28,20.28,0,0,1,6.81,7.15,19.18,19.18,0,0,1,2,8.89,20,20,0,0,1-3.34,11.46,21.91,21.91,0,0,1-9.65,7.71,38.86,38.86,0,0,1-15.63,2.78,57,57,0,0,1-11.73-1.11,43.06,43.06,0,0,1-9.38-2.78,1.79,1.79,0,0,1-1-1.67ZM91.83,105.56c0-.65.27-1,.83-1,1.48,0,3.24,0,5.28-.07l6.59-.13,7.51-.14c2.63,0,5.25-.07,7.84-.07a52.09,52.09,0,0,1,17.78,2.64,30.85,30.85,0,0,1,11.6,7.08,27.15,27.15,0,0,1,6.32,9.79,32.53,32.53,0,0,1,1.95,11.18,30.92,30.92,0,0,1-5.14,18.34,29,29,0,0,1-13.89,10.48A55.29,55.29,0,0,1,119.05,167c-2,0-3.47,0-4.3-.07s-2.08-.07-3.75-.07v27.36a1.1,1.1,0,0,1-.94,1.25,1.6,1.6,0,0,1-.31,0h-17c-.65,0-1-.37-1-1.11Z"/><path class="ba9a5176-049b-4c67-99e0-999eabd57fec" d="M118.91,150.14a32.74,32.74,0,0,0,9.93-1.39,15.09,15.09,0,0,0,7.09-4.58,13.3,13.3,0,0,0,2.7-8.89,14,14,0,0,0-2-7.64,13,13,0,0,0-6.05-4.93A25.76,25.76,0,0,0,120.44,121c-2.22,0-4.19,0-5.9.07s-2.9.12-3.55.21V150c1.21.09,2.32.14,3.34.14Z"/></svg>