<svg id="a0080ffa-336e-46f0-ae44-21dea6743017" data-name="PRINT" xmlns="http://www.w3.org/2000/svg" viewBox="0 0 300 300"><defs><style>.ab4f3cd2-f876-4280-a333-71bcdef9d0ce{fill:#a1a1aa;}</style></defs><path class="ab4f3cd2-f876-4280-a333-71bcdef9d0ce" d="M44.89,255.11H255.11V44.89H44.89ZM172.17,126.85c0-.37.37-.37.75-.37h15a2.48,2.48,0,0,1,1.87,1.5c.38.75.76,1.13.76,1.88a6.51,6.51,0,0,1,.37,2.63v3a30.7,30.7,0,0,1,9.39-7.51,19.85,19.85,0,0,1,12-3c.75,0,1.12.37,1.12.75V143c0,.75-.37,1.12-1.5,1.12a20.25,20.25,0,0,0-8.26.75,22.74,22.74,0,0,0-7.13,2.26,17.13,17.13,0,0,0-5.63,3.38v43.92a1,1,0,0,1-.84,1.12.71.71,0,0,1-.29,0H174.05c-.75,0-1.13-.37-1.5-1.12V140a41.25,41.25,0,0,0-.38-6.75c0-1.88-.38-3.76-.38-5.63C171.79,127.23,171.79,127.23,172.17,126.85ZM94.46,105.08c0-.75.38-1.12.75-1.12h19.52c2.63,0,6,.75,8.64.75A55.89,55.89,0,0,1,141,107.33a28.86,28.86,0,0,1,11.64,7.14,29.21,29.21,0,0,1,6.38,9.76,39.47,39.47,0,0,1,1.88,11.26,30,30,0,0,1-5.26,18.39,27.55,27.55,0,0,1-13.89,10.51,57.43,57.43,0,0,1-19.52,3.38h-4.13c-.75,0-4.13-.75-6-.75v27.41a1,1,0,0,1-.84,1.12.66.66,0,0,1-.28,0H95.21c-.38-.75-.75-1.12-.75-1.88Z"/><path class="ab4f3cd2-f876-4280-a333-71bcdef9d0ce" d="M122.62,150.13a28.18,28.18,0,0,0,9.76-1.5,14.54,14.54,0,0,0,7.13-4.51,12.85,12.85,0,0,0,2.63-9,17.16,17.16,0,0,0-1.88-7.5,12.37,12.37,0,0,0-6-4.88,32.14,32.14,0,0,0-10.13-1.88h-6a21.68,21.68,0,0,1-5.63-.38v28.91c1.13,0,4.5.75,5.63.75Z"/></svg>