<svg id="eae0ae73-048b-48a2-91c6-8f0254eb3d54" data-name="PRINT" xmlns="http://www.w3.org/2000/svg" viewBox="0 0 300 300"><defs><style>.be1cb53e-a55c-40d1-904b-04383260b917{fill:#a1a1aa;}</style></defs><path class="be1cb53e-a55c-40d1-904b-04383260b917" d="M212.08,128.1c-6.27-2-13-2.78-19.56-3.5-10.18-1.1-14.23-5.06-16-15.26a63.62,63.62,0,0,0-4.79-16.71c-4.7-9.84-15.7-14.26-26.75-11.73-9.33,2.13-17.09,11.41-17.52,20.95-.5,10.89,5.73,20.17,16.42,23.38a73.79,73.79,0,0,0,15.79,2.69c9.73.71,15.52,4.4,17.39,12.36,1.22,5.21,2.06,10.41,1.12,15.93-1.62,9.59-5.93,13.87-15.69,14.76a114.7,114.7,0,0,0-15.6,2.11c-10.88,2.52-18.63,11.19-19.39,21-.85,10.89,5.52,20.47,16,24.14,9.82,3.42,21.3-.56,27.21-9.31,3.5-5.19,5.11-11,5.91-17.08,1.52-11.45,5.59-15.76,16.34-17.25,1.38-.19,2.83,0,4.2-.22,5-.88,10.23-1.36,15.06-2.94,9.13-3,15-11.91,15-21.57C227.34,140,221.62,131.08,212.08,128.1Z"/><path class="be1cb53e-a55c-40d1-904b-04383260b917" d="M100,126.57a23.21,23.21,0,1,0,23.22,23.2A23.26,23.26,0,0,0,100,126.57Z"/><path class="be1cb53e-a55c-40d1-904b-04383260b917" d="M45.27,173A23.21,23.21,0,1,0,68.4,196.27,23.27,23.27,0,0,0,45.27,173Z"/><path class="be1cb53e-a55c-40d1-904b-04383260b917" d="M254.6,173A23.21,23.21,0,1,0,278,196,23.28,23.28,0,0,0,254.6,173Z"/></svg>