<svg id="ae577a3a-32df-470f-9231-c23bdac34a75" data-name="PRINT" xmlns="http://www.w3.org/2000/svg" viewBox="0 0 300 300"><defs><style>.a151ed90-8964-4669-ba49-af9a4cd68179{fill:#a1a1aa;}</style></defs><path class="a151ed90-8964-4669-ba49-af9a4cd68179" d="M81.52,190c-.7,2.81-1.31,5.57-1.88,8.43-4.92,26-1.08,46.63,11.2,53.72,12.66,7.32,33.94-.18,54.65-18.33,1.65-1.45,3.29-2.95,4.94-4.55,2.06,2,4.21,3.94,6.37,5.82,20,17.24,39.88,24.22,52.12,17.15,12.66-7.32,16.78-29.48,11.44-56.49q-.63-3.09-1.41-6.32c1.5-.43,3-.89,4.42-1.36,27-8.95,46.63-23.43,46.63-38.29,0-14.21-18.47-28-44-36.76-2.54-.84-5.07-1.65-7.61-2.39.43-1.73.81-3.47,1.18-5.2,5.77-27.94,2-50.39-10.83-57.8-12.33-7.07-32.43.28-52.78,18-2,1.75-4,3.58-5.86,5.4-1.27-1.23-2.58-2.43-3.9-3.61C124.92,48.5,103.55,40.53,90.75,48,78.47,55.12,74.82,76.26,80,102.7c.52,2.61,1.09,5.19,1.74,7.82-3,.84-6,1.78-8.72,2.76C48,122,30,135.65,30,149.81c0,14.61,19.12,29.29,45.14,38.2C77.24,188.71,79.35,189.41,81.52,190Zm57.38,36.18a86.1,86.1,0,0,1-26.45,16.54,20.71,20.71,0,0,1-16.54.61c-7.45-4.3-10.55-20.86-6.34-43.12.52-2.62,1.09-5.25,1.74-7.83a233.48,233.48,0,0,0,31.84,4.6,248.18,248.18,0,0,0,20.24,25C141.89,223.49,140.39,224.9,138.9,226.21Zm59.52-88c-2.2-4.12-4.46-8.25-6.8-12.28s-4.68-7.93-7.16-11.82A215.2,215.2,0,0,1,206,117.84,209.29,209.29,0,0,1,198.42,138.18Zm.09,23.34a216.86,216.86,0,0,1,7.93,20.76,202.87,202.87,0,0,1-22,3.76c2.54-3.94,4.93-8,7.27-12S196.31,165.74,198.51,161.52Zm-5.43-11.67Q188.39,159.54,183,169c-3.56,6.23-7.35,12.28-11.34,18.28-7,.5-14.25.75-21.61.75s-14.48-.25-21.37-.66q-6.12-8.94-11.53-18.28c-3.62-6.23-6.94-12.56-10.08-19,3.08-6.46,6.46-12.8,10-19s7.41-12.28,11.43-18.24c7-.5,14.2-.79,21.52-.79s14.53.29,21.52.79c4,5.92,7.78,12,11.38,18.15S189.9,143.42,193.08,149.85ZM108.33,126c-2.29,4-4.55,8.07-6.66,12.19-3-7-5.44-13.84-7.5-20.44,6.75-1.51,13.93-2.72,21.37-3.66C113.06,118,110.62,122,108.33,126Zm0,48.13c2.38,4.08,4.82,8.16,7.4,12.15A212.3,212.3,0,0,1,94,182.75a221.55,221.55,0,0,1,7.64-20.86C103.82,166,106,170.09,108.38,174.12Zm42,40.7a220.83,220.83,0,0,1-14.2-17c4.49.18,9.13.29,13.82.29s9.56-.11,14.25-.34A201.38,201.38,0,0,1,150.38,214.82Zm61.26,14.07a20.81,20.81,0,0,1-7.73,14.66c-7.46,4.32-23.35-1.31-40.5-16-2-1.7-3.94-3.52-6-5.4A233.44,233.44,0,0,0,177.24,197a233,233,0,0,0,32-4.92c.47,1.92.88,3.83,1.26,5.71A85.44,85.44,0,0,1,211.64,228.89Zm4.07-108.58c2.45.72,4.78,1.47,7,2.21,21.84,7.51,37.16,18.65,37.16,27.19,0,9.18-16.36,21-39.75,28.78-1.31.42-2.62.84-4,1.22a240.73,240.73,0,0,0-11.95-29.9A236.25,236.25,0,0,0,215.71,120.31ZM162.62,73.25c17.43-15.19,33.69-21.14,41.1-16.87,7.92,4.54,11,22.92,6,47.07-.34,1.58-.66,3.13-1.09,4.68a239.44,239.44,0,0,0-31.54-5,237.64,237.64,0,0,0-20-24.89C159,76.53,160.74,74.9,162.62,73.25ZM150.09,85.44A203.73,203.73,0,0,1,164,102.22c-9.27-.42-18.6-.42-27.88,0C140.67,96.17,145.4,90.55,150.09,85.44ZM95.71,56.7c7.88-4.59,25.37,2,43.8,18.29,1.16,1,2.33,2.15,3.56,3.28A236.39,236.39,0,0,0,123,103.16,248.69,248.69,0,0,0,91.45,108c-.61-2.38-1.13-4.83-1.63-7.26C85.4,78.09,88.32,61,95.71,56.7ZM40.08,149.81c0-8.59,14.82-19.56,36.19-27,2.67-.93,5.39-1.77,8.11-2.58A248.17,248.17,0,0,0,95.86,150a254,254,0,0,0-11.62,30.23c-2-.55-3.89-1.16-5.82-1.81-10-3.15-21.32-8.11-29.53-14.64A21,21,0,0,1,40.08,149.81Z"/><path class="a151ed90-8964-4669-ba49-af9a4cd68179" d="M150,128.53A21.46,21.46,0,1,0,171.46,150,21.46,21.46,0,0,0,150,128.53Z"/></svg>