<svg id="e6ac7e8d-3185-43c2-9295-c1969c90e6b4" data-name="PRINT" xmlns="http://www.w3.org/2000/svg" viewBox="0 0 300 300"><defs><style>.ac24cf70-84ce-4b71-8db7-c051f9994295{fill:#a1a1aa;}</style></defs><path class="ac24cf70-84ce-4b71-8db7-c051f9994295" d="M252.41,165.92a58.15,58.15,0,0,0-25.71,6c-2.61-5.29-5.32-9.89-5.76-13.35-.54-4-1.12-6.43-.49-11.23s3.42-11.55,3.38-12.05-.63-2.93-6.35-3-10.65,1.11-11.21,2.61a53.88,53.88,0,0,0-2.36,8.47c-1,5.19-11.43,23.73-17.34,33.39-1.95-3.77-3.58-7.09-3.94-9.75-.53-4-1.1-6.43-.48-11.21s3.41-11.58,3.37-12.07-.62-2.93-6.34-3-10.64,1.11-11.22,2.61-1.19,5.06-2.35,8.48-15,34.28-18.66,42.3c-1.86,4.07-3.45,7.35-4.6,9.58-.19.34-.32.57-.41.75.13-.22.22-.45.22-.35-1,1.91-1.55,3-1.55,3v0c-.75,1.41-1.59,2.7-2,2.7s-.84-3.72.13-8.82c2.08-10.73,7-27.41,7-28,0-.31.93-3.2-3.23-4.74s-5.51,1-5.86,1-.62.88-.62.88,4.48-18.8-8.6-18.8c-8.16,0-19.5,9-25.08,17.07-3.51,1.9-11.1,6-19.07,10.41l-9.18,5.06c-.23-.22-.4-.43-.62-.66-15.88-16.94-45.17-28.92-43.93-51.66.44-8.29,3.33-30.07,56.34-56.48,43.45-21.65,78.2-15.71,84.18-2.49,8.6,18.84-18.58,53.91-63.7,59-17.2,1.91-26.24-4.74-28.5-7.22s-2.71-2.75-3.6-2.27c-1.46.8-.53,3.1,0,4.48,1.33,3.51,6.88,9.7,16.32,12.81,8.29,2.7,28.46,4.22,52.84-5.23,27.4-10.55,48.72-39.95,42.47-64.56-6.38-25-47.85-33.22-87.05-19.29C75.46,58.61,50.19,71.65,32,88.63,10.42,108.85,7,126.46,8.38,133.81c5.06,26.13,41.05,43.15,55.46,55.75-.71.4-1.37.75-2,1.11-7.23,3.58-34.67,18-41.53,33.12C12.54,241,21.6,253.32,27.53,255c18.54,5.14,37.51-4.12,47.7-19.33s9-35.07,4.26-44.12c0-.13-.13-.22-.17-.36,1.86-1.1,3.77-2.21,5.67-3.32,3.67-2.17,7.27-4.17,10.41-5.9-1.76,4.8-3.05,10.56-3.72,18.89-.8,9.76,3.24,22.39,8.47,27.36a9.29,9.29,0,0,0,6.82,2.21c6.13,0,8.87-5.05,11.92-11.08,3.77-7.35,7.1-15.92,7.1-15.92s-4.16,23.15,7.22,23.15c4.18,0,8.34-5.36,10.2-8.11v0s.09-.17.32-.53c.44-.67.67-1.07.67-1.07v-.13c1.67-2.87,5.36-9.49,10.89-20.39,7.2-14.1,14.06-31.72,14.06-31.72a91.85,91.85,0,0,0,2.75,11.45c1.24,4.22,3.86,8.83,5.94,13.31-1.68,2.29-2.71,3.62-2.71,3.62a.14.14,0,0,0,0,.1c-1.33,1.77-2.84,3.68-4.4,5.54-5.66,6.75-12.41,14.46-13.29,16.67-1.07,2.62-.79,4.57,1.24,6.07,1.51,1.16,4.16,1.33,6.95,1.11a30.07,30.07,0,0,0,10.42-2.39,36.29,36.29,0,0,0,9-4.7,20,20,0,0,0,8.6-17.64,36.85,36.85,0,0,0-3.24-12.52c.49-.7,1-1.46,1.52-2.21a235.62,235.62,0,0,0,15.55-26.87,87.34,87.34,0,0,0,2.76,11.43c1.05,3.6,3.13,7.54,5,11.4-8.24,6.69-13.34,14.45-15.12,19.55-3.27,9.45-.7,13.71,4.12,14.68,2.18.45,5.29-.58,7.59-1.55a35.61,35.61,0,0,0,9.58-4.92c5.53-4.08,10.89-9.8,10.55-17.56a33.06,33.06,0,0,0-2.4-10.38c7-2.93,16-4.52,27.54-3.19,24.68,2.88,29.52,18.31,28.58,24.74s-6.11,10-7.85,11.08-2.25,1.48-2.12,2.27c.22,1.16,1,1.11,2.49.84,2-.35,12.93-5.23,13.42-17.15C292.58,182.36,278.08,165.77,252.41,165.92ZM62.11,230.07v0C54,239,42.51,242.37,37.6,239.52c-5.28-3.06-3.19-16.18,6.86-25.67a131.67,131.67,0,0,1,19.25-14.37c1.2-.7,2.92-1.77,5.06-3.06a3.89,3.89,0,0,1,.53-.3c.39-.28.84-.49,1.29-.77C74.26,208.83,70.72,220.72,62.11,230.07Zm59.59-40.51c-2.85,7-8.83,24.69-12.46,23.77-3.11-.8-5-14.32-.62-27.63,2.21-6.69,6.91-14.68,9.71-17.79,4.46-5,9.39-6.6,10.55-4.61C130.42,165.92,123.46,185.21,121.7,189.56Zm49.2,23.49h0c-1.2.62-2.31,1-2.83.71s.48-1,.48-1,6.17-6.61,8.61-9.63c1.41-1.78,3.05-3.86,4.83-6.17,0,.23,0,.45,0,.71C182,205.57,174.35,210.93,170.9,213.05Zm38-8.64c-.89-.62-.75-2.7,2.22-9.17a34.08,34.08,0,0,1,8.43-10.87,16.41,16.41,0,0,1,.83,4.78C220.3,199.14,213.16,202.87,208.86,204.41Z"/></svg>