<svg id="be089da5-f3b5-42d3-b786-725d313a8842" data-name="PRINT" xmlns="http://www.w3.org/2000/svg" viewBox="0 0 300 300"><defs><style>.bc7dea37-9326-4db0-8fd8-b80408c654bb{fill:#a1a1aa;}</style></defs><path class="bc7dea37-9326-4db0-8fd8-b80408c654bb" d="M66,182.29c25.84,6.46,32.29,45.21,84,45.21q51.66,0,64.58-51.67-19.37,25.85-45.21,19.38C143.54,188.75,137.08,150,85.42,150q-51.66,0-64.58,51.67Q40.21,175.83,66,182.29Z"/><path class="bc7dea37-9326-4db0-8fd8-b80408c654bb" d="M234,117.71c-25.84-6.46-32.29-45.21-84-45.21q-51.66,0-64.58,51.67,19.36-25.85,45.21-19.38c25.83,6.46,32.29,45.21,84,45.21q51.66,0,64.58-51.67Q259.79,124.18,234,117.71Z"/></svg>