<svg id="bf6c0743-32fe-435a-bc60-8db2ad31b1b3" data-name="PRINT" xmlns="http://www.w3.org/2000/svg" viewBox="0 0 300 300"><defs><style>.e7afe27f-a454-482a-b648-7fce8b1c9323{fill:#a1a1aa;}</style></defs><path class="e7afe27f-a454-482a-b648-7fce8b1c9323" d="M146.79,92.83c-13.21,7-26.31,14.2-39.42,21.37-2.25,1.23-4.41,2.61-7.06,4.19,16.36,9.43,32,18.51,47.77,27.44a4.77,4.77,0,0,0,4,0c15.74-8.91,31.41-18,47.32-27.11-.51-.77-.63-1.16-.88-1.3-15.29-8.38-30.55-16.83-45.95-25C151.08,91.63,148.38,92,146.79,92.83Z"/><path class="e7afe27f-a454-482a-b648-7fce8b1c9323" d="M154.07,205.74c16.2-8.87,31.79-17.36,47.3-26a4.8,4.8,0,0,0,2-3.53c.13-16.81.09-33.62.09-51.54-16.53,9.51-32.25,18.46-47.81,27.67-1.21.72-1.82,3.33-1.84,5.06-.15,14.33-.09,28.66-.07,43C153.74,202,153.93,203.51,154.07,205.74Z"/><path class="e7afe27f-a454-482a-b648-7fce8b1c9323" d="M99.49,180.14c14.66,8.19,29.42,16.21,44.16,24.25a22.8,22.8,0,0,0,2.76,1c0-17.19,0-33.79-.07-50.39a3.88,3.88,0,0,0-1.75-2.7c-15.64-9.09-31.33-18.09-47.89-27.62,0,17.83-.06,34.65.12,51.46A5.76,5.76,0,0,0,99.49,180.14Z"/><path class="e7afe27f-a454-482a-b648-7fce8b1c9323" d="M60.06,198.69c9.56-5.46,18.64-10.53,27.54-15.88,1.05-.63,1.68-2.78,1.69-4.22q.17-27.45,0-54.9c0-1.33-.46-3.32-1.39-3.88-9-5.43-18.23-10.63-27.85-16.17Z"/><path class="e7afe27f-a454-482a-b648-7fce8b1c9323" d="M63.33,97.13c9.28,5.35,17.79,10.11,26.13,15.16,2.48,1.5,4.33,1.33,6.75,0,12-6.74,23.72-14.28,36.33-19.67,11.33-4.83,16-11.59,14.06-23.72-.91-5.74-.16-11.75-.16-18.53Z"/><path class="e7afe27f-a454-482a-b648-7fce8b1c9323" d="M93.17,188.23c-9.06,4.89-17.92,10.14-27.78,15.81l81,45.62c0-11.85.11-22.63-.15-33.41,0-1.33-1.77-3.06-3.15-3.83-14.66-8.16-29.37-16.24-44.18-24.1A7.1,7.1,0,0,0,93.17,188.23Z"/><path class="e7afe27f-a454-482a-b648-7fce8b1c9323" d="M157.18,86.63c10.43,5.54,20.74,11.29,31.09,17,6.27,3.43,12.6,9.61,18.82,9.51,6.42-.1,12.75-6.28,19.09-9.87,3.36-1.9,6.64-3.93,10.46-6.21L153.73,50.36c0,11,.13,20.79-.08,30.61C153.58,83.93,154.71,85.31,157.18,86.63Z"/><path class="e7afe27f-a454-482a-b648-7fce8b1c9323" d="M206.29,187.81a5.4,5.4,0,0,0-4.46.14Q179,200.21,156.34,212.82c-1.12.62-2.47,2.1-2.49,3.2-.18,10.91-.11,21.83-.11,33.64l81-45.63C224.73,198.28,215.58,192.92,206.29,187.81Z"/><path class="e7afe27f-a454-482a-b648-7fce8b1c9323" d="M239.94,103.72c-9.6,5.51-18.51,10.57-27.34,15.79a4.27,4.27,0,0,0-1.77,3.08q-.15,28.46,0,56.89c0,1,.42,2.53,1.15,3,9.09,5.38,18.27,10.61,28,16.2Z"/></svg>