<?xml version="1.0" encoding="utf-8"?>
<!-- Generator: Adobe Illustrator 25.4.1, SVG Export Plug-In . SVG Version: 6.00 Build 0)  -->
<svg version="1.1" id="Capa_1" xmlns="http://www.w3.org/2000/svg" xmlns:xlink="http://www.w3.org/1999/xlink" x="0px" y="0px"
	 viewBox="0 0 50 50" style="enable-background:new 0 0 50 50;" xml:space="preserve">
<style type="text/css">
	.st0{fill:#A1A1AA;}
</style>
<g>
	<path class="st0" d="M49.4,25c0,6.7-2.4,12.5-7.1,17.3S31.8,49.4,25,49.4S12.5,47,7.7,42.3S0.6,31.8,0.6,25
		c0-6.8,2.4-12.5,7.2-17.3S18.3,0.6,25,0.6s12.5,2.4,17.3,7.1S49.4,18.3,49.4,25z M45.9,25c0-5.8-2-10.7-6.1-14.8s-9-6.1-14.8-6.1
		s-10.7,2-14.8,6.1s-6.1,9-6.1,14.8c0,5.7,2,10.7,6.1,14.7s9,6.1,14.8,6.1s10.7-2,14.8-6.1S45.9,30.8,45.9,25z M18.7,20
		c0,0.8-0.3,1.6-0.9,2.2c-0.6,0.6-1.3,0.9-2.2,0.9c-0.8,0-1.6-0.3-2.2-0.9c-0.6-0.6-0.9-1.3-0.9-2.2c0-0.9,0.3-1.6,0.9-2.2
		c0.6-0.6,1.3-0.9,2.2-0.9c0.9,0,1.6,0.3,2.2,0.9C18.4,18.4,18.7,19.1,18.7,20z M13.8,32.9l2.4-1.4c2,3.7,5,5.5,8.9,5.5
		s6.9-1.8,8.9-5.5l2.4,1.4c-1.3,2.4-2.8,4.3-4.7,5.6s-4.1,1.9-6.5,1.9c-2.5,0-4.7-0.6-6.6-1.9C16.6,37.2,15,35.3,13.8,32.9z
		 M37.5,20c0,0.8-0.3,1.6-0.9,2.2c-0.6,0.6-1.3,0.9-2.2,0.9c-0.8,0-1.6-0.3-2.2-0.9c-0.6-0.6-0.9-1.3-0.9-2.2c0-0.9,0.3-1.6,0.9-2.2
		c0.6-0.6,1.3-0.9,2.2-0.9c0.9,0,1.6,0.3,2.2,0.9C37.2,18.4,37.5,19.1,37.5,20z"/>
</g>
</svg>
