<?xml version="1.0" encoding="utf-8"?>
<!-- Generator: Adobe Illustrator 25.4.1, SVG Export Plug-In . SVG Version: 6.00 Build 0)  -->
<svg version="1.1" id="Capa_1" xmlns="http://www.w3.org/2000/svg" xmlns:xlink="http://www.w3.org/1999/xlink" x="0px" y="0px"
	 viewBox="0 0 50 50" style="enable-background:new 0 0 50 50;" xml:space="preserve">
<style type="text/css">
	.st0{fill:#FFFFFF;}
</style>
<g>
	<path class="st0" d="M31.7,31.7c3.2-3.2,8.4-3.2,11.6,0l6.7,5.8l-5.8-6.7c-3.2-3.2-3.2-8.4,0-11.6l5.8-6.7l-6.7,5.8
		c-3.2,3.2-8.4,3.2-11.6,0s-3.2-8.4,0-11.6L37.5,0l-6.7,5.8C27.6,9,22.4,9,19.2,5.8L12.5,0l5.8,6.7c3.2,3.2,3.2,8.4,0,11.6
		s-8.4,3.2-11.6,0L0,12.5l5.8,6.7c3.2,3.2,3.2,8.4,0,11.6L0,37.5l6.7-5.8c3.2-3.2,8.4-3.2,11.6,0s3.2,8.4,0,11.6L12.5,50l6.7-5.8
		c3.2-3.2,8.4-3.2,11.6,0l6.7,5.8l-5.8-6.7C28.5,40.1,28.5,34.9,31.7,31.7z M19.2,30.8c-3.2-3.2-3.2-8.4,0-11.6s8.4-3.2,11.6,0
		s3.2,8.4,0,11.6S22.4,34,19.2,30.8z"/>
</g>
</svg>
