<?xml version="1.0" encoding="utf-8"?>
<!-- Generator: Adobe Illustrator 25.4.1, SVG Export Plug-In . SVG Version: 6.00 Build 0)  -->
<svg version="1.1" id="Capa_1" xmlns="http://www.w3.org/2000/svg" xmlns:xlink="http://www.w3.org/1999/xlink" x="0px" y="0px"
	 viewBox="0 0 50 50" style="enable-background:new 0 0 50 50;" xml:space="preserve">
<style type="text/css">
	.st0{fill:#A1A1AA;}
</style>
<path class="st0" d="M20.9,22c0.7,0.1,1.3,0.5,1.7,0.8c-0.4,0.3-1,0.7-1.7,0.8c0.3-0.1,0.5-0.4,0.5-0.8S21.2,22.1,20.9,22z
	 M28.2,22.8c0-0.4,0.2-0.7,0.5-0.8c-0.7,0.1-1.3,0.5-1.7,0.8c0.4,0.3,1,0.7,1.7,0.8C28.4,23.4,28.2,23.1,28.2,22.8z M34.4,30.4l-4,4
	c-3,3-7.8,3-10.7,0l-4-4c-3-3-3-7.8,0-10.7l4-4c3-3,7.8-3,10.7,0l4,4C37.4,22.6,37.4,27.4,34.4,30.4z M17.2,21.7
	c0.2-0.3,0.4-0.6,0.6-0.9c0.1-0.1,0.1-0.1,0.2-0.2s0.1-0.1,0.2-0.2s0.1-0.1,0.2-0.2l0.1-0.1h0.1c0,0,0,0,0.1,0l0.1-0.1h0.1l0,0l0,0
	l0.1-0.1h0.1l0,0l0,0h0.1h0.1l0,0l0,0h0.1h0.1l0,0l0,0c0.3-0.1,0.7-0.1,1-0.1s0.7,0.1,1,0.2s0.6,0.3,0.9,0.4
	c0.3,0.2,0.5,0.4,0.7,0.7c0.2,0.2,0.3,0.5,0.5,0.8l-0.1,0.8l-0.2,0.8c-0.1,0.3-0.1,0.6-0.2,0.8c-0.1,0.3-0.1,0.6-0.2,0.8l-0.2,0.8
	l-0.1,0.8l-0.1,0.8c0,0.3-0.1,0.6-0.1,0.8v0.2h0.2c0.3,0,0.6,0,1,0c0.3,0,0.6,0,1,0c0.3,0,0.6,0,1,0h1h0.1v-0.1
	c0.1-0.1,0.1-0.3,0.2-0.4l0.2-0.4c0.1-0.1,0.1-0.3,0.2-0.4s0.1-0.3,0.2-0.4C27,27,27,27.2,26.9,27.3c-0.1,0.1-0.1,0.3-0.2,0.4
	l-0.2,0.4c-0.1,0.1-0.1,0.2-0.2,0.3h-0.9c-0.3,0-0.6,0-1,0c-0.3,0-0.6,0-1,0c-0.2,0-0.5,0-0.7,0c0-0.2,0.1-0.4,0.1-0.6L23,27
	l0.2-0.8l0.2-0.8c0.1-0.3,0.1-0.6,0.2-0.8c0.1-0.3,0.1-0.6,0.2-0.8L24,23l0.2-0.8v-0.1V22c-0.1-0.3-0.3-0.7-0.6-1
	c-0.2-0.3-0.5-0.5-0.8-0.7s-0.7-0.4-1-0.5c-0.4-0.1-0.7-0.1-1.1-0.1s-0.7,0.1-1.1,0.2l0,0l0,0h-0.1L19.4,20l0,0l0,0h-0.1l-0.1,0.1
	l0,0l0,0h-0.1L19,20.2l0,0l0,0h-0.1L18.4,20c0,0,0,0-0.1,0h-0.1l-0.1,0.1c-0.1,0.1-0.1,0.1-0.2,0.2s-0.1,0.1-0.2,0.2
	s-0.1,0.1-0.2,0.2C17.4,21.1,17.3,21.4,17.2,21.7z M20.5,24.1c1.6,0,2.8-1.4,2.8-1.4s-1.2-1.4-2.8-1.4s-2.8,1.4-2.8,1.4
	S18.9,24.1,20.5,24.1z M28.2,29.9h-6.9c0.8,1,2.1,1.6,3.5,1.6S27.4,30.9,28.2,29.9z M31.9,22.8c0,0-1.2-1.4-2.8-1.4
	c-1.6,0-2.8,1.4-2.8,1.4s1.2,1.4,2.8,1.4C30.7,24.1,31.9,22.8,31.9,22.8z M32.5,21.7c-0.1-0.3-0.2-0.7-0.4-1s-0.5-0.6-0.8-0.8
	c-0.3-0.2-0.6-0.4-1-0.5h-0.1h-0.1c0,0,0,0-0.1,0s-0.2,0-0.3-0.1c-0.1,0-0.2,0-0.3,0h-0.3h-0.3c-0.1,0-0.2,0-0.3,0
	c-0.1,0-0.2,0-0.3,0.1c0,0,0,0-0.1,0H28h-0.1c-0.4,0.1-0.7,0.3-1,0.5s-0.6,0.5-0.8,0.8c-0.2,0.3-0.4,0.6-0.4,1
	c0.1-0.1,0.1-0.2,0.1-0.2l0.2-0.2l0.2-0.2c0.1-0.1,0.1-0.1,0.2-0.2c0.2-0.2,0.5-0.5,0.8-0.6c0.6-0.3,1.2-0.5,1.9-0.5
	c0.7,0,1.3,0.2,1.9,0.5c0.3,0.2,0.6,0.4,0.8,0.6C32.1,21.2,32.3,21.4,32.5,21.7z M30,22.8c0,0.4-0.2,0.7-0.5,0.8
	c0.7-0.1,1.3-0.5,1.7-0.8c-0.4-0.3-1-0.7-1.7-0.8C29.8,22.1,30,22.4,30,22.8z M19.6,22.8c0-0.4,0.2-0.7,0.5-0.8
	c-0.7,0.1-1.3,0.5-1.7,0.8c0.4,0.3,1,0.7,1.7,0.8C19.8,23.4,19.6,23.1,19.6,22.8z"/>
</svg>
