<?xml version="1.0" encoding="utf-8"?>
<!-- Generator: Adobe Illustrator 25.4.1, SVG Export Plug-In . SVG Version: 6.00 Build 0)  -->
<svg version="1.1" id="Capa_1" xmlns="http://www.w3.org/2000/svg" xmlns:xlink="http://www.w3.org/1999/xlink" x="0px" y="0px"
	 viewBox="0 0 50 50" style="enable-background:new 0 0 50 50;" xml:space="preserve">
<style type="text/css">
	.st0{fill:#A1A1AA;}
</style>
<path class="st0" d="M44.4,31.3c-3.5-3.5-4.9-7.7,0-12.6l0,0l0,0l5.5-6.1l-6,5.4l0,0l0,0c-4.7,4.7-8.9,3.6-12.3,0.4
	C28.4,15,27.2,10.9,32,6.1l0,0l0,0L37.5,0l-6.1,5.5l0,0l0,0c-4.9,4.9-9.2,3.5-12.6,0l0,0L12.5,0l5.6,6.2l0,0
	c3.4,3.4,4.8,7.5,0.4,12.3c-4.7,4.5-8.9,3-12.3-0.4l0,0L0,12.5l5.6,6.2l0,0c3.5,3.5,4.9,7.7,0,12.6l0,0l0,0L0,37.5L6.1,32l0,0l0,0
	c4.7-4.7,8.9-3.6,12.3-0.4c3.2,3.4,4.4,7.5-0.4,12.3l0,0l0,0L12.5,50l6.1-5.5l0,0l0,0c4.9-4.9,9.2-3.5,12.6,0l0,0l6.2,5.6l-5.6-6.2
	l0,0c-3.4-3.4-4.8-7.5-0.4-12.3c4.7-4.5,8.9-3,12.3,0.4l0,0l6.2,5.6L44.4,31.3L44.4,31.3z M32.6,20.7c2.4,2.4,2.4,6.3,0,8.7
	l-3.3,3.3c-2.4,2.4-6.3,2.4-8.7,0l-3.3-3.3c-2.4-2.4-2.4-6.3,0-8.7l3.3-3.3c2.4-2.4,6.3-2.4,8.7,0L32.6,20.7z"/>
</svg>
