<?xml version="1.0" encoding="utf-8"?>
<!-- Generator: Adobe Illustrator 25.4.1, SVG Export Plug-In . SVG Version: 6.00 Build 0)  -->
<svg version="1.1" id="Capa_1" xmlns="http://www.w3.org/2000/svg" xmlns:xlink="http://www.w3.org/1999/xlink" x="0px" y="0px"
	 viewBox="0 0 50 50" style="enable-background:new 0 0 50 50;" xml:space="preserve">
<style type="text/css">
	.st0{fill:none;stroke:#00FFFF;stroke-width:0.25;stroke-miterlimit:10;}
</style>
<g>
	<line class="st0" x1="37.5" y1="0" x2="0" y2="37.5"/>
	<line class="st0" x1="50" y1="12.5" x2="12.5" y2="50"/>
	<line class="st0" x1="50" y1="37.5" x2="12.5" y2="0"/>
	<line class="st0" x1="37.5" y1="50" x2="0" y2="12.5"/>
</g>
<g>
	<path class="st0" d="M30.8-5.9c3.2,3.2,3.2,8.4,0,11.6C27.6,9,22.4,9,19.2,5.8s-3.2-8.4,0-11.6C22.4-9.1,27.6-9.1,30.8-5.9"/>
	<path class="st0" d="M18.3,6.7c3.2,3.2,3.2,8.4,0,11.6s-8.4,3.2-11.6,0s-3.2-8.4,0-11.6C9.9,3.4,15.1,3.4,18.3,6.7"/>
	<path class="st0" d="M43.3,6.7c3.2,3.2,3.2,8.4,0,11.6s-8.4,3.2-11.6,0s-3.2-8.4,0-11.6C34.9,3.4,40.1,3.4,43.3,6.7"/>
	<path class="st0" d="M30.8,19.2c3.2,3.2,3.2,8.4,0,11.6s-8.4,3.2-11.6,0s-3.2-8.4,0-11.6S27.6,16,30.8,19.2"/>
	<path class="st0" d="M18.3,31.7c3.2,3.2,3.2,8.4,0,11.6c-3.2,3.2-8.4,3.2-11.6,0s-3.2-8.4,0-11.6C9.9,28.5,15.1,28.5,18.3,31.7"/>
	<path class="st0" d="M5.8,19.2c3.2,3.2,3.2,8.4,0,11.6s-8.5,3.2-11.7,0s-3.2-8.4,0-11.6S2.6,16,5.8,19.2"/>
	<path class="st0" d="M43.3,31.7c3.2,3.2,3.2,8.4,0,11.6c-3.2,3.2-8.4,3.2-11.6,0s-3.2-8.4,0-11.6C34.9,28.5,40.1,28.5,43.3,31.7"/>
	<path class="st0" d="M55.9,19.2c3.2,3.2,3.2,8.4,0,11.6s-8.4,3.2-11.6,0s-3.2-8.4,0-11.6C47.4,16,52.7,16,55.9,19.2"/>
	<path class="st0" d="M30.8,44.2c3.2,3.2,3.2,8.4,0,11.6c-3.2,3.2-8.4,3.2-11.6,0s-3.2-8.4,0-11.6C22.4,41,27.6,41,30.8,44.2"/>
</g>
</svg>
